<svg xmlns="http://www.w3.org/2000/svg" xmlns:xlink="http://www.w3.org/1999/xlink" width="1024" zoomAndPan="magnify" viewBox="0 0 768 576" height="768" preserveAspectRatio="xMidYMid meet" version="1.0"><defs><filter x="0%" y="0%" width="100%" height="100%" id="417e16a417"><feColorMatrix values="0 0 0 0 1 0 0 0 0 1 0 0 0 0 1 0 0 0 1 0" color-interpolation-filters="sRGB"/></filter><g/><mask id="93ac0deaa7"><g filter="url(#417e16a417)"><rect x="-76.8" width="921.6" fill="#000000" y="-57.6" height="691.2" fill-opacity="0.75"/></g></mask><clipPath id="798dbb7728"><path d="M 0.265625 0.636719 L 263.640625 0.636719 L 263.640625 264.011719 L 0.265625 264.011719 Z M 0.265625 0.636719 " clip-rule="nonzero"/></clipPath><clipPath id="5de296fb7a"><path d="M 131.953125 0.636719 C 59.222656 0.636719 0.265625 59.597656 0.265625 132.324219 C 0.265625 205.054688 59.222656 264.011719 131.953125 264.011719 C 204.679688 264.011719 263.640625 205.054688 263.640625 132.324219 C 263.640625 59.597656 204.679688 0.636719 131.953125 0.636719 Z M 131.953125 0.636719 " clip-rule="nonzero"/></clipPath><clipPath id="ee42bbb27e"><rect x="0" width="264" y="0" height="265"/></clipPath><mask id="da18acf9fd"><g filter="url(#417e16a417)"><rect x="-76.8" width="921.6" fill="#000000" y="-57.6" height="691.2" fill-opacity="0.75"/></g></mask><clipPath id="107a410463"><path d="M 0.359375 0.636719 L 263.734375 0.636719 L 263.734375 264.011719 L 0.359375 264.011719 Z M 0.359375 0.636719 " clip-rule="nonzero"/></clipPath><clipPath id="feffff9b61"><path d="M 132.046875 0.636719 C 59.320312 0.636719 0.359375 59.597656 0.359375 132.324219 C 0.359375 205.054688 59.320312 264.011719 132.046875 264.011719 C 204.777344 264.011719 263.734375 205.054688 263.734375 132.324219 C 263.734375 59.597656 204.777344 0.636719 132.046875 0.636719 Z M 132.046875 0.636719 " clip-rule="nonzero"/></clipPath><clipPath id="ba4c4c0616"><rect x="0" width="264" y="0" height="265"/></clipPath><mask id="5a505f1eec"><g filter="url(#417e16a417)"><rect x="-76.8" width="921.6" fill="#000000" y="-57.6" height="691.2" fill-opacity="0.75"/></g></mask><clipPath id="2815510c75"><path d="M 0.3125 0.988281 L 263.6875 0.988281 L 263.6875 264.363281 L 0.3125 264.363281 Z M 0.3125 0.988281 " clip-rule="nonzero"/></clipPath><clipPath id="c0a9c705b7"><path d="M 132 0.988281 C 59.269531 0.988281 0.3125 59.945312 0.3125 132.675781 C 0.3125 205.402344 59.269531 264.363281 132 264.363281 C 204.730469 264.363281 263.6875 205.402344 263.6875 132.675781 C 263.6875 59.945312 204.730469 0.988281 132 0.988281 Z M 132 0.988281 " clip-rule="nonzero"/></clipPath><clipPath id="8a19b04baa"><rect x="0" width="264" y="0" height="265"/></clipPath></defs><g mask="url(#93ac0deaa7)"><g transform="matrix(1, 0, 0, 1, 155, 76)"><g clip-path="url(#ee42bbb27e)"><g clip-path="url(#798dbb7728)"><g clip-path="url(#5de296fb7a)"><path fill="#00bf63" d="M 0.265625 0.636719 L 263.640625 0.636719 L 263.640625 264.011719 L 0.265625 264.011719 Z M 0.265625 0.636719 " fill-opacity="1" fill-rule="nonzero"/></g></g></g></g></g><g mask="url(#da18acf9fd)"><g transform="matrix(1, 0, 0, 1, 349, 76)"><g clip-path="url(#ba4c4c0616)"><g clip-path="url(#107a410463)"><g clip-path="url(#feffff9b61)"><path fill="#2f7fc1" d="M 0.359375 0.636719 L 263.734375 0.636719 L 263.734375 264.011719 L 0.359375 264.011719 Z M 0.359375 0.636719 " fill-opacity="1" fill-rule="nonzero"/></g></g></g></g></g><g mask="url(#5a505f1eec)"><g transform="matrix(1, 0, 0, 1, 252, 235)"><g clip-path="url(#8a19b04baa)"><g clip-path="url(#2815510c75)"><g clip-path="url(#c0a9c705b7)"><path fill="#ffbd59" d="M 0.3125 0.988281 L 263.6875 0.988281 L 263.6875 264.363281 L 0.3125 264.363281 Z M 0.3125 0.988281 " fill-opacity="1" fill-rule="nonzero"/></g></g></g></g></g><g fill="#000000" fill-opacity="1"><g transform="translate(318.22604, 406.867263)"><g><path d="M 11.234375 -21.75 C 12.785156 -21.75 14.113281 -21.460938 15.21875 -20.890625 C 16.332031 -20.328125 17.171875 -19.53125 17.734375 -18.5 C 18.296875 -17.46875 18.578125 -16.273438 18.578125 -14.921875 C 18.578125 -13.566406 18.296875 -12.375 17.734375 -11.34375 C 17.171875 -10.320312 16.332031 -9.523438 15.21875 -8.953125 C 14.113281 -8.390625 12.785156 -8.109375 11.234375 -8.109375 L 7.125 -8.109375 L 7.125 0 L 2.828125 0 L 2.828125 -21.75 Z M 10.671875 -11.515625 C 13.054688 -11.515625 14.25 -12.648438 14.25 -14.921875 C 14.25 -17.203125 13.054688 -18.34375 10.671875 -18.34375 L 7.125 -18.34375 L 7.125 -11.515625 Z M 10.671875 -11.515625 "/></g></g></g><g fill="#000000" fill-opacity="1"><g transform="translate(338.103759, 406.867263)"><g><path d="M 6.390625 0.3125 C 5.335938 0.3125 4.425781 0.117188 3.65625 -0.265625 C 2.882812 -0.648438 2.289062 -1.21875 1.875 -1.96875 C 1.457031 -2.71875 1.25 -3.617188 1.25 -4.671875 C 1.25 -5.640625 1.457031 -6.453125 1.875 -7.109375 C 2.289062 -7.773438 2.9375 -8.316406 3.8125 -8.734375 C 4.6875 -9.160156 5.828125 -9.488281 7.234375 -9.71875 C 8.210938 -9.875 8.957031 -10.046875 9.46875 -10.234375 C 9.976562 -10.421875 10.320312 -10.632812 10.5 -10.875 C 10.675781 -11.113281 10.765625 -11.414062 10.765625 -11.78125 C 10.765625 -12.3125 10.582031 -12.710938 10.21875 -12.984375 C 9.851562 -13.265625 9.242188 -13.40625 8.390625 -13.40625 C 7.472656 -13.40625 6.601562 -13.203125 5.78125 -12.796875 C 4.957031 -12.390625 4.242188 -11.851562 3.640625 -11.1875 L 3.34375 -11.1875 L 1.625 -13.796875 C 2.457031 -14.710938 3.472656 -15.425781 4.671875 -15.9375 C 5.867188 -16.457031 7.175781 -16.71875 8.59375 -16.71875 C 10.769531 -16.71875 12.34375 -16.253906 13.3125 -15.328125 C 14.28125 -14.410156 14.765625 -13.101562 14.765625 -11.40625 L 14.765625 -4.28125 C 14.765625 -3.550781 15.085938 -3.1875 15.734375 -3.1875 C 15.984375 -3.1875 16.226562 -3.226562 16.46875 -3.3125 L 16.671875 -3.265625 L 16.96875 -0.390625 C 16.75 -0.234375 16.429688 -0.109375 16.015625 -0.015625 C 15.609375 0.078125 15.164062 0.125 14.6875 0.125 C 13.707031 0.125 12.941406 -0.0625 12.390625 -0.4375 C 11.835938 -0.820312 11.441406 -1.414062 11.203125 -2.21875 L 10.890625 -2.25 C 10.085938 -0.539062 8.585938 0.3125 6.390625 0.3125 Z M 7.703125 -2.765625 C 8.660156 -2.765625 9.421875 -3.082031 9.984375 -3.71875 C 10.554688 -4.363281 10.84375 -5.253906 10.84375 -6.390625 L 10.84375 -8.0625 L 10.5625 -8.125 C 10.3125 -7.925781 9.984375 -7.757812 9.578125 -7.625 C 9.179688 -7.488281 8.609375 -7.359375 7.859375 -7.234375 C 6.960938 -7.078125 6.316406 -6.816406 5.921875 -6.453125 C 5.535156 -6.097656 5.34375 -5.585938 5.34375 -4.921875 C 5.34375 -4.222656 5.550781 -3.6875 5.96875 -3.3125 C 6.382812 -2.945312 6.960938 -2.765625 7.703125 -2.765625 Z M 7.703125 -2.765625 "/></g></g></g><g fill="#000000" fill-opacity="1"><g transform="translate(355.407492, 406.867263)"><g><path d="M 2.359375 0 L 2.359375 -16.40625 L 6.375 -16.40625 L 6.375 -13.96875 L 6.6875 -13.90625 C 7.082031 -14.820312 7.597656 -15.492188 8.234375 -15.921875 C 8.878906 -16.347656 9.664062 -16.5625 10.59375 -16.5625 C 11.519531 -16.5625 12.226562 -16.398438 12.71875 -16.078125 L 12.015625 -12.53125 L 11.703125 -12.46875 C 11.441406 -12.570312 11.1875 -12.648438 10.9375 -12.703125 C 10.6875 -12.753906 10.382812 -12.78125 10.03125 -12.78125 C 8.875 -12.78125 7.992188 -12.375 7.390625 -11.5625 C 6.785156 -10.757812 6.484375 -9.460938 6.484375 -7.671875 L 6.484375 0 Z M 2.359375 0 "/></g></g></g><g fill="#000000" fill-opacity="1"><g transform="translate(368.277422, 406.867263)"><g><path d="M 11.328125 -3.90625 L 12.390625 -0.859375 C 11.941406 -0.492188 11.378906 -0.207031 10.703125 0 C 10.035156 0.207031 9.273438 0.3125 8.421875 0.3125 C 6.640625 0.3125 5.285156 -0.171875 4.359375 -1.140625 C 3.441406 -2.109375 2.984375 -3.515625 2.984375 -5.359375 L 2.984375 -13.15625 L 0.484375 -13.15625 L 0.484375 -16.421875 L 2.984375 -16.421875 L 2.984375 -19.625 L 7.109375 -20.296875 L 7.109375 -16.421875 L 11.765625 -16.421875 L 11.765625 -13.15625 L 7.109375 -13.15625 L 7.109375 -5.65625 C 7.109375 -4.84375 7.273438 -4.25 7.609375 -3.875 C 7.953125 -3.5 8.445312 -3.3125 9.09375 -3.3125 C 9.820312 -3.3125 10.460938 -3.507812 11.015625 -3.90625 Z M 11.328125 -3.90625 "/></g></g></g><g fill="#000000" fill-opacity="1"><g transform="translate(381.028324, 406.867263)"><g><path d="M 4.421875 -18.375 C 3.671875 -18.375 3.0625 -18.597656 2.59375 -19.046875 C 2.132812 -19.503906 1.90625 -20.085938 1.90625 -20.796875 C 1.90625 -21.503906 2.132812 -22.082031 2.59375 -22.53125 C 3.0625 -22.976562 3.671875 -23.203125 4.421875 -23.203125 C 4.910156 -23.203125 5.347656 -23.097656 5.734375 -22.890625 C 6.128906 -22.679688 6.429688 -22.394531 6.640625 -22.03125 C 6.859375 -21.675781 6.96875 -21.265625 6.96875 -20.796875 C 6.96875 -20.328125 6.859375 -19.910156 6.640625 -19.546875 C 6.429688 -19.179688 6.128906 -18.894531 5.734375 -18.6875 C 5.347656 -18.476562 4.910156 -18.375 4.421875 -18.375 Z M 2.359375 0 L 2.359375 -16.40625 L 6.484375 -16.40625 L 6.484375 0 Z M 2.359375 0 "/></g></g></g><g fill="#000000" fill-opacity="1"><g transform="translate(389.866172, 406.867263)"><g><path d="M 11.328125 -3.90625 L 12.390625 -0.859375 C 11.941406 -0.492188 11.378906 -0.207031 10.703125 0 C 10.035156 0.207031 9.273438 0.3125 8.421875 0.3125 C 6.640625 0.3125 5.285156 -0.171875 4.359375 -1.140625 C 3.441406 -2.109375 2.984375 -3.515625 2.984375 -5.359375 L 2.984375 -13.15625 L 0.484375 -13.15625 L 0.484375 -16.421875 L 2.984375 -16.421875 L 2.984375 -19.625 L 7.109375 -20.296875 L 7.109375 -16.421875 L 11.765625 -16.421875 L 11.765625 -13.15625 L 7.109375 -13.15625 L 7.109375 -5.65625 C 7.109375 -4.84375 7.273438 -4.25 7.609375 -3.875 C 7.953125 -3.5 8.445312 -3.3125 9.09375 -3.3125 C 9.820312 -3.3125 10.460938 -3.507812 11.015625 -3.90625 Z M 11.328125 -3.90625 "/></g></g></g><g fill="#000000" fill-opacity="1"><g transform="translate(402.617074, 406.867263)"><g><path d="M 4.421875 -18.375 C 3.671875 -18.375 3.0625 -18.597656 2.59375 -19.046875 C 2.132812 -19.503906 1.90625 -20.085938 1.90625 -20.796875 C 1.90625 -21.503906 2.132812 -22.082031 2.59375 -22.53125 C 3.0625 -22.976562 3.671875 -23.203125 4.421875 -23.203125 C 4.910156 -23.203125 5.347656 -23.097656 5.734375 -22.890625 C 6.128906 -22.679688 6.429688 -22.394531 6.640625 -22.03125 C 6.859375 -21.675781 6.96875 -21.265625 6.96875 -20.796875 C 6.96875 -20.328125 6.859375 -19.910156 6.640625 -19.546875 C 6.429688 -19.179688 6.128906 -18.894531 5.734375 -18.6875 C 5.347656 -18.476562 4.910156 -18.375 4.421875 -18.375 Z M 2.359375 0 L 2.359375 -16.40625 L 6.484375 -16.40625 L 6.484375 0 Z M 2.359375 0 "/></g></g></g><g fill="#000000" fill-opacity="1"><g transform="translate(411.454922, 406.867263)"><g><path d="M 9.53125 0.3125 C 7.925781 0.3125 6.515625 -0.015625 5.296875 -0.671875 C 4.085938 -1.335938 3.144531 -2.304688 2.46875 -3.578125 C 1.800781 -4.847656 1.46875 -6.390625 1.46875 -8.203125 C 1.46875 -10.003906 1.800781 -11.546875 2.46875 -12.828125 C 3.144531 -14.109375 4.085938 -15.078125 5.296875 -15.734375 C 6.515625 -16.390625 7.925781 -16.71875 9.53125 -16.71875 C 11.144531 -16.71875 12.554688 -16.390625 13.765625 -15.734375 C 14.984375 -15.078125 15.925781 -14.109375 16.59375 -12.828125 C 17.269531 -11.546875 17.609375 -10.003906 17.609375 -8.203125 C 17.609375 -6.390625 17.269531 -4.847656 16.59375 -3.578125 C 15.925781 -2.304688 14.984375 -1.335938 13.765625 -0.671875 C 12.554688 -0.015625 11.144531 0.3125 9.53125 0.3125 Z M 9.53125 -3.1875 C 12.082031 -3.1875 13.359375 -4.859375 13.359375 -8.203125 C 13.359375 -9.929688 13.03125 -11.195312 12.375 -12 C 11.71875 -12.8125 10.769531 -13.21875 9.53125 -13.21875 C 6.988281 -13.21875 5.71875 -11.546875 5.71875 -8.203125 C 5.71875 -4.859375 6.988281 -3.1875 9.53125 -3.1875 Z M 9.53125 -3.1875 "/></g></g></g><g fill="#000000" fill-opacity="1"><g transform="translate(430.5292, 406.867263)"><g><path d="M 2.359375 0 L 2.359375 -16.40625 L 6.328125 -16.40625 L 6.328125 -14 L 6.640625 -13.921875 C 7.660156 -15.785156 9.316406 -16.71875 11.609375 -16.71875 C 13.503906 -16.71875 14.894531 -16.203125 15.78125 -15.171875 C 16.664062 -14.140625 17.109375 -12.640625 17.109375 -10.671875 L 17.109375 0 L 12.984375 0 L 12.984375 -10.15625 C 12.984375 -11.25 12.765625 -12.035156 12.328125 -12.515625 C 11.890625 -12.992188 11.191406 -13.234375 10.234375 -13.234375 C 9.054688 -13.234375 8.132812 -12.851562 7.46875 -12.09375 C 6.8125 -11.332031 6.484375 -10.132812 6.484375 -8.5 L 6.484375 0 Z M 2.359375 0 "/></g></g></g><g fill="#000000" fill-opacity="1"><g transform="translate(324.566772, 442.303914)"><g><path d="M 13.953125 -17.40625 L 13.953125 -14.515625 L 8.921875 -14.515625 L 8.921875 0 L 5.5 0 L 5.5 -14.515625 L 0.46875 -14.515625 L 0.46875 -17.40625 Z M 13.953125 -17.40625 "/></g></g></g><g fill="#000000" fill-opacity="1"><g transform="translate(338.995111, 442.303914)"><g><path d="M 7.625 0.25 C 6.34375 0.25 5.210938 -0.0078125 4.234375 -0.53125 C 3.265625 -1.0625 2.507812 -1.835938 1.96875 -2.859375 C 1.4375 -3.878906 1.171875 -5.113281 1.171875 -6.5625 C 1.171875 -8 1.4375 -9.226562 1.96875 -10.25 C 2.507812 -11.28125 3.265625 -12.054688 4.234375 -12.578125 C 5.210938 -13.109375 6.34375 -13.375 7.625 -13.375 C 8.914062 -13.375 10.046875 -13.109375 11.015625 -12.578125 C 11.984375 -12.054688 12.738281 -11.28125 13.28125 -10.25 C 13.820312 -9.226562 14.09375 -8 14.09375 -6.5625 C 14.09375 -5.113281 13.820312 -3.878906 13.28125 -2.859375 C 12.738281 -1.835938 11.984375 -1.0625 11.015625 -0.53125 C 10.046875 -0.0078125 8.914062 0.25 7.625 0.25 Z M 7.625 -2.546875 C 9.664062 -2.546875 10.6875 -3.882812 10.6875 -6.5625 C 10.6875 -7.945312 10.421875 -8.960938 9.890625 -9.609375 C 9.367188 -10.253906 8.613281 -10.578125 7.625 -10.578125 C 5.59375 -10.578125 4.578125 -9.238281 4.578125 -6.5625 C 4.578125 -3.882812 5.59375 -2.546875 7.625 -2.546875 Z M 7.625 -2.546875 "/></g></g></g><g fill="#000000" fill-opacity="1"><g transform="translate(354.256769, 442.303914)"><g><path d="M 5.453125 0.25 C 4.265625 0.25 3.359375 -0.0664062 2.734375 -0.703125 C 2.117188 -1.347656 1.8125 -2.320312 1.8125 -3.625 L 1.8125 -18.40625 L 5.109375 -18.40625 L 5.109375 -3.75 C 5.109375 -2.945312 5.441406 -2.546875 6.109375 -2.546875 C 6.296875 -2.546875 6.5 -2.578125 6.71875 -2.640625 L 6.875 -2.59375 L 7.171875 -0.0625 C 6.992188 0.03125 6.753906 0.101562 6.453125 0.15625 C 6.148438 0.21875 5.816406 0.25 5.453125 0.25 Z M 5.453125 0.25 "/></g></g></g><g fill="#000000" fill-opacity="1"><g transform="translate(361.804266, 442.303914)"><g><path d="M 12.96875 -5.8125 L 4.53125 -5.8125 C 4.625 -4.675781 4.945312 -3.847656 5.5 -3.328125 C 6.0625 -2.804688 6.820312 -2.546875 7.78125 -2.546875 C 8.539062 -2.546875 9.148438 -2.6875 9.609375 -2.96875 C 10.078125 -3.25 10.457031 -3.675781 10.75 -4.25 L 11 -4.25 L 13.1875 -2.84375 C 12.757812 -1.925781 12.113281 -1.179688 11.25 -0.609375 C 10.382812 -0.0351562 9.226562 0.25 7.78125 0.25 C 6.425781 0.25 5.253906 -0.00390625 4.265625 -0.515625 C 3.273438 -1.035156 2.507812 -1.804688 1.96875 -2.828125 C 1.4375 -3.847656 1.171875 -5.09375 1.171875 -6.5625 C 1.171875 -8.050781 1.453125 -9.304688 2.015625 -10.328125 C 2.585938 -11.347656 3.351562 -12.109375 4.3125 -12.609375 C 5.269531 -13.117188 6.347656 -13.375 7.546875 -13.375 C 9.398438 -13.375 10.820312 -12.878906 11.8125 -11.890625 C 12.800781 -10.910156 13.296875 -9.46875 13.296875 -7.5625 C 13.296875 -6.875 13.269531 -6.34375 13.21875 -5.96875 Z M 10.140625 -7.953125 C 10.109375 -8.953125 9.875 -9.675781 9.4375 -10.125 C 9.007812 -10.582031 8.378906 -10.8125 7.546875 -10.8125 C 5.878906 -10.8125 4.898438 -9.859375 4.609375 -7.953125 Z M 10.140625 -7.953125 "/></g></g></g><g fill="#000000" fill-opacity="1"><g transform="translate(376.077854, 442.303914)"><g><path d="M 1.890625 0 L 1.890625 -13.125 L 5.09375 -13.125 L 5.09375 -11.171875 L 5.34375 -11.125 C 5.65625 -11.851562 6.070312 -12.390625 6.59375 -12.734375 C 7.113281 -13.078125 7.738281 -13.25 8.46875 -13.25 C 9.21875 -13.25 9.785156 -13.117188 10.171875 -12.859375 L 9.609375 -10.015625 L 9.359375 -9.96875 C 9.148438 -10.0625 8.945312 -10.125 8.75 -10.15625 C 8.550781 -10.195312 8.304688 -10.21875 8.015625 -10.21875 C 7.097656 -10.21875 6.394531 -9.894531 5.90625 -9.25 C 5.425781 -8.601562 5.1875 -7.566406 5.1875 -6.140625 L 5.1875 0 Z M 1.890625 0 "/></g></g></g><g fill="#000000" fill-opacity="1"><g transform="translate(386.375316, 442.303914)"><g><path d="M 5.125 0.25 C 4.28125 0.25 3.546875 0.0976562 2.921875 -0.203125 C 2.304688 -0.515625 1.832031 -0.96875 1.5 -1.5625 C 1.164062 -2.164062 1 -2.890625 1 -3.734375 C 1 -4.515625 1.164062 -5.164062 1.5 -5.6875 C 1.832031 -6.21875 2.347656 -6.648438 3.046875 -6.984375 C 3.742188 -7.328125 4.65625 -7.585938 5.78125 -7.765625 C 6.570312 -7.898438 7.171875 -8.039062 7.578125 -8.1875 C 7.984375 -8.34375 8.253906 -8.515625 8.390625 -8.703125 C 8.535156 -8.890625 8.609375 -9.128906 8.609375 -9.421875 C 8.609375 -9.847656 8.460938 -10.171875 8.171875 -10.390625 C 7.878906 -10.609375 7.394531 -10.71875 6.71875 -10.71875 C 5.988281 -10.71875 5.289062 -10.554688 4.625 -10.234375 C 3.96875 -9.910156 3.398438 -9.484375 2.921875 -8.953125 L 2.671875 -8.953125 L 1.296875 -11.03125 C 1.960938 -11.769531 2.773438 -12.34375 3.734375 -12.75 C 4.691406 -13.164062 5.738281 -13.375 6.875 -13.375 C 8.613281 -13.375 9.867188 -13.003906 10.640625 -12.265625 C 11.421875 -11.523438 11.8125 -10.476562 11.8125 -9.125 L 11.8125 -3.421875 C 11.8125 -2.835938 12.070312 -2.546875 12.59375 -2.546875 C 12.789062 -2.546875 12.984375 -2.582031 13.171875 -2.65625 L 13.34375 -2.609375 L 13.578125 -0.3125 C 13.398438 -0.1875 13.144531 -0.0859375 12.8125 -0.015625 C 12.488281 0.0546875 12.132812 0.09375 11.75 0.09375 C 10.957031 0.09375 10.34375 -0.0546875 9.90625 -0.359375 C 9.46875 -0.660156 9.15625 -1.128906 8.96875 -1.765625 L 8.71875 -1.796875 C 8.070312 -0.429688 6.875 0.25 5.125 0.25 Z M 6.171875 -2.21875 C 6.929688 -2.21875 7.535156 -2.472656 7.984375 -2.984375 C 8.441406 -3.492188 8.671875 -4.207031 8.671875 -5.125 L 8.671875 -6.453125 L 8.453125 -6.5 C 8.253906 -6.34375 7.992188 -6.207031 7.671875 -6.09375 C 7.347656 -5.988281 6.882812 -5.882812 6.28125 -5.78125 C 5.570312 -5.664062 5.054688 -5.460938 4.734375 -5.171875 C 4.421875 -4.878906 4.265625 -4.46875 4.265625 -3.9375 C 4.265625 -3.375 4.429688 -2.945312 4.765625 -2.65625 C 5.097656 -2.363281 5.566406 -2.21875 6.171875 -2.21875 Z M 6.171875 -2.21875 "/></g></g></g><g fill="#000000" fill-opacity="1"><g transform="translate(400.22034, 442.303914)"><g><path d="M 1.890625 0 L 1.890625 -13.125 L 5.0625 -13.125 L 5.0625 -11.203125 L 5.3125 -11.140625 C 6.125 -12.628906 7.445312 -13.375 9.28125 -13.375 C 10.800781 -13.375 11.914062 -12.960938 12.625 -12.140625 C 13.332031 -11.316406 13.6875 -10.113281 13.6875 -8.53125 L 13.6875 0 L 10.390625 0 L 10.390625 -8.125 C 10.390625 -9 10.210938 -9.628906 9.859375 -10.015625 C 9.515625 -10.398438 8.957031 -10.59375 8.1875 -10.59375 C 7.238281 -10.59375 6.5 -10.285156 5.96875 -9.671875 C 5.445312 -9.066406 5.1875 -8.109375 5.1875 -6.796875 L 5.1875 0 Z M 1.890625 0 "/></g></g></g><g fill="#000000" fill-opacity="1"><g transform="translate(415.601044, 442.303914)"><g><path d="M 7.65625 0.25 C 6.382812 0.25 5.257812 -0.0078125 4.28125 -0.53125 C 3.3125 -1.0625 2.550781 -1.835938 2 -2.859375 C 1.445312 -3.890625 1.171875 -5.125 1.171875 -6.5625 C 1.171875 -8 1.445312 -9.226562 2 -10.25 C 2.550781 -11.28125 3.304688 -12.054688 4.265625 -12.578125 C 5.234375 -13.109375 6.34375 -13.375 7.59375 -13.375 C 10.363281 -13.375 12.132812 -12.367188 12.90625 -10.359375 L 10.65625 -8.75 L 10.40625 -8.75 C 10.132812 -9.363281 9.78125 -9.820312 9.34375 -10.125 C 8.914062 -10.425781 8.332031 -10.578125 7.59375 -10.578125 C 6.644531 -10.578125 5.90625 -10.25 5.375 -9.59375 C 4.84375 -8.9375 4.578125 -7.925781 4.578125 -6.5625 C 4.578125 -5.207031 4.84375 -4.195312 5.375 -3.53125 C 5.914062 -2.875 6.675781 -2.546875 7.65625 -2.546875 C 8.363281 -2.546875 8.96875 -2.738281 9.46875 -3.125 C 9.96875 -3.507812 10.320312 -4.0625 10.53125 -4.78125 L 10.78125 -4.8125 L 13.125 -3.515625 C 12.789062 -2.410156 12.171875 -1.503906 11.265625 -0.796875 C 10.367188 -0.0976562 9.164062 0.25 7.65625 0.25 Z M 7.65625 0.25 "/></g></g></g><g fill="#000000" fill-opacity="1"><g transform="translate(429.136549, 442.303914)"><g><path d="M 12.96875 -5.8125 L 4.53125 -5.8125 C 4.625 -4.675781 4.945312 -3.847656 5.5 -3.328125 C 6.0625 -2.804688 6.820312 -2.546875 7.78125 -2.546875 C 8.539062 -2.546875 9.148438 -2.6875 9.609375 -2.96875 C 10.078125 -3.25 10.457031 -3.675781 10.75 -4.25 L 11 -4.25 L 13.1875 -2.84375 C 12.757812 -1.925781 12.113281 -1.179688 11.25 -0.609375 C 10.382812 -0.0351562 9.226562 0.25 7.78125 0.25 C 6.425781 0.25 5.253906 -0.00390625 4.265625 -0.515625 C 3.273438 -1.035156 2.507812 -1.804688 1.96875 -2.828125 C 1.4375 -3.847656 1.171875 -5.09375 1.171875 -6.5625 C 1.171875 -8.050781 1.453125 -9.304688 2.015625 -10.328125 C 2.585938 -11.347656 3.351562 -12.109375 4.3125 -12.609375 C 5.269531 -13.117188 6.347656 -13.375 7.546875 -13.375 C 9.398438 -13.375 10.820312 -12.878906 11.8125 -11.890625 C 12.800781 -10.910156 13.296875 -9.46875 13.296875 -7.5625 C 13.296875 -6.875 13.269531 -6.34375 13.21875 -5.96875 Z M 10.140625 -7.953125 C 10.109375 -8.953125 9.875 -9.675781 9.4375 -10.125 C 9.007812 -10.582031 8.378906 -10.8125 7.546875 -10.8125 C 5.878906 -10.8125 4.898438 -9.859375 4.609375 -7.953125 Z M 10.140625 -7.953125 "/></g></g></g><g fill="#000000" fill-opacity="1"><g transform="translate(432.379854, 206.876818)"><g><path d="M 19.828125 0 L 15.53125 0 L 13.984375 -4.765625 L 6.0625 -4.765625 L 4.515625 0 L 0.3125 0 L 7.453125 -20.671875 L 12.6875 -20.671875 Z M 9.828125 -16.359375 L 7.171875 -8.203125 L 12.84375 -8.203125 L 10.171875 -16.359375 Z M 9.828125 -16.359375 "/></g></g></g><g fill="#000000" fill-opacity="1"><g transform="translate(452.525404, 206.876818)"><g><path d="M 10.734375 0 L 6.0625 0 L 0.296875 -15.59375 L 4.390625 -15.59375 L 8.265625 -4.484375 L 8.59375 -4.484375 L 12.484375 -15.59375 L 16.484375 -15.59375 Z M 10.734375 0 "/></g></g></g><g fill="#000000" fill-opacity="1"><g transform="translate(469.292149, 206.876818)"><g><path d="M 6.078125 0.296875 C 5.078125 0.296875 4.207031 0.113281 3.46875 -0.25 C 2.738281 -0.625 2.175781 -1.164062 1.78125 -1.875 C 1.382812 -2.582031 1.1875 -3.4375 1.1875 -4.4375 C 1.1875 -5.363281 1.382812 -6.140625 1.78125 -6.765625 C 2.175781 -7.390625 2.785156 -7.898438 3.609375 -8.296875 C 4.441406 -8.703125 5.53125 -9.015625 6.875 -9.234375 C 7.800781 -9.378906 8.503906 -9.539062 8.984375 -9.71875 C 9.472656 -9.90625 9.800781 -10.109375 9.96875 -10.328125 C 10.144531 -10.554688 10.234375 -10.847656 10.234375 -11.203125 C 10.234375 -11.703125 10.054688 -12.082031 9.703125 -12.34375 C 9.359375 -12.601562 8.78125 -12.734375 7.96875 -12.734375 C 7.101562 -12.734375 6.28125 -12.539062 5.5 -12.15625 C 4.71875 -11.769531 4.039062 -11.257812 3.46875 -10.625 L 3.1875 -10.625 L 1.546875 -13.109375 C 2.335938 -13.984375 3.300781 -14.664062 4.4375 -15.15625 C 5.582031 -15.644531 6.828125 -15.890625 8.171875 -15.890625 C 10.234375 -15.890625 11.722656 -15.453125 12.640625 -14.578125 C 13.566406 -13.703125 14.03125 -12.457031 14.03125 -10.84375 L 14.03125 -4.078125 C 14.03125 -3.378906 14.335938 -3.03125 14.953125 -3.03125 C 15.191406 -3.03125 15.425781 -3.070312 15.65625 -3.15625 L 15.84375 -3.09375 L 16.125 -0.375 C 15.914062 -0.226562 15.613281 -0.109375 15.21875 -0.015625 C 14.832031 0.0664062 14.410156 0.109375 13.953125 0.109375 C 13.015625 0.109375 12.285156 -0.0664062 11.765625 -0.421875 C 11.242188 -0.785156 10.867188 -1.347656 10.640625 -2.109375 L 10.34375 -2.140625 C 9.582031 -0.515625 8.160156 0.296875 6.078125 0.296875 Z M 7.328125 -2.625 C 8.234375 -2.625 8.957031 -2.925781 9.5 -3.53125 C 10.039062 -4.144531 10.3125 -4.992188 10.3125 -6.078125 L 10.3125 -7.65625 L 10.03125 -7.71875 C 9.800781 -7.53125 9.492188 -7.367188 9.109375 -7.234375 C 8.722656 -7.109375 8.175781 -6.988281 7.46875 -6.875 C 6.613281 -6.726562 6 -6.484375 5.625 -6.140625 C 5.257812 -5.796875 5.078125 -5.304688 5.078125 -4.671875 C 5.078125 -4.003906 5.273438 -3.492188 5.671875 -3.140625 C 6.066406 -2.796875 6.617188 -2.625 7.328125 -2.625 Z M 7.328125 -2.625 "/></g></g></g><g fill="#000000" fill-opacity="1"><g transform="translate(485.733747, 206.876818)"><g><path d="M 4.203125 -17.453125 C 3.492188 -17.453125 2.914062 -17.664062 2.46875 -18.09375 C 2.03125 -18.53125 1.8125 -19.085938 1.8125 -19.765625 C 1.8125 -20.429688 2.03125 -20.976562 2.46875 -21.40625 C 2.914062 -21.832031 3.492188 -22.046875 4.203125 -22.046875 C 4.671875 -22.046875 5.085938 -21.945312 5.453125 -21.75 C 5.828125 -21.550781 6.113281 -21.28125 6.3125 -20.9375 C 6.507812 -20.59375 6.609375 -20.203125 6.609375 -19.765625 C 6.609375 -19.316406 6.507812 -18.914062 6.3125 -18.5625 C 6.113281 -18.21875 5.828125 -17.945312 5.453125 -17.75 C 5.085938 -17.550781 4.671875 -17.453125 4.203125 -17.453125 Z M 2.25 0 L 2.25 -15.59375 L 6.15625 -15.59375 L 6.15625 0 Z M 2.25 0 "/></g></g></g><g fill="#000000" fill-opacity="1"><g transform="translate(494.131257, 206.876818)"><g><path d="M 6.46875 0.296875 C 5.070312 0.296875 4.003906 -0.0820312 3.265625 -0.84375 C 2.523438 -1.601562 2.15625 -2.753906 2.15625 -4.296875 L 2.15625 -21.859375 L 6.0625 -21.859375 L 6.0625 -4.453125 C 6.0625 -3.503906 6.457031 -3.03125 7.25 -3.03125 C 7.476562 -3.03125 7.71875 -3.066406 7.96875 -3.140625 L 8.171875 -3.078125 L 8.53125 -0.078125 C 8.3125 0.0351562 8.019531 0.125 7.65625 0.1875 C 7.300781 0.257812 6.90625 0.296875 6.46875 0.296875 Z M 6.46875 0.296875 "/></g></g></g><g fill="#000000" fill-opacity="1"><g transform="translate(503.094255, 206.876818)"><g><path d="M 6.078125 0.296875 C 5.078125 0.296875 4.207031 0.113281 3.46875 -0.25 C 2.738281 -0.625 2.175781 -1.164062 1.78125 -1.875 C 1.382812 -2.582031 1.1875 -3.4375 1.1875 -4.4375 C 1.1875 -5.363281 1.382812 -6.140625 1.78125 -6.765625 C 2.175781 -7.390625 2.785156 -7.898438 3.609375 -8.296875 C 4.441406 -8.703125 5.53125 -9.015625 6.875 -9.234375 C 7.800781 -9.378906 8.503906 -9.539062 8.984375 -9.71875 C 9.472656 -9.90625 9.800781 -10.109375 9.96875 -10.328125 C 10.144531 -10.554688 10.234375 -10.847656 10.234375 -11.203125 C 10.234375 -11.703125 10.054688 -12.082031 9.703125 -12.34375 C 9.359375 -12.601562 8.78125 -12.734375 7.96875 -12.734375 C 7.101562 -12.734375 6.28125 -12.539062 5.5 -12.15625 C 4.71875 -11.769531 4.039062 -11.257812 3.46875 -10.625 L 3.1875 -10.625 L 1.546875 -13.109375 C 2.335938 -13.984375 3.300781 -14.664062 4.4375 -15.15625 C 5.582031 -15.644531 6.828125 -15.890625 8.171875 -15.890625 C 10.234375 -15.890625 11.722656 -15.453125 12.640625 -14.578125 C 13.566406 -13.703125 14.03125 -12.457031 14.03125 -10.84375 L 14.03125 -4.078125 C 14.03125 -3.378906 14.335938 -3.03125 14.953125 -3.03125 C 15.191406 -3.03125 15.425781 -3.070312 15.65625 -3.15625 L 15.84375 -3.09375 L 16.125 -0.375 C 15.914062 -0.226562 15.613281 -0.109375 15.21875 -0.015625 C 14.832031 0.0664062 14.410156 0.109375 13.953125 0.109375 C 13.015625 0.109375 12.285156 -0.0664062 11.765625 -0.421875 C 11.242188 -0.785156 10.867188 -1.347656 10.640625 -2.109375 L 10.34375 -2.140625 C 9.582031 -0.515625 8.160156 0.296875 6.078125 0.296875 Z M 7.328125 -2.625 C 8.234375 -2.625 8.957031 -2.925781 9.5 -3.53125 C 10.039062 -4.144531 10.3125 -4.992188 10.3125 -6.078125 L 10.3125 -7.65625 L 10.03125 -7.71875 C 9.800781 -7.53125 9.492188 -7.367188 9.109375 -7.234375 C 8.722656 -7.109375 8.175781 -6.988281 7.46875 -6.875 C 6.613281 -6.726562 6 -6.484375 5.625 -6.140625 C 5.257812 -5.796875 5.078125 -5.304688 5.078125 -4.671875 C 5.078125 -4.003906 5.273438 -3.492188 5.671875 -3.140625 C 6.066406 -2.796875 6.617188 -2.625 7.328125 -2.625 Z M 7.328125 -2.625 "/></g></g></g><g fill="#000000" fill-opacity="1"><g transform="translate(519.535853, 206.876818)"><g><path d="M 10.90625 0.296875 C 8.914062 0.296875 7.429688 -0.445312 6.453125 -1.9375 L 6.15625 -1.875 L 6.15625 0 L 2.25 0 L 2.25 -21.859375 L 6.15625 -21.859375 L 6.15625 -13.75 L 6.453125 -13.703125 C 6.992188 -14.441406 7.628906 -14.988281 8.359375 -15.34375 C 9.085938 -15.707031 9.960938 -15.890625 10.984375 -15.890625 C 12.242188 -15.890625 13.34375 -15.59375 14.28125 -15 C 15.226562 -14.40625 15.96875 -13.5 16.5 -12.28125 C 17.03125 -11.070312 17.296875 -9.578125 17.296875 -7.796875 C 17.296875 -6.015625 17.019531 -4.519531 16.46875 -3.3125 C 15.925781 -2.101562 15.171875 -1.195312 14.203125 -0.59375 C 13.242188 0 12.144531 0.296875 10.90625 0.296875 Z M 9.71875 -3.03125 C 10.863281 -3.03125 11.738281 -3.410156 12.34375 -4.171875 C 12.945312 -4.941406 13.25 -6.148438 13.25 -7.796875 C 13.25 -9.441406 12.945312 -10.644531 12.34375 -11.40625 C 11.738281 -12.175781 10.863281 -12.5625 9.71875 -12.5625 C 8.613281 -12.5625 7.738281 -12.164062 7.09375 -11.375 C 6.445312 -10.582031 6.125 -9.390625 6.125 -7.796875 C 6.125 -6.191406 6.445312 -4.992188 7.09375 -4.203125 C 7.738281 -3.421875 8.613281 -3.03125 9.71875 -3.03125 Z M 9.71875 -3.03125 "/></g></g></g><g fill="#000000" fill-opacity="1"><g transform="translate(538.211132, 206.876818)"><g><path d="M 4.203125 -17.453125 C 3.492188 -17.453125 2.914062 -17.664062 2.46875 -18.09375 C 2.03125 -18.53125 1.8125 -19.085938 1.8125 -19.765625 C 1.8125 -20.429688 2.03125 -20.976562 2.46875 -21.40625 C 2.914062 -21.832031 3.492188 -22.046875 4.203125 -22.046875 C 4.671875 -22.046875 5.085938 -21.945312 5.453125 -21.75 C 5.828125 -21.550781 6.113281 -21.28125 6.3125 -20.9375 C 6.507812 -20.59375 6.609375 -20.203125 6.609375 -19.765625 C 6.609375 -19.316406 6.507812 -18.914062 6.3125 -18.5625 C 6.113281 -18.21875 5.828125 -17.945312 5.453125 -17.75 C 5.085938 -17.550781 4.671875 -17.453125 4.203125 -17.453125 Z M 2.25 0 L 2.25 -15.59375 L 6.15625 -15.59375 L 6.15625 0 Z M 2.25 0 "/></g></g></g><g fill="#000000" fill-opacity="1"><g transform="translate(546.608642, 206.876818)"><g><path d="M 6.46875 0.296875 C 5.070312 0.296875 4.003906 -0.0820312 3.265625 -0.84375 C 2.523438 -1.601562 2.15625 -2.753906 2.15625 -4.296875 L 2.15625 -21.859375 L 6.0625 -21.859375 L 6.0625 -4.453125 C 6.0625 -3.503906 6.457031 -3.03125 7.25 -3.03125 C 7.476562 -3.03125 7.71875 -3.066406 7.96875 -3.140625 L 8.171875 -3.078125 L 8.53125 -0.078125 C 8.3125 0.0351562 8.019531 0.125 7.65625 0.1875 C 7.300781 0.257812 6.90625 0.296875 6.46875 0.296875 Z M 6.46875 0.296875 "/></g></g></g><g fill="#000000" fill-opacity="1"><g transform="translate(555.57164, 206.876818)"><g><path d="M 4.203125 -17.453125 C 3.492188 -17.453125 2.914062 -17.664062 2.46875 -18.09375 C 2.03125 -18.53125 1.8125 -19.085938 1.8125 -19.765625 C 1.8125 -20.429688 2.03125 -20.976562 2.46875 -21.40625 C 2.914062 -21.832031 3.492188 -22.046875 4.203125 -22.046875 C 4.671875 -22.046875 5.085938 -21.945312 5.453125 -21.75 C 5.828125 -21.550781 6.113281 -21.28125 6.3125 -20.9375 C 6.507812 -20.59375 6.609375 -20.203125 6.609375 -19.765625 C 6.609375 -19.316406 6.507812 -18.914062 6.3125 -18.5625 C 6.113281 -18.21875 5.828125 -17.945312 5.453125 -17.75 C 5.085938 -17.550781 4.671875 -17.453125 4.203125 -17.453125 Z M 2.25 0 L 2.25 -15.59375 L 6.15625 -15.59375 L 6.15625 0 Z M 2.25 0 "/></g></g></g><g fill="#000000" fill-opacity="1"><g transform="translate(563.96915, 206.876818)"><g><path d="M 10.765625 -3.71875 L 11.78125 -0.8125 C 11.351562 -0.46875 10.816406 -0.195312 10.171875 0 C 9.535156 0.195312 8.8125 0.296875 8 0.296875 C 6.3125 0.296875 5.03125 -0.160156 4.15625 -1.078125 C 3.28125 -1.992188 2.84375 -3.332031 2.84375 -5.09375 L 2.84375 -12.5 L 0.46875 -12.5 L 0.46875 -15.609375 L 2.84375 -15.609375 L 2.84375 -18.640625 L 6.75 -19.28125 L 6.75 -15.609375 L 11.1875 -15.609375 L 11.1875 -12.5 L 6.75 -12.5 L 6.75 -5.375 C 6.75 -4.601562 6.910156 -4.039062 7.234375 -3.6875 C 7.554688 -3.332031 8.023438 -3.15625 8.640625 -3.15625 C 9.335938 -3.15625 9.945312 -3.34375 10.46875 -3.71875 Z M 10.765625 -3.71875 "/></g></g></g><g fill="#000000" fill-opacity="1"><g transform="translate(576.084758, 206.876818)"><g><path d="M 3.453125 6.609375 C 2.785156 6.609375 2.175781 6.554688 1.625 6.453125 C 1.082031 6.359375 0.644531 6.222656 0.3125 6.046875 L 0.9375 2.890625 L 1.1875 2.796875 C 1.425781 2.921875 1.71875 3.019531 2.0625 3.09375 C 2.414062 3.164062 2.773438 3.203125 3.140625 3.203125 C 3.765625 3.203125 4.285156 3.117188 4.703125 2.953125 C 5.128906 2.796875 5.488281 2.523438 5.78125 2.140625 C 6.070312 1.753906 6.332031 1.222656 6.5625 0.546875 L 0.34375 -15.59375 L 4.4375 -15.59375 L 8.3125 -4.75 L 8.65625 -4.75 L 12.421875 -15.59375 L 16.40625 -15.59375 L 10.15625 0.96875 C 9.65625 2.3125 9.101562 3.390625 8.5 4.203125 C 7.90625 5.015625 7.195312 5.617188 6.375 6.015625 C 5.5625 6.410156 4.585938 6.609375 3.453125 6.609375 Z M 3.453125 6.609375 "/></g></g></g><g fill="#000000" fill-opacity="1"><g transform="translate(168.749115, 206.876818)"><g><path d="M 11.296875 0.296875 C 9.390625 0.296875 7.707031 -0.0976562 6.25 -0.890625 C 4.800781 -1.679688 3.664062 -2.867188 2.84375 -4.453125 C 2.03125 -6.046875 1.625 -8.003906 1.625 -10.328125 C 1.625 -12.660156 2.03125 -14.617188 2.84375 -16.203125 C 3.664062 -17.796875 4.800781 -18.988281 6.25 -19.78125 C 7.707031 -20.570312 9.390625 -20.96875 11.296875 -20.96875 C 13.285156 -20.96875 14.972656 -20.578125 16.359375 -19.796875 C 17.753906 -19.023438 18.75 -17.84375 19.34375 -16.25 L 16.359375 -14.421875 L 16 -14.4375 C 15.5625 -15.507812 14.960938 -16.28125 14.203125 -16.75 C 13.441406 -17.21875 12.472656 -17.453125 11.296875 -17.453125 C 9.578125 -17.453125 8.238281 -16.878906 7.28125 -15.734375 C 6.320312 -14.597656 5.84375 -12.796875 5.84375 -10.328125 C 5.84375 -7.867188 6.320312 -6.070312 7.28125 -4.9375 C 8.238281 -3.800781 9.578125 -3.234375 11.296875 -3.234375 C 13.984375 -3.234375 15.628906 -4.539062 16.234375 -7.15625 L 16.578125 -7.15625 L 19.59375 -5.578125 C 19.03125 -3.617188 18.0625 -2.148438 16.6875 -1.171875 C 15.320312 -0.191406 13.523438 0.296875 11.296875 0.296875 Z M 11.296875 0.296875 "/></g></g></g><g fill="#000000" fill-opacity="1"><g transform="translate(189.02189, 206.876818)"><g><path d="M 9.0625 0.296875 C 7.53125 0.296875 6.1875 -0.015625 5.03125 -0.640625 C 3.882812 -1.265625 2.992188 -2.179688 2.359375 -3.390625 C 1.722656 -4.609375 1.40625 -6.078125 1.40625 -7.796875 C 1.40625 -9.503906 1.722656 -10.96875 2.359375 -12.1875 C 2.992188 -13.40625 3.882812 -14.328125 5.03125 -14.953125 C 6.1875 -15.578125 7.53125 -15.890625 9.0625 -15.890625 C 10.59375 -15.890625 11.929688 -15.578125 13.078125 -14.953125 C 14.234375 -14.328125 15.128906 -13.40625 15.765625 -12.1875 C 16.410156 -10.96875 16.734375 -9.503906 16.734375 -7.796875 C 16.734375 -6.078125 16.410156 -4.609375 15.765625 -3.390625 C 15.128906 -2.179688 14.234375 -1.265625 13.078125 -0.640625 C 11.929688 -0.015625 10.59375 0.296875 9.0625 0.296875 Z M 9.0625 -3.03125 C 11.476562 -3.03125 12.6875 -4.617188 12.6875 -7.796875 C 12.6875 -9.441406 12.375 -10.644531 11.75 -11.40625 C 11.132812 -12.175781 10.238281 -12.5625 9.0625 -12.5625 C 6.632812 -12.5625 5.421875 -10.972656 5.421875 -7.796875 C 5.421875 -4.617188 6.632812 -3.03125 9.0625 -3.03125 Z M 9.0625 -3.03125 "/></g></g></g><g fill="#000000" fill-opacity="1"><g transform="translate(207.145809, 206.876818)"><g><path d="M 2.25 0 L 2.25 -15.59375 L 6.015625 -15.59375 L 6.015625 -13.296875 L 6.3125 -13.234375 C 7.28125 -15.003906 8.851562 -15.890625 11.03125 -15.890625 C 12.832031 -15.890625 14.15625 -15.398438 15 -14.421875 C 15.84375 -13.441406 16.265625 -12.015625 16.265625 -10.140625 L 16.265625 0 L 12.34375 0 L 12.34375 -9.65625 C 12.34375 -10.6875 12.132812 -11.429688 11.71875 -11.890625 C 11.300781 -12.347656 10.632812 -12.578125 9.71875 -12.578125 C 8.601562 -12.578125 7.726562 -12.210938 7.09375 -11.484375 C 6.46875 -10.765625 6.15625 -9.628906 6.15625 -8.078125 L 6.15625 0 Z M 2.25 0 "/></g></g></g><g fill="#000000" fill-opacity="1"><g transform="translate(225.411099, 206.876818)"><g><path d="M 7.296875 0.296875 C 6.234375 0.296875 5.257812 0.171875 4.375 -0.078125 C 3.488281 -0.328125 2.726562 -0.671875 2.09375 -1.109375 C 1.46875 -1.546875 1.003906 -2.046875 0.703125 -2.609375 L 2.890625 -4.96875 L 3.1875 -4.96875 C 3.695312 -4.269531 4.304688 -3.742188 5.015625 -3.390625 C 5.722656 -3.046875 6.492188 -2.875 7.328125 -2.875 C 8.085938 -2.875 8.660156 -3.007812 9.046875 -3.28125 C 9.429688 -3.550781 9.625 -3.941406 9.625 -4.453125 C 9.625 -4.847656 9.484375 -5.179688 9.203125 -5.453125 C 8.929688 -5.722656 8.484375 -5.929688 7.859375 -6.078125 L 5.796875 -6.578125 C 4.253906 -6.941406 3.125 -7.503906 2.40625 -8.265625 C 1.695312 -9.023438 1.34375 -9.988281 1.34375 -11.15625 C 1.34375 -12.125 1.585938 -12.96875 2.078125 -13.6875 C 2.578125 -14.40625 3.273438 -14.953125 4.171875 -15.328125 C 5.078125 -15.703125 6.128906 -15.890625 7.328125 -15.890625 C 8.722656 -15.890625 9.882812 -15.6875 10.8125 -15.28125 C 11.738281 -14.875 12.460938 -14.332031 12.984375 -13.65625 L 10.890625 -11.390625 L 10.609375 -11.390625 C 10.171875 -11.878906 9.679688 -12.238281 9.140625 -12.46875 C 8.597656 -12.695312 7.992188 -12.8125 7.328125 -12.8125 C 5.773438 -12.8125 5 -12.328125 5 -11.359375 C 5 -10.960938 5.140625 -10.632812 5.421875 -10.375 C 5.710938 -10.125 6.222656 -9.914062 6.953125 -9.75 L 8.875 -9.328125 C 10.457031 -8.992188 11.613281 -8.453125 12.34375 -7.703125 C 13.070312 -6.953125 13.4375 -5.941406 13.4375 -4.671875 C 13.4375 -3.679688 13.191406 -2.8125 12.703125 -2.0625 C 12.210938 -1.3125 11.503906 -0.726562 10.578125 -0.3125 C 9.660156 0.09375 8.566406 0.296875 7.296875 0.296875 Z M 7.296875 0.296875 "/></g></g></g><g fill="#000000" fill-opacity="1"><g transform="translate(239.788663, 206.876818)"><g><path d="M 4.203125 -17.453125 C 3.492188 -17.453125 2.914062 -17.664062 2.46875 -18.09375 C 2.03125 -18.53125 1.8125 -19.085938 1.8125 -19.765625 C 1.8125 -20.429688 2.03125 -20.976562 2.46875 -21.40625 C 2.914062 -21.832031 3.492188 -22.046875 4.203125 -22.046875 C 4.671875 -22.046875 5.085938 -21.945312 5.453125 -21.75 C 5.828125 -21.550781 6.113281 -21.28125 6.3125 -20.9375 C 6.507812 -20.59375 6.609375 -20.203125 6.609375 -19.765625 C 6.609375 -19.316406 6.507812 -18.914062 6.3125 -18.5625 C 6.113281 -18.21875 5.828125 -17.945312 5.453125 -17.75 C 5.085938 -17.550781 4.671875 -17.453125 4.203125 -17.453125 Z M 2.25 0 L 2.25 -15.59375 L 6.15625 -15.59375 L 6.15625 0 Z M 2.25 0 "/></g></g></g><g fill="#000000" fill-opacity="1"><g transform="translate(248.186172, 206.876818)"><g><path d="M 7.296875 0.296875 C 6.234375 0.296875 5.257812 0.171875 4.375 -0.078125 C 3.488281 -0.328125 2.726562 -0.671875 2.09375 -1.109375 C 1.46875 -1.546875 1.003906 -2.046875 0.703125 -2.609375 L 2.890625 -4.96875 L 3.1875 -4.96875 C 3.695312 -4.269531 4.304688 -3.742188 5.015625 -3.390625 C 5.722656 -3.046875 6.492188 -2.875 7.328125 -2.875 C 8.085938 -2.875 8.660156 -3.007812 9.046875 -3.28125 C 9.429688 -3.550781 9.625 -3.941406 9.625 -4.453125 C 9.625 -4.847656 9.484375 -5.179688 9.203125 -5.453125 C 8.929688 -5.722656 8.484375 -5.929688 7.859375 -6.078125 L 5.796875 -6.578125 C 4.253906 -6.941406 3.125 -7.503906 2.40625 -8.265625 C 1.695312 -9.023438 1.34375 -9.988281 1.34375 -11.15625 C 1.34375 -12.125 1.585938 -12.96875 2.078125 -13.6875 C 2.578125 -14.40625 3.273438 -14.953125 4.171875 -15.328125 C 5.078125 -15.703125 6.128906 -15.890625 7.328125 -15.890625 C 8.722656 -15.890625 9.882812 -15.6875 10.8125 -15.28125 C 11.738281 -14.875 12.460938 -14.332031 12.984375 -13.65625 L 10.890625 -11.390625 L 10.609375 -11.390625 C 10.171875 -11.878906 9.679688 -12.238281 9.140625 -12.46875 C 8.597656 -12.695312 7.992188 -12.8125 7.328125 -12.8125 C 5.773438 -12.8125 5 -12.328125 5 -11.359375 C 5 -10.960938 5.140625 -10.632812 5.421875 -10.375 C 5.710938 -10.125 6.222656 -9.914062 6.953125 -9.75 L 8.875 -9.328125 C 10.457031 -8.992188 11.613281 -8.453125 12.34375 -7.703125 C 13.070312 -6.953125 13.4375 -5.941406 13.4375 -4.671875 C 13.4375 -3.679688 13.191406 -2.8125 12.703125 -2.0625 C 12.210938 -1.3125 11.503906 -0.726562 10.578125 -0.3125 C 9.660156 0.09375 8.566406 0.296875 7.296875 0.296875 Z M 7.296875 0.296875 "/></g></g></g><g fill="#000000" fill-opacity="1"><g transform="translate(262.563736, 206.876818)"><g><path d="M 10.765625 -3.71875 L 11.78125 -0.8125 C 11.351562 -0.46875 10.816406 -0.195312 10.171875 0 C 9.535156 0.195312 8.8125 0.296875 8 0.296875 C 6.3125 0.296875 5.03125 -0.160156 4.15625 -1.078125 C 3.28125 -1.992188 2.84375 -3.332031 2.84375 -5.09375 L 2.84375 -12.5 L 0.46875 -12.5 L 0.46875 -15.609375 L 2.84375 -15.609375 L 2.84375 -18.640625 L 6.75 -19.28125 L 6.75 -15.609375 L 11.1875 -15.609375 L 11.1875 -12.5 L 6.75 -12.5 L 6.75 -5.375 C 6.75 -4.601562 6.910156 -4.039062 7.234375 -3.6875 C 7.554688 -3.332031 8.023438 -3.15625 8.640625 -3.15625 C 9.335938 -3.15625 9.945312 -3.34375 10.46875 -3.71875 Z M 10.765625 -3.71875 "/></g></g></g><g fill="#000000" fill-opacity="1"><g transform="translate(274.679343, 206.876818)"><g><path d="M 15.40625 -6.90625 L 5.390625 -6.90625 C 5.503906 -5.550781 5.890625 -4.566406 6.546875 -3.953125 C 7.203125 -3.335938 8.101562 -3.03125 9.25 -3.03125 C 10.144531 -3.03125 10.867188 -3.195312 11.421875 -3.53125 C 11.972656 -3.863281 12.421875 -4.367188 12.765625 -5.046875 L 13.0625 -5.046875 L 15.671875 -3.375 C 15.160156 -2.28125 14.390625 -1.394531 13.359375 -0.71875 C 12.328125 -0.0390625 10.957031 0.296875 9.25 0.296875 C 7.632812 0.296875 6.238281 -0.0078125 5.0625 -0.625 C 3.894531 -1.238281 2.992188 -2.148438 2.359375 -3.359375 C 1.722656 -4.566406 1.40625 -6.046875 1.40625 -7.796875 C 1.40625 -9.566406 1.738281 -11.054688 2.40625 -12.265625 C 3.070312 -13.484375 3.972656 -14.390625 5.109375 -14.984375 C 6.253906 -15.585938 7.539062 -15.890625 8.96875 -15.890625 C 11.164062 -15.890625 12.851562 -15.304688 14.03125 -14.140625 C 15.207031 -12.972656 15.796875 -11.253906 15.796875 -8.984375 C 15.796875 -8.171875 15.765625 -7.535156 15.703125 -7.078125 Z M 12.046875 -9.4375 C 12.003906 -10.625 11.726562 -11.488281 11.21875 -12.03125 C 10.707031 -12.570312 9.957031 -12.84375 8.96875 -12.84375 C 6.988281 -12.84375 5.820312 -11.707031 5.46875 -9.4375 Z M 12.046875 -9.4375 "/></g></g></g><g fill="#000000" fill-opacity="1"><g transform="translate(291.629881, 206.876818)"><g><path d="M 2.25 0 L 2.25 -15.59375 L 6.015625 -15.59375 L 6.015625 -13.296875 L 6.3125 -13.234375 C 7.28125 -15.003906 8.851562 -15.890625 11.03125 -15.890625 C 12.832031 -15.890625 14.15625 -15.398438 15 -14.421875 C 15.84375 -13.441406 16.265625 -12.015625 16.265625 -10.140625 L 16.265625 0 L 12.34375 0 L 12.34375 -9.65625 C 12.34375 -10.6875 12.132812 -11.429688 11.71875 -11.890625 C 11.300781 -12.347656 10.632812 -12.578125 9.71875 -12.578125 C 8.601562 -12.578125 7.726562 -12.210938 7.09375 -11.484375 C 6.46875 -10.765625 6.15625 -9.628906 6.15625 -8.078125 L 6.15625 0 Z M 2.25 0 "/></g></g></g><g fill="#000000" fill-opacity="1"><g transform="translate(309.895172, 206.876818)"><g><path d="M 9.09375 0.296875 C 7.582031 0.296875 6.242188 -0.015625 5.078125 -0.640625 C 3.921875 -1.265625 3.019531 -2.1875 2.375 -3.40625 C 1.726562 -4.625 1.40625 -6.085938 1.40625 -7.796875 C 1.40625 -9.503906 1.726562 -10.96875 2.375 -12.1875 C 3.019531 -13.40625 3.914062 -14.328125 5.0625 -14.953125 C 6.21875 -15.578125 7.535156 -15.890625 9.015625 -15.890625 C 12.304688 -15.890625 14.414062 -14.695312 15.34375 -12.3125 L 12.65625 -10.390625 L 12.359375 -10.390625 C 12.035156 -11.128906 11.613281 -11.675781 11.09375 -12.03125 C 10.582031 -12.382812 9.890625 -12.5625 9.015625 -12.5625 C 7.890625 -12.5625 7.007812 -12.171875 6.375 -11.390625 C 5.738281 -10.609375 5.421875 -9.410156 5.421875 -7.796875 C 5.421875 -6.191406 5.738281 -4.992188 6.375 -4.203125 C 7.019531 -3.421875 7.925781 -3.03125 9.09375 -3.03125 C 9.9375 -3.03125 10.648438 -3.253906 11.234375 -3.703125 C 11.828125 -4.160156 12.253906 -4.820312 12.515625 -5.6875 L 12.8125 -5.71875 L 15.59375 -4.1875 C 15.195312 -2.863281 14.460938 -1.785156 13.390625 -0.953125 C 12.328125 -0.117188 10.894531 0.296875 9.09375 0.296875 Z M 9.09375 0.296875 "/></g></g></g><g fill="#000000" fill-opacity="1"><g transform="translate(325.969202, 206.876818)"><g><path d="M 3.453125 6.609375 C 2.785156 6.609375 2.175781 6.554688 1.625 6.453125 C 1.082031 6.359375 0.644531 6.222656 0.3125 6.046875 L 0.9375 2.890625 L 1.1875 2.796875 C 1.425781 2.921875 1.71875 3.019531 2.0625 3.09375 C 2.414062 3.164062 2.773438 3.203125 3.140625 3.203125 C 3.765625 3.203125 4.285156 3.117188 4.703125 2.953125 C 5.128906 2.796875 5.488281 2.523438 5.78125 2.140625 C 6.070312 1.753906 6.332031 1.222656 6.5625 0.546875 L 0.34375 -15.59375 L 4.4375 -15.59375 L 8.3125 -4.75 L 8.65625 -4.75 L 12.421875 -15.59375 L 16.40625 -15.59375 L 10.15625 0.96875 C 9.65625 2.3125 9.101562 3.390625 8.5 4.203125 C 7.90625 5.015625 7.195312 5.617188 6.375 6.015625 C 5.5625 6.410156 4.585938 6.609375 3.453125 6.609375 Z M 3.453125 6.609375 "/></g></g></g><g fill="#000000" fill-opacity="1"><g transform="translate(368.671859, 205.286963)"><g><path d="M 8.5625 0.21875 C 7.125 0.21875 5.851562 -0.078125 4.75 -0.671875 C 3.644531 -1.273438 2.78125 -2.175781 2.15625 -3.375 C 1.539062 -4.582031 1.234375 -6.066406 1.234375 -7.828125 C 1.234375 -9.597656 1.539062 -11.082031 2.15625 -12.28125 C 2.78125 -13.488281 3.644531 -14.390625 4.75 -14.984375 C 5.851562 -15.585938 7.125 -15.890625 8.5625 -15.890625 C 10.070312 -15.890625 11.351562 -15.59375 12.40625 -15 C 13.457031 -14.414062 14.207031 -13.519531 14.65625 -12.3125 L 12.40625 -10.9375 L 12.140625 -10.9375 C 11.796875 -11.757812 11.335938 -12.347656 10.765625 -12.703125 C 10.191406 -13.054688 9.457031 -13.234375 8.5625 -13.234375 C 7.257812 -13.234375 6.242188 -12.800781 5.515625 -11.9375 C 4.785156 -11.070312 4.421875 -9.703125 4.421875 -7.828125 C 4.421875 -5.960938 4.785156 -4.597656 5.515625 -3.734375 C 6.242188 -2.878906 7.257812 -2.453125 8.5625 -2.453125 C 10.601562 -2.453125 11.851562 -3.441406 12.3125 -5.421875 L 12.578125 -5.421875 L 14.859375 -4.234375 C 14.429688 -2.742188 13.695312 -1.628906 12.65625 -0.890625 C 11.625 -0.148438 10.257812 0.21875 8.5625 0.21875 Z M 8.5625 0.21875 "/></g></g></g><g fill="#000000" fill-opacity="1"><g transform="translate(384.040598, 205.286963)"><g><path d="M 15.046875 0 L 11.78125 0 L 10.59375 -3.609375 L 4.59375 -3.609375 L 3.421875 0 L 0.234375 0 L 5.65625 -15.671875 L 9.625 -15.671875 Z M 7.453125 -12.40625 L 5.4375 -6.21875 L 9.75 -6.21875 L 7.71875 -12.40625 Z M 7.453125 -12.40625 "/></g></g></g><g fill="#000000" fill-opacity="1"><g transform="translate(303.224752, 306.338446)"><g><path d="M 8.5625 0.21875 C 7.125 0.21875 5.851562 -0.078125 4.75 -0.671875 C 3.644531 -1.273438 2.78125 -2.175781 2.15625 -3.375 C 1.539062 -4.582031 1.234375 -6.066406 1.234375 -7.828125 C 1.234375 -9.597656 1.539062 -11.082031 2.15625 -12.28125 C 2.78125 -13.488281 3.644531 -14.390625 4.75 -14.984375 C 5.851562 -15.585938 7.125 -15.890625 8.5625 -15.890625 C 10.070312 -15.890625 11.351562 -15.59375 12.40625 -15 C 13.457031 -14.414062 14.207031 -13.519531 14.65625 -12.3125 L 12.40625 -10.9375 L 12.140625 -10.9375 C 11.796875 -11.757812 11.335938 -12.347656 10.765625 -12.703125 C 10.191406 -13.054688 9.457031 -13.234375 8.5625 -13.234375 C 7.257812 -13.234375 6.242188 -12.800781 5.515625 -11.9375 C 4.785156 -11.070312 4.421875 -9.703125 4.421875 -7.828125 C 4.421875 -5.960938 4.785156 -4.597656 5.515625 -3.734375 C 6.242188 -2.878906 7.257812 -2.453125 8.5625 -2.453125 C 10.601562 -2.453125 11.851562 -3.441406 12.3125 -5.421875 L 12.578125 -5.421875 L 14.859375 -4.234375 C 14.429688 -2.742188 13.695312 -1.628906 12.65625 -0.890625 C 11.625 -0.148438 10.257812 0.21875 8.5625 0.21875 Z M 8.5625 0.21875 "/></g></g></g><g fill="#000000" fill-opacity="1"><g transform="translate(318.593491, 306.338446)"><g><path d="M 8.09375 -15.671875 C 9.21875 -15.671875 10.175781 -15.460938 10.96875 -15.046875 C 11.769531 -14.640625 12.375 -14.066406 12.78125 -13.328125 C 13.1875 -12.585938 13.390625 -11.726562 13.390625 -10.75 C 13.390625 -9.769531 13.1875 -8.910156 12.78125 -8.171875 C 12.375 -7.441406 11.769531 -6.867188 10.96875 -6.453125 C 10.175781 -6.046875 9.21875 -5.84375 8.09375 -5.84375 L 5.140625 -5.84375 L 5.140625 0 L 2.03125 0 L 2.03125 -15.671875 Z M 7.6875 -8.296875 C 9.40625 -8.296875 10.265625 -9.113281 10.265625 -10.75 C 10.265625 -12.394531 9.40625 -13.21875 7.6875 -13.21875 L 5.140625 -13.21875 L 5.140625 -8.296875 Z M 7.6875 -8.296875 "/></g></g></g><g fill="#000000" fill-opacity="1"><g transform="translate(430.88091, 307.481609)"><g><path d="M 15.046875 0 L 11.78125 0 L 10.59375 -3.609375 L 4.59375 -3.609375 L 3.421875 0 L 0.234375 0 L 5.65625 -15.671875 L 9.625 -15.671875 Z M 7.453125 -12.40625 L 5.4375 -6.21875 L 9.75 -6.21875 L 7.71875 -12.40625 Z M 7.453125 -12.40625 "/></g></g></g><g fill="#000000" fill-opacity="1"><g transform="translate(446.153198, 307.481609)"><g><path d="M 8.09375 -15.671875 C 9.21875 -15.671875 10.175781 -15.460938 10.96875 -15.046875 C 11.769531 -14.640625 12.375 -14.066406 12.78125 -13.328125 C 13.1875 -12.585938 13.390625 -11.726562 13.390625 -10.75 C 13.390625 -9.769531 13.1875 -8.910156 12.78125 -8.171875 C 12.375 -7.441406 11.769531 -6.867188 10.96875 -6.453125 C 10.175781 -6.046875 9.21875 -5.84375 8.09375 -5.84375 L 5.140625 -5.84375 L 5.140625 0 L 2.03125 0 L 2.03125 -15.671875 Z M 7.6875 -8.296875 C 9.40625 -8.296875 10.265625 -9.113281 10.265625 -10.75 C 10.265625 -12.394531 9.40625 -13.21875 7.6875 -13.21875 L 5.140625 -13.21875 L 5.140625 -8.296875 Z M 7.6875 -8.296875 "/></g></g></g></svg>