<svg xmlns="http://www.w3.org/2000/svg" xmlns:xlink="http://www.w3.org/1999/xlink" width="1024" zoomAndPan="magnify" viewBox="0 0 768 576" height="768" preserveAspectRatio="xMidYMid meet" version="1.0"><defs><g/><clipPath id="942ba6e2a8"><path d="M 288.71875 57.601562 L 461.519531 57.601562 L 461.519531 148.371094 L 288.71875 148.371094 Z M 288.71875 57.601562 " clip-rule="nonzero"/></clipPath><clipPath id="7adff3810a"><path d="M 375.121094 57.601562 L 461.519531 102.984375 L 375.121094 148.371094 L 288.71875 102.984375 Z M 375.121094 57.601562 " clip-rule="nonzero"/></clipPath><clipPath id="a49d6c10f8"><path d="M 288.726562 57.601562 L 461.21875 57.601562 L 461.21875 148.351562 L 288.726562 148.351562 Z M 288.726562 57.601562 " clip-rule="nonzero"/></clipPath><clipPath id="1521504f32"><path d="M 375.117188 57.601562 L 461.507812 102.980469 L 375.117188 148.363281 L 288.726562 102.980469 Z M 375.117188 57.601562 " clip-rule="nonzero"/></clipPath><clipPath id="7ec7f89f60"><path d="M 25.277344 247.769531 L 171.035156 247.769531 L 171.035156 298.230469 L 25.277344 298.230469 Z M 25.277344 247.769531 " clip-rule="nonzero"/></clipPath><clipPath id="f954ac2c80"><path d="M 32.777344 247.769531 L 163.535156 247.769531 C 167.679688 247.769531 171.035156 251.125 171.035156 255.269531 L 171.035156 290.730469 C 171.035156 294.875 167.679688 298.230469 163.535156 298.230469 L 32.777344 298.230469 C 28.636719 298.230469 25.277344 294.875 25.277344 290.730469 L 25.277344 255.269531 C 25.277344 251.125 28.636719 247.769531 32.777344 247.769531 Z M 32.777344 247.769531 " clip-rule="nonzero"/></clipPath><clipPath id="eeb8b074a8"><path d="M 25.277344 247.769531 L 170.777344 247.769531 L 170.777344 298.019531 L 25.277344 298.019531 Z M 25.277344 247.769531 " clip-rule="nonzero"/></clipPath><clipPath id="c4d26ece39"><path d="M 32.777344 247.769531 L 163.527344 247.769531 C 167.667969 247.769531 171.023438 251.128906 171.023438 255.269531 L 171.023438 290.730469 C 171.023438 294.871094 167.667969 298.230469 163.527344 298.230469 L 32.777344 298.230469 C 28.636719 298.230469 25.277344 294.871094 25.277344 290.730469 L 25.277344 255.269531 C 25.277344 251.128906 28.636719 247.769531 32.777344 247.769531 Z M 32.777344 247.769531 " clip-rule="nonzero"/></clipPath><clipPath id="73feb57956"><path d="M 406.402344 247.769531 L 552.160156 247.769531 L 552.160156 298.230469 L 406.402344 298.230469 Z M 406.402344 247.769531 " clip-rule="nonzero"/></clipPath><clipPath id="95f75ed498"><path d="M 413.902344 247.769531 L 544.660156 247.769531 C 548.800781 247.769531 552.160156 251.125 552.160156 255.269531 L 552.160156 290.730469 C 552.160156 294.875 548.800781 298.230469 544.660156 298.230469 L 413.902344 298.230469 C 409.757812 298.230469 406.402344 294.875 406.402344 290.730469 L 406.402344 255.269531 C 406.402344 251.125 409.757812 247.769531 413.902344 247.769531 Z M 413.902344 247.769531 " clip-rule="nonzero"/></clipPath><clipPath id="ac14d8e63b"><path d="M 406.402344 247.769531 L 551.902344 247.769531 L 551.902344 298.019531 L 406.402344 298.019531 Z M 406.402344 247.769531 " clip-rule="nonzero"/></clipPath><clipPath id="7052d8a388"><path d="M 413.902344 247.769531 L 544.648438 247.769531 C 548.789062 247.769531 552.148438 251.128906 552.148438 255.269531 L 552.148438 290.730469 C 552.148438 294.871094 548.789062 298.230469 544.648438 298.230469 L 413.902344 298.230469 C 409.757812 298.230469 406.402344 294.871094 406.402344 290.730469 L 406.402344 255.269531 C 406.402344 251.128906 409.757812 247.769531 413.902344 247.769531 Z M 413.902344 247.769531 " clip-rule="nonzero"/></clipPath><clipPath id="95f67e38fc"><path d="M 215.839844 247.769531 L 361.597656 247.769531 L 361.597656 298.230469 L 215.839844 298.230469 Z M 215.839844 247.769531 " clip-rule="nonzero"/></clipPath><clipPath id="e6db6aba91"><path d="M 223.339844 247.769531 L 354.097656 247.769531 C 358.242188 247.769531 361.597656 251.125 361.597656 255.269531 L 361.597656 290.730469 C 361.597656 294.875 358.242188 298.230469 354.097656 298.230469 L 223.339844 298.230469 C 219.199219 298.230469 215.839844 294.875 215.839844 290.730469 L 215.839844 255.269531 C 215.839844 251.125 219.199219 247.769531 223.339844 247.769531 Z M 223.339844 247.769531 " clip-rule="nonzero"/></clipPath><clipPath id="a59a7d00e3"><path d="M 215.839844 247.769531 L 361.339844 247.769531 L 361.339844 298.019531 L 215.839844 298.019531 Z M 215.839844 247.769531 " clip-rule="nonzero"/></clipPath><clipPath id="e08a7442f7"><path d="M 223.339844 247.769531 L 354.085938 247.769531 C 358.230469 247.769531 361.585938 251.128906 361.585938 255.269531 L 361.585938 290.730469 C 361.585938 294.871094 358.230469 298.230469 354.085938 298.230469 L 223.339844 298.230469 C 219.199219 298.230469 215.839844 294.871094 215.839844 290.730469 L 215.839844 255.269531 C 215.839844 251.128906 219.199219 247.769531 223.339844 247.769531 Z M 223.339844 247.769531 " clip-rule="nonzero"/></clipPath><clipPath id="3de9bfc2af"><path d="M 596.964844 247.769531 L 742.722656 247.769531 L 742.722656 298.230469 L 596.964844 298.230469 Z M 596.964844 247.769531 " clip-rule="nonzero"/></clipPath><clipPath id="950a3b7ce2"><path d="M 604.464844 247.769531 L 735.222656 247.769531 C 739.363281 247.769531 742.722656 251.125 742.722656 255.269531 L 742.722656 290.730469 C 742.722656 294.875 739.363281 298.230469 735.222656 298.230469 L 604.464844 298.230469 C 600.320312 298.230469 596.964844 294.875 596.964844 290.730469 L 596.964844 255.269531 C 596.964844 251.125 600.320312 247.769531 604.464844 247.769531 Z M 604.464844 247.769531 " clip-rule="nonzero"/></clipPath><clipPath id="575630904f"><path d="M 596.964844 247.769531 L 742.464844 247.769531 L 742.464844 298.019531 L 596.964844 298.019531 Z M 596.964844 247.769531 " clip-rule="nonzero"/></clipPath><clipPath id="4dd434c116"><path d="M 604.464844 247.769531 L 735.210938 247.769531 C 739.351562 247.769531 742.710938 251.128906 742.710938 255.269531 L 742.710938 290.730469 C 742.710938 294.871094 739.351562 298.230469 735.210938 298.230469 L 604.464844 298.230469 C 600.320312 298.230469 596.964844 294.871094 596.964844 290.730469 L 596.964844 255.269531 C 596.964844 251.128906 600.320312 247.769531 604.464844 247.769531 Z M 604.464844 247.769531 " clip-rule="nonzero"/></clipPath></defs><g clip-path="url(#942ba6e2a8)"><g clip-path="url(#7adff3810a)"><path fill="#d9d9d9" d="M 288.71875 57.601562 L 461.519531 57.601562 L 461.519531 148.371094 L 288.71875 148.371094 Z M 288.71875 57.601562 " fill-opacity="1" fill-rule="nonzero"/></g></g><g clip-path="url(#a49d6c10f8)"><g clip-path="url(#1521504f32)"><path stroke-linecap="butt" transform="matrix(0.75, 0, 0, 0.75, 288.725321, 57.600018)" fill="none" stroke-linejoin="miter" d="M 115.18916 0.00205987 L 230.376665 60.507271 L 115.18916 121.01769 L 0.00165564 60.507271 Z M 115.18916 0.00205987 " stroke="#000000" stroke-width="2" stroke-opacity="1" stroke-miterlimit="4"/></g></g><g fill="#000000" fill-opacity="1"><g transform="translate(326.910601, 110.100015)"><g><path d="M 7.375 -14.28125 C 8.394531 -14.28125 9.265625 -14.09375 9.984375 -13.71875 C 10.710938 -13.34375 11.265625 -12.816406 11.640625 -12.140625 C 12.015625 -11.472656 12.203125 -10.691406 12.203125 -9.796875 C 12.203125 -8.898438 12.015625 -8.117188 11.640625 -7.453125 C 11.265625 -6.785156 10.710938 -6.265625 9.984375 -5.890625 C 9.265625 -5.515625 8.394531 -5.328125 7.375 -5.328125 L 4.671875 -5.328125 L 4.671875 0 L 1.859375 0 L 1.859375 -14.28125 Z M 7 -7.5625 C 8.570312 -7.5625 9.359375 -8.304688 9.359375 -9.796875 C 9.359375 -11.296875 8.570312 -12.046875 7 -12.046875 L 4.671875 -12.046875 L 4.671875 -7.5625 Z M 7 -7.5625 "/></g></g></g><g fill="#000000" fill-opacity="1"><g transform="translate(339.952379, 110.100015)"><g><path d="M 4.203125 0.203125 C 3.515625 0.203125 2.914062 0.078125 2.40625 -0.171875 C 1.894531 -0.429688 1.503906 -0.804688 1.234375 -1.296875 C 0.960938 -1.785156 0.828125 -2.375 0.828125 -3.0625 C 0.828125 -3.707031 0.960938 -4.242188 1.234375 -4.671875 C 1.503906 -5.109375 1.925781 -5.460938 2.5 -5.734375 C 3.070312 -6.015625 3.820312 -6.226562 4.75 -6.375 C 5.394531 -6.476562 5.882812 -6.59375 6.21875 -6.71875 C 6.550781 -6.84375 6.773438 -6.984375 6.890625 -7.140625 C 7.015625 -7.296875 7.078125 -7.492188 7.078125 -7.734375 C 7.078125 -8.078125 6.953125 -8.335938 6.703125 -8.515625 C 6.460938 -8.703125 6.066406 -8.796875 5.515625 -8.796875 C 4.910156 -8.796875 4.335938 -8.660156 3.796875 -8.390625 C 3.253906 -8.128906 2.785156 -7.78125 2.390625 -7.34375 L 2.203125 -7.34375 L 1.0625 -9.046875 C 1.613281 -9.660156 2.28125 -10.132812 3.0625 -10.46875 C 3.851562 -10.8125 4.710938 -10.984375 5.640625 -10.984375 C 7.066406 -10.984375 8.097656 -10.675781 8.734375 -10.0625 C 9.378906 -9.457031 9.703125 -8.597656 9.703125 -7.484375 L 9.703125 -2.8125 C 9.703125 -2.332031 9.910156 -2.09375 10.328125 -2.09375 C 10.492188 -2.09375 10.65625 -2.117188 10.8125 -2.171875 L 10.953125 -2.140625 L 11.140625 -0.25 C 10.992188 -0.15625 10.785156 -0.078125 10.515625 -0.015625 C 10.253906 0.046875 9.960938 0.078125 9.640625 0.078125 C 8.992188 0.078125 8.488281 -0.046875 8.125 -0.296875 C 7.769531 -0.546875 7.515625 -0.929688 7.359375 -1.453125 L 7.15625 -1.46875 C 6.625 -0.351562 5.640625 0.203125 4.203125 0.203125 Z M 5.0625 -1.8125 C 5.6875 -1.8125 6.1875 -2.019531 6.5625 -2.4375 C 6.9375 -2.863281 7.125 -3.453125 7.125 -4.203125 L 7.125 -5.296875 L 6.9375 -5.328125 C 6.769531 -5.203125 6.554688 -5.09375 6.296875 -5 C 6.035156 -4.914062 5.65625 -4.832031 5.15625 -4.75 C 4.570312 -4.644531 4.148438 -4.472656 3.890625 -4.234375 C 3.628906 -4.003906 3.5 -3.671875 3.5 -3.234375 C 3.5 -2.773438 3.632812 -2.421875 3.90625 -2.171875 C 4.1875 -1.929688 4.570312 -1.8125 5.0625 -1.8125 Z M 5.0625 -1.8125 "/></g></g></g><g fill="#000000" fill-opacity="1"><g transform="translate(351.305363, 110.100015)"><g><path d="M 1.546875 0 L 1.546875 -10.765625 L 4.1875 -10.765625 L 4.1875 -9.171875 L 4.390625 -9.125 C 4.648438 -9.726562 4.988281 -10.171875 5.40625 -10.453125 C 5.832031 -10.734375 6.347656 -10.875 6.953125 -10.875 C 7.566406 -10.875 8.03125 -10.769531 8.34375 -10.5625 L 7.890625 -8.21875 L 7.6875 -8.1875 C 7.507812 -8.257812 7.335938 -8.3125 7.171875 -8.34375 C 7.015625 -8.375 6.816406 -8.390625 6.578125 -8.390625 C 5.828125 -8.390625 5.253906 -8.125 4.859375 -7.59375 C 4.460938 -7.0625 4.265625 -6.210938 4.265625 -5.046875 L 4.265625 0 Z M 1.546875 0 "/></g></g></g><g fill="#000000" fill-opacity="1"><g transform="translate(359.749329, 110.100015)"><g><path d="M 7.4375 -2.5625 L 8.140625 -0.5625 C 7.847656 -0.320312 7.476562 -0.132812 7.03125 0 C 6.59375 0.132812 6.09375 0.203125 5.53125 0.203125 C 4.363281 0.203125 3.476562 -0.113281 2.875 -0.75 C 2.269531 -1.382812 1.96875 -2.304688 1.96875 -3.515625 L 1.96875 -8.640625 L 0.328125 -8.640625 L 0.328125 -10.78125 L 1.96875 -10.78125 L 1.96875 -12.875 L 4.671875 -13.328125 L 4.671875 -10.78125 L 7.71875 -10.78125 L 7.71875 -8.640625 L 4.671875 -8.640625 L 4.671875 -3.71875 C 4.671875 -3.175781 4.78125 -2.78125 5 -2.53125 C 5.21875 -2.289062 5.539062 -2.171875 5.96875 -2.171875 C 6.445312 -2.171875 6.867188 -2.300781 7.234375 -2.5625 Z M 7.4375 -2.5625 "/></g></g></g><g fill="#000000" fill-opacity="1"><g transform="translate(368.1152, 110.100015)"><g><path d="M 2.90625 -12.0625 C 2.414062 -12.0625 2.015625 -12.207031 1.703125 -12.5 C 1.398438 -12.800781 1.25 -13.1875 1.25 -13.65625 C 1.25 -14.113281 1.398438 -14.488281 1.703125 -14.78125 C 2.015625 -15.082031 2.414062 -15.234375 2.90625 -15.234375 C 3.226562 -15.234375 3.515625 -15.164062 3.765625 -15.03125 C 4.023438 -14.894531 4.222656 -14.707031 4.359375 -14.46875 C 4.503906 -14.226562 4.578125 -13.957031 4.578125 -13.65625 C 4.578125 -13.34375 4.503906 -13.066406 4.359375 -12.828125 C 4.222656 -12.585938 4.023438 -12.398438 3.765625 -12.265625 C 3.515625 -12.128906 3.226562 -12.0625 2.90625 -12.0625 Z M 1.546875 0 L 1.546875 -10.765625 L 4.265625 -10.765625 L 4.265625 0 Z M 1.546875 0 "/></g></g></g><g fill="#000000" fill-opacity="1"><g transform="translate(373.913715, 110.100015)"><g><path d="M 7.4375 -2.5625 L 8.140625 -0.5625 C 7.847656 -0.320312 7.476562 -0.132812 7.03125 0 C 6.59375 0.132812 6.09375 0.203125 5.53125 0.203125 C 4.363281 0.203125 3.476562 -0.113281 2.875 -0.75 C 2.269531 -1.382812 1.96875 -2.304688 1.96875 -3.515625 L 1.96875 -8.640625 L 0.328125 -8.640625 L 0.328125 -10.78125 L 1.96875 -10.78125 L 1.96875 -12.875 L 4.671875 -13.328125 L 4.671875 -10.78125 L 7.71875 -10.78125 L 7.71875 -8.640625 L 4.671875 -8.640625 L 4.671875 -3.71875 C 4.671875 -3.175781 4.78125 -2.78125 5 -2.53125 C 5.21875 -2.289062 5.539062 -2.171875 5.96875 -2.171875 C 6.445312 -2.171875 6.867188 -2.300781 7.234375 -2.5625 Z M 7.4375 -2.5625 "/></g></g></g><g fill="#000000" fill-opacity="1"><g transform="translate(382.279586, 110.100015)"><g><path d="M 2.90625 -12.0625 C 2.414062 -12.0625 2.015625 -12.207031 1.703125 -12.5 C 1.398438 -12.800781 1.25 -13.1875 1.25 -13.65625 C 1.25 -14.113281 1.398438 -14.488281 1.703125 -14.78125 C 2.015625 -15.082031 2.414062 -15.234375 2.90625 -15.234375 C 3.226562 -15.234375 3.515625 -15.164062 3.765625 -15.03125 C 4.023438 -14.894531 4.222656 -14.707031 4.359375 -14.46875 C 4.503906 -14.226562 4.578125 -13.957031 4.578125 -13.65625 C 4.578125 -13.34375 4.503906 -13.066406 4.359375 -12.828125 C 4.222656 -12.585938 4.023438 -12.398438 3.765625 -12.265625 C 3.515625 -12.128906 3.226562 -12.0625 2.90625 -12.0625 Z M 1.546875 0 L 1.546875 -10.765625 L 4.265625 -10.765625 L 4.265625 0 Z M 1.546875 0 "/></g></g></g><g fill="#000000" fill-opacity="1"><g transform="translate(388.078101, 110.100015)"><g><path d="M 6.265625 0.203125 C 5.203125 0.203125 4.269531 -0.0078125 3.46875 -0.4375 C 2.675781 -0.875 2.0625 -1.507812 1.625 -2.34375 C 1.1875 -3.1875 0.96875 -4.195312 0.96875 -5.375 C 0.96875 -6.5625 1.1875 -7.570312 1.625 -8.40625 C 2.0625 -9.25 2.675781 -9.890625 3.46875 -10.328125 C 4.269531 -10.765625 5.203125 -10.984375 6.265625 -10.984375 C 7.316406 -10.984375 8.238281 -10.765625 9.03125 -10.328125 C 9.832031 -9.890625 10.453125 -9.25 10.890625 -8.40625 C 11.335938 -7.570312 11.5625 -6.5625 11.5625 -5.375 C 11.5625 -4.195312 11.335938 -3.1875 10.890625 -2.34375 C 10.453125 -1.507812 9.832031 -0.875 9.03125 -0.4375 C 8.238281 -0.0078125 7.316406 0.203125 6.265625 0.203125 Z M 6.265625 -2.09375 C 7.929688 -2.09375 8.765625 -3.1875 8.765625 -5.375 C 8.765625 -6.519531 8.550781 -7.359375 8.125 -7.890625 C 7.695312 -8.421875 7.078125 -8.6875 6.265625 -8.6875 C 4.585938 -8.6875 3.75 -7.582031 3.75 -5.375 C 3.75 -3.1875 4.585938 -2.09375 6.265625 -2.09375 Z M 6.265625 -2.09375 "/></g></g></g><g fill="#000000" fill-opacity="1"><g transform="translate(400.592742, 110.100015)"><g><path d="M 1.546875 0 L 1.546875 -10.765625 L 4.15625 -10.765625 L 4.15625 -9.1875 L 4.359375 -9.140625 C 5.023438 -10.367188 6.113281 -10.984375 7.625 -10.984375 C 8.863281 -10.984375 9.773438 -10.644531 10.359375 -9.96875 C 10.941406 -9.289062 11.234375 -8.300781 11.234375 -7 L 11.234375 0 L 8.53125 0 L 8.53125 -6.671875 C 8.53125 -7.390625 8.382812 -7.90625 8.09375 -8.21875 C 7.8125 -8.53125 7.351562 -8.6875 6.71875 -8.6875 C 5.945312 -8.6875 5.34375 -8.4375 4.90625 -7.9375 C 4.476562 -7.4375 4.265625 -6.648438 4.265625 -5.578125 L 4.265625 0 Z M 1.546875 0 "/></g></g></g><g fill="#000000" fill-opacity="1"><g transform="translate(413.205, 110.100015)"><g><path d="M 3.328125 -5.25 C 3.328125 -5.707031 3.363281 -6.085938 3.4375 -6.390625 C 3.519531 -6.703125 3.65625 -6.988281 3.84375 -7.25 C 4.039062 -7.507812 4.320312 -7.785156 4.6875 -8.078125 L 5.53125 -8.765625 C 5.945312 -9.109375 6.242188 -9.421875 6.421875 -9.703125 C 6.597656 -9.984375 6.6875 -10.300781 6.6875 -10.65625 C 6.6875 -11.09375 6.53125 -11.4375 6.21875 -11.6875 C 5.90625 -11.945312 5.453125 -12.078125 4.859375 -12.078125 C 4.265625 -12.078125 3.75 -11.929688 3.3125 -11.640625 C 2.882812 -11.359375 2.503906 -10.957031 2.171875 -10.4375 L 1.953125 -10.390625 L 0.359375 -12.125 C 0.890625 -12.90625 1.535156 -13.492188 2.296875 -13.890625 C 3.066406 -14.285156 3.976562 -14.484375 5.03125 -14.484375 C 6.03125 -14.484375 6.863281 -14.332031 7.53125 -14.03125 C 8.207031 -13.726562 8.707031 -13.304688 9.03125 -12.765625 C 9.351562 -12.234375 9.515625 -11.628906 9.515625 -10.953125 C 9.515625 -10.203125 9.359375 -9.554688 9.046875 -9.015625 C 8.742188 -8.484375 8.273438 -7.960938 7.640625 -7.453125 L 6.6875 -6.703125 C 6.332031 -6.421875 6.09375 -6.164062 5.96875 -5.9375 C 5.851562 -5.71875 5.796875 -5.421875 5.796875 -5.046875 L 5.796875 -4.734375 L 3.328125 -4.734375 Z M 4.5625 0.09375 C 4.21875 0.09375 3.914062 0.0234375 3.65625 -0.109375 C 3.40625 -0.242188 3.207031 -0.429688 3.0625 -0.671875 C 2.925781 -0.910156 2.859375 -1.179688 2.859375 -1.484375 C 2.859375 -1.785156 2.925781 -2.054688 3.0625 -2.296875 C 3.207031 -2.546875 3.40625 -2.738281 3.65625 -2.875 C 3.914062 -3.019531 4.21875 -3.09375 4.5625 -3.09375 C 5.070312 -3.09375 5.476562 -2.941406 5.78125 -2.640625 C 6.09375 -2.335938 6.25 -1.957031 6.25 -1.5 C 6.25 -1.03125 6.09375 -0.644531 5.78125 -0.34375 C 5.476562 -0.0507812 5.070312 0.09375 4.5625 0.09375 Z M 4.5625 0.09375 "/></g></g></g><g clip-path="url(#7ec7f89f60)"><g clip-path="url(#f954ac2c80)"><path fill="#00bf63" d="M 25.277344 247.769531 L 171.035156 247.769531 L 171.035156 298.230469 L 25.277344 298.230469 Z M 25.277344 247.769531 " fill-opacity="1" fill-rule="nonzero"/></g></g><g clip-path="url(#eeb8b074a8)"><g clip-path="url(#c4d26ece39)"><path stroke-linecap="butt" transform="matrix(0.75, 0, 0, 0.75, 25.278793, 247.770038)" fill="none" stroke-linejoin="miter" d="M 9.998068 -0.000676302 L 184.331409 -0.000676302 C 189.852242 -0.000676302 194.326201 4.478491 194.326201 9.999324 L 194.326201 57.280576 C 194.326201 62.80141 189.852242 67.280577 184.331409 67.280577 L 9.998068 67.280577 C 4.477235 67.280577 -0.00193216 62.80141 -0.00193216 57.280576 L -0.00193216 9.999324 C -0.00193216 4.478491 4.477235 -0.000676302 9.998068 -0.000676302 Z M 9.998068 -0.000676302 " stroke="#000000" stroke-width="2" stroke-opacity="1" stroke-miterlimit="4"/></g></g><g fill="#000000" fill-opacity="1"><g transform="translate(38.087386, 280.018837)"><g><path d="M 7.796875 0.203125 C 6.484375 0.203125 5.328125 -0.0664062 4.328125 -0.609375 C 3.328125 -1.160156 2.539062 -1.984375 1.96875 -3.078125 C 1.40625 -4.179688 1.125 -5.535156 1.125 -7.140625 C 1.125 -8.742188 1.40625 -10.09375 1.96875 -11.1875 C 2.539062 -12.289062 3.328125 -13.113281 4.328125 -13.65625 C 5.328125 -14.207031 6.484375 -14.484375 7.796875 -14.484375 C 9.171875 -14.484375 10.335938 -14.210938 11.296875 -13.671875 C 12.265625 -13.140625 12.953125 -12.320312 13.359375 -11.21875 L 11.296875 -9.96875 L 11.0625 -9.96875 C 10.75 -10.707031 10.332031 -11.238281 9.8125 -11.5625 C 9.289062 -11.882812 8.617188 -12.046875 7.796875 -12.046875 C 6.617188 -12.046875 5.695312 -11.65625 5.03125 -10.875 C 4.363281 -10.09375 4.03125 -8.847656 4.03125 -7.140625 C 4.03125 -5.441406 4.363281 -4.195312 5.03125 -3.40625 C 5.695312 -2.625 6.617188 -2.234375 7.796875 -2.234375 C 9.660156 -2.234375 10.800781 -3.132812 11.21875 -4.9375 L 11.453125 -4.9375 L 13.53125 -3.859375 C 13.144531 -2.503906 12.476562 -1.488281 11.53125 -0.8125 C 10.59375 -0.132812 9.347656 0.203125 7.796875 0.203125 Z M 7.796875 0.203125 "/></g></g></g><g fill="#000000" fill-opacity="1"><g transform="translate(52.085821, 280.018837)"><g><path d="M 6.265625 0.203125 C 5.203125 0.203125 4.269531 -0.0078125 3.46875 -0.4375 C 2.675781 -0.875 2.0625 -1.507812 1.625 -2.34375 C 1.1875 -3.1875 0.96875 -4.195312 0.96875 -5.375 C 0.96875 -6.5625 1.1875 -7.570312 1.625 -8.40625 C 2.0625 -9.25 2.675781 -9.890625 3.46875 -10.328125 C 4.269531 -10.765625 5.203125 -10.984375 6.265625 -10.984375 C 7.316406 -10.984375 8.238281 -10.765625 9.03125 -10.328125 C 9.832031 -9.890625 10.453125 -9.25 10.890625 -8.40625 C 11.335938 -7.570312 11.5625 -6.5625 11.5625 -5.375 C 11.5625 -4.195312 11.335938 -3.1875 10.890625 -2.34375 C 10.453125 -1.507812 9.832031 -0.875 9.03125 -0.4375 C 8.238281 -0.0078125 7.316406 0.203125 6.265625 0.203125 Z M 6.265625 -2.09375 C 7.929688 -2.09375 8.765625 -3.1875 8.765625 -5.375 C 8.765625 -6.519531 8.550781 -7.359375 8.125 -7.890625 C 7.695312 -8.421875 7.078125 -8.6875 6.265625 -8.6875 C 4.585938 -8.6875 3.75 -7.582031 3.75 -5.375 C 3.75 -3.1875 4.585938 -2.09375 6.265625 -2.09375 Z M 6.265625 -2.09375 "/></g></g></g><g fill="#000000" fill-opacity="1"><g transform="translate(64.600462, 280.018837)"><g><path d="M 1.546875 0 L 1.546875 -10.765625 L 4.15625 -10.765625 L 4.15625 -9.1875 L 4.359375 -9.140625 C 5.023438 -10.367188 6.113281 -10.984375 7.625 -10.984375 C 8.863281 -10.984375 9.773438 -10.644531 10.359375 -9.96875 C 10.941406 -9.289062 11.234375 -8.300781 11.234375 -7 L 11.234375 0 L 8.53125 0 L 8.53125 -6.671875 C 8.53125 -7.390625 8.382812 -7.90625 8.09375 -8.21875 C 7.8125 -8.53125 7.351562 -8.6875 6.71875 -8.6875 C 5.945312 -8.6875 5.34375 -8.4375 4.90625 -7.9375 C 4.476562 -7.4375 4.265625 -6.648438 4.265625 -5.578125 L 4.265625 0 Z M 1.546875 0 "/></g></g></g><g fill="#000000" fill-opacity="1"><g transform="translate(77.21272, 280.018837)"><g><path d="M 5.046875 0.203125 C 4.304688 0.203125 3.628906 0.117188 3.015625 -0.046875 C 2.398438 -0.222656 1.875 -0.460938 1.4375 -0.765625 C 1.007812 -1.066406 0.691406 -1.414062 0.484375 -1.8125 L 2 -3.421875 L 2.203125 -3.421875 C 2.554688 -2.941406 2.976562 -2.582031 3.46875 -2.34375 C 3.957031 -2.101562 4.488281 -1.984375 5.0625 -1.984375 C 5.582031 -1.984375 5.976562 -2.078125 6.25 -2.265625 C 6.519531 -2.453125 6.65625 -2.722656 6.65625 -3.078125 C 6.65625 -3.347656 6.554688 -3.578125 6.359375 -3.765625 C 6.171875 -3.953125 5.863281 -4.097656 5.4375 -4.203125 L 4 -4.546875 C 2.9375 -4.796875 2.15625 -5.179688 1.65625 -5.703125 C 1.164062 -6.234375 0.921875 -6.898438 0.921875 -7.703125 C 0.921875 -8.378906 1.09375 -8.960938 1.4375 -9.453125 C 1.78125 -9.953125 2.257812 -10.332031 2.875 -10.59375 C 3.5 -10.851562 4.226562 -10.984375 5.0625 -10.984375 C 6.03125 -10.984375 6.832031 -10.84375 7.46875 -10.5625 C 8.101562 -10.28125 8.601562 -9.90625 8.96875 -9.4375 L 7.515625 -7.875 L 7.328125 -7.875 C 7.023438 -8.207031 6.6875 -8.453125 6.3125 -8.609375 C 5.9375 -8.765625 5.519531 -8.84375 5.0625 -8.84375 C 3.988281 -8.84375 3.453125 -8.515625 3.453125 -7.859375 C 3.453125 -7.578125 3.550781 -7.347656 3.75 -7.171875 C 3.945312 -6.992188 4.300781 -6.847656 4.8125 -6.734375 L 6.140625 -6.453125 C 7.234375 -6.210938 8.03125 -5.832031 8.53125 -5.3125 C 9.03125 -4.800781 9.28125 -4.109375 9.28125 -3.234375 C 9.28125 -2.546875 9.109375 -1.941406 8.765625 -1.421875 C 8.429688 -0.898438 7.945312 -0.5 7.3125 -0.21875 C 6.675781 0.0625 5.921875 0.203125 5.046875 0.203125 Z M 5.046875 0.203125 "/></g></g></g><g fill="#000000" fill-opacity="1"><g transform="translate(87.14048, 280.018837)"><g><path d="M 2.90625 -12.0625 C 2.414062 -12.0625 2.015625 -12.207031 1.703125 -12.5 C 1.398438 -12.800781 1.25 -13.1875 1.25 -13.65625 C 1.25 -14.113281 1.398438 -14.488281 1.703125 -14.78125 C 2.015625 -15.082031 2.414062 -15.234375 2.90625 -15.234375 C 3.226562 -15.234375 3.515625 -15.164062 3.765625 -15.03125 C 4.023438 -14.894531 4.222656 -14.707031 4.359375 -14.46875 C 4.503906 -14.226562 4.578125 -13.957031 4.578125 -13.65625 C 4.578125 -13.34375 4.503906 -13.066406 4.359375 -12.828125 C 4.222656 -12.585938 4.023438 -12.398438 3.765625 -12.265625 C 3.515625 -12.128906 3.226562 -12.0625 2.90625 -12.0625 Z M 1.546875 0 L 1.546875 -10.765625 L 4.265625 -10.765625 L 4.265625 0 Z M 1.546875 0 "/></g></g></g><g fill="#000000" fill-opacity="1"><g transform="translate(92.938996, 280.018837)"><g><path d="M 5.046875 0.203125 C 4.304688 0.203125 3.628906 0.117188 3.015625 -0.046875 C 2.398438 -0.222656 1.875 -0.460938 1.4375 -0.765625 C 1.007812 -1.066406 0.691406 -1.414062 0.484375 -1.8125 L 2 -3.421875 L 2.203125 -3.421875 C 2.554688 -2.941406 2.976562 -2.582031 3.46875 -2.34375 C 3.957031 -2.101562 4.488281 -1.984375 5.0625 -1.984375 C 5.582031 -1.984375 5.976562 -2.078125 6.25 -2.265625 C 6.519531 -2.453125 6.65625 -2.722656 6.65625 -3.078125 C 6.65625 -3.347656 6.554688 -3.578125 6.359375 -3.765625 C 6.171875 -3.953125 5.863281 -4.097656 5.4375 -4.203125 L 4 -4.546875 C 2.9375 -4.796875 2.15625 -5.179688 1.65625 -5.703125 C 1.164062 -6.234375 0.921875 -6.898438 0.921875 -7.703125 C 0.921875 -8.378906 1.09375 -8.960938 1.4375 -9.453125 C 1.78125 -9.953125 2.257812 -10.332031 2.875 -10.59375 C 3.5 -10.851562 4.226562 -10.984375 5.0625 -10.984375 C 6.03125 -10.984375 6.832031 -10.84375 7.46875 -10.5625 C 8.101562 -10.28125 8.601562 -9.90625 8.96875 -9.4375 L 7.515625 -7.875 L 7.328125 -7.875 C 7.023438 -8.207031 6.6875 -8.453125 6.3125 -8.609375 C 5.9375 -8.765625 5.519531 -8.84375 5.0625 -8.84375 C 3.988281 -8.84375 3.453125 -8.515625 3.453125 -7.859375 C 3.453125 -7.578125 3.550781 -7.347656 3.75 -7.171875 C 3.945312 -6.992188 4.300781 -6.847656 4.8125 -6.734375 L 6.140625 -6.453125 C 7.234375 -6.210938 8.03125 -5.832031 8.53125 -5.3125 C 9.03125 -4.800781 9.28125 -4.109375 9.28125 -3.234375 C 9.28125 -2.546875 9.109375 -1.941406 8.765625 -1.421875 C 8.429688 -0.898438 7.945312 -0.5 7.3125 -0.21875 C 6.675781 0.0625 5.921875 0.203125 5.046875 0.203125 Z M 5.046875 0.203125 "/></g></g></g><g fill="#000000" fill-opacity="1"><g transform="translate(102.866756, 280.018837)"><g><path d="M 7.4375 -2.5625 L 8.140625 -0.5625 C 7.847656 -0.320312 7.476562 -0.132812 7.03125 0 C 6.59375 0.132812 6.09375 0.203125 5.53125 0.203125 C 4.363281 0.203125 3.476562 -0.113281 2.875 -0.75 C 2.269531 -1.382812 1.96875 -2.304688 1.96875 -3.515625 L 1.96875 -8.640625 L 0.328125 -8.640625 L 0.328125 -10.78125 L 1.96875 -10.78125 L 1.96875 -12.875 L 4.671875 -13.328125 L 4.671875 -10.78125 L 7.71875 -10.78125 L 7.71875 -8.640625 L 4.671875 -8.640625 L 4.671875 -3.71875 C 4.671875 -3.175781 4.78125 -2.78125 5 -2.53125 C 5.21875 -2.289062 5.539062 -2.171875 5.96875 -2.171875 C 6.445312 -2.171875 6.867188 -2.300781 7.234375 -2.5625 Z M 7.4375 -2.5625 "/></g></g></g><g fill="#000000" fill-opacity="1"><g transform="translate(111.232627, 280.018837)"><g><path d="M 10.640625 -4.78125 L 3.71875 -4.78125 C 3.800781 -3.84375 4.066406 -3.160156 4.515625 -2.734375 C 4.972656 -2.304688 5.597656 -2.09375 6.390625 -2.09375 C 7.003906 -2.09375 7.503906 -2.207031 7.890625 -2.4375 C 8.273438 -2.664062 8.582031 -3.015625 8.8125 -3.484375 L 9.03125 -3.484375 L 10.828125 -2.328125 C 10.472656 -1.578125 9.941406 -0.96875 9.234375 -0.5 C 8.523438 -0.03125 7.578125 0.203125 6.390625 0.203125 C 5.273438 0.203125 4.3125 -0.00390625 3.5 -0.421875 C 2.6875 -0.847656 2.0625 -1.476562 1.625 -2.3125 C 1.1875 -3.15625 0.96875 -4.175781 0.96875 -5.375 C 0.96875 -6.601562 1.195312 -7.632812 1.65625 -8.46875 C 2.125 -9.3125 2.75 -9.941406 3.53125 -10.359375 C 4.320312 -10.773438 5.207031 -10.984375 6.1875 -10.984375 C 7.71875 -10.984375 8.882812 -10.578125 9.6875 -9.765625 C 10.5 -8.960938 10.90625 -7.78125 10.90625 -6.21875 C 10.90625 -5.644531 10.882812 -5.203125 10.84375 -4.890625 Z M 8.328125 -6.53125 C 8.296875 -7.34375 8.101562 -7.9375 7.75 -8.3125 C 7.394531 -8.6875 6.875 -8.875 6.1875 -8.875 C 4.820312 -8.875 4.019531 -8.09375 3.78125 -6.53125 Z M 8.328125 -6.53125 "/></g></g></g><g fill="#000000" fill-opacity="1"><g transform="translate(122.937037, 280.018837)"><g><path d="M 1.546875 0 L 1.546875 -10.765625 L 4.15625 -10.765625 L 4.15625 -9.1875 L 4.359375 -9.140625 C 5.023438 -10.367188 6.113281 -10.984375 7.625 -10.984375 C 8.863281 -10.984375 9.773438 -10.644531 10.359375 -9.96875 C 10.941406 -9.289062 11.234375 -8.300781 11.234375 -7 L 11.234375 0 L 8.53125 0 L 8.53125 -6.671875 C 8.53125 -7.390625 8.382812 -7.90625 8.09375 -8.21875 C 7.8125 -8.53125 7.351562 -8.6875 6.71875 -8.6875 C 5.945312 -8.6875 5.34375 -8.4375 4.90625 -7.9375 C 4.476562 -7.4375 4.265625 -6.648438 4.265625 -5.578125 L 4.265625 0 Z M 1.546875 0 "/></g></g></g><g fill="#000000" fill-opacity="1"><g transform="translate(135.549296, 280.018837)"><g><path d="M 6.28125 0.203125 C 5.238281 0.203125 4.316406 -0.0078125 3.515625 -0.4375 C 2.710938 -0.875 2.085938 -1.507812 1.640625 -2.34375 C 1.191406 -3.1875 0.96875 -4.195312 0.96875 -5.375 C 0.96875 -6.5625 1.191406 -7.570312 1.640625 -8.40625 C 2.085938 -9.25 2.707031 -9.890625 3.5 -10.328125 C 4.300781 -10.765625 5.210938 -10.984375 6.234375 -10.984375 C 8.503906 -10.984375 9.957031 -10.15625 10.59375 -8.5 L 8.734375 -7.171875 L 8.53125 -7.171875 C 8.3125 -7.679688 8.023438 -8.0625 7.671875 -8.3125 C 7.316406 -8.5625 6.835938 -8.6875 6.234375 -8.6875 C 5.453125 -8.6875 4.84375 -8.414062 4.40625 -7.875 C 3.96875 -7.332031 3.75 -6.5 3.75 -5.375 C 3.75 -4.269531 3.96875 -3.445312 4.40625 -2.90625 C 4.851562 -2.363281 5.476562 -2.09375 6.28125 -2.09375 C 6.863281 -2.09375 7.359375 -2.25 7.765625 -2.5625 C 8.171875 -2.875 8.460938 -3.328125 8.640625 -3.921875 L 8.84375 -3.953125 L 10.765625 -2.890625 C 10.492188 -1.984375 9.988281 -1.238281 9.25 -0.65625 C 8.507812 -0.0820312 7.519531 0.203125 6.28125 0.203125 Z M 6.28125 0.203125 "/></g></g></g><g fill="#000000" fill-opacity="1"><g transform="translate(146.648473, 280.018837)"><g><path d="M 2.390625 4.578125 C 1.921875 4.578125 1.5 4.539062 1.125 4.46875 C 0.75 4.394531 0.445312 4.300781 0.21875 4.1875 L 0.640625 2 L 0.828125 1.9375 C 0.984375 2.019531 1.179688 2.085938 1.421875 2.140625 C 1.660156 2.191406 1.910156 2.21875 2.171875 2.21875 C 2.609375 2.21875 2.96875 2.160156 3.25 2.046875 C 3.539062 1.929688 3.785156 1.738281 3.984375 1.46875 C 4.191406 1.207031 4.375 0.84375 4.53125 0.375 L 0.234375 -10.765625 L 3.0625 -10.765625 L 5.75 -3.28125 L 5.984375 -3.28125 L 8.578125 -10.765625 L 11.34375 -10.765625 L 7.015625 0.671875 C 6.671875 1.597656 6.289062 2.34375 5.875 2.90625 C 5.457031 3.46875 4.96875 3.882812 4.40625 4.15625 C 3.84375 4.4375 3.171875 4.578125 2.390625 4.578125 Z M 2.390625 4.578125 "/></g></g></g><g clip-path="url(#73feb57956)"><g clip-path="url(#95f75ed498)"><path fill="#00bf63" d="M 406.402344 247.769531 L 552.160156 247.769531 L 552.160156 298.230469 L 406.402344 298.230469 Z M 406.402344 247.769531 " fill-opacity="1" fill-rule="nonzero"/></g></g><g clip-path="url(#ac14d8e63b)"><g clip-path="url(#7052d8a388)"><path stroke-linecap="butt" transform="matrix(0.75, 0, 0, 0.75, 406.401895, 247.770038)" fill="none" stroke-linejoin="miter" d="M 10.000599 -0.000676302 L 184.328731 -0.000676302 C 189.849564 -0.000676302 194.328731 4.478491 194.328731 9.999324 L 194.328731 57.280576 C 194.328731 62.80141 189.849564 67.280577 184.328731 67.280577 L 10.000599 67.280577 C 4.474557 67.280577 0.000598245 62.80141 0.000598245 57.280576 L 0.000598245 9.999324 C 0.000598245 4.478491 4.474557 -0.000676302 10.000599 -0.000676302 Z M 10.000599 -0.000676302 " stroke="#000000" stroke-width="2" stroke-opacity="1" stroke-miterlimit="4"/></g></g><g fill="#000000" fill-opacity="1"><g transform="translate(419.210488, 280.018837)"><g><path d="M 7.796875 0.203125 C 6.484375 0.203125 5.328125 -0.0664062 4.328125 -0.609375 C 3.328125 -1.160156 2.539062 -1.984375 1.96875 -3.078125 C 1.40625 -4.179688 1.125 -5.535156 1.125 -7.140625 C 1.125 -8.742188 1.40625 -10.09375 1.96875 -11.1875 C 2.539062 -12.289062 3.328125 -13.113281 4.328125 -13.65625 C 5.328125 -14.207031 6.484375 -14.484375 7.796875 -14.484375 C 9.171875 -14.484375 10.335938 -14.210938 11.296875 -13.671875 C 12.265625 -13.140625 12.953125 -12.320312 13.359375 -11.21875 L 11.296875 -9.96875 L 11.0625 -9.96875 C 10.75 -10.707031 10.332031 -11.238281 9.8125 -11.5625 C 9.289062 -11.882812 8.617188 -12.046875 7.796875 -12.046875 C 6.617188 -12.046875 5.695312 -11.65625 5.03125 -10.875 C 4.363281 -10.09375 4.03125 -8.847656 4.03125 -7.140625 C 4.03125 -5.441406 4.363281 -4.195312 5.03125 -3.40625 C 5.695312 -2.625 6.617188 -2.234375 7.796875 -2.234375 C 9.660156 -2.234375 10.800781 -3.132812 11.21875 -4.9375 L 11.453125 -4.9375 L 13.53125 -3.859375 C 13.144531 -2.503906 12.476562 -1.488281 11.53125 -0.8125 C 10.59375 -0.132812 9.347656 0.203125 7.796875 0.203125 Z M 7.796875 0.203125 "/></g></g></g><g fill="#000000" fill-opacity="1"><g transform="translate(433.208923, 280.018837)"><g><path d="M 6.265625 0.203125 C 5.203125 0.203125 4.269531 -0.0078125 3.46875 -0.4375 C 2.675781 -0.875 2.0625 -1.507812 1.625 -2.34375 C 1.1875 -3.1875 0.96875 -4.195312 0.96875 -5.375 C 0.96875 -6.5625 1.1875 -7.570312 1.625 -8.40625 C 2.0625 -9.25 2.675781 -9.890625 3.46875 -10.328125 C 4.269531 -10.765625 5.203125 -10.984375 6.265625 -10.984375 C 7.316406 -10.984375 8.238281 -10.765625 9.03125 -10.328125 C 9.832031 -9.890625 10.453125 -9.25 10.890625 -8.40625 C 11.335938 -7.570312 11.5625 -6.5625 11.5625 -5.375 C 11.5625 -4.195312 11.335938 -3.1875 10.890625 -2.34375 C 10.453125 -1.507812 9.832031 -0.875 9.03125 -0.4375 C 8.238281 -0.0078125 7.316406 0.203125 6.265625 0.203125 Z M 6.265625 -2.09375 C 7.929688 -2.09375 8.765625 -3.1875 8.765625 -5.375 C 8.765625 -6.519531 8.550781 -7.359375 8.125 -7.890625 C 7.695312 -8.421875 7.078125 -8.6875 6.265625 -8.6875 C 4.585938 -8.6875 3.75 -7.582031 3.75 -5.375 C 3.75 -3.1875 4.585938 -2.09375 6.265625 -2.09375 Z M 6.265625 -2.09375 "/></g></g></g><g fill="#000000" fill-opacity="1"><g transform="translate(445.723564, 280.018837)"><g><path d="M 1.546875 0 L 1.546875 -10.765625 L 4.15625 -10.765625 L 4.15625 -9.1875 L 4.359375 -9.140625 C 5.023438 -10.367188 6.113281 -10.984375 7.625 -10.984375 C 8.863281 -10.984375 9.773438 -10.644531 10.359375 -9.96875 C 10.941406 -9.289062 11.234375 -8.300781 11.234375 -7 L 11.234375 0 L 8.53125 0 L 8.53125 -6.671875 C 8.53125 -7.390625 8.382812 -7.90625 8.09375 -8.21875 C 7.8125 -8.53125 7.351562 -8.6875 6.71875 -8.6875 C 5.945312 -8.6875 5.34375 -8.4375 4.90625 -7.9375 C 4.476562 -7.4375 4.265625 -6.648438 4.265625 -5.578125 L 4.265625 0 Z M 1.546875 0 "/></g></g></g><g fill="#000000" fill-opacity="1"><g transform="translate(458.335822, 280.018837)"><g><path d="M 5.046875 0.203125 C 4.304688 0.203125 3.628906 0.117188 3.015625 -0.046875 C 2.398438 -0.222656 1.875 -0.460938 1.4375 -0.765625 C 1.007812 -1.066406 0.691406 -1.414062 0.484375 -1.8125 L 2 -3.421875 L 2.203125 -3.421875 C 2.554688 -2.941406 2.976562 -2.582031 3.46875 -2.34375 C 3.957031 -2.101562 4.488281 -1.984375 5.0625 -1.984375 C 5.582031 -1.984375 5.976562 -2.078125 6.25 -2.265625 C 6.519531 -2.453125 6.65625 -2.722656 6.65625 -3.078125 C 6.65625 -3.347656 6.554688 -3.578125 6.359375 -3.765625 C 6.171875 -3.953125 5.863281 -4.097656 5.4375 -4.203125 L 4 -4.546875 C 2.9375 -4.796875 2.15625 -5.179688 1.65625 -5.703125 C 1.164062 -6.234375 0.921875 -6.898438 0.921875 -7.703125 C 0.921875 -8.378906 1.09375 -8.960938 1.4375 -9.453125 C 1.78125 -9.953125 2.257812 -10.332031 2.875 -10.59375 C 3.5 -10.851562 4.226562 -10.984375 5.0625 -10.984375 C 6.03125 -10.984375 6.832031 -10.84375 7.46875 -10.5625 C 8.101562 -10.28125 8.601562 -9.90625 8.96875 -9.4375 L 7.515625 -7.875 L 7.328125 -7.875 C 7.023438 -8.207031 6.6875 -8.453125 6.3125 -8.609375 C 5.9375 -8.765625 5.519531 -8.84375 5.0625 -8.84375 C 3.988281 -8.84375 3.453125 -8.515625 3.453125 -7.859375 C 3.453125 -7.578125 3.550781 -7.347656 3.75 -7.171875 C 3.945312 -6.992188 4.300781 -6.847656 4.8125 -6.734375 L 6.140625 -6.453125 C 7.234375 -6.210938 8.03125 -5.832031 8.53125 -5.3125 C 9.03125 -4.800781 9.28125 -4.109375 9.28125 -3.234375 C 9.28125 -2.546875 9.109375 -1.941406 8.765625 -1.421875 C 8.429688 -0.898438 7.945312 -0.5 7.3125 -0.21875 C 6.675781 0.0625 5.921875 0.203125 5.046875 0.203125 Z M 5.046875 0.203125 "/></g></g></g><g fill="#000000" fill-opacity="1"><g transform="translate(468.263583, 280.018837)"><g><path d="M 2.90625 -12.0625 C 2.414062 -12.0625 2.015625 -12.207031 1.703125 -12.5 C 1.398438 -12.800781 1.25 -13.1875 1.25 -13.65625 C 1.25 -14.113281 1.398438 -14.488281 1.703125 -14.78125 C 2.015625 -15.082031 2.414062 -15.234375 2.90625 -15.234375 C 3.226562 -15.234375 3.515625 -15.164062 3.765625 -15.03125 C 4.023438 -14.894531 4.222656 -14.707031 4.359375 -14.46875 C 4.503906 -14.226562 4.578125 -13.957031 4.578125 -13.65625 C 4.578125 -13.34375 4.503906 -13.066406 4.359375 -12.828125 C 4.222656 -12.585938 4.023438 -12.398438 3.765625 -12.265625 C 3.515625 -12.128906 3.226562 -12.0625 2.90625 -12.0625 Z M 1.546875 0 L 1.546875 -10.765625 L 4.265625 -10.765625 L 4.265625 0 Z M 1.546875 0 "/></g></g></g><g fill="#000000" fill-opacity="1"><g transform="translate(474.062098, 280.018837)"><g><path d="M 5.046875 0.203125 C 4.304688 0.203125 3.628906 0.117188 3.015625 -0.046875 C 2.398438 -0.222656 1.875 -0.460938 1.4375 -0.765625 C 1.007812 -1.066406 0.691406 -1.414062 0.484375 -1.8125 L 2 -3.421875 L 2.203125 -3.421875 C 2.554688 -2.941406 2.976562 -2.582031 3.46875 -2.34375 C 3.957031 -2.101562 4.488281 -1.984375 5.0625 -1.984375 C 5.582031 -1.984375 5.976562 -2.078125 6.25 -2.265625 C 6.519531 -2.453125 6.65625 -2.722656 6.65625 -3.078125 C 6.65625 -3.347656 6.554688 -3.578125 6.359375 -3.765625 C 6.171875 -3.953125 5.863281 -4.097656 5.4375 -4.203125 L 4 -4.546875 C 2.9375 -4.796875 2.15625 -5.179688 1.65625 -5.703125 C 1.164062 -6.234375 0.921875 -6.898438 0.921875 -7.703125 C 0.921875 -8.378906 1.09375 -8.960938 1.4375 -9.453125 C 1.78125 -9.953125 2.257812 -10.332031 2.875 -10.59375 C 3.5 -10.851562 4.226562 -10.984375 5.0625 -10.984375 C 6.03125 -10.984375 6.832031 -10.84375 7.46875 -10.5625 C 8.101562 -10.28125 8.601562 -9.90625 8.96875 -9.4375 L 7.515625 -7.875 L 7.328125 -7.875 C 7.023438 -8.207031 6.6875 -8.453125 6.3125 -8.609375 C 5.9375 -8.765625 5.519531 -8.84375 5.0625 -8.84375 C 3.988281 -8.84375 3.453125 -8.515625 3.453125 -7.859375 C 3.453125 -7.578125 3.550781 -7.347656 3.75 -7.171875 C 3.945312 -6.992188 4.300781 -6.847656 4.8125 -6.734375 L 6.140625 -6.453125 C 7.234375 -6.210938 8.03125 -5.832031 8.53125 -5.3125 C 9.03125 -4.800781 9.28125 -4.109375 9.28125 -3.234375 C 9.28125 -2.546875 9.109375 -1.941406 8.765625 -1.421875 C 8.429688 -0.898438 7.945312 -0.5 7.3125 -0.21875 C 6.675781 0.0625 5.921875 0.203125 5.046875 0.203125 Z M 5.046875 0.203125 "/></g></g></g><g fill="#000000" fill-opacity="1"><g transform="translate(483.989858, 280.018837)"><g><path d="M 7.4375 -2.5625 L 8.140625 -0.5625 C 7.847656 -0.320312 7.476562 -0.132812 7.03125 0 C 6.59375 0.132812 6.09375 0.203125 5.53125 0.203125 C 4.363281 0.203125 3.476562 -0.113281 2.875 -0.75 C 2.269531 -1.382812 1.96875 -2.304688 1.96875 -3.515625 L 1.96875 -8.640625 L 0.328125 -8.640625 L 0.328125 -10.78125 L 1.96875 -10.78125 L 1.96875 -12.875 L 4.671875 -13.328125 L 4.671875 -10.78125 L 7.71875 -10.78125 L 7.71875 -8.640625 L 4.671875 -8.640625 L 4.671875 -3.71875 C 4.671875 -3.175781 4.78125 -2.78125 5 -2.53125 C 5.21875 -2.289062 5.539062 -2.171875 5.96875 -2.171875 C 6.445312 -2.171875 6.867188 -2.300781 7.234375 -2.5625 Z M 7.4375 -2.5625 "/></g></g></g><g fill="#000000" fill-opacity="1"><g transform="translate(492.355729, 280.018837)"><g><path d="M 10.640625 -4.78125 L 3.71875 -4.78125 C 3.800781 -3.84375 4.066406 -3.160156 4.515625 -2.734375 C 4.972656 -2.304688 5.597656 -2.09375 6.390625 -2.09375 C 7.003906 -2.09375 7.503906 -2.207031 7.890625 -2.4375 C 8.273438 -2.664062 8.582031 -3.015625 8.8125 -3.484375 L 9.03125 -3.484375 L 10.828125 -2.328125 C 10.472656 -1.578125 9.941406 -0.96875 9.234375 -0.5 C 8.523438 -0.03125 7.578125 0.203125 6.390625 0.203125 C 5.273438 0.203125 4.3125 -0.00390625 3.5 -0.421875 C 2.6875 -0.847656 2.0625 -1.476562 1.625 -2.3125 C 1.1875 -3.15625 0.96875 -4.175781 0.96875 -5.375 C 0.96875 -6.601562 1.195312 -7.632812 1.65625 -8.46875 C 2.125 -9.3125 2.75 -9.941406 3.53125 -10.359375 C 4.320312 -10.773438 5.207031 -10.984375 6.1875 -10.984375 C 7.71875 -10.984375 8.882812 -10.578125 9.6875 -9.765625 C 10.5 -8.960938 10.90625 -7.78125 10.90625 -6.21875 C 10.90625 -5.644531 10.882812 -5.203125 10.84375 -4.890625 Z M 8.328125 -6.53125 C 8.296875 -7.34375 8.101562 -7.9375 7.75 -8.3125 C 7.394531 -8.6875 6.875 -8.875 6.1875 -8.875 C 4.820312 -8.875 4.019531 -8.09375 3.78125 -6.53125 Z M 8.328125 -6.53125 "/></g></g></g><g fill="#000000" fill-opacity="1"><g transform="translate(504.060139, 280.018837)"><g><path d="M 1.546875 0 L 1.546875 -10.765625 L 4.15625 -10.765625 L 4.15625 -9.1875 L 4.359375 -9.140625 C 5.023438 -10.367188 6.113281 -10.984375 7.625 -10.984375 C 8.863281 -10.984375 9.773438 -10.644531 10.359375 -9.96875 C 10.941406 -9.289062 11.234375 -8.300781 11.234375 -7 L 11.234375 0 L 8.53125 0 L 8.53125 -6.671875 C 8.53125 -7.390625 8.382812 -7.90625 8.09375 -8.21875 C 7.8125 -8.53125 7.351562 -8.6875 6.71875 -8.6875 C 5.945312 -8.6875 5.34375 -8.4375 4.90625 -7.9375 C 4.476562 -7.4375 4.265625 -6.648438 4.265625 -5.578125 L 4.265625 0 Z M 1.546875 0 "/></g></g></g><g fill="#000000" fill-opacity="1"><g transform="translate(516.672398, 280.018837)"><g><path d="M 6.28125 0.203125 C 5.238281 0.203125 4.316406 -0.0078125 3.515625 -0.4375 C 2.710938 -0.875 2.085938 -1.507812 1.640625 -2.34375 C 1.191406 -3.1875 0.96875 -4.195312 0.96875 -5.375 C 0.96875 -6.5625 1.191406 -7.570312 1.640625 -8.40625 C 2.085938 -9.25 2.707031 -9.890625 3.5 -10.328125 C 4.300781 -10.765625 5.210938 -10.984375 6.234375 -10.984375 C 8.503906 -10.984375 9.957031 -10.15625 10.59375 -8.5 L 8.734375 -7.171875 L 8.53125 -7.171875 C 8.3125 -7.679688 8.023438 -8.0625 7.671875 -8.3125 C 7.316406 -8.5625 6.835938 -8.6875 6.234375 -8.6875 C 5.453125 -8.6875 4.84375 -8.414062 4.40625 -7.875 C 3.96875 -7.332031 3.75 -6.5 3.75 -5.375 C 3.75 -4.269531 3.96875 -3.445312 4.40625 -2.90625 C 4.851562 -2.363281 5.476562 -2.09375 6.28125 -2.09375 C 6.863281 -2.09375 7.359375 -2.25 7.765625 -2.5625 C 8.171875 -2.875 8.460938 -3.328125 8.640625 -3.921875 L 8.84375 -3.953125 L 10.765625 -2.890625 C 10.492188 -1.984375 9.988281 -1.238281 9.25 -0.65625 C 8.507812 -0.0820312 7.519531 0.203125 6.28125 0.203125 Z M 6.28125 0.203125 "/></g></g></g><g fill="#000000" fill-opacity="1"><g transform="translate(527.771576, 280.018837)"><g><path d="M 2.390625 4.578125 C 1.921875 4.578125 1.5 4.539062 1.125 4.46875 C 0.75 4.394531 0.445312 4.300781 0.21875 4.1875 L 0.640625 2 L 0.828125 1.9375 C 0.984375 2.019531 1.179688 2.085938 1.421875 2.140625 C 1.660156 2.191406 1.910156 2.21875 2.171875 2.21875 C 2.609375 2.21875 2.96875 2.160156 3.25 2.046875 C 3.539062 1.929688 3.785156 1.738281 3.984375 1.46875 C 4.191406 1.207031 4.375 0.84375 4.53125 0.375 L 0.234375 -10.765625 L 3.0625 -10.765625 L 5.75 -3.28125 L 5.984375 -3.28125 L 8.578125 -10.765625 L 11.34375 -10.765625 L 7.015625 0.671875 C 6.671875 1.597656 6.289062 2.34375 5.875 2.90625 C 5.457031 3.46875 4.96875 3.882812 4.40625 4.15625 C 3.84375 4.4375 3.171875 4.578125 2.390625 4.578125 Z M 2.390625 4.578125 "/></g></g></g><g clip-path="url(#95f67e38fc)"><g clip-path="url(#e6db6aba91)"><path fill="#7dbfff" d="M 215.839844 247.769531 L 361.597656 247.769531 L 361.597656 298.230469 L 215.839844 298.230469 Z M 215.839844 247.769531 " fill-opacity="1" fill-rule="nonzero"/></g></g><g clip-path="url(#a59a7d00e3)"><g clip-path="url(#e08a7442f7)"><path stroke-linecap="butt" transform="matrix(0.75, 0, 0, 0.75, 215.840353, 247.770038)" fill="none" stroke-linejoin="miter" d="M 9.999322 -0.000676302 L 184.327454 -0.000676302 C 189.853496 -0.000676302 194.327455 4.478491 194.327455 9.999324 L 194.327455 57.280576 C 194.327455 62.80141 189.853496 67.280577 184.327454 67.280577 L 9.999322 67.280577 C 4.478488 67.280577 -0.000678476 62.80141 -0.000678476 57.280576 L -0.000678476 9.999324 C -0.000678476 4.478491 4.478488 -0.000676302 9.999322 -0.000676302 Z M 9.999322 -0.000676302 " stroke="#000000" stroke-width="2" stroke-opacity="1" stroke-miterlimit="4"/></g></g><g fill="#000000" fill-opacity="1"><g transform="translate(233.313008, 280.018837)"><g><path d="M 13.703125 0 L 10.734375 0 L 9.65625 -3.296875 L 4.1875 -3.296875 L 3.109375 0 L 0.21875 0 L 5.140625 -14.28125 L 8.765625 -14.28125 Z M 6.78125 -11.296875 L 4.953125 -5.671875 L 8.875 -5.671875 L 7.03125 -11.296875 Z M 6.78125 -11.296875 "/></g></g></g><g fill="#000000" fill-opacity="1"><g transform="translate(247.223588, 280.018837)"><g><path d="M 7.40625 0 L 4.1875 0 L 0.203125 -10.765625 L 3.03125 -10.765625 L 5.71875 -3.09375 L 5.9375 -3.09375 L 8.625 -10.765625 L 11.390625 -10.765625 Z M 7.40625 0 "/></g></g></g><g fill="#000000" fill-opacity="1"><g transform="translate(258.801094, 280.018837)"><g><path d="M 4.203125 0.203125 C 3.515625 0.203125 2.914062 0.078125 2.40625 -0.171875 C 1.894531 -0.429688 1.503906 -0.804688 1.234375 -1.296875 C 0.960938 -1.785156 0.828125 -2.375 0.828125 -3.0625 C 0.828125 -3.707031 0.960938 -4.242188 1.234375 -4.671875 C 1.503906 -5.109375 1.925781 -5.460938 2.5 -5.734375 C 3.070312 -6.015625 3.820312 -6.226562 4.75 -6.375 C 5.394531 -6.476562 5.882812 -6.59375 6.21875 -6.71875 C 6.550781 -6.84375 6.773438 -6.984375 6.890625 -7.140625 C 7.015625 -7.296875 7.078125 -7.492188 7.078125 -7.734375 C 7.078125 -8.078125 6.953125 -8.335938 6.703125 -8.515625 C 6.460938 -8.703125 6.066406 -8.796875 5.515625 -8.796875 C 4.910156 -8.796875 4.335938 -8.660156 3.796875 -8.390625 C 3.253906 -8.128906 2.785156 -7.78125 2.390625 -7.34375 L 2.203125 -7.34375 L 1.0625 -9.046875 C 1.613281 -9.660156 2.28125 -10.132812 3.0625 -10.46875 C 3.851562 -10.8125 4.710938 -10.984375 5.640625 -10.984375 C 7.066406 -10.984375 8.097656 -10.675781 8.734375 -10.0625 C 9.378906 -9.457031 9.703125 -8.597656 9.703125 -7.484375 L 9.703125 -2.8125 C 9.703125 -2.332031 9.910156 -2.09375 10.328125 -2.09375 C 10.492188 -2.09375 10.65625 -2.117188 10.8125 -2.171875 L 10.953125 -2.140625 L 11.140625 -0.25 C 10.992188 -0.15625 10.785156 -0.078125 10.515625 -0.015625 C 10.253906 0.046875 9.960938 0.078125 9.640625 0.078125 C 8.992188 0.078125 8.488281 -0.046875 8.125 -0.296875 C 7.769531 -0.546875 7.515625 -0.929688 7.359375 -1.453125 L 7.15625 -1.46875 C 6.625 -0.351562 5.640625 0.203125 4.203125 0.203125 Z M 5.0625 -1.8125 C 5.6875 -1.8125 6.1875 -2.019531 6.5625 -2.4375 C 6.9375 -2.863281 7.125 -3.453125 7.125 -4.203125 L 7.125 -5.296875 L 6.9375 -5.328125 C 6.769531 -5.203125 6.554688 -5.09375 6.296875 -5 C 6.035156 -4.914062 5.65625 -4.832031 5.15625 -4.75 C 4.570312 -4.644531 4.148438 -4.472656 3.890625 -4.234375 C 3.628906 -4.003906 3.5 -3.671875 3.5 -3.234375 C 3.5 -2.773438 3.632812 -2.421875 3.90625 -2.171875 C 4.1875 -1.929688 4.570312 -1.8125 5.0625 -1.8125 Z M 5.0625 -1.8125 "/></g></g></g><g fill="#000000" fill-opacity="1"><g transform="translate(270.154079, 280.018837)"><g><path d="M 2.90625 -12.0625 C 2.414062 -12.0625 2.015625 -12.207031 1.703125 -12.5 C 1.398438 -12.800781 1.25 -13.1875 1.25 -13.65625 C 1.25 -14.113281 1.398438 -14.488281 1.703125 -14.78125 C 2.015625 -15.082031 2.414062 -15.234375 2.90625 -15.234375 C 3.226562 -15.234375 3.515625 -15.164062 3.765625 -15.03125 C 4.023438 -14.894531 4.222656 -14.707031 4.359375 -14.46875 C 4.503906 -14.226562 4.578125 -13.957031 4.578125 -13.65625 C 4.578125 -13.34375 4.503906 -13.066406 4.359375 -12.828125 C 4.222656 -12.585938 4.023438 -12.398438 3.765625 -12.265625 C 3.515625 -12.128906 3.226562 -12.0625 2.90625 -12.0625 Z M 1.546875 0 L 1.546875 -10.765625 L 4.265625 -10.765625 L 4.265625 0 Z M 1.546875 0 "/></g></g></g><g fill="#000000" fill-opacity="1"><g transform="translate(275.952594, 280.018837)"><g><path d="M 4.46875 0.203125 C 3.5 0.203125 2.757812 -0.0546875 2.25 -0.578125 C 1.738281 -1.109375 1.484375 -1.90625 1.484375 -2.96875 L 1.484375 -15.09375 L 4.1875 -15.09375 L 4.1875 -3.078125 C 4.1875 -2.421875 4.460938 -2.09375 5.015625 -2.09375 C 5.171875 -2.09375 5.335938 -2.117188 5.515625 -2.171875 L 5.640625 -2.125 L 5.890625 -0.046875 C 5.742188 0.0234375 5.546875 0.0820312 5.296875 0.125 C 5.046875 0.175781 4.769531 0.203125 4.46875 0.203125 Z M 4.46875 0.203125 "/></g></g></g><g fill="#000000" fill-opacity="1"><g transform="translate(282.141581, 280.018837)"><g><path d="M 4.203125 0.203125 C 3.515625 0.203125 2.914062 0.078125 2.40625 -0.171875 C 1.894531 -0.429688 1.503906 -0.804688 1.234375 -1.296875 C 0.960938 -1.785156 0.828125 -2.375 0.828125 -3.0625 C 0.828125 -3.707031 0.960938 -4.242188 1.234375 -4.671875 C 1.503906 -5.109375 1.925781 -5.460938 2.5 -5.734375 C 3.070312 -6.015625 3.820312 -6.226562 4.75 -6.375 C 5.394531 -6.476562 5.882812 -6.59375 6.21875 -6.71875 C 6.550781 -6.84375 6.773438 -6.984375 6.890625 -7.140625 C 7.015625 -7.296875 7.078125 -7.492188 7.078125 -7.734375 C 7.078125 -8.078125 6.953125 -8.335938 6.703125 -8.515625 C 6.460938 -8.703125 6.066406 -8.796875 5.515625 -8.796875 C 4.910156 -8.796875 4.335938 -8.660156 3.796875 -8.390625 C 3.253906 -8.128906 2.785156 -7.78125 2.390625 -7.34375 L 2.203125 -7.34375 L 1.0625 -9.046875 C 1.613281 -9.660156 2.28125 -10.132812 3.0625 -10.46875 C 3.851562 -10.8125 4.710938 -10.984375 5.640625 -10.984375 C 7.066406 -10.984375 8.097656 -10.675781 8.734375 -10.0625 C 9.378906 -9.457031 9.703125 -8.597656 9.703125 -7.484375 L 9.703125 -2.8125 C 9.703125 -2.332031 9.910156 -2.09375 10.328125 -2.09375 C 10.492188 -2.09375 10.65625 -2.117188 10.8125 -2.171875 L 10.953125 -2.140625 L 11.140625 -0.25 C 10.992188 -0.15625 10.785156 -0.078125 10.515625 -0.015625 C 10.253906 0.046875 9.960938 0.078125 9.640625 0.078125 C 8.992188 0.078125 8.488281 -0.046875 8.125 -0.296875 C 7.769531 -0.546875 7.515625 -0.929688 7.359375 -1.453125 L 7.15625 -1.46875 C 6.625 -0.351562 5.640625 0.203125 4.203125 0.203125 Z M 5.0625 -1.8125 C 5.6875 -1.8125 6.1875 -2.019531 6.5625 -2.4375 C 6.9375 -2.863281 7.125 -3.453125 7.125 -4.203125 L 7.125 -5.296875 L 6.9375 -5.328125 C 6.769531 -5.203125 6.554688 -5.09375 6.296875 -5 C 6.035156 -4.914062 5.65625 -4.832031 5.15625 -4.75 C 4.570312 -4.644531 4.148438 -4.472656 3.890625 -4.234375 C 3.628906 -4.003906 3.5 -3.671875 3.5 -3.234375 C 3.5 -2.773438 3.632812 -2.421875 3.90625 -2.171875 C 4.1875 -1.929688 4.570312 -1.8125 5.0625 -1.8125 Z M 5.0625 -1.8125 "/></g></g></g><g fill="#000000" fill-opacity="1"><g transform="translate(293.494566, 280.018837)"><g><path d="M 7.53125 0.203125 C 6.15625 0.203125 5.132812 -0.3125 4.46875 -1.34375 L 4.265625 -1.296875 L 4.265625 0 L 1.546875 0 L 1.546875 -15.09375 L 4.265625 -15.09375 L 4.265625 -9.5 L 4.46875 -9.46875 C 4.832031 -9.976562 5.265625 -10.359375 5.765625 -10.609375 C 6.273438 -10.859375 6.882812 -10.984375 7.59375 -10.984375 C 8.457031 -10.984375 9.210938 -10.773438 9.859375 -10.359375 C 10.515625 -9.953125 11.023438 -9.328125 11.390625 -8.484375 C 11.753906 -7.648438 11.9375 -6.613281 11.9375 -5.375 C 11.9375 -4.15625 11.75 -3.125 11.375 -2.28125 C 11 -1.445312 10.476562 -0.820312 9.8125 -0.40625 C 9.144531 0 8.382812 0.203125 7.53125 0.203125 Z M 6.703125 -2.09375 C 7.503906 -2.09375 8.113281 -2.359375 8.53125 -2.890625 C 8.945312 -3.421875 9.15625 -4.25 9.15625 -5.375 C 9.15625 -6.519531 8.945312 -7.359375 8.53125 -7.890625 C 8.113281 -8.421875 7.503906 -8.6875 6.703125 -8.6875 C 5.941406 -8.6875 5.335938 -8.410156 4.890625 -7.859375 C 4.453125 -7.316406 4.234375 -6.488281 4.234375 -5.375 C 4.234375 -4.269531 4.453125 -3.445312 4.890625 -2.90625 C 5.335938 -2.363281 5.941406 -2.09375 6.703125 -2.09375 Z M 6.703125 -2.09375 "/></g></g></g><g fill="#000000" fill-opacity="1"><g transform="translate(306.389917, 280.018837)"><g><path d="M 2.90625 -12.0625 C 2.414062 -12.0625 2.015625 -12.207031 1.703125 -12.5 C 1.398438 -12.800781 1.25 -13.1875 1.25 -13.65625 C 1.25 -14.113281 1.398438 -14.488281 1.703125 -14.78125 C 2.015625 -15.082031 2.414062 -15.234375 2.90625 -15.234375 C 3.226562 -15.234375 3.515625 -15.164062 3.765625 -15.03125 C 4.023438 -14.894531 4.222656 -14.707031 4.359375 -14.46875 C 4.503906 -14.226562 4.578125 -13.957031 4.578125 -13.65625 C 4.578125 -13.34375 4.503906 -13.066406 4.359375 -12.828125 C 4.222656 -12.585938 4.023438 -12.398438 3.765625 -12.265625 C 3.515625 -12.128906 3.226562 -12.0625 2.90625 -12.0625 Z M 1.546875 0 L 1.546875 -10.765625 L 4.265625 -10.765625 L 4.265625 0 Z M 1.546875 0 "/></g></g></g><g fill="#000000" fill-opacity="1"><g transform="translate(312.188432, 280.018837)"><g><path d="M 4.46875 0.203125 C 3.5 0.203125 2.757812 -0.0546875 2.25 -0.578125 C 1.738281 -1.109375 1.484375 -1.90625 1.484375 -2.96875 L 1.484375 -15.09375 L 4.1875 -15.09375 L 4.1875 -3.078125 C 4.1875 -2.421875 4.460938 -2.09375 5.015625 -2.09375 C 5.171875 -2.09375 5.335938 -2.117188 5.515625 -2.171875 L 5.640625 -2.125 L 5.890625 -0.046875 C 5.742188 0.0234375 5.546875 0.0820312 5.296875 0.125 C 5.046875 0.175781 4.769531 0.203125 4.46875 0.203125 Z M 4.46875 0.203125 "/></g></g></g><g fill="#000000" fill-opacity="1"><g transform="translate(318.37742, 280.018837)"><g><path d="M 2.90625 -12.0625 C 2.414062 -12.0625 2.015625 -12.207031 1.703125 -12.5 C 1.398438 -12.800781 1.25 -13.1875 1.25 -13.65625 C 1.25 -14.113281 1.398438 -14.488281 1.703125 -14.78125 C 2.015625 -15.082031 2.414062 -15.234375 2.90625 -15.234375 C 3.226562 -15.234375 3.515625 -15.164062 3.765625 -15.03125 C 4.023438 -14.894531 4.222656 -14.707031 4.359375 -14.46875 C 4.503906 -14.226562 4.578125 -13.957031 4.578125 -13.65625 C 4.578125 -13.34375 4.503906 -13.066406 4.359375 -12.828125 C 4.222656 -12.585938 4.023438 -12.398438 3.765625 -12.265625 C 3.515625 -12.128906 3.226562 -12.0625 2.90625 -12.0625 Z M 1.546875 0 L 1.546875 -10.765625 L 4.265625 -10.765625 L 4.265625 0 Z M 1.546875 0 "/></g></g></g><g fill="#000000" fill-opacity="1"><g transform="translate(324.175935, 280.018837)"><g><path d="M 7.4375 -2.5625 L 8.140625 -0.5625 C 7.847656 -0.320312 7.476562 -0.132812 7.03125 0 C 6.59375 0.132812 6.09375 0.203125 5.53125 0.203125 C 4.363281 0.203125 3.476562 -0.113281 2.875 -0.75 C 2.269531 -1.382812 1.96875 -2.304688 1.96875 -3.515625 L 1.96875 -8.640625 L 0.328125 -8.640625 L 0.328125 -10.78125 L 1.96875 -10.78125 L 1.96875 -12.875 L 4.671875 -13.328125 L 4.671875 -10.78125 L 7.71875 -10.78125 L 7.71875 -8.640625 L 4.671875 -8.640625 L 4.671875 -3.71875 C 4.671875 -3.175781 4.78125 -2.78125 5 -2.53125 C 5.21875 -2.289062 5.539062 -2.171875 5.96875 -2.171875 C 6.445312 -2.171875 6.867188 -2.300781 7.234375 -2.5625 Z M 7.4375 -2.5625 "/></g></g></g><g fill="#000000" fill-opacity="1"><g transform="translate(332.541806, 280.018837)"><g><path d="M 2.390625 4.578125 C 1.921875 4.578125 1.5 4.539062 1.125 4.46875 C 0.75 4.394531 0.445312 4.300781 0.21875 4.1875 L 0.640625 2 L 0.828125 1.9375 C 0.984375 2.019531 1.179688 2.085938 1.421875 2.140625 C 1.660156 2.191406 1.910156 2.21875 2.171875 2.21875 C 2.609375 2.21875 2.96875 2.160156 3.25 2.046875 C 3.539062 1.929688 3.785156 1.738281 3.984375 1.46875 C 4.191406 1.207031 4.375 0.84375 4.53125 0.375 L 0.234375 -10.765625 L 3.0625 -10.765625 L 5.75 -3.28125 L 5.984375 -3.28125 L 8.578125 -10.765625 L 11.34375 -10.765625 L 7.015625 0.671875 C 6.671875 1.597656 6.289062 2.34375 5.875 2.90625 C 5.457031 3.46875 4.96875 3.882812 4.40625 4.15625 C 3.84375 4.4375 3.171875 4.578125 2.390625 4.578125 Z M 2.390625 4.578125 "/></g></g></g><g clip-path="url(#3de9bfc2af)"><g clip-path="url(#950a3b7ce2)"><path fill="#ffbd59" d="M 596.964844 247.769531 L 742.722656 247.769531 L 742.722656 298.230469 L 596.964844 298.230469 Z M 596.964844 247.769531 " fill-opacity="1" fill-rule="nonzero"/></g></g><g clip-path="url(#575630904f)"><g clip-path="url(#4dd434c116)"><path stroke-linecap="butt" transform="matrix(0.75, 0, 0, 0.75, 596.963471, 247.770038)" fill="none" stroke-linejoin="miter" d="M 9.996622 -0.000676302 L 184.329963 -0.000676302 C 189.850796 -0.000676302 194.329963 4.478491 194.329963 9.999324 L 194.329963 57.280576 C 194.329963 62.80141 189.850796 67.280577 184.329963 67.280577 L 9.996622 67.280577 C 4.475789 67.280577 0.00183016 62.80141 0.00183016 57.280576 L 0.00183016 9.999324 C 0.00183016 4.478491 4.475789 -0.000676302 9.996622 -0.000676302 Z M 9.996622 -0.000676302 " stroke="#000000" stroke-width="2" stroke-opacity="1" stroke-miterlimit="4"/></g></g><g fill="#000000" fill-opacity="1"><g transform="translate(630.701751, 280.018837)"><g><path d="M 4.671875 -14.28125 L 4.671875 -2.359375 L 11.09375 -2.359375 L 11.09375 0 L 1.859375 0 L 1.859375 -14.28125 Z M 4.671875 -14.28125 "/></g></g></g><g fill="#000000" fill-opacity="1"><g transform="translate(642.259734, 280.018837)"><g><path d="M 4.203125 0.203125 C 3.515625 0.203125 2.914062 0.078125 2.40625 -0.171875 C 1.894531 -0.429688 1.503906 -0.804688 1.234375 -1.296875 C 0.960938 -1.785156 0.828125 -2.375 0.828125 -3.0625 C 0.828125 -3.707031 0.960938 -4.242188 1.234375 -4.671875 C 1.503906 -5.109375 1.925781 -5.460938 2.5 -5.734375 C 3.070312 -6.015625 3.820312 -6.226562 4.75 -6.375 C 5.394531 -6.476562 5.882812 -6.59375 6.21875 -6.71875 C 6.550781 -6.84375 6.773438 -6.984375 6.890625 -7.140625 C 7.015625 -7.296875 7.078125 -7.492188 7.078125 -7.734375 C 7.078125 -8.078125 6.953125 -8.335938 6.703125 -8.515625 C 6.460938 -8.703125 6.066406 -8.796875 5.515625 -8.796875 C 4.910156 -8.796875 4.335938 -8.660156 3.796875 -8.390625 C 3.253906 -8.128906 2.785156 -7.78125 2.390625 -7.34375 L 2.203125 -7.34375 L 1.0625 -9.046875 C 1.613281 -9.660156 2.28125 -10.132812 3.0625 -10.46875 C 3.851562 -10.8125 4.710938 -10.984375 5.640625 -10.984375 C 7.066406 -10.984375 8.097656 -10.675781 8.734375 -10.0625 C 9.378906 -9.457031 9.703125 -8.597656 9.703125 -7.484375 L 9.703125 -2.8125 C 9.703125 -2.332031 9.910156 -2.09375 10.328125 -2.09375 C 10.492188 -2.09375 10.65625 -2.117188 10.8125 -2.171875 L 10.953125 -2.140625 L 11.140625 -0.25 C 10.992188 -0.15625 10.785156 -0.078125 10.515625 -0.015625 C 10.253906 0.046875 9.960938 0.078125 9.640625 0.078125 C 8.992188 0.078125 8.488281 -0.046875 8.125 -0.296875 C 7.769531 -0.546875 7.515625 -0.929688 7.359375 -1.453125 L 7.15625 -1.46875 C 6.625 -0.351562 5.640625 0.203125 4.203125 0.203125 Z M 5.0625 -1.8125 C 5.6875 -1.8125 6.1875 -2.019531 6.5625 -2.4375 C 6.9375 -2.863281 7.125 -3.453125 7.125 -4.203125 L 7.125 -5.296875 L 6.9375 -5.328125 C 6.769531 -5.203125 6.554688 -5.09375 6.296875 -5 C 6.035156 -4.914062 5.65625 -4.832031 5.15625 -4.75 C 4.570312 -4.644531 4.148438 -4.472656 3.890625 -4.234375 C 3.628906 -4.003906 3.5 -3.671875 3.5 -3.234375 C 3.5 -2.773438 3.632812 -2.421875 3.90625 -2.171875 C 4.1875 -1.929688 4.570312 -1.8125 5.0625 -1.8125 Z M 5.0625 -1.8125 "/></g></g></g><g fill="#000000" fill-opacity="1"><g transform="translate(653.612719, 280.018837)"><g><path d="M 7.4375 -2.5625 L 8.140625 -0.5625 C 7.847656 -0.320312 7.476562 -0.132812 7.03125 0 C 6.59375 0.132812 6.09375 0.203125 5.53125 0.203125 C 4.363281 0.203125 3.476562 -0.113281 2.875 -0.75 C 2.269531 -1.382812 1.96875 -2.304688 1.96875 -3.515625 L 1.96875 -8.640625 L 0.328125 -8.640625 L 0.328125 -10.78125 L 1.96875 -10.78125 L 1.96875 -12.875 L 4.671875 -13.328125 L 4.671875 -10.78125 L 7.71875 -10.78125 L 7.71875 -8.640625 L 4.671875 -8.640625 L 4.671875 -3.71875 C 4.671875 -3.175781 4.78125 -2.78125 5 -2.53125 C 5.21875 -2.289062 5.539062 -2.171875 5.96875 -2.171875 C 6.445312 -2.171875 6.867188 -2.300781 7.234375 -2.5625 Z M 7.4375 -2.5625 "/></g></g></g><g fill="#000000" fill-opacity="1"><g transform="translate(661.97859, 280.018837)"><g><path d="M 10.640625 -4.78125 L 3.71875 -4.78125 C 3.800781 -3.84375 4.066406 -3.160156 4.515625 -2.734375 C 4.972656 -2.304688 5.597656 -2.09375 6.390625 -2.09375 C 7.003906 -2.09375 7.503906 -2.207031 7.890625 -2.4375 C 8.273438 -2.664062 8.582031 -3.015625 8.8125 -3.484375 L 9.03125 -3.484375 L 10.828125 -2.328125 C 10.472656 -1.578125 9.941406 -0.96875 9.234375 -0.5 C 8.523438 -0.03125 7.578125 0.203125 6.390625 0.203125 C 5.273438 0.203125 4.3125 -0.00390625 3.5 -0.421875 C 2.6875 -0.847656 2.0625 -1.476562 1.625 -2.3125 C 1.1875 -3.15625 0.96875 -4.175781 0.96875 -5.375 C 0.96875 -6.601562 1.195312 -7.632812 1.65625 -8.46875 C 2.125 -9.3125 2.75 -9.941406 3.53125 -10.359375 C 4.320312 -10.773438 5.207031 -10.984375 6.1875 -10.984375 C 7.71875 -10.984375 8.882812 -10.578125 9.6875 -9.765625 C 10.5 -8.960938 10.90625 -7.78125 10.90625 -6.21875 C 10.90625 -5.644531 10.882812 -5.203125 10.84375 -4.890625 Z M 8.328125 -6.53125 C 8.296875 -7.34375 8.101562 -7.9375 7.75 -8.3125 C 7.394531 -8.6875 6.875 -8.875 6.1875 -8.875 C 4.820312 -8.875 4.019531 -8.09375 3.78125 -6.53125 Z M 8.328125 -6.53125 "/></g></g></g><g fill="#000000" fill-opacity="1"><g transform="translate(673.683, 280.018837)"><g><path d="M 1.546875 0 L 1.546875 -10.765625 L 4.15625 -10.765625 L 4.15625 -9.1875 L 4.359375 -9.140625 C 5.023438 -10.367188 6.113281 -10.984375 7.625 -10.984375 C 8.863281 -10.984375 9.773438 -10.644531 10.359375 -9.96875 C 10.941406 -9.289062 11.234375 -8.300781 11.234375 -7 L 11.234375 0 L 8.53125 0 L 8.53125 -6.671875 C 8.53125 -7.390625 8.382812 -7.90625 8.09375 -8.21875 C 7.8125 -8.53125 7.351562 -8.6875 6.71875 -8.6875 C 5.945312 -8.6875 5.34375 -8.4375 4.90625 -7.9375 C 4.476562 -7.4375 4.265625 -6.648438 4.265625 -5.578125 L 4.265625 0 Z M 1.546875 0 "/></g></g></g><g fill="#000000" fill-opacity="1"><g transform="translate(686.295258, 280.018837)"><g><path d="M 6.28125 0.203125 C 5.238281 0.203125 4.316406 -0.0078125 3.515625 -0.4375 C 2.710938 -0.875 2.085938 -1.507812 1.640625 -2.34375 C 1.191406 -3.1875 0.96875 -4.195312 0.96875 -5.375 C 0.96875 -6.5625 1.191406 -7.570312 1.640625 -8.40625 C 2.085938 -9.25 2.707031 -9.890625 3.5 -10.328125 C 4.300781 -10.765625 5.210938 -10.984375 6.234375 -10.984375 C 8.503906 -10.984375 9.957031 -10.15625 10.59375 -8.5 L 8.734375 -7.171875 L 8.53125 -7.171875 C 8.3125 -7.679688 8.023438 -8.0625 7.671875 -8.3125 C 7.316406 -8.5625 6.835938 -8.6875 6.234375 -8.6875 C 5.453125 -8.6875 4.84375 -8.414062 4.40625 -7.875 C 3.96875 -7.332031 3.75 -6.5 3.75 -5.375 C 3.75 -4.269531 3.96875 -3.445312 4.40625 -2.90625 C 4.851562 -2.363281 5.476562 -2.09375 6.28125 -2.09375 C 6.863281 -2.09375 7.359375 -2.25 7.765625 -2.5625 C 8.171875 -2.875 8.460938 -3.328125 8.640625 -3.921875 L 8.84375 -3.953125 L 10.765625 -2.890625 C 10.492188 -1.984375 9.988281 -1.238281 9.25 -0.65625 C 8.507812 -0.0820312 7.519531 0.203125 6.28125 0.203125 Z M 6.28125 0.203125 "/></g></g></g><g fill="#000000" fill-opacity="1"><g transform="translate(697.394436, 280.018837)"><g><path d="M 2.390625 4.578125 C 1.921875 4.578125 1.5 4.539062 1.125 4.46875 C 0.75 4.394531 0.445312 4.300781 0.21875 4.1875 L 0.640625 2 L 0.828125 1.9375 C 0.984375 2.019531 1.179688 2.085938 1.421875 2.140625 C 1.660156 2.191406 1.910156 2.21875 2.171875 2.21875 C 2.609375 2.21875 2.96875 2.160156 3.25 2.046875 C 3.539062 1.929688 3.785156 1.738281 3.984375 1.46875 C 4.191406 1.207031 4.375 0.84375 4.53125 0.375 L 0.234375 -10.765625 L 3.0625 -10.765625 L 5.75 -3.28125 L 5.984375 -3.28125 L 8.578125 -10.765625 L 11.34375 -10.765625 L 7.015625 0.671875 C 6.671875 1.597656 6.289062 2.34375 5.875 2.90625 C 5.457031 3.46875 4.96875 3.882812 4.40625 4.15625 C 3.84375 4.4375 3.171875 4.578125 2.390625 4.578125 Z M 2.390625 4.578125 "/></g></g></g><path stroke-linecap="butt" transform="matrix(0.75, 0, 0, 0.75, 374.369224, 148.371811)" fill="none" stroke-linejoin="miter" d="M 1.002494 -0.000955824 L 1.002494 21.38967 C 1.002494 26.915712 5.476452 31.38967 11.002494 31.38967 L 383.966051 31.38967 C 389.486885 31.38967 393.966052 35.868837 393.966052 41.389671 L 393.966052 127.030299 " stroke="#545454" stroke-width="2" stroke-opacity="1" stroke-miterlimit="4"/><path stroke-linecap="round" transform="matrix(0.75, 0, 0, 0.75, 374.369224, 148.371811)" fill-opacity="1" fill="#545454" fill-rule="nonzero" stroke-linejoin="round" d="M 396.966052 127.530299 L 393.966052 131.5303 L 390.966051 127.530299 Z M 396.966052 127.530299 " stroke="#545454" stroke-width="2" stroke-opacity="1" stroke-miterlimit="4"/><path stroke-linecap="butt" transform="matrix(0.75, 0, 0, 0.75, 374.369224, 148.371811)" fill="none" stroke-linejoin="miter" d="M 1.002494 -0.000955824 L 1.002494 22.23342 C 1.002494 27.759462 5.476452 32.233421 11.002494 32.233421 L 129.882707 32.233421 C 135.403541 32.233421 139.882708 36.712587 139.882708 42.233421 L 139.882708 127.030299 " stroke="#545454" stroke-width="2" stroke-opacity="1" stroke-miterlimit="4"/><path stroke-linecap="round" transform="matrix(0.75, 0, 0, 0.75, 374.369224, 148.371811)" fill-opacity="1" fill="#545454" fill-rule="nonzero" stroke-linejoin="round" d="M 142.882708 127.530299 L 139.882708 131.5303 L 136.882708 127.530299 Z M 142.882708 127.530299 " stroke="#545454" stroke-width="2" stroke-opacity="1" stroke-miterlimit="4"/><path stroke-linecap="butt" transform="matrix(0.75, 0, 0, 0.75, 97.407668, 148.371811)" fill="none" stroke-linejoin="miter" d="M 370.284583 -0.000955824 L 370.284583 22.23342 C 370.284583 27.759462 365.805416 32.233421 360.284583 32.233421 L 10.99811 32.233421 C 5.477276 32.233421 0.998109 36.712587 0.998109 42.233421 L 0.998109 127.030299 " stroke="#545454" stroke-width="2" stroke-opacity="1" stroke-miterlimit="4"/><path stroke-linecap="round" transform="matrix(0.75, 0, 0, 0.75, 97.407668, 148.371811)" fill-opacity="1" fill="#545454" fill-rule="nonzero" stroke-linejoin="round" d="M 3.99811 127.530299 L 0.998109 131.5303 L -2.001891 127.530299 Z M 3.99811 127.530299 " stroke="#545454" stroke-width="2" stroke-opacity="1" stroke-miterlimit="4"/><path stroke-linecap="butt" transform="matrix(0.75, 0, 0, 0.75, 287.969196, 148.371811)" fill="none" stroke-linejoin="miter" d="M 116.202535 -0.000955824 L 116.202535 22.23342 C 116.202535 27.759462 111.723368 32.233421 106.202535 32.233421 L 10.999406 32.233421 C 5.478572 32.233421 0.999405 36.712587 0.999405 42.233421 L 0.999405 127.030299 " stroke="#545454" stroke-width="2" stroke-opacity="1" stroke-miterlimit="4"/><path stroke-linecap="round" transform="matrix(0.75, 0, 0, 0.75, 287.969196, 148.371811)" fill-opacity="1" fill="#545454" fill-rule="nonzero" stroke-linejoin="round" d="M 3.999405 127.530299 L 0.999405 131.5303 L -2.000595 127.530299 Z M 3.999405 127.530299 " stroke="#545454" stroke-width="2" stroke-opacity="1" stroke-miterlimit="4"/><g fill="#000000" fill-opacity="1"><g transform="translate(270.736777, 167.371887)"><g><path d="M 7.828125 0 L 5 0 L 5 -5.609375 L 0.0625 -14.28125 L 3.09375 -14.28125 L 6.359375 -8.65625 L 6.609375 -8.65625 L 9.796875 -14.28125 L 12.75 -14.28125 L 7.828125 -5.609375 Z M 7.828125 0 "/></g></g></g><g fill="#000000" fill-opacity="1"><g transform="translate(283.554033, 167.371887)"><g><path d="M 10.640625 -4.78125 L 3.71875 -4.78125 C 3.800781 -3.84375 4.066406 -3.160156 4.515625 -2.734375 C 4.972656 -2.304688 5.597656 -2.09375 6.390625 -2.09375 C 7.003906 -2.09375 7.503906 -2.207031 7.890625 -2.4375 C 8.273438 -2.664062 8.582031 -3.015625 8.8125 -3.484375 L 9.03125 -3.484375 L 10.828125 -2.328125 C 10.472656 -1.578125 9.941406 -0.96875 9.234375 -0.5 C 8.523438 -0.03125 7.578125 0.203125 6.390625 0.203125 C 5.273438 0.203125 4.3125 -0.00390625 3.5 -0.421875 C 2.6875 -0.847656 2.0625 -1.476562 1.625 -2.3125 C 1.1875 -3.15625 0.96875 -4.175781 0.96875 -5.375 C 0.96875 -6.601562 1.195312 -7.632812 1.65625 -8.46875 C 2.125 -9.3125 2.75 -9.941406 3.53125 -10.359375 C 4.320312 -10.773438 5.207031 -10.984375 6.1875 -10.984375 C 7.71875 -10.984375 8.882812 -10.578125 9.6875 -9.765625 C 10.5 -8.960938 10.90625 -7.78125 10.90625 -6.21875 C 10.90625 -5.644531 10.882812 -5.203125 10.84375 -4.890625 Z M 8.328125 -6.53125 C 8.296875 -7.34375 8.101562 -7.9375 7.75 -8.3125 C 7.394531 -8.6875 6.875 -8.875 6.1875 -8.875 C 4.820312 -8.875 4.019531 -8.09375 3.78125 -6.53125 Z M 8.328125 -6.53125 "/></g></g></g><g fill="#000000" fill-opacity="1"><g transform="translate(295.258443, 167.371887)"><g><path d="M 5.046875 0.203125 C 4.304688 0.203125 3.628906 0.117188 3.015625 -0.046875 C 2.398438 -0.222656 1.875 -0.460938 1.4375 -0.765625 C 1.007812 -1.066406 0.691406 -1.414062 0.484375 -1.8125 L 2 -3.421875 L 2.203125 -3.421875 C 2.554688 -2.941406 2.976562 -2.582031 3.46875 -2.34375 C 3.957031 -2.101562 4.488281 -1.984375 5.0625 -1.984375 C 5.582031 -1.984375 5.976562 -2.078125 6.25 -2.265625 C 6.519531 -2.453125 6.65625 -2.722656 6.65625 -3.078125 C 6.65625 -3.347656 6.554688 -3.578125 6.359375 -3.765625 C 6.171875 -3.953125 5.863281 -4.097656 5.4375 -4.203125 L 4 -4.546875 C 2.9375 -4.796875 2.15625 -5.179688 1.65625 -5.703125 C 1.164062 -6.234375 0.921875 -6.898438 0.921875 -7.703125 C 0.921875 -8.378906 1.09375 -8.960938 1.4375 -9.453125 C 1.78125 -9.953125 2.257812 -10.332031 2.875 -10.59375 C 3.5 -10.851562 4.226562 -10.984375 5.0625 -10.984375 C 6.03125 -10.984375 6.832031 -10.84375 7.46875 -10.5625 C 8.101562 -10.28125 8.601562 -9.90625 8.96875 -9.4375 L 7.515625 -7.875 L 7.328125 -7.875 C 7.023438 -8.207031 6.6875 -8.453125 6.3125 -8.609375 C 5.9375 -8.765625 5.519531 -8.84375 5.0625 -8.84375 C 3.988281 -8.84375 3.453125 -8.515625 3.453125 -7.859375 C 3.453125 -7.578125 3.550781 -7.347656 3.75 -7.171875 C 3.945312 -6.992188 4.300781 -6.847656 4.8125 -6.734375 L 6.140625 -6.453125 C 7.234375 -6.210938 8.03125 -5.832031 8.53125 -5.3125 C 9.03125 -4.800781 9.28125 -4.109375 9.28125 -3.234375 C 9.28125 -2.546875 9.109375 -1.941406 8.765625 -1.421875 C 8.429688 -0.898438 7.945312 -0.5 7.3125 -0.21875 C 6.675781 0.0625 5.921875 0.203125 5.046875 0.203125 Z M 5.046875 0.203125 "/></g></g></g><g fill="#000000" fill-opacity="1"><g transform="translate(461.519189, 167.371887)"><g><path d="M 4.59375 0 L 1.859375 0 L 1.859375 -14.28125 L 5.09375 -14.28125 L 10.828125 -5.078125 L 11.078125 -5.125 L 11.078125 -14.28125 L 13.796875 -14.28125 L 13.796875 0 L 10.90625 0 L 4.828125 -9.828125 L 4.59375 -9.78125 Z M 4.59375 0 "/></g></g></g><g fill="#000000" fill-opacity="1"><g transform="translate(477.16737, 167.371887)"><g><path d="M 6.265625 0.203125 C 5.203125 0.203125 4.269531 -0.0078125 3.46875 -0.4375 C 2.675781 -0.875 2.0625 -1.507812 1.625 -2.34375 C 1.1875 -3.1875 0.96875 -4.195312 0.96875 -5.375 C 0.96875 -6.5625 1.1875 -7.570312 1.625 -8.40625 C 2.0625 -9.25 2.675781 -9.890625 3.46875 -10.328125 C 4.269531 -10.765625 5.203125 -10.984375 6.265625 -10.984375 C 7.316406 -10.984375 8.238281 -10.765625 9.03125 -10.328125 C 9.832031 -9.890625 10.453125 -9.25 10.890625 -8.40625 C 11.335938 -7.570312 11.5625 -6.5625 11.5625 -5.375 C 11.5625 -4.195312 11.335938 -3.1875 10.890625 -2.34375 C 10.453125 -1.507812 9.832031 -0.875 9.03125 -0.4375 C 8.238281 -0.0078125 7.316406 0.203125 6.265625 0.203125 Z M 6.265625 -2.09375 C 7.929688 -2.09375 8.765625 -3.1875 8.765625 -5.375 C 8.765625 -6.519531 8.550781 -7.359375 8.125 -7.890625 C 7.695312 -8.421875 7.078125 -8.6875 6.265625 -8.6875 C 4.585938 -8.6875 3.75 -7.582031 3.75 -5.375 C 3.75 -3.1875 4.585938 -2.09375 6.265625 -2.09375 Z M 6.265625 -2.09375 "/></g></g></g></svg>