<svg xmlns="http://www.w3.org/2000/svg" xmlns:xlink="http://www.w3.org/1999/xlink" width="1024" zoomAndPan="magnify" viewBox="0 0 768 576" height="768" preserveAspectRatio="xMidYMid meet" version="1.0"><defs><g/><clipPath id="82820cb7da"><path d="M 1.394531 240.25 L 74.894531 240.25 L 74.894531 335.5 L 1.394531 335.5 Z M 1.394531 240.25 " clip-rule="nonzero"/></clipPath><clipPath id="955da587c2"><path d="M 692.761719 240.039062 L 766.261719 240.039062 L 766.261719 335.289062 L 692.761719 335.289062 Z M 692.761719 240.039062 " clip-rule="nonzero"/></clipPath><clipPath id="625f0ebf27"><path d="M 225.222656 11.152344 L 542.359375 11.152344 L 542.359375 564.847656 L 225.222656 564.847656 Z M 225.222656 11.152344 " clip-rule="nonzero"/></clipPath><clipPath id="0b9acb9106"><path d="M 252.222656 11.152344 L 515.359375 11.152344 C 522.519531 11.152344 529.386719 13.996094 534.453125 19.058594 C 539.515625 24.121094 542.359375 30.988281 542.359375 38.152344 L 542.359375 537.847656 C 542.359375 545.011719 539.515625 551.878906 534.453125 556.941406 C 529.386719 562.003906 522.519531 564.847656 515.359375 564.847656 L 252.222656 564.847656 C 245.0625 564.847656 238.191406 562.003906 233.128906 556.941406 C 228.066406 551.878906 225.222656 545.011719 225.222656 537.847656 L 225.222656 38.152344 C 225.222656 30.988281 228.066406 24.121094 233.128906 19.058594 C 238.191406 13.996094 245.0625 11.152344 252.222656 11.152344 Z M 252.222656 11.152344 " clip-rule="nonzero"/></clipPath><clipPath id="264cb66420"><path d="M 225.222656 11.152344 L 542.472656 11.152344 L 542.472656 564.652344 L 225.222656 564.652344 Z M 225.222656 11.152344 " clip-rule="nonzero"/></clipPath><clipPath id="96e2d227e7"><path d="M 252.222656 11.152344 L 515.355469 11.152344 C 522.515625 11.152344 529.382812 13.996094 534.445312 19.058594 C 539.507812 24.121094 542.355469 30.988281 542.355469 38.148438 L 542.355469 537.839844 C 542.355469 545 539.507812 551.867188 534.445312 556.929688 C 529.382812 561.992188 522.515625 564.839844 515.355469 564.839844 L 252.222656 564.839844 C 245.0625 564.839844 238.191406 561.992188 233.128906 556.929688 C 228.066406 551.867188 225.222656 545 225.222656 537.839844 L 225.222656 38.148438 C 225.222656 30.988281 228.066406 24.121094 233.128906 19.058594 C 238.191406 13.996094 245.0625 11.152344 252.222656 11.152344 Z M 252.222656 11.152344 " clip-rule="nonzero"/></clipPath><clipPath id="0ec84258ff"><path d="M 440 282 L 693 282 L 693 295 L 440 295 Z M 440 282 " clip-rule="nonzero"/></clipPath><clipPath id="a4fbeb4396"><path d="M 694.273438 295.472656 L 438.523438 295.90625 L 438.496094 280.15625 L 694.246094 279.722656 Z M 694.273438 295.472656 " clip-rule="nonzero"/></clipPath><clipPath id="a0950efe3d"><path d="M 692.761719 289.175781 L 692.757812 286.175781 L 585.226562 286.359375 L 585.230469 289.359375 Z M 547.753906 289.421875 L 547.75 286.421875 L 440.21875 286.605469 L 440.222656 289.605469 Z M 449.230469 294.089844 L 449.210938 282.089844 L 440.210938 282.105469 L 440.230469 294.105469 Z M 449.230469 294.089844 " clip-rule="nonzero"/></clipPath><clipPath id="afb1985d18"><path d="M 441 283 L 448 283 L 448 293 L 441 293 Z M 441 283 " clip-rule="nonzero"/></clipPath><clipPath id="7a8dfb7975"><path d="M 694.273438 295.472656 L 438.523438 295.90625 L 438.496094 280.15625 L 694.246094 279.722656 Z M 694.273438 295.472656 " clip-rule="nonzero"/></clipPath><clipPath id="d5470ca35e"><path d="M 692.761719 289.175781 L 692.757812 286.175781 L 585.226562 286.359375 L 585.230469 289.359375 Z M 547.753906 289.421875 L 547.75 286.421875 L 440.21875 286.605469 L 440.222656 289.605469 Z M 449.230469 294.089844 L 449.210938 282.089844 L 440.210938 282.105469 L 440.230469 294.105469 Z M 449.230469 294.089844 " clip-rule="nonzero"/></clipPath><clipPath id="1574bd236f"><path d="M 440 282 L 450 282 L 450 295 L 440 295 Z M 440 282 " clip-rule="nonzero"/></clipPath><clipPath id="3d9086ed73"><path d="M 694.273438 295.472656 L 438.523438 295.90625 L 438.496094 280.15625 L 694.246094 279.722656 Z M 694.273438 295.472656 " clip-rule="nonzero"/></clipPath><clipPath id="19f4c645b6"><path d="M 692.761719 289.175781 L 692.757812 286.175781 L 585.226562 286.359375 L 585.230469 289.359375 Z M 547.753906 289.421875 L 547.75 286.421875 L 440.21875 286.605469 L 440.222656 289.605469 Z M 449.230469 294.089844 L 449.210938 282.089844 L 440.210938 282.105469 L 440.230469 294.105469 Z M 449.230469 294.089844 " clip-rule="nonzero"/></clipPath><clipPath id="496bd282bd"><path d="M 436 286 L 694 286 L 694 457 L 436 457 Z M 436 286 " clip-rule="nonzero"/></clipPath><clipPath id="b10f1598b0"><path d="M 698.257812 293.40625 L 442.742188 459.03125 L 434.175781 445.8125 L 689.691406 280.191406 Z M 698.257812 293.40625 " clip-rule="nonzero"/></clipPath><clipPath id="a584b82e04"><path d="M 693.574219 288.9375 L 691.941406 286.417969 L 581.398438 358.074219 L 583.027344 360.589844 Z M 551.582031 380.976562 L 549.949219 378.457031 L 439.402344 450.113281 L 441.035156 452.628906 Z M 451.035156 451.511719 L 444.507812 441.441406 L 436.957031 446.335938 L 443.484375 456.40625 Z M 451.035156 451.511719 " clip-rule="nonzero"/></clipPath><clipPath id="504f70bd39"><path d="M 441 443 L 449 443 L 449 452 L 441 452 Z M 441 443 " clip-rule="nonzero"/></clipPath><clipPath id="afda6b70a9"><path d="M 698.257812 293.40625 L 442.742188 459.03125 L 434.175781 445.8125 L 689.691406 280.191406 Z M 698.257812 293.40625 " clip-rule="nonzero"/></clipPath><clipPath id="e01041ced1"><path d="M 693.574219 288.9375 L 691.941406 286.417969 L 581.398438 358.074219 L 583.027344 360.589844 Z M 551.582031 380.976562 L 549.949219 378.457031 L 439.402344 450.113281 L 441.035156 452.628906 Z M 451.035156 451.511719 L 444.507812 441.441406 L 436.957031 446.335938 L 443.484375 456.40625 Z M 451.035156 451.511719 " clip-rule="nonzero"/></clipPath><clipPath id="7d1fe8c3b5"><path d="M 439 442 L 451 442 L 451 453 L 439 453 Z M 439 442 " clip-rule="nonzero"/></clipPath><clipPath id="03e835f0d1"><path d="M 698.257812 293.40625 L 442.742188 459.03125 L 434.175781 445.8125 L 689.691406 280.191406 Z M 698.257812 293.40625 " clip-rule="nonzero"/></clipPath><clipPath id="4f5f7c7ea5"><path d="M 693.574219 288.9375 L 691.941406 286.417969 L 581.398438 358.074219 L 583.027344 360.589844 Z M 551.582031 380.976562 L 549.949219 378.457031 L 439.402344 450.113281 L 441.035156 452.628906 Z M 451.035156 451.511719 L 444.507812 441.441406 L 436.957031 446.335938 L 443.484375 456.40625 Z M 451.035156 451.511719 " clip-rule="nonzero"/></clipPath><clipPath id="e982530240"><path d="M 74 119 L 331 119 L 331 290 L 74 290 Z M 74 119 " clip-rule="nonzero"/></clipPath><clipPath id="d8242a902d"><path d="M 69.746094 282.15625 L 324.8125 117.21875 L 333.363281 130.445312 L 78.296875 295.378906 Z M 69.746094 282.15625 " clip-rule="nonzero"/></clipPath><clipPath id="5978c81583"><path d="M 74.425781 286.632812 L 76.054688 289.148438 L 185.570312 218.332031 L 183.941406 215.816406 Z M 217.0625 194.394531 L 218.691406 196.914062 L 328.207031 126.097656 L 326.578125 123.578125 Z M 316.578125 124.6875 L 323.09375 134.765625 L 330.652344 129.878906 L 324.136719 119.800781 Z M 316.578125 124.6875 " clip-rule="nonzero"/></clipPath><clipPath id="fed2beda14"><path d="M 318 125 L 327 125 L 327 133 L 318 133 Z M 318 125 " clip-rule="nonzero"/></clipPath><clipPath id="f04a05c653"><path d="M 69.746094 282.15625 L 324.8125 117.21875 L 333.363281 130.445312 L 78.296875 295.378906 Z M 69.746094 282.15625 " clip-rule="nonzero"/></clipPath><clipPath id="cb3151141d"><path d="M 74.425781 286.632812 L 76.054688 289.148438 L 185.570312 218.332031 L 183.941406 215.816406 Z M 217.0625 194.394531 L 218.691406 196.914062 L 328.207031 126.097656 L 326.578125 123.578125 Z M 316.578125 124.6875 L 323.09375 134.765625 L 330.652344 129.878906 L 324.136719 119.800781 Z M 316.578125 124.6875 " clip-rule="nonzero"/></clipPath><clipPath id="4b6deb91e6"><path d="M 317 123 L 328 123 L 328 135 L 317 135 Z M 317 123 " clip-rule="nonzero"/></clipPath><clipPath id="2b422aae79"><path d="M 69.746094 282.15625 L 324.8125 117.21875 L 333.363281 130.445312 L 78.296875 295.378906 Z M 69.746094 282.15625 " clip-rule="nonzero"/></clipPath><clipPath id="e467d06d39"><path d="M 74.425781 286.632812 L 76.054688 289.148438 L 185.570312 218.332031 L 183.941406 215.816406 Z M 217.0625 194.394531 L 218.691406 196.914062 L 328.207031 126.097656 L 326.578125 123.578125 Z M 316.578125 124.6875 L 323.09375 134.765625 L 330.652344 129.878906 L 324.136719 119.800781 Z M 316.578125 124.6875 " clip-rule="nonzero"/></clipPath><clipPath id="6fba222067"><path d="M 75 282 L 328 282 L 328 295 L 75 295 Z M 75 282 " clip-rule="nonzero"/></clipPath><clipPath id="808781b1b9"><path d="M 73.746094 280.09375 L 329.496094 280.308594 L 329.484375 296.058594 L 73.734375 295.84375 Z M 73.746094 280.09375 " clip-rule="nonzero"/></clipPath><clipPath id="c44365089d"><path d="M 75.242188 286.394531 L 75.238281 289.394531 L 181.59375 289.484375 L 181.59375 286.484375 Z M 221.039062 286.515625 L 221.039062 289.515625 L 327.390625 289.605469 L 327.394531 286.605469 Z M 318.398438 282.097656 L 318.386719 294.097656 L 327.386719 294.105469 L 327.398438 282.105469 Z M 318.398438 282.097656 " clip-rule="nonzero"/></clipPath><clipPath id="7faabb00df"><path d="M 319 283 L 326 283 L 326 293 L 319 293 Z M 319 283 " clip-rule="nonzero"/></clipPath><clipPath id="290349122e"><path d="M 73.746094 280.09375 L 329.496094 280.308594 L 329.484375 296.058594 L 73.734375 295.84375 Z M 73.746094 280.09375 " clip-rule="nonzero"/></clipPath><clipPath id="3c3a68686b"><path d="M 75.242188 286.394531 L 75.238281 289.394531 L 181.59375 289.484375 L 181.59375 286.484375 Z M 221.039062 286.515625 L 221.039062 289.515625 L 327.390625 289.605469 L 327.394531 286.605469 Z M 318.398438 282.097656 L 318.386719 294.097656 L 327.386719 294.105469 L 327.398438 282.105469 Z M 318.398438 282.097656 " clip-rule="nonzero"/></clipPath><clipPath id="2b0886cbf6"><path d="M 318 282 L 328 282 L 328 295 L 318 295 Z M 318 282 " clip-rule="nonzero"/></clipPath><clipPath id="9b22b0a9ab"><path d="M 73.746094 280.09375 L 329.496094 280.308594 L 329.484375 296.058594 L 73.734375 295.84375 Z M 73.746094 280.09375 " clip-rule="nonzero"/></clipPath><clipPath id="dcdcc615cd"><path d="M 75.242188 286.394531 L 75.238281 289.394531 L 181.59375 289.484375 L 181.59375 286.484375 Z M 221.039062 286.515625 L 221.039062 289.515625 L 327.390625 289.605469 L 327.394531 286.605469 Z M 318.398438 282.097656 L 318.386719 294.097656 L 327.386719 294.105469 L 327.398438 282.105469 Z M 318.398438 282.097656 " clip-rule="nonzero"/></clipPath><clipPath id="e5e723e1df"><path d="M 327.394531 139 L 439.820312 139 L 439.820312 156 L 327.394531 156 Z M 327.394531 139 " clip-rule="nonzero"/></clipPath><clipPath id="60284e4135"><path d="M 327.394531 143 L 439.820312 143 L 439.820312 176.867188 L 327.394531 176.867188 Z M 327.394531 143 " clip-rule="nonzero"/></clipPath><clipPath id="2d039c4367"><path d="M 327.394531 108 L 439.820312 108 L 439.820312 125 L 327.394531 125 Z M 327.394531 108 " clip-rule="nonzero"/></clipPath><clipPath id="3e0bf9d66a"><path d="M 327.394531 82 L 439.820312 82 L 439.820312 115 L 327.394531 115 Z M 327.394531 82 " clip-rule="nonzero"/></clipPath><clipPath id="ecdfe7d267"><path d="M 327.394531 113 L 439.820312 113 L 439.820312 146 L 327.394531 146 Z M 327.394531 113 " clip-rule="nonzero"/></clipPath><clipPath id="20c8e400e6"><path d="M 327.394531 72.375 L 439.820312 72.375 L 439.820312 94 L 327.394531 94 Z M 327.394531 72.375 " clip-rule="nonzero"/></clipPath><clipPath id="8c717508eb"><path d="M 327.394531 302 L 439.820312 302 L 439.820312 319 L 327.394531 319 Z M 327.394531 302 " clip-rule="nonzero"/></clipPath><clipPath id="c5de1344d4"><path d="M 327.394531 307 L 439.820312 307 L 439.820312 340.132812 L 327.394531 340.132812 Z M 327.394531 307 " clip-rule="nonzero"/></clipPath><clipPath id="b76c9ff050"><path d="M 327.394531 271 L 439.820312 271 L 439.820312 288 L 327.394531 288 Z M 327.394531 271 " clip-rule="nonzero"/></clipPath><clipPath id="b0ac55eb93"><path d="M 327.394531 245 L 439.820312 245 L 439.820312 279 L 327.394531 279 Z M 327.394531 245 " clip-rule="nonzero"/></clipPath><clipPath id="0b01275083"><path d="M 327.394531 276 L 439.820312 276 L 439.820312 310 L 327.394531 310 Z M 327.394531 276 " clip-rule="nonzero"/></clipPath><clipPath id="43cac44dde"><path d="M 327.394531 235.640625 L 439.820312 235.640625 L 439.820312 257 L 327.394531 257 Z M 327.394531 235.640625 " clip-rule="nonzero"/></clipPath><clipPath id="f915160215"><path d="M 327.394531 465 L 439.820312 465 L 439.820312 483 L 327.394531 483 Z M 327.394531 465 " clip-rule="nonzero"/></clipPath><clipPath id="d773af7b8a"><path d="M 327.394531 470 L 439.820312 470 L 439.820312 503.398438 L 327.394531 503.398438 Z M 327.394531 470 " clip-rule="nonzero"/></clipPath><clipPath id="6386a281a0"><path d="M 327.394531 434 L 439.820312 434 L 439.820312 452 L 327.394531 452 Z M 327.394531 434 " clip-rule="nonzero"/></clipPath><clipPath id="ac8b359ea6"><path d="M 327.394531 408 L 439.820312 408 L 439.820312 442 L 327.394531 442 Z M 327.394531 408 " clip-rule="nonzero"/></clipPath><clipPath id="664e0158b8"><path d="M 327.394531 439 L 439.820312 439 L 439.820312 473 L 327.394531 473 Z M 327.394531 439 " clip-rule="nonzero"/></clipPath><clipPath id="3de582c70c"><path d="M 327.394531 398.90625 L 439.820312 398.90625 L 439.820312 421 L 327.394531 421 Z M 327.394531 398.90625 " clip-rule="nonzero"/></clipPath></defs><g clip-path="url(#82820cb7da)"><path fill="#8c52ff" d="M 75.234375 328.320312 C 75.234375 302.902344 58.691406 282.308594 38.316406 282.308594 C 17.9375 282.308594 1.394531 302.902344 1.394531 328.320312 C 1.394531 332.28125 17.9375 335.515625 38.316406 335.515625 C 58.691406 335.515625 75.234375 332.28125 75.234375 328.320312 Z M 38.316406 240.261719 C 49.429688 240.261719 58.433594 249.265625 58.433594 260.382812 C 58.433594 271.496094 49.429688 280.5 38.316406 280.5 C 27.199219 280.5 18.195312 271.496094 18.195312 260.382812 C 18.195312 249.265625 27.199219 240.261719 38.316406 240.261719 Z M 38.316406 240.261719 " fill-opacity="1" fill-rule="evenodd"/></g><g clip-path="url(#955da587c2)"><path fill="#00bf63" d="M 766.601562 328.105469 C 766.601562 302.6875 750.058594 282.097656 729.679688 282.097656 C 709.304688 282.097656 692.761719 302.6875 692.761719 328.105469 C 692.761719 332.070312 709.304688 335.300781 729.679688 335.300781 C 750.058594 335.300781 766.601562 332.070312 766.601562 328.105469 Z M 729.679688 240.050781 C 740.796875 240.050781 749.800781 249.054688 749.800781 260.167969 C 749.800781 271.28125 740.796875 280.285156 729.679688 280.285156 C 718.566406 280.285156 709.5625 271.28125 709.5625 260.167969 C 709.5625 249.054688 718.566406 240.050781 729.679688 240.050781 Z M 729.679688 240.050781 " fill-opacity="1" fill-rule="evenodd"/></g><g clip-path="url(#625f0ebf27)"><g clip-path="url(#0b9acb9106)"><path fill="#eeeeee" d="M 225.222656 11.152344 L 542.359375 11.152344 L 542.359375 564.847656 L 225.222656 564.847656 Z M 225.222656 11.152344 " fill-opacity="1" fill-rule="nonzero"/></g></g><g clip-path="url(#264cb66420)"><g clip-path="url(#96e2d227e7)"><path stroke-linecap="butt" transform="matrix(0.75, 0, 0, 0.75, 225.221988, 11.150872)" fill="none" stroke-linejoin="miter" d="M 36.000892 0.00196178 L 386.844657 0.00196178 C 396.391532 0.00196178 405.547783 3.793629 412.297783 10.543629 C 419.047783 17.293629 422.844658 26.44988 422.844658 35.996755 L 422.844658 702.251991 C 422.844658 711.798866 419.047783 720.955117 412.297783 727.705117 C 405.547783 734.455117 396.391532 738.251993 386.844657 738.251993 L 36.000892 738.251993 C 26.454017 738.251993 17.292558 734.455117 10.542558 727.705117 C 3.792558 720.955117 0.000890712 711.798866 0.000890712 702.251991 L 0.000890712 35.996755 C 0.000890712 26.44988 3.792558 17.293629 10.542558 10.543629 C 17.292558 3.793629 26.454017 0.00196178 36.000892 0.00196178 Z M 36.000892 0.00196178 " stroke="#666666" stroke-width="2" stroke-opacity="1" stroke-miterlimit="4"/></g></g><g fill="#000000" fill-opacity="1"><g transform="translate(291.362332, 35.950891)"><g><path d="M 7.6875 -15.703125 C 10.238281 -15.703125 12.1875 -15.039062 13.53125 -13.71875 C 14.875 -12.40625 15.546875 -10.453125 15.546875 -7.859375 C 15.546875 -5.265625 14.875 -3.304688 13.53125 -1.984375 C 12.1875 -0.660156 10.238281 0 7.6875 0 L 2.046875 0 L 2.046875 -15.703125 Z M 7.515625 -2.609375 C 9.128906 -2.609375 10.335938 -3.019531 11.140625 -3.84375 C 11.941406 -4.675781 12.34375 -6.015625 12.34375 -7.859375 C 12.34375 -9.691406 11.941406 -11.019531 11.140625 -11.84375 C 10.335938 -12.675781 9.128906 -13.09375 7.515625 -13.09375 L 5.140625 -13.09375 L 5.140625 -2.609375 Z M 7.515625 -2.609375 "/></g></g></g><g fill="#000000" fill-opacity="1"><g transform="translate(308.149395, 35.950891)"><g><path d="M 4.625 0.21875 C 3.863281 0.21875 3.203125 0.0820312 2.640625 -0.1875 C 2.085938 -0.46875 1.660156 -0.878906 1.359375 -1.421875 C 1.054688 -1.960938 0.90625 -2.613281 0.90625 -3.375 C 0.90625 -4.070312 1.054688 -4.660156 1.359375 -5.140625 C 1.660156 -5.617188 2.125 -6.007812 2.75 -6.3125 C 3.382812 -6.613281 4.207031 -6.847656 5.21875 -7.015625 C 5.925781 -7.128906 6.460938 -7.253906 6.828125 -7.390625 C 7.203125 -7.523438 7.453125 -7.675781 7.578125 -7.84375 C 7.710938 -8.019531 7.78125 -8.242188 7.78125 -8.515625 C 7.78125 -8.890625 7.644531 -9.175781 7.375 -9.375 C 7.113281 -9.570312 6.675781 -9.671875 6.0625 -9.671875 C 5.40625 -9.671875 4.773438 -9.523438 4.171875 -9.234375 C 3.578125 -8.941406 3.0625 -8.554688 2.625 -8.078125 L 2.421875 -8.078125 L 1.171875 -9.953125 C 1.773438 -10.617188 2.507812 -11.140625 3.375 -11.515625 C 4.238281 -11.890625 5.179688 -12.078125 6.203125 -12.078125 C 7.773438 -12.078125 8.910156 -11.742188 9.609375 -11.078125 C 10.316406 -10.410156 10.671875 -9.460938 10.671875 -8.234375 L 10.671875 -3.09375 C 10.671875 -2.5625 10.898438 -2.296875 11.359375 -2.296875 C 11.546875 -2.296875 11.722656 -2.328125 11.890625 -2.390625 L 12.046875 -2.359375 L 12.25 -0.28125 C 12.09375 -0.175781 11.863281 -0.0859375 11.5625 -0.015625 C 11.269531 0.0546875 10.953125 0.09375 10.609375 0.09375 C 9.898438 0.09375 9.34375 -0.0390625 8.9375 -0.3125 C 8.539062 -0.59375 8.257812 -1.019531 8.09375 -1.59375 L 7.859375 -1.625 C 7.285156 -0.394531 6.207031 0.21875 4.625 0.21875 Z M 5.5625 -2 C 6.25 -2 6.796875 -2.226562 7.203125 -2.6875 C 7.617188 -3.15625 7.828125 -3.800781 7.828125 -4.625 L 7.828125 -5.828125 L 7.625 -5.859375 C 7.445312 -5.722656 7.210938 -5.601562 6.921875 -5.5 C 6.628906 -5.40625 6.210938 -5.3125 5.671875 -5.21875 C 5.023438 -5.113281 4.5625 -4.929688 4.28125 -4.671875 C 4 -4.410156 3.859375 -4.039062 3.859375 -3.5625 C 3.859375 -3.050781 4.007812 -2.660156 4.3125 -2.390625 C 4.613281 -2.128906 5.03125 -2 5.5625 -2 Z M 5.5625 -2 "/></g></g></g><g fill="#000000" fill-opacity="1"><g transform="translate(320.640346, 35.950891)"><g><path d="M 8.171875 -2.828125 L 8.953125 -0.625 C 8.628906 -0.351562 8.222656 -0.144531 7.734375 0 C 7.242188 0.144531 6.691406 0.21875 6.078125 0.21875 C 4.796875 0.21875 3.820312 -0.128906 3.15625 -0.828125 C 2.488281 -1.523438 2.15625 -2.539062 2.15625 -3.875 L 2.15625 -9.5 L 0.359375 -9.5 L 0.359375 -11.859375 L 2.15625 -11.859375 L 2.15625 -14.171875 L 5.140625 -14.65625 L 5.140625 -11.859375 L 8.5 -11.859375 L 8.5 -9.5 L 5.140625 -9.5 L 5.140625 -4.078125 C 5.140625 -3.492188 5.257812 -3.066406 5.5 -2.796875 C 5.738281 -2.523438 6.09375 -2.390625 6.5625 -2.390625 C 7.09375 -2.390625 7.554688 -2.535156 7.953125 -2.828125 Z M 8.171875 -2.828125 "/></g></g></g><g fill="#000000" fill-opacity="1"><g transform="translate(329.844771, 35.950891)"><g><path d="M 4.625 0.21875 C 3.863281 0.21875 3.203125 0.0820312 2.640625 -0.1875 C 2.085938 -0.46875 1.660156 -0.878906 1.359375 -1.421875 C 1.054688 -1.960938 0.90625 -2.613281 0.90625 -3.375 C 0.90625 -4.070312 1.054688 -4.660156 1.359375 -5.140625 C 1.660156 -5.617188 2.125 -6.007812 2.75 -6.3125 C 3.382812 -6.613281 4.207031 -6.847656 5.21875 -7.015625 C 5.925781 -7.128906 6.460938 -7.253906 6.828125 -7.390625 C 7.203125 -7.523438 7.453125 -7.675781 7.578125 -7.84375 C 7.710938 -8.019531 7.78125 -8.242188 7.78125 -8.515625 C 7.78125 -8.890625 7.644531 -9.175781 7.375 -9.375 C 7.113281 -9.570312 6.675781 -9.671875 6.0625 -9.671875 C 5.40625 -9.671875 4.773438 -9.523438 4.171875 -9.234375 C 3.578125 -8.941406 3.0625 -8.554688 2.625 -8.078125 L 2.421875 -8.078125 L 1.171875 -9.953125 C 1.773438 -10.617188 2.507812 -11.140625 3.375 -11.515625 C 4.238281 -11.890625 5.179688 -12.078125 6.203125 -12.078125 C 7.773438 -12.078125 8.910156 -11.742188 9.609375 -11.078125 C 10.316406 -10.410156 10.671875 -9.460938 10.671875 -8.234375 L 10.671875 -3.09375 C 10.671875 -2.5625 10.898438 -2.296875 11.359375 -2.296875 C 11.546875 -2.296875 11.722656 -2.328125 11.890625 -2.390625 L 12.046875 -2.359375 L 12.25 -0.28125 C 12.09375 -0.175781 11.863281 -0.0859375 11.5625 -0.015625 C 11.269531 0.0546875 10.953125 0.09375 10.609375 0.09375 C 9.898438 0.09375 9.34375 -0.0390625 8.9375 -0.3125 C 8.539062 -0.59375 8.257812 -1.019531 8.09375 -1.59375 L 7.859375 -1.625 C 7.285156 -0.394531 6.207031 0.21875 4.625 0.21875 Z M 5.5625 -2 C 6.25 -2 6.796875 -2.226562 7.203125 -2.6875 C 7.617188 -3.15625 7.828125 -3.800781 7.828125 -4.625 L 7.828125 -5.828125 L 7.625 -5.859375 C 7.445312 -5.722656 7.210938 -5.601562 6.921875 -5.5 C 6.628906 -5.40625 6.210938 -5.3125 5.671875 -5.21875 C 5.023438 -5.113281 4.5625 -4.929688 4.28125 -4.671875 C 4 -4.410156 3.859375 -4.039062 3.859375 -3.5625 C 3.859375 -3.050781 4.007812 -2.660156 4.3125 -2.390625 C 4.613281 -2.128906 5.03125 -2 5.5625 -2 Z M 5.5625 -2 "/></g></g></g><g fill="#000000" fill-opacity="1"><g transform="translate(342.335722, 35.950891)"><g><path d="M 8.28125 0.21875 C 6.769531 0.21875 5.644531 -0.34375 4.90625 -1.46875 L 4.6875 -1.421875 L 4.6875 0 L 1.703125 0 L 1.703125 -16.609375 L 4.6875 -16.609375 L 4.6875 -10.453125 L 4.90625 -10.40625 C 5.3125 -10.976562 5.789062 -11.398438 6.34375 -11.671875 C 6.90625 -11.941406 7.570312 -12.078125 8.34375 -12.078125 C 9.300781 -12.078125 10.140625 -11.847656 10.859375 -11.390625 C 11.578125 -10.941406 12.132812 -10.253906 12.53125 -9.328125 C 12.9375 -8.410156 13.140625 -7.273438 13.140625 -5.921875 C 13.140625 -4.578125 12.929688 -3.441406 12.515625 -2.515625 C 12.097656 -1.597656 11.523438 -0.910156 10.796875 -0.453125 C 10.066406 -0.00390625 9.226562 0.21875 8.28125 0.21875 Z M 7.375 -2.296875 C 8.25 -2.296875 8.914062 -2.585938 9.375 -3.171875 C 9.832031 -3.753906 10.0625 -4.671875 10.0625 -5.921875 C 10.0625 -7.171875 9.832031 -8.085938 9.375 -8.671875 C 8.914062 -9.253906 8.25 -9.546875 7.375 -9.546875 C 6.539062 -9.546875 5.878906 -9.242188 5.390625 -8.640625 C 4.898438 -8.046875 4.65625 -7.140625 4.65625 -5.921875 C 4.65625 -4.703125 4.898438 -3.789062 5.390625 -3.1875 C 5.878906 -2.59375 6.539062 -2.296875 7.375 -2.296875 Z M 7.375 -2.296875 "/></g></g></g><g fill="#000000" fill-opacity="1"><g transform="translate(356.523637, 35.950891)"><g><path d="M 4.625 0.21875 C 3.863281 0.21875 3.203125 0.0820312 2.640625 -0.1875 C 2.085938 -0.46875 1.660156 -0.878906 1.359375 -1.421875 C 1.054688 -1.960938 0.90625 -2.613281 0.90625 -3.375 C 0.90625 -4.070312 1.054688 -4.660156 1.359375 -5.140625 C 1.660156 -5.617188 2.125 -6.007812 2.75 -6.3125 C 3.382812 -6.613281 4.207031 -6.847656 5.21875 -7.015625 C 5.925781 -7.128906 6.460938 -7.253906 6.828125 -7.390625 C 7.203125 -7.523438 7.453125 -7.675781 7.578125 -7.84375 C 7.710938 -8.019531 7.78125 -8.242188 7.78125 -8.515625 C 7.78125 -8.890625 7.644531 -9.175781 7.375 -9.375 C 7.113281 -9.570312 6.675781 -9.671875 6.0625 -9.671875 C 5.40625 -9.671875 4.773438 -9.523438 4.171875 -9.234375 C 3.578125 -8.941406 3.0625 -8.554688 2.625 -8.078125 L 2.421875 -8.078125 L 1.171875 -9.953125 C 1.773438 -10.617188 2.507812 -11.140625 3.375 -11.515625 C 4.238281 -11.890625 5.179688 -12.078125 6.203125 -12.078125 C 7.773438 -12.078125 8.910156 -11.742188 9.609375 -11.078125 C 10.316406 -10.410156 10.671875 -9.460938 10.671875 -8.234375 L 10.671875 -3.09375 C 10.671875 -2.5625 10.898438 -2.296875 11.359375 -2.296875 C 11.546875 -2.296875 11.722656 -2.328125 11.890625 -2.390625 L 12.046875 -2.359375 L 12.25 -0.28125 C 12.09375 -0.175781 11.863281 -0.0859375 11.5625 -0.015625 C 11.269531 0.0546875 10.953125 0.09375 10.609375 0.09375 C 9.898438 0.09375 9.34375 -0.0390625 8.9375 -0.3125 C 8.539062 -0.59375 8.257812 -1.019531 8.09375 -1.59375 L 7.859375 -1.625 C 7.285156 -0.394531 6.207031 0.21875 4.625 0.21875 Z M 5.5625 -2 C 6.25 -2 6.796875 -2.226562 7.203125 -2.6875 C 7.617188 -3.15625 7.828125 -3.800781 7.828125 -4.625 L 7.828125 -5.828125 L 7.625 -5.859375 C 7.445312 -5.722656 7.210938 -5.601562 6.921875 -5.5 C 6.628906 -5.40625 6.210938 -5.3125 5.671875 -5.21875 C 5.023438 -5.113281 4.5625 -4.929688 4.28125 -4.671875 C 4 -4.410156 3.859375 -4.039062 3.859375 -3.5625 C 3.859375 -3.050781 4.007812 -2.660156 4.3125 -2.390625 C 4.613281 -2.128906 5.03125 -2 5.5625 -2 Z M 5.5625 -2 "/></g></g></g><g fill="#000000" fill-opacity="1"><g transform="translate(369.014588, 35.950891)"><g><path d="M 5.546875 0.21875 C 4.734375 0.21875 3.988281 0.125 3.3125 -0.0625 C 2.644531 -0.25 2.070312 -0.507812 1.59375 -0.84375 C 1.113281 -1.175781 0.757812 -1.554688 0.53125 -1.984375 L 2.1875 -3.765625 L 2.421875 -3.765625 C 2.816406 -3.234375 3.28125 -2.835938 3.8125 -2.578125 C 4.351562 -2.316406 4.9375 -2.1875 5.5625 -2.1875 C 6.144531 -2.1875 6.582031 -2.285156 6.875 -2.484375 C 7.164062 -2.691406 7.3125 -2.992188 7.3125 -3.390625 C 7.3125 -3.679688 7.207031 -3.929688 7 -4.140625 C 6.789062 -4.347656 6.445312 -4.507812 5.96875 -4.625 L 4.40625 -5 C 3.226562 -5.28125 2.367188 -5.707031 1.828125 -6.28125 C 1.285156 -6.851562 1.015625 -7.582031 1.015625 -8.46875 C 1.015625 -9.207031 1.203125 -9.847656 1.578125 -10.390625 C 1.960938 -10.941406 2.492188 -11.359375 3.171875 -11.640625 C 3.859375 -11.929688 4.65625 -12.078125 5.5625 -12.078125 C 6.632812 -12.078125 7.519531 -11.921875 8.21875 -11.609375 C 8.914062 -11.304688 9.460938 -10.894531 9.859375 -10.375 L 8.265625 -8.65625 L 8.0625 -8.65625 C 7.726562 -9.03125 7.351562 -9.300781 6.9375 -9.46875 C 6.53125 -9.644531 6.070312 -9.734375 5.5625 -9.734375 C 4.382812 -9.734375 3.796875 -9.367188 3.796875 -8.640625 C 3.796875 -8.328125 3.90625 -8.070312 4.125 -7.875 C 4.34375 -7.6875 4.726562 -7.53125 5.28125 -7.40625 L 6.75 -7.09375 C 7.945312 -6.832031 8.820312 -6.414062 9.375 -5.84375 C 9.9375 -5.28125 10.21875 -4.519531 10.21875 -3.5625 C 10.21875 -2.800781 10.03125 -2.132812 9.65625 -1.5625 C 9.28125 -0.988281 8.742188 -0.546875 8.046875 -0.234375 C 7.347656 0.0664062 6.515625 0.21875 5.546875 0.21875 Z M 5.546875 0.21875 "/></g></g></g><g fill="#000000" fill-opacity="1"><g transform="translate(379.937458, 35.950891)"><g><path d="M 11.703125 -5.25 L 4.09375 -5.25 C 4.175781 -4.21875 4.46875 -3.46875 4.96875 -3 C 5.46875 -2.53125 6.15625 -2.296875 7.03125 -2.296875 C 7.707031 -2.296875 8.253906 -2.421875 8.671875 -2.671875 C 9.097656 -2.929688 9.441406 -3.316406 9.703125 -3.828125 L 9.921875 -3.828125 L 11.90625 -2.5625 C 11.519531 -1.738281 10.9375 -1.066406 10.15625 -0.546875 C 9.375 -0.0351562 8.332031 0.21875 7.03125 0.21875 C 5.800781 0.21875 4.738281 -0.0078125 3.84375 -0.46875 C 2.957031 -0.9375 2.269531 -1.628906 1.78125 -2.546875 C 1.300781 -3.472656 1.0625 -4.597656 1.0625 -5.921875 C 1.0625 -7.265625 1.316406 -8.394531 1.828125 -9.3125 C 2.335938 -10.238281 3.023438 -10.929688 3.890625 -11.390625 C 4.753906 -11.847656 5.726562 -12.078125 6.8125 -12.078125 C 8.488281 -12.078125 9.769531 -11.628906 10.65625 -10.734375 C 11.550781 -9.847656 12 -8.546875 12 -6.828125 C 12 -6.203125 11.976562 -5.71875 11.9375 -5.375 Z M 9.15625 -7.171875 C 9.125 -8.078125 8.910156 -8.734375 8.515625 -9.140625 C 8.128906 -9.554688 7.5625 -9.765625 6.8125 -9.765625 C 5.3125 -9.765625 4.425781 -8.898438 4.15625 -7.171875 Z M 9.15625 -7.171875 "/></g></g></g><g fill="#000000" fill-opacity="1"><g transform="translate(392.815059, 35.950891)"><g/></g></g><g fill="#000000" fill-opacity="1"><g transform="translate(398.00262, 35.950891)"><g><path d="M 8.578125 0.21875 C 7.128906 0.21875 5.851562 -0.078125 4.75 -0.671875 C 3.65625 -1.273438 2.796875 -2.179688 2.171875 -3.390625 C 1.546875 -4.597656 1.234375 -6.085938 1.234375 -7.859375 C 1.234375 -9.617188 1.546875 -11.101562 2.171875 -12.3125 C 2.796875 -13.519531 3.65625 -14.425781 4.75 -15.03125 C 5.851562 -15.632812 7.128906 -15.9375 8.578125 -15.9375 C 10.085938 -15.9375 11.367188 -15.640625 12.421875 -15.046875 C 13.484375 -14.453125 14.242188 -13.550781 14.703125 -12.34375 L 12.421875 -10.953125 L 12.15625 -10.96875 C 11.820312 -11.78125 11.363281 -12.363281 10.78125 -12.71875 C 10.207031 -13.070312 9.472656 -13.25 8.578125 -13.25 C 7.273438 -13.25 6.257812 -12.816406 5.53125 -11.953125 C 4.800781 -11.097656 4.4375 -9.734375 4.4375 -7.859375 C 4.4375 -5.984375 4.800781 -4.613281 5.53125 -3.75 C 6.257812 -2.882812 7.273438 -2.453125 8.578125 -2.453125 C 10.617188 -2.453125 11.867188 -3.445312 12.328125 -5.4375 L 12.59375 -5.4375 L 14.890625 -4.25 C 14.460938 -2.757812 13.726562 -1.640625 12.6875 -0.890625 C 11.644531 -0.148438 10.273438 0.21875 8.578125 0.21875 Z M 8.578125 0.21875 "/></g></g></g><g fill="#000000" fill-opacity="1"><g transform="translate(413.404181, 35.950891)"><g><path d="M 4.921875 0.21875 C 3.847656 0.21875 3.03125 -0.0664062 2.46875 -0.640625 C 1.914062 -1.210938 1.640625 -2.085938 1.640625 -3.265625 L 1.640625 -16.609375 L 4.609375 -16.609375 L 4.609375 -3.390625 C 4.609375 -2.660156 4.910156 -2.296875 5.515625 -2.296875 C 5.679688 -2.296875 5.863281 -2.328125 6.0625 -2.390625 L 6.203125 -2.34375 L 6.484375 -0.046875 C 6.316406 0.0351562 6.097656 0.0976562 5.828125 0.140625 C 5.554688 0.191406 5.253906 0.21875 4.921875 0.21875 Z M 4.921875 0.21875 "/></g></g></g><g fill="#000000" fill-opacity="1"><g transform="translate(420.213519, 35.950891)"><g><path d="M 5.421875 0.21875 C 4.085938 0.21875 3.101562 -0.140625 2.46875 -0.859375 C 1.84375 -1.585938 1.53125 -2.632812 1.53125 -4 L 1.53125 -11.84375 L 4.5 -11.84375 L 4.5 -4.375 C 4.5 -3.644531 4.65625 -3.113281 4.96875 -2.78125 C 5.28125 -2.445312 5.757812 -2.28125 6.40625 -2.28125 C 7.238281 -2.28125 7.882812 -2.550781 8.34375 -3.09375 C 8.800781 -3.632812 9.03125 -4.488281 9.03125 -5.65625 L 9.03125 -11.84375 L 12 -11.84375 L 12 0 L 9.140625 0 L 9.140625 -1.734375 L 8.921875 -1.796875 C 8.535156 -1.117188 8.066406 -0.613281 7.515625 -0.28125 C 6.972656 0.0507812 6.273438 0.21875 5.421875 0.21875 Z M 5.421875 0.21875 "/></g></g></g><g fill="#000000" fill-opacity="1"><g transform="translate(433.918116, 35.950891)"><g><path d="M 5.546875 0.21875 C 4.734375 0.21875 3.988281 0.125 3.3125 -0.0625 C 2.644531 -0.25 2.070312 -0.507812 1.59375 -0.84375 C 1.113281 -1.175781 0.757812 -1.554688 0.53125 -1.984375 L 2.1875 -3.765625 L 2.421875 -3.765625 C 2.816406 -3.234375 3.28125 -2.835938 3.8125 -2.578125 C 4.351562 -2.316406 4.9375 -2.1875 5.5625 -2.1875 C 6.144531 -2.1875 6.582031 -2.285156 6.875 -2.484375 C 7.164062 -2.691406 7.3125 -2.992188 7.3125 -3.390625 C 7.3125 -3.679688 7.207031 -3.929688 7 -4.140625 C 6.789062 -4.347656 6.445312 -4.507812 5.96875 -4.625 L 4.40625 -5 C 3.226562 -5.28125 2.367188 -5.707031 1.828125 -6.28125 C 1.285156 -6.851562 1.015625 -7.582031 1.015625 -8.46875 C 1.015625 -9.207031 1.203125 -9.847656 1.578125 -10.390625 C 1.960938 -10.941406 2.492188 -11.359375 3.171875 -11.640625 C 3.859375 -11.929688 4.65625 -12.078125 5.5625 -12.078125 C 6.632812 -12.078125 7.519531 -11.921875 8.21875 -11.609375 C 8.914062 -11.304688 9.460938 -10.894531 9.859375 -10.375 L 8.265625 -8.65625 L 8.0625 -8.65625 C 7.726562 -9.03125 7.351562 -9.300781 6.9375 -9.46875 C 6.53125 -9.644531 6.070312 -9.734375 5.5625 -9.734375 C 4.382812 -9.734375 3.796875 -9.367188 3.796875 -8.640625 C 3.796875 -8.328125 3.90625 -8.070312 4.125 -7.875 C 4.34375 -7.6875 4.726562 -7.53125 5.28125 -7.40625 L 6.75 -7.09375 C 7.945312 -6.832031 8.820312 -6.414062 9.375 -5.84375 C 9.9375 -5.28125 10.21875 -4.519531 10.21875 -3.5625 C 10.21875 -2.800781 10.03125 -2.132812 9.65625 -1.5625 C 9.28125 -0.988281 8.742188 -0.546875 8.046875 -0.234375 C 7.347656 0.0664062 6.515625 0.21875 5.546875 0.21875 Z M 5.546875 0.21875 "/></g></g></g><g fill="#000000" fill-opacity="1"><g transform="translate(444.840986, 35.950891)"><g><path d="M 8.171875 -2.828125 L 8.953125 -0.625 C 8.628906 -0.351562 8.222656 -0.144531 7.734375 0 C 7.242188 0.144531 6.691406 0.21875 6.078125 0.21875 C 4.796875 0.21875 3.820312 -0.128906 3.15625 -0.828125 C 2.488281 -1.523438 2.15625 -2.539062 2.15625 -3.875 L 2.15625 -9.5 L 0.359375 -9.5 L 0.359375 -11.859375 L 2.15625 -11.859375 L 2.15625 -14.171875 L 5.140625 -14.65625 L 5.140625 -11.859375 L 8.5 -11.859375 L 8.5 -9.5 L 5.140625 -9.5 L 5.140625 -4.078125 C 5.140625 -3.492188 5.257812 -3.066406 5.5 -2.796875 C 5.738281 -2.523438 6.09375 -2.390625 6.5625 -2.390625 C 7.09375 -2.390625 7.554688 -2.535156 7.953125 -2.828125 Z M 8.171875 -2.828125 "/></g></g></g><g fill="#000000" fill-opacity="1"><g transform="translate(454.045411, 35.950891)"><g><path d="M 11.703125 -5.25 L 4.09375 -5.25 C 4.175781 -4.21875 4.46875 -3.46875 4.96875 -3 C 5.46875 -2.53125 6.15625 -2.296875 7.03125 -2.296875 C 7.707031 -2.296875 8.253906 -2.421875 8.671875 -2.671875 C 9.097656 -2.929688 9.441406 -3.316406 9.703125 -3.828125 L 9.921875 -3.828125 L 11.90625 -2.5625 C 11.519531 -1.738281 10.9375 -1.066406 10.15625 -0.546875 C 9.375 -0.0351562 8.332031 0.21875 7.03125 0.21875 C 5.800781 0.21875 4.738281 -0.0078125 3.84375 -0.46875 C 2.957031 -0.9375 2.269531 -1.628906 1.78125 -2.546875 C 1.300781 -3.472656 1.0625 -4.597656 1.0625 -5.921875 C 1.0625 -7.265625 1.316406 -8.394531 1.828125 -9.3125 C 2.335938 -10.238281 3.023438 -10.929688 3.890625 -11.390625 C 4.753906 -11.847656 5.726562 -12.078125 6.8125 -12.078125 C 8.488281 -12.078125 9.769531 -11.628906 10.65625 -10.734375 C 11.550781 -9.847656 12 -8.546875 12 -6.828125 C 12 -6.203125 11.976562 -5.71875 11.9375 -5.375 Z M 9.15625 -7.171875 C 9.125 -8.078125 8.910156 -8.734375 8.515625 -9.140625 C 8.128906 -9.554688 7.5625 -9.765625 6.8125 -9.765625 C 5.3125 -9.765625 4.425781 -8.898438 4.15625 -7.171875 Z M 9.15625 -7.171875 "/></g></g></g><g fill="#000000" fill-opacity="1"><g transform="translate(466.923012, 35.950891)"><g><path d="M 1.703125 0 L 1.703125 -11.84375 L 4.59375 -11.84375 L 4.59375 -10.09375 L 4.828125 -10.046875 C 5.109375 -10.703125 5.484375 -11.179688 5.953125 -11.484375 C 6.421875 -11.796875 6.988281 -11.953125 7.65625 -11.953125 C 8.320312 -11.953125 8.832031 -11.835938 9.1875 -11.609375 L 8.6875 -9.046875 L 8.453125 -9 C 8.265625 -9.082031 8.078125 -9.140625 7.890625 -9.171875 C 7.710938 -9.210938 7.492188 -9.234375 7.234375 -9.234375 C 6.410156 -9.234375 5.78125 -8.941406 5.34375 -8.359375 C 4.90625 -7.773438 4.6875 -6.835938 4.6875 -5.546875 L 4.6875 0 Z M 1.703125 0 "/></g></g></g><g clip-path="url(#0ec84258ff)"><g clip-path="url(#a4fbeb4396)"><g clip-path="url(#a0950efe3d)"><path stroke-linecap="butt" transform="matrix(-0.749999, 0.00126967, -0.00126967, -0.749999, 692.778139, 298.477008)" fill="none" stroke-linejoin="miter" d="M -0.0024866 14.401653 L 325.721955 14.400986 " stroke="#00bf63" stroke-width="4" stroke-opacity="1" stroke-miterlimit="4"/></g></g></g><g clip-path="url(#afb1985d18)"><g clip-path="url(#7a8dfb7975)"><g clip-path="url(#d5470ca35e)"><path fill="#00bf63" d="M 447.726562 292.59375 L 441.71875 288.101562 L 447.710938 283.59375 Z M 447.726562 292.59375 " fill-opacity="1" fill-rule="nonzero"/></g></g></g><g clip-path="url(#1574bd236f)"><g clip-path="url(#3d9086ed73)"><g clip-path="url(#19f4c645b6)"><path stroke-linecap="round" transform="matrix(-0.749999, 0.00126967, -0.00126967, -0.749999, 692.778139, 298.477008)" fill="none" stroke-linejoin="round" d="M 326.721704 8.397461 L 334.721969 14.400597 L 326.722222 20.39748 Z M 326.721704 8.397461 " stroke="#00bf63" stroke-width="4" stroke-opacity="1" stroke-miterlimit="4"/></g></g></g><g fill="#000000" fill-opacity="1"><g transform="translate(552.166113, 292.417383)"><g><path d="M 1.296875 0 L 1.28125 -8.5625 L 4.390625 -8.5625 C 4.960938 -8.570312 5.441406 -8.484375 5.828125 -8.296875 C 6.222656 -8.109375 6.519531 -7.84375 6.71875 -7.5 C 6.914062 -7.15625 7.015625 -6.742188 7.015625 -6.265625 C 7.015625 -5.734375 6.882812 -5.296875 6.625 -4.953125 C 6.363281 -4.609375 5.953125 -4.347656 5.390625 -4.171875 L 5.390625 -4.046875 C 5.660156 -3.941406 5.882812 -3.769531 6.0625 -3.53125 C 6.238281 -3.300781 6.398438 -2.953125 6.546875 -2.484375 L 7.34375 -0.015625 L 6.3125 -0.015625 L 5.453125 -2.640625 C 5.347656 -2.941406 5.226562 -3.179688 5.09375 -3.359375 C 4.96875 -3.535156 4.800781 -3.660156 4.59375 -3.734375 C 4.394531 -3.804688 4.140625 -3.84375 3.828125 -3.84375 L 2.296875 -3.84375 L 2.296875 0 Z M 4.375 -4.703125 C 4.90625 -4.710938 5.300781 -4.835938 5.5625 -5.078125 C 5.820312 -5.328125 5.953125 -5.707031 5.953125 -6.21875 C 5.953125 -6.726562 5.820312 -7.109375 5.5625 -7.359375 C 5.300781 -7.609375 4.90625 -7.726562 4.375 -7.71875 L 2.28125 -7.71875 L 2.28125 -4.703125 Z M 4.375 -4.703125 "/></g></g><g transform="translate(560.099695, 292.403952)"><g><path d="M 6.15625 -3.03125 L 1.71875 -3.015625 C 1.75 -2.222656 1.9375 -1.644531 2.28125 -1.28125 C 2.632812 -0.914062 3.113281 -0.734375 3.71875 -0.734375 C 4.175781 -0.734375 4.546875 -0.816406 4.828125 -0.984375 C 5.109375 -1.148438 5.332031 -1.410156 5.5 -1.765625 L 5.625 -1.765625 L 6.234375 -1.40625 C 6.046875 -0.9375 5.742188 -0.566406 5.328125 -0.296875 C 4.921875 -0.0234375 4.382812 0.113281 3.71875 0.125 C 3.09375 0.125 2.554688 0.00390625 2.109375 -0.234375 C 1.660156 -0.484375 1.3125 -0.859375 1.0625 -1.359375 C 0.820312 -1.859375 0.703125 -2.484375 0.703125 -3.234375 C 0.703125 -3.960938 0.828125 -4.578125 1.078125 -5.078125 C 1.335938 -5.585938 1.6875 -5.96875 2.125 -6.21875 C 2.570312 -6.46875 3.078125 -6.59375 3.640625 -6.59375 C 4.472656 -6.601562 5.117188 -6.375 5.578125 -5.90625 C 6.046875 -5.4375 6.289062 -4.742188 6.3125 -3.828125 C 6.3125 -3.460938 6.300781 -3.21875 6.28125 -3.09375 Z M 5.359375 -3.828125 C 5.335938 -4.515625 5.179688 -5.007812 4.890625 -5.3125 C 4.597656 -5.625 4.179688 -5.78125 3.640625 -5.78125 C 3.078125 -5.78125 2.632812 -5.617188 2.3125 -5.296875 C 1.988281 -4.984375 1.796875 -4.488281 1.734375 -3.8125 Z M 5.359375 -3.828125 "/></g></g><g transform="translate(566.99031, 292.392287)"><g><path d="M 2.671875 0.125 C 2.035156 0.125 1.535156 -0.0390625 1.171875 -0.375 C 0.816406 -0.707031 0.640625 -1.179688 0.640625 -1.796875 C 0.640625 -2.179688 0.71875 -2.503906 0.875 -2.765625 C 1.03125 -3.035156 1.273438 -3.25 1.609375 -3.40625 C 1.941406 -3.570312 2.375 -3.703125 2.90625 -3.796875 C 3.375 -3.878906 3.726562 -3.96875 3.96875 -4.0625 C 4.21875 -4.15625 4.382812 -4.265625 4.46875 -4.390625 C 4.550781 -4.515625 4.585938 -4.664062 4.578125 -4.84375 C 4.578125 -5.132812 4.476562 -5.359375 4.28125 -5.515625 C 4.082031 -5.671875 3.757812 -5.75 3.3125 -5.75 C 2.894531 -5.75 2.535156 -5.664062 2.234375 -5.5 C 1.941406 -5.34375 1.671875 -5.101562 1.421875 -4.78125 L 1.296875 -4.78125 L 0.828125 -5.453125 C 1.097656 -5.796875 1.441406 -6.070312 1.859375 -6.28125 C 2.285156 -6.488281 2.769531 -6.59375 3.3125 -6.59375 C 4.070312 -6.59375 4.632812 -6.425781 5 -6.09375 C 5.363281 -5.757812 5.546875 -5.300781 5.546875 -4.71875 L 5.5625 -1.28125 C 5.5625 -0.925781 5.710938 -0.75 6.015625 -0.75 C 6.117188 -0.75 6.21875 -0.765625 6.3125 -0.796875 L 6.390625 -0.78125 L 6.5 -0.109375 C 6.425781 -0.0664062 6.332031 -0.03125 6.21875 0 C 6.101562 0.0195312 5.984375 0.03125 5.859375 0.03125 C 5.503906 0.03125 5.234375 -0.046875 5.046875 -0.203125 C 4.867188 -0.359375 4.757812 -0.585938 4.71875 -0.890625 L 4.59375 -0.890625 C 4.40625 -0.546875 4.15625 -0.289062 3.84375 -0.125 C 3.53125 0.0390625 3.140625 0.125 2.671875 0.125 Z M 2.875 -0.640625 C 3.238281 -0.640625 3.550781 -0.722656 3.8125 -0.890625 C 4.070312 -1.054688 4.269531 -1.289062 4.40625 -1.59375 C 4.550781 -1.894531 4.625 -2.238281 4.625 -2.625 L 4.625 -3.453125 L 4.515625 -3.46875 C 4.367188 -3.375 4.191406 -3.289062 3.984375 -3.21875 C 3.785156 -3.15625 3.5 -3.09375 3.125 -3.03125 C 2.75 -2.976562 2.453125 -2.898438 2.234375 -2.796875 C 2.015625 -2.691406 1.859375 -2.554688 1.765625 -2.390625 C 1.671875 -2.234375 1.625 -2.035156 1.625 -1.796875 C 1.625 -1.421875 1.734375 -1.132812 1.953125 -0.9375 C 2.171875 -0.738281 2.476562 -0.640625 2.875 -0.640625 Z M 2.875 -0.640625 "/></g></g><g transform="translate(573.675847, 292.380969)"><g><path d="M 3.359375 0.125 C 2.835938 0.125 2.378906 0 1.984375 -0.25 C 1.585938 -0.5 1.273438 -0.875 1.046875 -1.375 C 0.816406 -1.875 0.703125 -2.492188 0.703125 -3.234375 C 0.703125 -3.972656 0.816406 -4.59375 1.046875 -5.09375 C 1.273438 -5.59375 1.597656 -5.96875 2.015625 -6.21875 C 2.429688 -6.46875 2.910156 -6.59375 3.453125 -6.59375 C 3.878906 -6.59375 4.265625 -6.507812 4.609375 -6.34375 C 4.953125 -6.1875 5.25 -5.925781 5.5 -5.5625 L 5.609375 -5.578125 L 5.609375 -9.078125 L 6.578125 -9.078125 L 6.59375 -0.015625 L 5.625 -0.015625 L 5.625 -0.953125 L 5.515625 -0.984375 C 5.296875 -0.660156 5.003906 -0.394531 4.640625 -0.1875 C 4.285156 0.0195312 3.859375 0.125 3.359375 0.125 Z M 3.65625 -0.734375 C 4.25 -0.734375 4.722656 -0.941406 5.078125 -1.359375 C 5.441406 -1.773438 5.625 -2.40625 5.625 -3.25 C 5.625 -4.09375 5.441406 -4.71875 5.078125 -5.125 C 4.710938 -5.53125 4.234375 -5.734375 3.640625 -5.734375 C 3.015625 -5.734375 2.535156 -5.53125 2.203125 -5.125 C 1.878906 -4.726562 1.71875 -4.097656 1.71875 -3.234375 C 1.71875 -1.566406 2.363281 -0.734375 3.65625 -0.734375 Z M 3.65625 -0.734375 "/></g></g></g><g clip-path="url(#496bd282bd)"><g clip-path="url(#b10f1598b0)"><g clip-path="url(#a584b82e04)"><path stroke-linecap="butt" transform="matrix(-0.629353, 0.407939, -0.407939, -0.629353, 698.632651, 296.740378)" fill="none" stroke-linejoin="miter" d="M -0.000804208 14.402509 L 390.269054 14.40131 " stroke="#00bf63" stroke-width="4" stroke-opacity="1" stroke-miterlimit="4"/></g></g></g><g clip-path="url(#504f70bd39)"><g clip-path="url(#afda6b70a9)"><g clip-path="url(#e01041ced1)"><path fill="#00bf63" d="M 448.960938 451.066406 L 441.476562 450.554688 L 444.066406 443.515625 Z M 448.960938 451.066406 " fill-opacity="1" fill-rule="nonzero"/></g></g></g><g clip-path="url(#7d1fe8c3b5)"><g clip-path="url(#03e835f0d1)"><g clip-path="url(#4f5f7c7ea5)"><path stroke-linecap="round" transform="matrix(-0.629353, 0.407939, -0.407939, -0.629353, 698.632651, 296.740378)" fill="none" stroke-linejoin="round" d="M 391.266442 8.400357 L 399.269229 14.400749 L 391.266677 20.39819 Z M 391.266442 8.400357 " stroke="#00bf63" stroke-width="4" stroke-opacity="1" stroke-miterlimit="4"/></g></g></g><g fill="#000000" fill-opacity="1"><g transform="translate(556.454456, 381.39354)"><g><path d="M 1.09375 -0.703125 L -3.5625 -7.890625 L -0.953125 -9.578125 C -0.472656 -9.890625 -0.0195312 -10.070312 0.40625 -10.125 C 0.84375 -10.1875 1.234375 -10.125 1.578125 -9.9375 C 1.929688 -9.757812 2.238281 -9.472656 2.5 -9.078125 C 2.789062 -8.628906 2.914062 -8.1875 2.875 -7.75 C 2.84375 -7.3125 2.632812 -6.867188 2.25 -6.421875 L 2.328125 -6.3125 C 2.609375 -6.375 2.890625 -6.351562 3.171875 -6.25 C 3.453125 -6.144531 3.78125 -5.941406 4.15625 -5.640625 L 6.15625 -4 L 5.296875 -3.4375 L 3.15625 -5.171875 C 2.894531 -5.359375 2.660156 -5.492188 2.453125 -5.578125 C 2.242188 -5.660156 2.035156 -5.675781 1.828125 -5.625 C 1.617188 -5.582031 1.382812 -5.472656 1.125 -5.296875 L -0.171875 -4.46875 L 1.921875 -1.25 Z M 1.125 -6.34375 C 1.570312 -6.632812 1.835938 -6.953125 1.921875 -7.296875 C 2.015625 -7.640625 1.921875 -8.023438 1.640625 -8.453125 C 1.359375 -8.878906 1.039062 -9.128906 0.6875 -9.203125 C 0.332031 -9.273438 -0.0664062 -9.164062 -0.515625 -8.875 L -2.28125 -7.734375 L -0.640625 -5.203125 Z M 1.125 -6.34375 "/></g></g><g transform="translate(563.111835, 377.07831)"><g><path d="M 3.53125 -5.875 L -0.203125 -3.46875 C 0.253906 -2.8125 0.726562 -2.425781 1.21875 -2.3125 C 1.707031 -2.195312 2.207031 -2.300781 2.71875 -2.625 C 3.101562 -2.875 3.367188 -3.144531 3.515625 -3.4375 C 3.671875 -3.726562 3.71875 -4.066406 3.65625 -4.453125 L 3.765625 -4.53125 L 4.484375 -4.5625 C 4.578125 -4.0625 4.519531 -3.582031 4.3125 -3.125 C 4.113281 -2.675781 3.738281 -2.269531 3.1875 -1.90625 C 2.65625 -1.570312 2.132812 -1.382812 1.625 -1.34375 C 1.125 -1.3125 0.632812 -1.4375 0.15625 -1.71875 C -0.3125 -2 -0.753906 -2.457031 -1.171875 -3.09375 C -1.566406 -3.695312 -1.789062 -4.285156 -1.84375 -4.859375 C -1.894531 -5.429688 -1.804688 -5.941406 -1.578125 -6.390625 C -1.347656 -6.835938 -1 -7.210938 -0.53125 -7.515625 C 0.164062 -7.972656 0.835938 -8.128906 1.484375 -7.984375 C 2.128906 -7.847656 2.707031 -7.398438 3.21875 -6.640625 C 3.414062 -6.328125 3.539062 -6.113281 3.59375 -6 Z M 2.421875 -6.125 C 2.035156 -6.6875 1.632812 -7.019531 1.21875 -7.125 C 0.8125 -7.226562 0.378906 -7.128906 -0.078125 -6.828125 C -0.546875 -6.523438 -0.828125 -6.148438 -0.921875 -5.703125 C -1.023438 -5.265625 -0.925781 -4.742188 -0.625 -4.140625 Z M 2.421875 -6.125 "/></g></g><g transform="translate(568.89402, 373.330371)"><g><path d="M 2.296875 -1.34375 C 1.765625 -1 1.257812 -0.867188 0.78125 -0.953125 C 0.300781 -1.035156 -0.109375 -1.332031 -0.453125 -1.84375 C -0.660156 -2.175781 -0.765625 -2.492188 -0.765625 -2.796875 C -0.773438 -3.109375 -0.6875 -3.421875 -0.5 -3.734375 C -0.3125 -4.046875 -0.0195312 -4.390625 0.375 -4.765625 C 0.71875 -5.097656 0.96875 -5.367188 1.125 -5.578125 C 1.28125 -5.785156 1.359375 -5.960938 1.359375 -6.109375 C 1.367188 -6.265625 1.320312 -6.414062 1.21875 -6.5625 C 1.0625 -6.8125 0.859375 -6.945312 0.609375 -6.96875 C 0.359375 -6.988281 0.046875 -6.878906 -0.328125 -6.640625 C -0.679688 -6.410156 -0.9375 -6.144531 -1.09375 -5.84375 C -1.257812 -5.550781 -1.359375 -5.203125 -1.390625 -4.796875 L -1.5 -4.734375 L -2.265625 -5.03125 C -2.222656 -5.476562 -2.082031 -5.898438 -1.84375 -6.296875 C -1.601562 -6.703125 -1.253906 -7.050781 -0.796875 -7.34375 C -0.160156 -7.757812 0.398438 -7.925781 0.890625 -7.84375 C 1.390625 -7.757812 1.796875 -7.472656 2.109375 -6.984375 L 3.984375 -4.09375 C 4.171875 -3.789062 4.390625 -3.71875 4.640625 -3.875 C 4.722656 -3.9375 4.800781 -4.007812 4.875 -4.09375 L 4.9375 -4.109375 L 5.40625 -3.609375 C 5.363281 -3.535156 5.300781 -3.453125 5.21875 -3.359375 C 5.144531 -3.273438 5.054688 -3.203125 4.953125 -3.140625 C 4.648438 -2.941406 4.378906 -2.859375 4.140625 -2.890625 C 3.898438 -2.929688 3.679688 -3.066406 3.484375 -3.296875 L 3.375 -3.25 C 3.40625 -2.851562 3.332031 -2.5 3.15625 -2.1875 C 2.976562 -1.875 2.691406 -1.59375 2.296875 -1.34375 Z M 2.0625 -2.09375 C 2.375 -2.289062 2.59375 -2.53125 2.71875 -2.8125 C 2.84375 -3.09375 2.878906 -3.398438 2.828125 -3.734375 C 2.785156 -4.066406 2.660156 -4.394531 2.453125 -4.71875 L 2 -5.40625 L 1.90625 -5.359375 C 1.832031 -5.210938 1.726562 -5.050781 1.59375 -4.875 C 1.457031 -4.707031 1.25 -4.5 0.96875 -4.25 C 0.6875 -4 0.476562 -3.769531 0.34375 -3.5625 C 0.21875 -3.351562 0.160156 -3.15625 0.171875 -2.96875 C 0.179688 -2.789062 0.25 -2.597656 0.375 -2.390625 C 0.582031 -2.078125 0.832031 -1.894531 1.125 -1.84375 C 1.425781 -1.789062 1.738281 -1.875 2.0625 -2.09375 Z M 2.0625 -2.09375 "/></g></g><g transform="translate(574.504116, 369.693978)"><g><path d="M 2.875 -1.71875 C 2.4375 -1.4375 1.984375 -1.289062 1.515625 -1.28125 C 1.054688 -1.28125 0.59375 -1.425781 0.125 -1.71875 C -0.332031 -2.007812 -0.765625 -2.46875 -1.171875 -3.09375 C -1.566406 -3.707031 -1.800781 -4.289062 -1.875 -4.84375 C -1.945312 -5.394531 -1.878906 -5.882812 -1.671875 -6.3125 C -1.460938 -6.75 -1.132812 -7.117188 -0.6875 -7.421875 C -0.320312 -7.648438 0.046875 -7.785156 0.421875 -7.828125 C 0.804688 -7.878906 1.203125 -7.820312 1.609375 -7.65625 L 1.6875 -7.734375 L -0.203125 -10.671875 L 0.609375 -11.203125 L 5.53125 -3.59375 L 4.71875 -3.0625 L 4.203125 -3.84375 L 4.09375 -3.8125 C 4.09375 -3.425781 3.992188 -3.046875 3.796875 -2.671875 C 3.609375 -2.304688 3.300781 -1.988281 2.875 -1.71875 Z M 2.65625 -2.59375 C 3.15625 -2.914062 3.441406 -3.347656 3.515625 -3.890625 C 3.597656 -4.441406 3.410156 -5.070312 2.953125 -5.78125 C 2.492188 -6.488281 2 -6.914062 1.46875 -7.0625 C 0.945312 -7.207031 0.4375 -7.117188 -0.0625 -6.796875 C -0.582031 -6.460938 -0.875 -6.035156 -0.9375 -5.515625 C -1 -4.992188 -0.796875 -4.375 -0.328125 -3.65625 C 0.578125 -2.25 1.570312 -1.894531 2.65625 -2.59375 Z M 2.65625 -2.59375 "/></g></g></g><g clip-path="url(#e982530240)"><g clip-path="url(#d8242a902d)"><g clip-path="url(#5978c81583)"><path stroke-linecap="butt" transform="matrix(0.629799, -0.407251, 0.407251, 0.629799, 69.374923, 278.821386)" fill="none" stroke-linejoin="miter" d="M -0.00127415 14.399387 L 389.369995 14.401642 " stroke="#8c52ff" stroke-width="4" stroke-opacity="1" stroke-miterlimit="4"/></g></g></g><g clip-path="url(#fed2beda14)"><g clip-path="url(#f04a05c653)"><g clip-path="url(#cb3151141d)"><path fill="#8c52ff" d="M 318.652344 125.132812 L 326.132812 125.652344 L 323.539062 132.691406 Z M 318.652344 125.132812 " fill-opacity="1" fill-rule="nonzero"/></g></g></g><g clip-path="url(#4b6deb91e6)"><g clip-path="url(#2b422aae79)"><g clip-path="url(#e467d06d39)"><path stroke-linecap="round" transform="matrix(0.629799, -0.407251, 0.407251, 0.629799, 69.374923, 278.821386)" fill="none" stroke-linejoin="round" d="M 390.372398 8.400885 L 398.371709 14.398444 L 390.371345 20.401801 Z M 390.372398 8.400885 " stroke="#8c52ff" stroke-width="4" stroke-opacity="1" stroke-miterlimit="4"/></g></g></g><g fill="#000000" fill-opacity="1"><g transform="translate(190.653037, 218.6187)"><g><path d="M 3.15625 -2.03125 L 2.03125 -1.3125 L -4.265625 -7.4375 L -3.4375 -7.96875 L 1.765625 -2.921875 L 1.890625 -3 L -0.34375 -9.984375 L 0.453125 -10.484375 L 5.90625 -5.59375 L 6.015625 -5.671875 L 3.53125 -12.484375 L 4.34375 -13 L 7.359375 -4.765625 L 6.25 -4.03125 L 1.234375 -8.515625 L 1.125 -8.4375 Z M 3.15625 -2.03125 "/></g></g><g transform="translate(200.045899, 212.544938)"><g><path d="M 0.9375 -0.609375 L -2.578125 -6.046875 L -1.8125 -6.546875 L -1.265625 -5.6875 L -1.125 -5.71875 C -1.269531 -6.5 -0.992188 -7.113281 -0.296875 -7.5625 C 0.078125 -7.800781 0.394531 -7.914062 0.65625 -7.90625 L 0.890625 -7.09375 L 0.796875 -7.015625 C 0.546875 -6.972656 0.296875 -6.875 0.046875 -6.71875 C -0.390625 -6.4375 -0.617188 -6.054688 -0.640625 -5.578125 C -0.660156 -5.109375 -0.4375 -4.507812 0.03125 -3.78125 L 1.75 -1.125 Z M 0.9375 -0.609375 "/></g></g><g transform="translate(204.237999, 209.834175)"><g><path d="M -2.84375 -7.359375 C -3.007812 -7.242188 -3.175781 -7.203125 -3.34375 -7.234375 C -3.519531 -7.273438 -3.664062 -7.378906 -3.78125 -7.546875 C -3.875 -7.703125 -3.90625 -7.867188 -3.875 -8.046875 C -3.84375 -8.222656 -3.742188 -8.367188 -3.578125 -8.484375 C -3.410156 -8.585938 -3.234375 -8.617188 -3.046875 -8.578125 C -2.867188 -8.546875 -2.734375 -8.453125 -2.640625 -8.296875 C -2.523438 -8.128906 -2.488281 -7.957031 -2.53125 -7.78125 C -2.570312 -7.601562 -2.675781 -7.460938 -2.84375 -7.359375 Z M 0.9375 -0.609375 L -2.578125 -6.046875 L -1.765625 -6.5625 L 1.75 -1.125 Z M 0.9375 -0.609375 "/></g></g><g transform="translate(206.929406, 208.093814)"><g><path d="M 3.109375 -3.234375 L 3.734375 -2.8125 C 3.691406 -2.613281 3.585938 -2.410156 3.421875 -2.203125 C 3.253906 -2.003906 3.050781 -1.820312 2.8125 -1.65625 C 1.769531 -0.988281 0.910156 -1.179688 0.234375 -2.234375 L -1.90625 -5.546875 L -2.84375 -4.9375 L -3.265625 -5.59375 L -2.328125 -6.203125 L -3.0625 -7.34375 L -2.34375 -8.015625 L -1.515625 -6.734375 L 0.21875 -7.859375 L 0.640625 -7.203125 L -1.09375 -6.078125 L 1 -2.84375 C 1.394531 -2.21875 1.863281 -2.078125 2.40625 -2.421875 C 2.695312 -2.617188 2.894531 -2.867188 3 -3.171875 Z M 3.109375 -3.234375 "/></g></g><g transform="translate(211.062462, 205.421232)"><g><path d="M 3.53125 -5.875 L -0.203125 -3.46875 C 0.253906 -2.8125 0.726562 -2.425781 1.21875 -2.3125 C 1.707031 -2.195312 2.207031 -2.300781 2.71875 -2.625 C 3.101562 -2.875 3.367188 -3.140625 3.515625 -3.421875 C 3.671875 -3.710938 3.722656 -4.054688 3.671875 -4.453125 L 3.765625 -4.515625 L 4.484375 -4.5625 C 4.578125 -4.0625 4.523438 -3.582031 4.328125 -3.125 C 4.128906 -2.675781 3.75 -2.269531 3.1875 -1.90625 C 2.65625 -1.570312 2.132812 -1.382812 1.625 -1.34375 C 1.125 -1.3125 0.632812 -1.4375 0.15625 -1.71875 C -0.3125 -2 -0.75 -2.457031 -1.15625 -3.09375 C -1.550781 -3.707031 -1.773438 -4.296875 -1.828125 -4.859375 C -1.890625 -5.429688 -1.800781 -5.941406 -1.5625 -6.390625 C -1.332031 -6.835938 -0.984375 -7.210938 -0.515625 -7.515625 C 0.191406 -7.972656 0.863281 -8.128906 1.5 -7.984375 C 2.144531 -7.847656 2.722656 -7.394531 3.234375 -6.625 C 3.429688 -6.320312 3.554688 -6.109375 3.609375 -5.984375 Z M 2.4375 -6.109375 C 2.050781 -6.679688 1.648438 -7.019531 1.234375 -7.125 C 0.816406 -7.226562 0.378906 -7.132812 -0.078125 -6.84375 C -0.546875 -6.539062 -0.828125 -6.164062 -0.921875 -5.71875 C -1.023438 -5.269531 -0.921875 -4.742188 -0.609375 -4.140625 Z M 2.4375 -6.109375 "/></g></g></g><g clip-path="url(#6fba222067)"><g clip-path="url(#808781b1b9)"><g clip-path="url(#c44365089d)"><path stroke-linecap="butt" transform="matrix(0.75, 0.000635806, -0.000635806, 0.75, 75.248567, 277.093134)" fill="none" stroke-linejoin="miter" d="M -0.00150563 14.40187 L 325.206966 14.402219 " stroke="#8c52ff" stroke-width="4" stroke-opacity="1" stroke-miterlimit="4"/></g></g></g><g clip-path="url(#7faabb00df)"><g clip-path="url(#290349122e)"><g clip-path="url(#3c3a68686b)"><path fill="#8c52ff" d="M 319.898438 283.601562 L 325.894531 288.105469 L 319.890625 292.601562 Z M 319.898438 283.601562 " fill-opacity="1" fill-rule="nonzero"/></g></g></g><g clip-path="url(#2b0886cbf6)"><g clip-path="url(#9b22b0a9ab)"><g clip-path="url(#dcdcc615cd)"><path stroke-linecap="round" transform="matrix(0.75, 0.000635806, -0.000635806, 0.75, 75.248567, 277.093134)" fill="none" stroke-linejoin="round" d="M 326.207088 8.401369 L 334.206968 14.399798 L 326.206844 20.401374 Z M 326.207088 8.401369 " stroke="#8c52ff" stroke-width="4" stroke-opacity="1" stroke-miterlimit="4"/></g></g></g><g fill="#000000" fill-opacity="1"><g transform="translate(185.708212, 292.486773)"><g><path d="M 3.75 0 L 2.421875 0 L 0.46875 -8.5625 L 1.453125 -8.5625 L 3.078125 -1.484375 L 3.21875 -1.484375 L 5.140625 -8.5625 L 6.078125 -8.5625 L 8 -1.484375 L 8.140625 -1.484375 L 9.75 -8.546875 L 10.71875 -8.546875 L 8.765625 0 L 7.4375 0 L 5.65625 -6.484375 L 5.53125 -6.484375 Z M 3.75 0 "/></g></g><g transform="translate(196.893754, 292.496256)"><g><path d="M 1.125 0 L 1.125 -6.46875 L 2.03125 -6.46875 L 2.03125 -5.453125 L 2.15625 -5.421875 C 2.457031 -6.148438 3.023438 -6.515625 3.859375 -6.515625 C 4.296875 -6.515625 4.625 -6.4375 4.84375 -6.28125 L 4.59375 -5.46875 L 4.484375 -5.453125 C 4.242188 -5.566406 3.976562 -5.625 3.6875 -5.625 C 3.164062 -5.625 2.765625 -5.429688 2.484375 -5.046875 C 2.210938 -4.660156 2.078125 -4.035156 2.078125 -3.171875 L 2.078125 0 Z M 1.125 0 "/></g></g><g transform="translate(201.885939, 292.500488)"><g><path d="M 1.609375 -7.71875 C 1.398438 -7.71875 1.234375 -7.78125 1.109375 -7.90625 C 0.984375 -8.03125 0.921875 -8.191406 0.921875 -8.390625 C 0.921875 -8.578125 0.984375 -8.734375 1.109375 -8.859375 C 1.234375 -8.992188 1.398438 -9.0625 1.609375 -9.0625 C 1.804688 -9.0625 1.96875 -8.992188 2.09375 -8.859375 C 2.226562 -8.734375 2.296875 -8.578125 2.296875 -8.390625 C 2.296875 -8.191406 2.226562 -8.03125 2.09375 -7.90625 C 1.96875 -7.78125 1.804688 -7.71875 1.609375 -7.71875 Z M 1.125 0 L 1.125 -6.46875 L 2.078125 -6.46875 L 2.078125 0 Z M 1.125 0 "/></g></g><g transform="translate(205.091016, 292.503205)"><g><path d="M 4.375 -1.03125 L 4.671875 -0.34375 C 4.523438 -0.1875 4.328125 -0.0703125 4.078125 0 C 3.828125 0.0820312 3.554688 0.125 3.265625 0.125 C 2.035156 0.125 1.421875 -0.5 1.421875 -1.75 L 1.421875 -5.6875 L 0.296875 -5.6875 L 0.296875 -6.46875 L 1.421875 -6.46875 L 1.421875 -7.828125 L 2.375 -8 L 2.375 -6.46875 L 4.453125 -6.46875 L 4.453125 -5.6875 L 2.375 -5.6875 L 2.375 -1.84375 C 2.375 -1.101562 2.695312 -0.734375 3.34375 -0.734375 C 3.695312 -0.734375 4 -0.832031 4.25 -1.03125 Z M 4.375 -1.03125 "/></g></g><g transform="translate(210.012889, 292.507377)"><g><path d="M 6.15625 -3.015625 L 1.71875 -3.015625 C 1.75 -2.222656 1.9375 -1.644531 2.28125 -1.28125 C 2.632812 -0.914062 3.113281 -0.734375 3.71875 -0.734375 C 4.175781 -0.734375 4.546875 -0.8125 4.828125 -0.96875 C 5.109375 -1.132812 5.332031 -1.394531 5.5 -1.75 L 5.625 -1.75 L 6.234375 -1.390625 C 6.046875 -0.921875 5.742188 -0.550781 5.328125 -0.28125 C 4.921875 -0.0078125 4.382812 0.125 3.71875 0.125 C 3.09375 0.125 2.554688 0.00390625 2.109375 -0.234375 C 1.660156 -0.484375 1.3125 -0.859375 1.0625 -1.359375 C 0.820312 -1.859375 0.703125 -2.484375 0.703125 -3.234375 C 0.703125 -3.960938 0.832031 -4.578125 1.09375 -5.078125 C 1.351562 -5.585938 1.703125 -5.96875 2.140625 -6.21875 C 2.585938 -6.46875 3.09375 -6.59375 3.65625 -6.59375 C 4.488281 -6.59375 5.132812 -6.359375 5.59375 -5.890625 C 6.0625 -5.421875 6.300781 -4.726562 6.3125 -3.8125 C 6.3125 -3.445312 6.300781 -3.203125 6.28125 -3.078125 Z M 5.359375 -3.8125 C 5.347656 -4.5 5.195312 -5 4.90625 -5.3125 C 4.613281 -5.625 4.195312 -5.78125 3.65625 -5.78125 C 3.09375 -5.78125 2.648438 -5.617188 2.328125 -5.296875 C 2.003906 -4.984375 1.804688 -4.488281 1.734375 -3.8125 Z M 5.359375 -3.8125 "/></g></g></g><g clip-path="url(#e5e723e1df)"><path fill="#2f7fc1" d="M 332.5625 139.136719 C 329.289062 140.609375 327.453125 142.246094 327.453125 143.972656 C 327.453125 150.386719 352.59375 155.582031 383.605469 155.582031 C 414.621094 155.582031 439.761719 150.386719 439.761719 143.972656 C 439.761719 142.246094 437.925781 140.609375 434.652344 139.136719 C 425.777344 143.132812 406.265625 145.90625 383.605469 145.90625 C 360.949219 145.90625 341.4375 143.132812 332.5625 139.136719 Z M 332.5625 139.136719 " fill-opacity="1" fill-rule="nonzero"/></g><g clip-path="url(#60284e4135)"><path fill="#4da7ff" d="M 383.605469 155.582031 C 352.59375 155.582031 327.453125 150.386719 327.453125 143.972656 L 327.453125 165.257812 C 327.453125 171.671875 352.59375 176.867188 383.605469 176.867188 C 414.621094 176.867188 439.761719 171.671875 439.761719 165.257812 L 439.761719 143.972656 C 439.761719 150.386719 414.621094 155.582031 383.605469 155.582031 Z M 383.605469 155.582031 " fill-opacity="1" fill-rule="nonzero"/></g><g clip-path="url(#2d039c4367)"><path fill="#2f7fc1" d="M 332.5625 108.175781 C 329.289062 109.648438 327.453125 111.285156 327.453125 113.011719 C 327.453125 119.425781 352.59375 124.621094 383.605469 124.621094 C 414.621094 124.621094 439.761719 119.425781 439.761719 113.011719 C 439.761719 111.285156 437.925781 109.648438 434.652344 108.175781 C 425.777344 112.171875 406.265625 114.949219 383.605469 114.949219 C 360.949219 114.949219 341.4375 112.171875 332.5625 108.175781 Z M 332.5625 108.175781 " fill-opacity="1" fill-rule="nonzero"/></g><g clip-path="url(#3e0bf9d66a)"><path fill="#4da7ff" d="M 383.605469 93.660156 C 352.59375 93.660156 327.453125 88.464844 327.453125 82.050781 L 327.453125 103.335938 C 327.453125 105.066406 329.292969 106.703125 332.5625 108.175781 C 341.4375 112.171875 360.949219 114.949219 383.605469 114.949219 C 406.265625 114.949219 425.777344 112.171875 434.652344 108.175781 C 437.921875 106.703125 439.761719 105.066406 439.761719 103.335938 L 439.761719 82.050781 C 439.761719 88.464844 414.621094 93.660156 383.605469 93.660156 Z M 383.605469 93.660156 " fill-opacity="1" fill-rule="nonzero"/></g><g clip-path="url(#ecdfe7d267)"><path fill="#4da7ff" d="M 383.605469 124.621094 C 352.59375 124.621094 327.453125 119.425781 327.453125 113.011719 L 327.453125 134.296875 C 327.453125 136.027344 329.292969 137.664062 332.5625 139.136719 C 341.4375 143.132812 360.949219 145.90625 383.605469 145.90625 C 406.265625 145.90625 425.777344 143.132812 434.652344 139.136719 C 437.921875 137.664062 439.761719 136.027344 439.761719 134.296875 L 439.761719 113.011719 C 439.761719 119.425781 414.621094 124.621094 383.605469 124.621094 Z M 383.605469 124.621094 " fill-opacity="1" fill-rule="nonzero"/></g><g clip-path="url(#20c8e400e6)"><path fill="#7dbfff" d="M 383.605469 72.375 C 352.59375 72.375 327.453125 75.640625 327.453125 82.050781 C 327.453125 88.464844 352.59375 93.660156 383.605469 93.660156 C 414.621094 93.660156 439.761719 88.464844 439.761719 82.050781 C 439.761719 75.640625 414.621094 72.375 383.605469 72.375 Z M 383.605469 72.375 " fill-opacity="1" fill-rule="nonzero"/></g><path fill="#666666" d="M 389.417969 105.273438 L 377.796875 105.273438 C 376.730469 105.273438 375.863281 104.40625 375.863281 103.335938 C 375.863281 102.269531 376.730469 101.402344 377.796875 101.402344 L 389.417969 101.402344 C 390.484375 101.402344 391.351562 102.269531 391.351562 103.335938 C 391.351562 104.40625 390.484375 105.273438 389.417969 105.273438 Z M 389.417969 105.273438 " fill-opacity="1" fill-rule="nonzero"/><path fill="#666666" d="M 389.417969 136.234375 L 377.796875 136.234375 C 376.730469 136.234375 375.863281 135.367188 375.863281 134.296875 C 375.863281 133.230469 376.730469 132.363281 377.796875 132.363281 L 389.417969 132.363281 C 390.484375 132.363281 391.351562 133.230469 391.351562 134.296875 C 391.351562 135.367188 390.484375 136.234375 389.417969 136.234375 Z M 389.417969 136.234375 " fill-opacity="1" fill-rule="nonzero"/><path fill="#666666" d="M 389.417969 167.195312 L 377.796875 167.195312 C 376.730469 167.195312 375.863281 166.328125 375.863281 165.257812 C 375.863281 164.191406 376.730469 163.324219 377.796875 163.324219 L 389.417969 163.324219 C 390.484375 163.324219 391.351562 164.191406 391.351562 165.257812 C 391.351562 166.328125 390.484375 167.195312 389.417969 167.195312 Z M 389.417969 167.195312 " fill-opacity="1" fill-rule="nonzero"/><g fill="#000000" fill-opacity="1"><g transform="translate(348.101243, 200.32153)"><g><path d="M 4.015625 0 L 2.28125 0 L 2.28125 -15.109375 L 4.46875 -15.109375 L 11.828125 -3.5625 L 12.09375 -3.609375 L 12.09375 -15.109375 L 13.8125 -15.109375 L 13.8125 0 L 11.953125 0 L 4.28125 -12.34375 L 4.015625 -12.296875 Z M 4.015625 0 "/></g></g><g transform="translate(364.211189, 200.32153)"><g><path d="M 6.53125 0.21875 C 5.457031 0.21875 4.523438 -0.00390625 3.734375 -0.453125 C 2.941406 -0.910156 2.328125 -1.582031 1.890625 -2.46875 C 1.460938 -3.351562 1.25 -4.425781 1.25 -5.6875 C 1.25 -6.945312 1.460938 -8.019531 1.890625 -8.90625 C 2.328125 -9.800781 2.941406 -10.472656 3.734375 -10.921875 C 4.523438 -11.378906 5.457031 -11.609375 6.53125 -11.609375 C 7.613281 -11.609375 8.550781 -11.378906 9.34375 -10.921875 C 10.132812 -10.472656 10.742188 -9.800781 11.171875 -8.90625 C 11.609375 -8.019531 11.828125 -6.945312 11.828125 -5.6875 C 11.828125 -4.425781 11.609375 -3.351562 11.171875 -2.46875 C 10.742188 -1.582031 10.132812 -0.910156 9.34375 -0.453125 C 8.550781 -0.00390625 7.613281 0.21875 6.53125 0.21875 Z M 6.53125 -1.296875 C 7.675781 -1.296875 8.546875 -1.648438 9.140625 -2.359375 C 9.742188 -3.078125 10.046875 -4.1875 10.046875 -5.6875 C 10.046875 -7.195312 9.742188 -8.3125 9.140625 -9.03125 C 8.546875 -9.75 7.675781 -10.109375 6.53125 -10.109375 C 5.394531 -10.109375 4.523438 -9.742188 3.921875 -9.015625 C 3.316406 -8.296875 3.015625 -7.1875 3.015625 -5.6875 C 3.015625 -4.1875 3.316406 -3.078125 3.921875 -2.359375 C 4.523438 -1.648438 5.394531 -1.296875 6.53125 -1.296875 Z M 6.53125 -1.296875 "/></g></g><g transform="translate(377.293415, 200.32153)"><g><path d="M 5.90625 0.21875 C 4.988281 0.21875 4.179688 0 3.484375 -0.4375 C 2.785156 -0.875 2.238281 -1.53125 1.84375 -2.40625 C 1.445312 -3.289062 1.25 -4.382812 1.25 -5.6875 C 1.25 -6.988281 1.453125 -8.082031 1.859375 -8.96875 C 2.273438 -9.851562 2.847656 -10.515625 3.578125 -10.953125 C 4.304688 -11.390625 5.148438 -11.609375 6.109375 -11.609375 C 6.859375 -11.609375 7.535156 -11.460938 8.140625 -11.171875 C 8.753906 -10.890625 9.273438 -10.421875 9.703125 -9.765625 L 9.921875 -9.8125 L 9.921875 -15.96875 L 11.609375 -15.96875 L 11.609375 0 L 9.921875 0 L 9.921875 -1.65625 L 9.703125 -1.703125 C 9.335938 -1.140625 8.832031 -0.675781 8.1875 -0.3125 C 7.550781 0.0390625 6.789062 0.21875 5.90625 0.21875 Z M 6.4375 -1.296875 C 7.5 -1.296875 8.34375 -1.65625 8.96875 -2.375 C 9.601562 -3.101562 9.921875 -4.207031 9.921875 -5.6875 C 9.921875 -7.175781 9.601562 -8.285156 8.96875 -9.015625 C 8.34375 -9.742188 7.5 -10.109375 6.4375 -10.109375 C 5.34375 -10.109375 4.5 -9.75 3.90625 -9.03125 C 3.3125 -8.320312 3.015625 -7.207031 3.015625 -5.6875 C 3.015625 -2.757812 4.15625 -1.296875 6.4375 -1.296875 Z M 6.4375 -1.296875 "/></g></g><g transform="translate(390.90265, 200.32153)"><g><path d="M 10.859375 -5.3125 L 3.03125 -5.3125 C 3.070312 -3.925781 3.398438 -2.910156 4.015625 -2.265625 C 4.640625 -1.617188 5.488281 -1.296875 6.5625 -1.296875 C 7.375 -1.296875 8.023438 -1.4375 8.515625 -1.71875 C 9.015625 -2.007812 9.40625 -2.46875 9.6875 -3.09375 L 9.90625 -3.09375 L 11 -2.4375 C 10.664062 -1.613281 10.132812 -0.960938 9.40625 -0.484375 C 8.6875 -0.015625 7.738281 0.21875 6.5625 0.21875 C 5.457031 0.21875 4.507812 0.00390625 3.71875 -0.421875 C 2.925781 -0.859375 2.316406 -1.519531 1.890625 -2.40625 C 1.460938 -3.289062 1.25 -4.382812 1.25 -5.6875 C 1.25 -6.988281 1.472656 -8.082031 1.921875 -8.96875 C 2.378906 -9.851562 3 -10.515625 3.78125 -10.953125 C 4.5625 -11.390625 5.453125 -11.609375 6.453125 -11.609375 C 7.910156 -11.609375 9.050781 -11.195312 9.875 -10.375 C 10.695312 -9.550781 11.109375 -8.332031 11.109375 -6.71875 C 11.109375 -6.082031 11.097656 -5.65625 11.078125 -5.4375 Z M 9.453125 -6.71875 C 9.421875 -7.925781 9.148438 -8.804688 8.640625 -9.359375 C 8.128906 -9.910156 7.398438 -10.1875 6.453125 -10.1875 C 5.453125 -10.1875 4.664062 -9.90625 4.09375 -9.34375 C 3.53125 -8.789062 3.1875 -7.914062 3.0625 -6.71875 Z M 9.453125 -6.71875 "/></g></g><g transform="translate(403.05486, 200.32153)"><g/></g><g transform="translate(408.242283, 200.32153)"><g><path d="M 1.078125 0 L 1.078125 -1.46875 L 5.203125 -1.46875 L 5.203125 -13.015625 L 4.953125 -13.078125 C 4.285156 -12.742188 3.703125 -12.488281 3.203125 -12.3125 C 2.703125 -12.144531 2.054688 -11.976562 1.265625 -11.8125 L 1.265625 -13.4375 C 2.046875 -13.601562 2.816406 -13.828125 3.578125 -14.109375 C 4.335938 -14.390625 5.03125 -14.722656 5.65625 -15.109375 L 6.9375 -15.109375 L 6.9375 -1.46875 L 10.625 -1.46875 L 10.625 0 Z M 1.078125 0 "/></g></g></g><g clip-path="url(#8c717508eb)"><path fill="#2f7fc1" d="M 332.5625 302.402344 C 329.289062 303.875 327.453125 305.511719 327.453125 307.238281 C 327.453125 313.652344 352.59375 318.847656 383.605469 318.847656 C 414.621094 318.847656 439.761719 313.652344 439.761719 307.238281 C 439.761719 305.511719 437.925781 303.875 434.652344 302.402344 C 425.777344 306.398438 406.265625 309.171875 383.605469 309.171875 C 360.949219 309.171875 341.4375 306.398438 332.5625 302.402344 Z M 332.5625 302.402344 " fill-opacity="1" fill-rule="nonzero"/></g><g clip-path="url(#c5de1344d4)"><path fill="#4da7ff" d="M 383.605469 318.847656 C 352.59375 318.847656 327.453125 313.652344 327.453125 307.238281 L 327.453125 328.523438 C 327.453125 334.9375 352.59375 340.132812 383.605469 340.132812 C 414.621094 340.132812 439.761719 334.9375 439.761719 328.523438 L 439.761719 307.238281 C 439.761719 313.652344 414.621094 318.847656 383.605469 318.847656 Z M 383.605469 318.847656 " fill-opacity="1" fill-rule="nonzero"/></g><g clip-path="url(#b76c9ff050)"><path fill="#2f7fc1" d="M 332.5625 271.441406 C 329.289062 272.914062 327.453125 274.550781 327.453125 276.277344 C 327.453125 282.691406 352.59375 287.886719 383.605469 287.886719 C 414.621094 287.886719 439.761719 282.691406 439.761719 276.277344 C 439.761719 274.550781 437.925781 272.914062 434.652344 271.441406 C 425.777344 275.4375 406.265625 278.210938 383.605469 278.210938 C 360.949219 278.210938 341.4375 275.4375 332.5625 271.441406 Z M 332.5625 271.441406 " fill-opacity="1" fill-rule="nonzero"/></g><g clip-path="url(#b0ac55eb93)"><path fill="#4da7ff" d="M 383.605469 256.925781 C 352.59375 256.925781 327.453125 251.730469 327.453125 245.316406 L 327.453125 266.601562 C 327.453125 268.332031 329.292969 269.96875 332.5625 271.441406 C 341.4375 275.4375 360.949219 278.210938 383.605469 278.210938 C 406.265625 278.210938 425.777344 275.4375 434.652344 271.441406 C 437.921875 269.96875 439.761719 268.332031 439.761719 266.601562 L 439.761719 245.316406 C 439.761719 251.730469 414.621094 256.925781 383.605469 256.925781 Z M 383.605469 256.925781 " fill-opacity="1" fill-rule="nonzero"/></g><g clip-path="url(#0b01275083)"><path fill="#4da7ff" d="M 383.605469 287.886719 C 352.59375 287.886719 327.453125 282.691406 327.453125 276.277344 L 327.453125 297.5625 C 327.453125 299.292969 329.292969 300.929688 332.5625 302.402344 C 341.4375 306.398438 360.949219 309.171875 383.605469 309.171875 C 406.265625 309.171875 425.777344 306.398438 434.652344 302.402344 C 437.921875 300.929688 439.761719 299.292969 439.761719 297.5625 L 439.761719 276.277344 C 439.761719 282.691406 414.621094 287.886719 383.605469 287.886719 Z M 383.605469 287.886719 " fill-opacity="1" fill-rule="nonzero"/></g><g clip-path="url(#43cac44dde)"><path fill="#7dbfff" d="M 383.605469 235.640625 C 352.59375 235.640625 327.453125 238.902344 327.453125 245.316406 C 327.453125 251.730469 352.59375 256.925781 383.605469 256.925781 C 414.621094 256.925781 439.761719 251.730469 439.761719 245.316406 C 439.761719 238.902344 414.621094 235.640625 383.605469 235.640625 Z M 383.605469 235.640625 " fill-opacity="1" fill-rule="nonzero"/></g><path fill="#666666" d="M 389.417969 268.539062 L 377.796875 268.539062 C 376.730469 268.539062 375.863281 267.671875 375.863281 266.601562 C 375.863281 265.535156 376.730469 264.667969 377.796875 264.667969 L 389.417969 264.667969 C 390.484375 264.667969 391.351562 265.535156 391.351562 266.601562 C 391.351562 267.671875 390.484375 268.539062 389.417969 268.539062 Z M 389.417969 268.539062 " fill-opacity="1" fill-rule="nonzero"/><path fill="#666666" d="M 389.417969 299.5 L 377.796875 299.5 C 376.730469 299.5 375.863281 298.632812 375.863281 297.5625 C 375.863281 296.496094 376.730469 295.628906 377.796875 295.628906 L 389.417969 295.628906 C 390.484375 295.628906 391.351562 296.496094 391.351562 297.5625 C 391.351562 298.632812 390.484375 299.5 389.417969 299.5 Z M 389.417969 299.5 " fill-opacity="1" fill-rule="nonzero"/><path fill="#666666" d="M 389.417969 330.457031 L 377.796875 330.457031 C 376.730469 330.457031 375.863281 329.59375 375.863281 328.523438 C 375.863281 327.457031 376.730469 326.589844 377.796875 326.589844 L 389.417969 326.589844 C 390.484375 326.589844 391.351562 327.457031 391.351562 328.523438 C 391.351562 329.59375 390.484375 330.457031 389.417969 330.457031 Z M 389.417969 330.457031 " fill-opacity="1" fill-rule="nonzero"/><g fill="#000000" fill-opacity="1"><g transform="translate(347.882987, 363.586813)"><g><path d="M 4.015625 0 L 2.28125 0 L 2.28125 -15.109375 L 4.46875 -15.109375 L 11.828125 -3.5625 L 12.09375 -3.609375 L 12.09375 -15.109375 L 13.8125 -15.109375 L 13.8125 0 L 11.953125 0 L 4.28125 -12.34375 L 4.015625 -12.296875 Z M 4.015625 0 "/></g></g><g transform="translate(363.992932, 363.586813)"><g><path d="M 6.53125 0.21875 C 5.457031 0.21875 4.523438 -0.00390625 3.734375 -0.453125 C 2.941406 -0.910156 2.328125 -1.582031 1.890625 -2.46875 C 1.460938 -3.351562 1.25 -4.425781 1.25 -5.6875 C 1.25 -6.945312 1.460938 -8.019531 1.890625 -8.90625 C 2.328125 -9.800781 2.941406 -10.472656 3.734375 -10.921875 C 4.523438 -11.378906 5.457031 -11.609375 6.53125 -11.609375 C 7.613281 -11.609375 8.550781 -11.378906 9.34375 -10.921875 C 10.132812 -10.472656 10.742188 -9.800781 11.171875 -8.90625 C 11.609375 -8.019531 11.828125 -6.945312 11.828125 -5.6875 C 11.828125 -4.425781 11.609375 -3.351562 11.171875 -2.46875 C 10.742188 -1.582031 10.132812 -0.910156 9.34375 -0.453125 C 8.550781 -0.00390625 7.613281 0.21875 6.53125 0.21875 Z M 6.53125 -1.296875 C 7.675781 -1.296875 8.546875 -1.648438 9.140625 -2.359375 C 9.742188 -3.078125 10.046875 -4.1875 10.046875 -5.6875 C 10.046875 -7.195312 9.742188 -8.3125 9.140625 -9.03125 C 8.546875 -9.75 7.675781 -10.109375 6.53125 -10.109375 C 5.394531 -10.109375 4.523438 -9.742188 3.921875 -9.015625 C 3.316406 -8.296875 3.015625 -7.1875 3.015625 -5.6875 C 3.015625 -4.1875 3.316406 -3.078125 3.921875 -2.359375 C 4.523438 -1.648438 5.394531 -1.296875 6.53125 -1.296875 Z M 6.53125 -1.296875 "/></g></g><g transform="translate(377.075158, 363.586813)"><g><path d="M 5.90625 0.21875 C 4.988281 0.21875 4.179688 0 3.484375 -0.4375 C 2.785156 -0.875 2.238281 -1.53125 1.84375 -2.40625 C 1.445312 -3.289062 1.25 -4.382812 1.25 -5.6875 C 1.25 -6.988281 1.453125 -8.082031 1.859375 -8.96875 C 2.273438 -9.851562 2.847656 -10.515625 3.578125 -10.953125 C 4.304688 -11.390625 5.148438 -11.609375 6.109375 -11.609375 C 6.859375 -11.609375 7.535156 -11.460938 8.140625 -11.171875 C 8.753906 -10.890625 9.273438 -10.421875 9.703125 -9.765625 L 9.921875 -9.8125 L 9.921875 -15.96875 L 11.609375 -15.96875 L 11.609375 0 L 9.921875 0 L 9.921875 -1.65625 L 9.703125 -1.703125 C 9.335938 -1.140625 8.832031 -0.675781 8.1875 -0.3125 C 7.550781 0.0390625 6.789062 0.21875 5.90625 0.21875 Z M 6.4375 -1.296875 C 7.5 -1.296875 8.34375 -1.65625 8.96875 -2.375 C 9.601562 -3.101562 9.921875 -4.207031 9.921875 -5.6875 C 9.921875 -7.175781 9.601562 -8.285156 8.96875 -9.015625 C 8.34375 -9.742188 7.5 -10.109375 6.4375 -10.109375 C 5.34375 -10.109375 4.5 -9.75 3.90625 -9.03125 C 3.3125 -8.320312 3.015625 -7.207031 3.015625 -5.6875 C 3.015625 -2.757812 4.15625 -1.296875 6.4375 -1.296875 Z M 6.4375 -1.296875 "/></g></g><g transform="translate(390.684393, 363.586813)"><g><path d="M 10.859375 -5.3125 L 3.03125 -5.3125 C 3.070312 -3.925781 3.398438 -2.910156 4.015625 -2.265625 C 4.640625 -1.617188 5.488281 -1.296875 6.5625 -1.296875 C 7.375 -1.296875 8.023438 -1.4375 8.515625 -1.71875 C 9.015625 -2.007812 9.40625 -2.46875 9.6875 -3.09375 L 9.90625 -3.09375 L 11 -2.4375 C 10.664062 -1.613281 10.132812 -0.960938 9.40625 -0.484375 C 8.6875 -0.015625 7.738281 0.21875 6.5625 0.21875 C 5.457031 0.21875 4.507812 0.00390625 3.71875 -0.421875 C 2.925781 -0.859375 2.316406 -1.519531 1.890625 -2.40625 C 1.460938 -3.289062 1.25 -4.382812 1.25 -5.6875 C 1.25 -6.988281 1.472656 -8.082031 1.921875 -8.96875 C 2.378906 -9.851562 3 -10.515625 3.78125 -10.953125 C 4.5625 -11.390625 5.453125 -11.609375 6.453125 -11.609375 C 7.910156 -11.609375 9.050781 -11.195312 9.875 -10.375 C 10.695312 -9.550781 11.109375 -8.332031 11.109375 -6.71875 C 11.109375 -6.082031 11.097656 -5.65625 11.078125 -5.4375 Z M 9.453125 -6.71875 C 9.421875 -7.925781 9.148438 -8.804688 8.640625 -9.359375 C 8.128906 -9.910156 7.398438 -10.1875 6.453125 -10.1875 C 5.453125 -10.1875 4.664062 -9.90625 4.09375 -9.34375 C 3.53125 -8.789062 3.1875 -7.914062 3.0625 -6.71875 Z M 9.453125 -6.71875 "/></g></g><g transform="translate(402.836603, 363.586813)"><g/></g><g transform="translate(408.024026, 363.586813)"><g><path d="M 0.90625 -0.6875 C 0.90625 -1.519531 0.992188 -2.191406 1.171875 -2.703125 C 1.359375 -3.210938 1.671875 -3.6875 2.109375 -4.125 C 2.554688 -4.570312 3.257812 -5.144531 4.21875 -5.84375 L 5.890625 -7.0625 C 6.503906 -7.507812 7.003906 -7.921875 7.390625 -8.296875 C 7.773438 -8.671875 8.078125 -9.082031 8.296875 -9.53125 C 8.523438 -9.976562 8.640625 -10.472656 8.640625 -11.015625 C 8.640625 -11.910156 8.398438 -12.585938 7.921875 -13.046875 C 7.441406 -13.503906 6.695312 -13.734375 5.6875 -13.734375 C 4.894531 -13.734375 4.1875 -13.546875 3.5625 -13.171875 C 2.945312 -12.796875 2.453125 -12.269531 2.078125 -11.59375 L 1.84375 -11.546875 L 0.78125 -12.671875 C 1.289062 -13.492188 1.957031 -14.140625 2.78125 -14.609375 C 3.613281 -15.078125 4.582031 -15.3125 5.6875 -15.3125 C 6.757812 -15.3125 7.648438 -15.128906 8.359375 -14.765625 C 9.078125 -14.398438 9.601562 -13.894531 9.9375 -13.25 C 10.269531 -12.613281 10.4375 -11.867188 10.4375 -11.015625 C 10.4375 -10.347656 10.296875 -9.71875 10.015625 -9.125 C 9.734375 -8.539062 9.332031 -7.988281 8.8125 -7.46875 C 8.300781 -6.957031 7.65625 -6.414062 6.875 -5.84375 L 5.203125 -4.625 C 4.566406 -4.15625 4.082031 -3.757812 3.75 -3.4375 C 3.414062 -3.113281 3.171875 -2.796875 3.015625 -2.484375 C 2.859375 -2.179688 2.78125 -1.84375 2.78125 -1.46875 L 10.4375 -1.46875 L 10.4375 0 L 0.90625 0 Z M 0.90625 -0.6875 "/></g></g></g><g clip-path="url(#f915160215)"><path fill="#2f7fc1" d="M 332.5625 465.667969 C 329.289062 467.136719 327.453125 468.777344 327.453125 470.503906 C 327.453125 476.917969 352.59375 482.113281 383.605469 482.113281 C 414.621094 482.113281 439.761719 476.917969 439.761719 470.503906 C 439.761719 468.777344 437.925781 467.136719 434.652344 465.667969 C 425.777344 469.660156 406.265625 472.4375 383.605469 472.4375 C 360.949219 472.4375 341.4375 469.660156 332.5625 465.667969 Z M 332.5625 465.667969 " fill-opacity="1" fill-rule="nonzero"/></g><g clip-path="url(#d773af7b8a)"><path fill="#4da7ff" d="M 383.605469 482.113281 C 352.59375 482.113281 327.453125 476.917969 327.453125 470.503906 L 327.453125 491.789062 C 327.453125 498.203125 352.59375 503.398438 383.605469 503.398438 C 414.621094 503.398438 439.761719 498.203125 439.761719 491.789062 L 439.761719 470.503906 C 439.761719 476.917969 414.621094 482.113281 383.605469 482.113281 Z M 383.605469 482.113281 " fill-opacity="1" fill-rule="nonzero"/></g><g clip-path="url(#6386a281a0)"><path fill="#2f7fc1" d="M 332.5625 434.707031 C 329.289062 436.179688 327.453125 437.816406 327.453125 439.542969 C 327.453125 445.957031 352.59375 451.152344 383.605469 451.152344 C 414.621094 451.152344 439.761719 445.957031 439.761719 439.542969 C 439.761719 437.816406 437.925781 436.179688 434.652344 434.707031 C 425.777344 438.703125 406.265625 441.476562 383.605469 441.476562 C 360.949219 441.476562 341.4375 438.703125 332.5625 434.707031 Z M 332.5625 434.707031 " fill-opacity="1" fill-rule="nonzero"/></g><g clip-path="url(#ac8b359ea6)"><path fill="#4da7ff" d="M 383.605469 420.191406 C 352.59375 420.191406 327.453125 414.996094 327.453125 408.582031 L 327.453125 429.867188 C 327.453125 431.597656 329.292969 433.234375 332.5625 434.707031 C 341.4375 438.703125 360.949219 441.476562 383.605469 441.476562 C 406.265625 441.476562 425.777344 438.703125 434.652344 434.707031 C 437.921875 433.234375 439.761719 431.597656 439.761719 429.867188 L 439.761719 408.582031 C 439.761719 414.996094 414.621094 420.191406 383.605469 420.191406 Z M 383.605469 420.191406 " fill-opacity="1" fill-rule="nonzero"/></g><g clip-path="url(#664e0158b8)"><path fill="#4da7ff" d="M 383.605469 451.152344 C 352.59375 451.152344 327.453125 445.957031 327.453125 439.542969 L 327.453125 460.828125 C 327.453125 462.554688 329.292969 464.195312 332.5625 465.667969 C 341.4375 469.660156 360.949219 472.4375 383.605469 472.4375 C 406.265625 472.4375 425.777344 469.660156 434.652344 465.667969 C 437.921875 464.195312 439.761719 462.554688 439.761719 460.828125 L 439.761719 439.542969 C 439.761719 445.957031 414.621094 451.152344 383.605469 451.152344 Z M 383.605469 451.152344 " fill-opacity="1" fill-rule="nonzero"/></g><g clip-path="url(#3de582c70c)"><path fill="#7dbfff" d="M 383.605469 398.90625 C 352.59375 398.90625 327.453125 402.167969 327.453125 408.582031 C 327.453125 414.996094 352.59375 420.191406 383.605469 420.191406 C 414.621094 420.191406 439.761719 414.996094 439.761719 408.582031 C 439.761719 402.167969 414.621094 398.90625 383.605469 398.90625 Z M 383.605469 398.90625 " fill-opacity="1" fill-rule="nonzero"/></g><path fill="#666666" d="M 389.417969 431.804688 L 377.796875 431.804688 C 376.730469 431.804688 375.863281 430.9375 375.863281 429.867188 C 375.863281 428.800781 376.730469 427.933594 377.796875 427.933594 L 389.417969 427.933594 C 390.484375 427.933594 391.351562 428.800781 391.351562 429.867188 C 391.351562 430.9375 390.484375 431.804688 389.417969 431.804688 Z M 389.417969 431.804688 " fill-opacity="1" fill-rule="nonzero"/><path fill="#666666" d="M 389.417969 462.761719 L 377.796875 462.761719 C 376.730469 462.761719 375.863281 461.898438 375.863281 460.828125 C 375.863281 459.761719 376.730469 458.894531 377.796875 458.894531 L 389.417969 458.894531 C 390.484375 458.894531 391.351562 459.761719 391.351562 460.828125 C 391.351562 461.898438 390.484375 462.761719 389.417969 462.761719 Z M 389.417969 462.761719 " fill-opacity="1" fill-rule="nonzero"/><path fill="#666666" d="M 389.417969 493.722656 L 377.796875 493.722656 C 376.730469 493.722656 375.863281 492.855469 375.863281 491.789062 C 375.863281 490.722656 376.730469 489.855469 377.796875 489.855469 L 389.417969 489.855469 C 390.484375 489.855469 391.351562 490.722656 391.351562 491.789062 C 391.351562 492.855469 390.484375 493.722656 389.417969 493.722656 Z M 389.417969 493.722656 " fill-opacity="1" fill-rule="nonzero"/><g fill="#000000" fill-opacity="1"><g transform="translate(347.552314, 526.852105)"><g><path d="M 4.015625 0 L 2.28125 0 L 2.28125 -15.109375 L 4.46875 -15.109375 L 11.828125 -3.5625 L 12.09375 -3.609375 L 12.09375 -15.109375 L 13.8125 -15.109375 L 13.8125 0 L 11.953125 0 L 4.28125 -12.34375 L 4.015625 -12.296875 Z M 4.015625 0 "/></g></g><g transform="translate(363.662259, 526.852105)"><g><path d="M 6.53125 0.21875 C 5.457031 0.21875 4.523438 -0.00390625 3.734375 -0.453125 C 2.941406 -0.910156 2.328125 -1.582031 1.890625 -2.46875 C 1.460938 -3.351562 1.25 -4.425781 1.25 -5.6875 C 1.25 -6.945312 1.460938 -8.019531 1.890625 -8.90625 C 2.328125 -9.800781 2.941406 -10.472656 3.734375 -10.921875 C 4.523438 -11.378906 5.457031 -11.609375 6.53125 -11.609375 C 7.613281 -11.609375 8.550781 -11.378906 9.34375 -10.921875 C 10.132812 -10.472656 10.742188 -9.800781 11.171875 -8.90625 C 11.609375 -8.019531 11.828125 -6.945312 11.828125 -5.6875 C 11.828125 -4.425781 11.609375 -3.351562 11.171875 -2.46875 C 10.742188 -1.582031 10.132812 -0.910156 9.34375 -0.453125 C 8.550781 -0.00390625 7.613281 0.21875 6.53125 0.21875 Z M 6.53125 -1.296875 C 7.675781 -1.296875 8.546875 -1.648438 9.140625 -2.359375 C 9.742188 -3.078125 10.046875 -4.1875 10.046875 -5.6875 C 10.046875 -7.195312 9.742188 -8.3125 9.140625 -9.03125 C 8.546875 -9.75 7.675781 -10.109375 6.53125 -10.109375 C 5.394531 -10.109375 4.523438 -9.742188 3.921875 -9.015625 C 3.316406 -8.296875 3.015625 -7.1875 3.015625 -5.6875 C 3.015625 -4.1875 3.316406 -3.078125 3.921875 -2.359375 C 4.523438 -1.648438 5.394531 -1.296875 6.53125 -1.296875 Z M 6.53125 -1.296875 "/></g></g><g transform="translate(376.744486, 526.852105)"><g><path d="M 5.90625 0.21875 C 4.988281 0.21875 4.179688 0 3.484375 -0.4375 C 2.785156 -0.875 2.238281 -1.53125 1.84375 -2.40625 C 1.445312 -3.289062 1.25 -4.382812 1.25 -5.6875 C 1.25 -6.988281 1.453125 -8.082031 1.859375 -8.96875 C 2.273438 -9.851562 2.847656 -10.515625 3.578125 -10.953125 C 4.304688 -11.390625 5.148438 -11.609375 6.109375 -11.609375 C 6.859375 -11.609375 7.535156 -11.460938 8.140625 -11.171875 C 8.753906 -10.890625 9.273438 -10.421875 9.703125 -9.765625 L 9.921875 -9.8125 L 9.921875 -15.96875 L 11.609375 -15.96875 L 11.609375 0 L 9.921875 0 L 9.921875 -1.65625 L 9.703125 -1.703125 C 9.335938 -1.140625 8.832031 -0.675781 8.1875 -0.3125 C 7.550781 0.0390625 6.789062 0.21875 5.90625 0.21875 Z M 6.4375 -1.296875 C 7.5 -1.296875 8.34375 -1.65625 8.96875 -2.375 C 9.601562 -3.101562 9.921875 -4.207031 9.921875 -5.6875 C 9.921875 -7.175781 9.601562 -8.285156 8.96875 -9.015625 C 8.34375 -9.742188 7.5 -10.109375 6.4375 -10.109375 C 5.34375 -10.109375 4.5 -9.75 3.90625 -9.03125 C 3.3125 -8.320312 3.015625 -7.207031 3.015625 -5.6875 C 3.015625 -2.757812 4.15625 -1.296875 6.4375 -1.296875 Z M 6.4375 -1.296875 "/></g></g><g transform="translate(390.353721, 526.852105)"><g><path d="M 10.859375 -5.3125 L 3.03125 -5.3125 C 3.070312 -3.925781 3.398438 -2.910156 4.015625 -2.265625 C 4.640625 -1.617188 5.488281 -1.296875 6.5625 -1.296875 C 7.375 -1.296875 8.023438 -1.4375 8.515625 -1.71875 C 9.015625 -2.007812 9.40625 -2.46875 9.6875 -3.09375 L 9.90625 -3.09375 L 11 -2.4375 C 10.664062 -1.613281 10.132812 -0.960938 9.40625 -0.484375 C 8.6875 -0.015625 7.738281 0.21875 6.5625 0.21875 C 5.457031 0.21875 4.507812 0.00390625 3.71875 -0.421875 C 2.925781 -0.859375 2.316406 -1.519531 1.890625 -2.40625 C 1.460938 -3.289062 1.25 -4.382812 1.25 -5.6875 C 1.25 -6.988281 1.472656 -8.082031 1.921875 -8.96875 C 2.378906 -9.851562 3 -10.515625 3.78125 -10.953125 C 4.5625 -11.390625 5.453125 -11.609375 6.453125 -11.609375 C 7.910156 -11.609375 9.050781 -11.195312 9.875 -10.375 C 10.695312 -9.550781 11.109375 -8.332031 11.109375 -6.71875 C 11.109375 -6.082031 11.097656 -5.65625 11.078125 -5.4375 Z M 9.453125 -6.71875 C 9.421875 -7.925781 9.148438 -8.804688 8.640625 -9.359375 C 8.128906 -9.910156 7.398438 -10.1875 6.453125 -10.1875 C 5.453125 -10.1875 4.664062 -9.90625 4.09375 -9.34375 C 3.53125 -8.789062 3.1875 -7.914062 3.0625 -6.71875 Z M 9.453125 -6.71875 "/></g></g><g transform="translate(402.505931, 526.852105)"><g/></g><g transform="translate(407.693354, 526.852105)"><g><path d="M 5.984375 0.21875 C 4.515625 0.21875 3.347656 -0.109375 2.484375 -0.765625 C 1.628906 -1.429688 1.070312 -2.347656 0.8125 -3.515625 L 2.140625 -4.125 L 2.375 -4.078125 C 2.632812 -3.179688 3.035156 -2.507812 3.578125 -2.0625 C 4.128906 -1.613281 4.929688 -1.390625 5.984375 -1.390625 C 7.046875 -1.390625 7.851562 -1.628906 8.40625 -2.109375 C 8.96875 -2.597656 9.25 -3.320312 9.25 -4.28125 C 9.25 -5.207031 8.960938 -5.914062 8.390625 -6.40625 C 7.828125 -6.894531 6.9375 -7.140625 5.71875 -7.140625 L 4.078125 -7.140625 L 4.078125 -8.609375 L 5.546875 -8.609375 C 6.492188 -8.609375 7.25 -8.84375 7.8125 -9.3125 C 8.375 -9.78125 8.65625 -10.445312 8.65625 -11.3125 C 8.65625 -12.132812 8.410156 -12.75 7.921875 -13.15625 C 7.441406 -13.5625 6.765625 -13.765625 5.890625 -13.765625 C 4.367188 -13.765625 3.285156 -13.160156 2.640625 -11.953125 L 2.390625 -11.90625 L 1.40625 -13 C 1.8125 -13.6875 2.394531 -14.242188 3.15625 -14.671875 C 3.925781 -15.097656 4.835938 -15.3125 5.890625 -15.3125 C 6.847656 -15.3125 7.664062 -15.160156 8.34375 -14.859375 C 9.03125 -14.566406 9.546875 -14.140625 9.890625 -13.578125 C 10.242188 -13.015625 10.421875 -12.335938 10.421875 -11.546875 C 10.421875 -10.804688 10.203125 -10.15625 9.765625 -9.59375 C 9.335938 -9.03125 8.769531 -8.585938 8.0625 -8.265625 L 8.0625 -8.046875 C 9.0625 -7.804688 9.8125 -7.359375 10.3125 -6.703125 C 10.820312 -6.046875 11.078125 -5.238281 11.078125 -4.28125 C 11.078125 -2.84375 10.648438 -1.734375 9.796875 -0.953125 C 8.941406 -0.171875 7.671875 0.21875 5.984375 0.21875 Z M 5.984375 0.21875 "/></g></g></g></svg>