<svg xmlns="http://www.w3.org/2000/svg" xmlns:xlink="http://www.w3.org/1999/xlink" width="1024" zoomAndPan="magnify" viewBox="0 0 768 576" height="768" preserveAspectRatio="xMidYMid meet" version="1.0"><defs><g/><clipPath id="32894d2192"><path d="M 102.945312 179.476562 L 156.945312 179.476562 L 156.945312 249.226562 L 102.945312 249.226562 Z M 102.945312 179.476562 " clip-rule="nonzero"/></clipPath><clipPath id="fd62276ae8"><path d="M 610.808594 179.320312 L 664.808594 179.320312 L 664.808594 249.070312 L 610.808594 249.070312 Z M 610.808594 179.320312 " clip-rule="nonzero"/></clipPath><clipPath id="bbfb52f144"><path d="M 267.363281 11.1875 L 500.328125 11.1875 L 500.328125 417.921875 L 267.363281 417.921875 Z M 267.363281 11.1875 " clip-rule="nonzero"/></clipPath><clipPath id="7b09c22127"><path d="M 294.363281 11.1875 L 473.328125 11.1875 C 488.238281 11.1875 500.328125 23.273438 500.328125 38.1875 L 500.328125 390.921875 C 500.328125 405.832031 488.238281 417.921875 473.328125 417.921875 L 294.363281 417.921875 C 279.453125 417.921875 267.363281 405.832031 267.363281 390.921875 L 267.363281 38.1875 C 267.363281 23.273438 279.453125 11.1875 294.363281 11.1875 Z M 294.363281 11.1875 " clip-rule="nonzero"/></clipPath><clipPath id="95b24648e9"><path d="M 267.363281 11.191406 L 500.613281 11.191406 L 500.613281 417.6875 L 267.363281 417.6875 Z M 267.363281 11.191406 " clip-rule="nonzero"/></clipPath><clipPath id="e75dc2663a"><path d="M 294.363281 11.191406 L 473.324219 11.191406 C 488.234375 11.191406 500.320312 23.277344 500.320312 38.191406 L 500.320312 390.914062 C 500.320312 405.828125 488.234375 417.914062 473.324219 417.914062 L 294.363281 417.914062 C 279.453125 417.914062 267.363281 405.828125 267.363281 390.914062 L 267.363281 38.191406 C 267.363281 23.277344 279.453125 11.191406 294.363281 11.191406 Z M 294.363281 11.191406 " clip-rule="nonzero"/></clipPath><clipPath id="7d8071d1fc"><path d="M 425 210 L 611 210 L 611 220 L 425 220 Z M 425 210 " clip-rule="nonzero"/></clipPath><clipPath id="205b392d16"><path d="M 612.316406 220.613281 L 423.316406 220.933594 L 423.296875 208.183594 L 612.296875 207.863281 Z M 612.316406 220.613281 " clip-rule="nonzero"/></clipPath><clipPath id="eb048c65ad"><path d="M 610.808594 215.441406 L 610.804688 213.191406 L 536.789062 213.316406 L 536.792969 215.566406 Z M 499.316406 215.628906 L 499.3125 213.378906 L 425.292969 213.503906 L 425.296875 215.753906 Z M 432.054688 219.117188 L 432.039062 210.117188 L 425.289062 210.128906 L 425.304688 219.128906 Z M 432.054688 219.117188 " clip-rule="nonzero"/></clipPath><clipPath id="2292efff3a"><path d="M 426 211 L 431 211 L 431 218 L 426 218 Z M 426 211 " clip-rule="nonzero"/></clipPath><clipPath id="6cecda33fc"><path d="M 612.316406 220.613281 L 423.316406 220.933594 L 423.296875 208.183594 L 612.296875 207.863281 Z M 612.316406 220.613281 " clip-rule="nonzero"/></clipPath><clipPath id="7a1bd3dce2"><path d="M 610.808594 215.441406 L 610.804688 213.191406 L 536.789062 213.316406 L 536.792969 215.566406 Z M 499.316406 215.628906 L 499.3125 213.378906 L 425.292969 213.503906 L 425.296875 215.753906 Z M 432.054688 219.117188 L 432.039062 210.117188 L 425.289062 210.128906 L 425.304688 219.128906 Z M 432.054688 219.117188 " clip-rule="nonzero"/></clipPath><clipPath id="b89639e3a7"><path d="M 425 210 L 433 210 L 433 220 L 425 220 Z M 425 210 " clip-rule="nonzero"/></clipPath><clipPath id="3205ddd4c0"><path d="M 612.316406 220.613281 L 423.316406 220.933594 L 423.296875 208.183594 L 612.296875 207.863281 Z M 612.316406 220.613281 " clip-rule="nonzero"/></clipPath><clipPath id="ff1e3b30ce"><path d="M 610.808594 215.441406 L 610.804688 213.191406 L 536.789062 213.316406 L 536.792969 215.566406 Z M 499.316406 215.628906 L 499.3125 213.378906 L 425.292969 213.503906 L 425.296875 215.753906 Z M 432.054688 219.117188 L 432.039062 210.117188 L 425.289062 210.128906 L 425.304688 219.128906 Z M 432.054688 219.117188 " clip-rule="nonzero"/></clipPath><clipPath id="7f520b75a1"><path d="M 422 213 L 612 213 L 612 339 L 422 339 Z M 422 213 " clip-rule="nonzero"/></clipPath><clipPath id="b79bdd7ed3"><path d="M 615.484375 218.789062 L 427.308594 340.761719 L 420.375 330.0625 L 608.550781 208.089844 Z M 615.484375 218.789062 " clip-rule="nonzero"/></clipPath><clipPath id="3e8da67ae8"><path d="M 611.410156 215.261719 L 610.1875 213.375 L 533.15625 263.304688 L 534.378906 265.191406 Z M 502.933594 285.578125 L 501.707031 283.6875 L 424.675781 333.621094 L 425.902344 335.507812 Z M 433.402344 334.667969 L 428.507812 327.117188 L 422.84375 330.785156 L 427.738281 338.339844 Z M 433.402344 334.667969 " clip-rule="nonzero"/></clipPath><clipPath id="a8af7c922e"><path d="M 426 328 L 432 328 L 432 335 L 426 335 Z M 426 328 " clip-rule="nonzero"/></clipPath><clipPath id="6d46ecd436"><path d="M 615.484375 218.789062 L 427.308594 340.761719 L 420.375 330.0625 L 608.550781 208.089844 Z M 615.484375 218.789062 " clip-rule="nonzero"/></clipPath><clipPath id="a05e55f526"><path d="M 611.410156 215.261719 L 610.1875 213.375 L 533.15625 263.304688 L 534.378906 265.191406 Z M 502.933594 285.578125 L 501.707031 283.6875 L 424.675781 333.621094 L 425.902344 335.507812 Z M 433.402344 334.667969 L 428.507812 327.117188 L 422.84375 330.785156 L 427.738281 338.339844 Z M 433.402344 334.667969 " clip-rule="nonzero"/></clipPath><clipPath id="7290a9ba7e"><path d="M 425 327 L 433 327 L 433 336 L 425 336 Z M 425 327 " clip-rule="nonzero"/></clipPath><clipPath id="4054c781cb"><path d="M 615.484375 218.789062 L 427.308594 340.761719 L 420.375 330.0625 L 608.550781 208.089844 Z M 615.484375 218.789062 " clip-rule="nonzero"/></clipPath><clipPath id="8e4844efc7"><path d="M 611.410156 215.261719 L 610.1875 213.375 L 533.15625 263.304688 L 534.378906 265.191406 Z M 502.933594 285.578125 L 501.707031 283.6875 L 424.675781 333.621094 L 425.902344 335.507812 Z M 433.402344 334.667969 L 428.507812 327.117188 L 422.84375 330.785156 L 427.738281 338.339844 Z M 433.402344 334.667969 " clip-rule="nonzero"/></clipPath><clipPath id="9cd47c8753"><path d="M 156 90 L 345 90 L 345 216 L 156 216 Z M 156 90 " clip-rule="nonzero"/></clipPath><clipPath id="7bf1cc53b8"><path d="M 152.511719 209.996094 L 340.820312 88.230469 L 347.742188 98.933594 L 159.433594 220.703125 Z M 152.511719 209.996094 " clip-rule="nonzero"/></clipPath><clipPath id="0e88b2262e"><path d="M 156.582031 213.527344 L 157.800781 215.417969 L 233.855469 166.238281 L 232.632812 164.351562 Z M 265.753906 142.929688 L 266.976562 144.820312 L 343.027344 95.644531 L 341.808594 93.753906 Z M 334.304688 94.585938 L 339.191406 102.140625 L 344.859375 98.476562 L 339.972656 90.917969 Z M 334.304688 94.585938 " clip-rule="nonzero"/></clipPath><clipPath id="9e64a36a40"><path d="M 335 94 L 342 94 L 342 101 L 335 101 Z M 335 94 " clip-rule="nonzero"/></clipPath><clipPath id="2f9abf80a2"><path d="M 152.511719 209.996094 L 340.820312 88.230469 L 347.742188 98.933594 L 159.433594 220.703125 Z M 152.511719 209.996094 " clip-rule="nonzero"/></clipPath><clipPath id="eb8eac1858"><path d="M 156.582031 213.527344 L 157.800781 215.417969 L 233.855469 166.238281 L 232.632812 164.351562 Z M 265.753906 142.929688 L 266.976562 144.820312 L 343.027344 95.644531 L 341.808594 93.753906 Z M 334.304688 94.585938 L 339.191406 102.140625 L 344.859375 98.476562 L 339.972656 90.917969 Z M 334.304688 94.585938 " clip-rule="nonzero"/></clipPath><clipPath id="138d358b05"><path d="M 334 93 L 343 93 L 343 102 L 334 102 Z M 334 93 " clip-rule="nonzero"/></clipPath><clipPath id="e9dbcb09ea"><path d="M 152.511719 209.996094 L 340.820312 88.230469 L 347.742188 98.933594 L 159.433594 220.703125 Z M 152.511719 209.996094 " clip-rule="nonzero"/></clipPath><clipPath id="e5cfee14fc"><path d="M 156.582031 213.527344 L 157.800781 215.417969 L 233.855469 166.238281 L 232.632812 164.351562 Z M 265.753906 142.929688 L 266.976562 144.820312 L 343.027344 95.644531 L 341.808594 93.753906 Z M 334.304688 94.585938 L 339.191406 102.140625 L 344.859375 98.476562 L 339.972656 90.917969 Z M 334.304688 94.585938 " clip-rule="nonzero"/></clipPath><clipPath id="03dbf7f35e"><path d="M 157 210 L 343 210 L 343 220 L 157 220 Z M 157 210 " clip-rule="nonzero"/></clipPath><clipPath id="1e251b022f"><path d="M 155.695312 208.171875 L 343.945312 208.332031 L 343.9375 221.082031 L 155.6875 220.921875 Z M 155.695312 208.171875 " clip-rule="nonzero"/></clipPath><clipPath id="0eb3d7868a"><path d="M 157.191406 213.351562 L 157.191406 215.601562 L 230.082031 215.660156 L 230.082031 213.410156 Z M 269.527344 213.445312 L 269.527344 215.695312 L 342.417969 215.757812 L 342.417969 213.507812 Z M 335.671875 210.125 L 335.664062 219.125 L 342.414062 219.132812 L 342.421875 210.132812 Z M 335.671875 210.125 " clip-rule="nonzero"/></clipPath><clipPath id="5ee8f01e8a"><path d="M 336 211 L 342 211 L 342 218 L 336 218 Z M 336 211 " clip-rule="nonzero"/></clipPath><clipPath id="3a0922a574"><path d="M 155.695312 208.171875 L 343.945312 208.332031 L 343.9375 221.082031 L 155.6875 220.921875 Z M 155.695312 208.171875 " clip-rule="nonzero"/></clipPath><clipPath id="e0c64aa89c"><path d="M 157.191406 213.351562 L 157.191406 215.601562 L 230.082031 215.660156 L 230.082031 213.410156 Z M 269.527344 213.445312 L 269.527344 215.695312 L 342.417969 215.757812 L 342.417969 213.507812 Z M 335.671875 210.125 L 335.664062 219.125 L 342.414062 219.132812 L 342.421875 210.132812 Z M 335.671875 210.125 " clip-rule="nonzero"/></clipPath><clipPath id="80818e88e6"><path d="M 335 210 L 343 210 L 343 220 L 335 220 Z M 335 210 " clip-rule="nonzero"/></clipPath><clipPath id="2b6586a2c1"><path d="M 155.695312 208.171875 L 343.945312 208.332031 L 343.9375 221.082031 L 155.6875 220.921875 Z M 155.695312 208.171875 " clip-rule="nonzero"/></clipPath><clipPath id="9d8acfbfdc"><path d="M 157.191406 213.351562 L 157.191406 215.601562 L 230.082031 215.660156 L 230.082031 213.410156 Z M 269.527344 213.445312 L 269.527344 215.695312 L 342.417969 215.757812 L 342.417969 213.507812 Z M 335.671875 210.125 L 335.664062 219.125 L 342.414062 219.132812 L 342.421875 210.132812 Z M 335.671875 210.125 " clip-rule="nonzero"/></clipPath><clipPath id="000c07c402"><path d="M 342.417969 105 L 425 105 L 425 118 L 342.417969 118 Z M 342.417969 105 " clip-rule="nonzero"/></clipPath><clipPath id="8c1f8b0083"><path d="M 342.417969 108 L 425 108 L 425 132.917969 L 342.417969 132.917969 Z M 342.417969 108 " clip-rule="nonzero"/></clipPath><clipPath id="d2ca5f6389"><path d="M 342.417969 82 L 425 82 L 425 95 L 342.417969 95 Z M 342.417969 82 " clip-rule="nonzero"/></clipPath><clipPath id="583e287e17"><path d="M 342.417969 63 L 425 63 L 425 88 L 342.417969 88 Z M 342.417969 63 " clip-rule="nonzero"/></clipPath><clipPath id="1681eb654b"><path d="M 342.417969 86 L 425 86 L 425 111 L 342.417969 111 Z M 342.417969 86 " clip-rule="nonzero"/></clipPath><clipPath id="12df55f57d"><path d="M 342.417969 56.160156 L 425 56.160156 L 425 72 L 342.417969 72 Z M 342.417969 56.160156 " clip-rule="nonzero"/></clipPath><clipPath id="3ffccd3bc8"><path d="M 342.417969 225 L 425 225 L 425 238 L 342.417969 238 Z M 342.417969 225 " clip-rule="nonzero"/></clipPath><clipPath id="421c777dc7"><path d="M 342.417969 228 L 425 228 L 425 252.851562 L 342.417969 252.851562 Z M 342.417969 228 " clip-rule="nonzero"/></clipPath><clipPath id="0b3738cddb"><path d="M 342.417969 202 L 425 202 L 425 215 L 342.417969 215 Z M 342.417969 202 " clip-rule="nonzero"/></clipPath><clipPath id="c7fc137040"><path d="M 342.417969 183 L 425 183 L 425 208 L 342.417969 208 Z M 342.417969 183 " clip-rule="nonzero"/></clipPath><clipPath id="c2c41bf15d"><path d="M 342.417969 205 L 425 205 L 425 231 L 342.417969 231 Z M 342.417969 205 " clip-rule="nonzero"/></clipPath><clipPath id="9a4606fb5e"><path d="M 342.417969 176.09375 L 425 176.09375 L 425 192 L 342.417969 192 Z M 342.417969 176.09375 " clip-rule="nonzero"/></clipPath><clipPath id="bad7a69dcc"><path d="M 342.417969 345 L 425 345 L 425 358 L 342.417969 358 Z M 342.417969 345 " clip-rule="nonzero"/></clipPath><clipPath id="f53fee939d"><path d="M 342.417969 348 L 425 348 L 425 372.78125 L 342.417969 372.78125 Z M 342.417969 348 " clip-rule="nonzero"/></clipPath><clipPath id="dc60fddea9"><path d="M 342.417969 322 L 425 322 L 425 335 L 342.417969 335 Z M 342.417969 322 " clip-rule="nonzero"/></clipPath><clipPath id="ad282ad89d"><path d="M 342.417969 303 L 425 303 L 425 328 L 342.417969 328 Z M 342.417969 303 " clip-rule="nonzero"/></clipPath><clipPath id="482f92d74c"><path d="M 342.417969 325 L 425 325 L 425 351 L 342.417969 351 Z M 342.417969 325 " clip-rule="nonzero"/></clipPath><clipPath id="850fc0d574"><path d="M 342.417969 296.023438 L 425 296.023438 L 425 312 L 342.417969 312 Z M 342.417969 296.023438 " clip-rule="nonzero"/></clipPath></defs><g clip-path="url(#32894d2192)"><path fill="#8c52ff" d="M 157.179688 244.167969 C 157.179688 225.496094 145.03125 210.371094 130.0625 210.371094 C 115.097656 210.371094 102.945312 225.496094 102.945312 244.167969 C 102.945312 247.078125 115.097656 249.449219 130.0625 249.449219 C 145.03125 249.449219 157.179688 247.078125 157.179688 244.167969 Z M 130.0625 179.492188 C 138.226562 179.492188 144.839844 186.101562 144.839844 194.265625 C 144.839844 202.429688 138.226562 209.042969 130.0625 209.042969 C 121.898438 209.042969 115.289062 202.429688 115.289062 194.265625 C 115.289062 186.101562 121.898438 179.492188 130.0625 179.492188 Z M 130.0625 179.492188 " fill-opacity="1" fill-rule="evenodd"/></g><g clip-path="url(#fd62276ae8)"><path fill="#00bf63" d="M 665.042969 244.007812 C 665.042969 225.339844 652.894531 210.214844 637.925781 210.214844 C 622.960938 210.214844 610.808594 225.339844 610.808594 244.007812 C 610.808594 246.921875 622.960938 249.292969 637.925781 249.292969 C 652.894531 249.292969 665.042969 246.921875 665.042969 244.007812 Z M 637.925781 179.332031 C 646.089844 179.332031 652.703125 185.945312 652.703125 194.109375 C 652.703125 202.273438 646.089844 208.886719 637.925781 208.886719 C 629.761719 208.886719 623.148438 202.273438 623.148438 194.109375 C 623.148438 185.945312 629.761719 179.332031 637.925781 179.332031 Z M 637.925781 179.332031 " fill-opacity="1" fill-rule="evenodd"/></g><g clip-path="url(#bbfb52f144)"><g clip-path="url(#7b09c22127)"><path fill="#eeeeee" d="M 267.363281 11.1875 L 500.328125 11.1875 L 500.328125 417.921875 L 267.363281 417.921875 Z M 267.363281 11.1875 " fill-opacity="1" fill-rule="nonzero"/></g></g><g clip-path="url(#95b24648e9)"><g clip-path="url(#e75dc2663a)"><path stroke-linecap="butt" transform="matrix(0.75, 0, 0, 0.75, 267.364911, 11.190826)" fill="none" stroke-linejoin="miter" d="M 35.997828 0.000773435 L 274.612421 0.000773435 C 294.492631 0.000773435 310.607215 16.115357 310.607215 36.000775 L 310.607215 506.29767 C 310.607215 526.183087 294.492631 542.297671 274.612421 542.297671 L 35.997828 542.297671 C 16.117619 542.297671 -0.00217335 526.183087 -0.00217335 506.29767 L -0.00217335 36.000775 C -0.00217335 16.115357 16.117619 0.000773435 35.997828 0.000773435 Z M 35.997828 0.000773435 " stroke="#666666" stroke-width="2" stroke-opacity="1" stroke-miterlimit="4"/></g></g><g fill="#000000" fill-opacity="1"><g transform="translate(308.251628, 31.885806)"><g><path d="M 6.296875 -12.84375 C 8.378906 -12.84375 9.96875 -12.300781 11.0625 -11.21875 C 12.164062 -10.144531 12.71875 -8.546875 12.71875 -6.421875 C 12.71875 -4.304688 12.164062 -2.707031 11.0625 -1.625 C 9.96875 -0.539062 8.378906 0 6.296875 0 L 1.671875 0 L 1.671875 -12.84375 Z M 6.140625 -2.140625 C 7.460938 -2.140625 8.453125 -2.476562 9.109375 -3.15625 C 9.765625 -3.832031 10.09375 -4.921875 10.09375 -6.421875 C 10.09375 -7.929688 9.765625 -9.023438 9.109375 -9.703125 C 8.453125 -10.378906 7.460938 -10.71875 6.140625 -10.71875 L 4.203125 -10.71875 L 4.203125 -2.140625 Z M 6.140625 -2.140625 "/></g></g></g><g fill="#000000" fill-opacity="1"><g transform="translate(321.979994, 31.885806)"><g><path d="M 3.78125 0.1875 C 3.15625 0.1875 2.613281 0.0703125 2.15625 -0.15625 C 1.707031 -0.382812 1.359375 -0.71875 1.109375 -1.15625 C 0.859375 -1.601562 0.734375 -2.140625 0.734375 -2.765625 C 0.734375 -3.335938 0.859375 -3.816406 1.109375 -4.203125 C 1.359375 -4.597656 1.738281 -4.914062 2.25 -5.15625 C 2.769531 -5.40625 3.441406 -5.597656 4.265625 -5.734375 C 4.847656 -5.828125 5.289062 -5.929688 5.59375 -6.046875 C 5.894531 -6.160156 6.097656 -6.285156 6.203125 -6.421875 C 6.304688 -6.566406 6.359375 -6.75 6.359375 -6.96875 C 6.359375 -7.269531 6.25 -7.503906 6.03125 -7.671875 C 5.820312 -7.835938 5.460938 -7.921875 4.953125 -7.921875 C 4.421875 -7.921875 3.910156 -7.800781 3.421875 -7.5625 C 2.929688 -7.320312 2.507812 -7.003906 2.15625 -6.609375 L 1.984375 -6.609375 L 0.953125 -8.140625 C 1.453125 -8.691406 2.054688 -9.117188 2.765625 -9.421875 C 3.472656 -9.722656 4.242188 -9.875 5.078125 -9.875 C 6.359375 -9.875 7.285156 -9.601562 7.859375 -9.0625 C 8.441406 -8.519531 8.734375 -7.742188 8.734375 -6.734375 L 8.734375 -2.53125 C 8.734375 -2.09375 8.921875 -1.875 9.296875 -1.875 C 9.441406 -1.875 9.585938 -1.898438 9.734375 -1.953125 L 9.859375 -1.921875 L 10.03125 -0.234375 C 9.894531 -0.140625 9.707031 -0.0625 9.46875 0 C 9.226562 0.0507812 8.960938 0.078125 8.671875 0.078125 C 8.097656 0.078125 7.644531 -0.03125 7.3125 -0.25 C 6.988281 -0.476562 6.757812 -0.832031 6.625 -1.3125 L 6.4375 -1.328125 C 5.957031 -0.316406 5.070312 0.1875 3.78125 0.1875 Z M 4.546875 -1.640625 C 5.109375 -1.640625 5.554688 -1.828125 5.890625 -2.203125 C 6.234375 -2.578125 6.40625 -3.101562 6.40625 -3.78125 L 6.40625 -4.765625 L 6.234375 -4.796875 C 6.085938 -4.679688 5.894531 -4.582031 5.65625 -4.5 C 5.425781 -4.425781 5.085938 -4.347656 4.640625 -4.265625 C 4.109375 -4.179688 3.726562 -4.03125 3.5 -3.8125 C 3.269531 -3.601562 3.15625 -3.300781 3.15625 -2.90625 C 3.15625 -2.488281 3.273438 -2.171875 3.515625 -1.953125 C 3.765625 -1.742188 4.109375 -1.640625 4.546875 -1.640625 Z M 4.546875 -1.640625 "/></g></g></g><g fill="#000000" fill-opacity="1"><g transform="translate(332.195025, 31.885806)"><g><path d="M 6.6875 -2.3125 L 7.328125 -0.515625 C 7.054688 -0.296875 6.722656 -0.125 6.328125 0 C 5.929688 0.125 5.476562 0.1875 4.96875 0.1875 C 3.925781 0.1875 3.128906 -0.0976562 2.578125 -0.671875 C 2.035156 -1.242188 1.765625 -2.078125 1.765625 -3.171875 L 1.765625 -7.765625 L 0.296875 -7.765625 L 0.296875 -9.703125 L 1.765625 -9.703125 L 1.765625 -11.59375 L 4.203125 -11.984375 L 4.203125 -9.703125 L 6.953125 -9.703125 L 6.953125 -7.765625 L 4.203125 -7.765625 L 4.203125 -3.34375 C 4.203125 -2.863281 4.300781 -2.507812 4.5 -2.28125 C 4.695312 -2.0625 4.988281 -1.953125 5.375 -1.953125 C 5.800781 -1.953125 6.175781 -2.070312 6.5 -2.3125 Z M 6.6875 -2.3125 "/></g></g></g><g fill="#000000" fill-opacity="1"><g transform="translate(339.722353, 31.885806)"><g><path d="M 3.78125 0.1875 C 3.15625 0.1875 2.613281 0.0703125 2.15625 -0.15625 C 1.707031 -0.382812 1.359375 -0.71875 1.109375 -1.15625 C 0.859375 -1.601562 0.734375 -2.140625 0.734375 -2.765625 C 0.734375 -3.335938 0.859375 -3.816406 1.109375 -4.203125 C 1.359375 -4.597656 1.738281 -4.914062 2.25 -5.15625 C 2.769531 -5.40625 3.441406 -5.597656 4.265625 -5.734375 C 4.847656 -5.828125 5.289062 -5.929688 5.59375 -6.046875 C 5.894531 -6.160156 6.097656 -6.285156 6.203125 -6.421875 C 6.304688 -6.566406 6.359375 -6.75 6.359375 -6.96875 C 6.359375 -7.269531 6.25 -7.503906 6.03125 -7.671875 C 5.820312 -7.835938 5.460938 -7.921875 4.953125 -7.921875 C 4.421875 -7.921875 3.910156 -7.800781 3.421875 -7.5625 C 2.929688 -7.320312 2.507812 -7.003906 2.15625 -6.609375 L 1.984375 -6.609375 L 0.953125 -8.140625 C 1.453125 -8.691406 2.054688 -9.117188 2.765625 -9.421875 C 3.472656 -9.722656 4.242188 -9.875 5.078125 -9.875 C 6.359375 -9.875 7.285156 -9.601562 7.859375 -9.0625 C 8.441406 -8.519531 8.734375 -7.742188 8.734375 -6.734375 L 8.734375 -2.53125 C 8.734375 -2.09375 8.921875 -1.875 9.296875 -1.875 C 9.441406 -1.875 9.585938 -1.898438 9.734375 -1.953125 L 9.859375 -1.921875 L 10.03125 -0.234375 C 9.894531 -0.140625 9.707031 -0.0625 9.46875 0 C 9.226562 0.0507812 8.960938 0.078125 8.671875 0.078125 C 8.097656 0.078125 7.644531 -0.03125 7.3125 -0.25 C 6.988281 -0.476562 6.757812 -0.832031 6.625 -1.3125 L 6.4375 -1.328125 C 5.957031 -0.316406 5.070312 0.1875 3.78125 0.1875 Z M 4.546875 -1.640625 C 5.109375 -1.640625 5.554688 -1.828125 5.890625 -2.203125 C 6.234375 -2.578125 6.40625 -3.101562 6.40625 -3.78125 L 6.40625 -4.765625 L 6.234375 -4.796875 C 6.085938 -4.679688 5.894531 -4.582031 5.65625 -4.5 C 5.425781 -4.425781 5.085938 -4.347656 4.640625 -4.265625 C 4.109375 -4.179688 3.726562 -4.03125 3.5 -3.8125 C 3.269531 -3.601562 3.15625 -3.300781 3.15625 -2.90625 C 3.15625 -2.488281 3.273438 -2.171875 3.515625 -1.953125 C 3.765625 -1.742188 4.109375 -1.640625 4.546875 -1.640625 Z M 4.546875 -1.640625 "/></g></g></g><g fill="#000000" fill-opacity="1"><g transform="translate(349.937383, 31.885806)"><g><path d="M 6.78125 0.1875 C 5.539062 0.1875 4.617188 -0.273438 4.015625 -1.203125 L 3.828125 -1.171875 L 3.828125 0 L 1.390625 0 L 1.390625 -13.59375 L 3.828125 -13.59375 L 3.828125 -8.546875 L 4.015625 -8.515625 C 4.347656 -8.984375 4.738281 -9.328125 5.1875 -9.546875 C 5.644531 -9.765625 6.191406 -9.875 6.828125 -9.875 C 7.609375 -9.875 8.289062 -9.6875 8.875 -9.3125 C 9.46875 -8.945312 9.925781 -8.390625 10.25 -7.640625 C 10.582031 -6.890625 10.75 -5.957031 10.75 -4.84375 C 10.75 -3.738281 10.578125 -2.8125 10.234375 -2.0625 C 9.898438 -1.3125 9.429688 -0.75 8.828125 -0.375 C 8.234375 0 7.550781 0.1875 6.78125 0.1875 Z M 6.03125 -1.875 C 6.75 -1.875 7.296875 -2.113281 7.671875 -2.59375 C 8.046875 -3.070312 8.234375 -3.820312 8.234375 -4.84375 C 8.234375 -5.863281 8.046875 -6.613281 7.671875 -7.09375 C 7.296875 -7.570312 6.75 -7.8125 6.03125 -7.8125 C 5.351562 -7.8125 4.8125 -7.566406 4.40625 -7.078125 C 4.007812 -6.585938 3.8125 -5.84375 3.8125 -4.84375 C 3.8125 -3.84375 4.007812 -3.097656 4.40625 -2.609375 C 4.8125 -2.117188 5.351562 -1.875 6.03125 -1.875 Z M 6.03125 -1.875 "/></g></g></g><g fill="#000000" fill-opacity="1"><g transform="translate(361.540181, 31.885806)"><g><path d="M 3.78125 0.1875 C 3.15625 0.1875 2.613281 0.0703125 2.15625 -0.15625 C 1.707031 -0.382812 1.359375 -0.71875 1.109375 -1.15625 C 0.859375 -1.601562 0.734375 -2.140625 0.734375 -2.765625 C 0.734375 -3.335938 0.859375 -3.816406 1.109375 -4.203125 C 1.359375 -4.597656 1.738281 -4.914062 2.25 -5.15625 C 2.769531 -5.40625 3.441406 -5.597656 4.265625 -5.734375 C 4.847656 -5.828125 5.289062 -5.929688 5.59375 -6.046875 C 5.894531 -6.160156 6.097656 -6.285156 6.203125 -6.421875 C 6.304688 -6.566406 6.359375 -6.75 6.359375 -6.96875 C 6.359375 -7.269531 6.25 -7.503906 6.03125 -7.671875 C 5.820312 -7.835938 5.460938 -7.921875 4.953125 -7.921875 C 4.421875 -7.921875 3.910156 -7.800781 3.421875 -7.5625 C 2.929688 -7.320312 2.507812 -7.003906 2.15625 -6.609375 L 1.984375 -6.609375 L 0.953125 -8.140625 C 1.453125 -8.691406 2.054688 -9.117188 2.765625 -9.421875 C 3.472656 -9.722656 4.242188 -9.875 5.078125 -9.875 C 6.359375 -9.875 7.285156 -9.601562 7.859375 -9.0625 C 8.441406 -8.519531 8.734375 -7.742188 8.734375 -6.734375 L 8.734375 -2.53125 C 8.734375 -2.09375 8.921875 -1.875 9.296875 -1.875 C 9.441406 -1.875 9.585938 -1.898438 9.734375 -1.953125 L 9.859375 -1.921875 L 10.03125 -0.234375 C 9.894531 -0.140625 9.707031 -0.0625 9.46875 0 C 9.226562 0.0507812 8.960938 0.078125 8.671875 0.078125 C 8.097656 0.078125 7.644531 -0.03125 7.3125 -0.25 C 6.988281 -0.476562 6.757812 -0.832031 6.625 -1.3125 L 6.4375 -1.328125 C 5.957031 -0.316406 5.070312 0.1875 3.78125 0.1875 Z M 4.546875 -1.640625 C 5.109375 -1.640625 5.554688 -1.828125 5.890625 -2.203125 C 6.234375 -2.578125 6.40625 -3.101562 6.40625 -3.78125 L 6.40625 -4.765625 L 6.234375 -4.796875 C 6.085938 -4.679688 5.894531 -4.582031 5.65625 -4.5 C 5.425781 -4.425781 5.085938 -4.347656 4.640625 -4.265625 C 4.109375 -4.179688 3.726562 -4.03125 3.5 -3.8125 C 3.269531 -3.601562 3.15625 -3.300781 3.15625 -2.90625 C 3.15625 -2.488281 3.273438 -2.171875 3.515625 -1.953125 C 3.765625 -1.742188 4.109375 -1.640625 4.546875 -1.640625 Z M 4.546875 -1.640625 "/></g></g></g><g fill="#000000" fill-opacity="1"><g transform="translate(371.755211, 31.885806)"><g><path d="M 4.53125 0.1875 C 3.875 0.1875 3.269531 0.109375 2.71875 -0.046875 C 2.164062 -0.203125 1.691406 -0.414062 1.296875 -0.6875 C 0.910156 -0.957031 0.625 -1.269531 0.4375 -1.625 L 1.796875 -3.078125 L 1.984375 -3.078125 C 2.304688 -2.648438 2.6875 -2.328125 3.125 -2.109375 C 3.5625 -1.890625 4.035156 -1.78125 4.546875 -1.78125 C 5.023438 -1.78125 5.382812 -1.863281 5.625 -2.03125 C 5.863281 -2.207031 5.984375 -2.453125 5.984375 -2.765625 C 5.984375 -3.015625 5.894531 -3.222656 5.71875 -3.390625 C 5.550781 -3.554688 5.273438 -3.6875 4.890625 -3.78125 L 3.609375 -4.09375 C 2.640625 -4.320312 1.929688 -4.671875 1.484375 -5.140625 C 1.046875 -5.609375 0.828125 -6.207031 0.828125 -6.9375 C 0.828125 -7.539062 0.984375 -8.0625 1.296875 -8.5 C 1.609375 -8.945312 2.039062 -9.285156 2.59375 -9.515625 C 3.15625 -9.753906 3.804688 -9.875 4.546875 -9.875 C 5.421875 -9.875 6.144531 -9.75 6.71875 -9.5 C 7.289062 -9.25 7.738281 -8.910156 8.0625 -8.484375 L 6.765625 -7.078125 L 6.59375 -7.078125 C 6.320312 -7.390625 6.015625 -7.613281 5.671875 -7.75 C 5.335938 -7.894531 4.960938 -7.96875 4.546875 -7.96875 C 3.585938 -7.96875 3.109375 -7.664062 3.109375 -7.0625 C 3.109375 -6.8125 3.195312 -6.609375 3.375 -6.453125 C 3.550781 -6.296875 3.867188 -6.164062 4.328125 -6.0625 L 5.515625 -5.796875 C 6.503906 -5.585938 7.222656 -5.25 7.671875 -4.78125 C 8.128906 -4.320312 8.359375 -3.695312 8.359375 -2.90625 C 8.359375 -2.289062 8.203125 -1.75 7.890625 -1.28125 C 7.585938 -0.8125 7.148438 -0.445312 6.578125 -0.1875 C 6.003906 0.0625 5.320312 0.1875 4.53125 0.1875 Z M 4.53125 0.1875 "/></g></g></g><g fill="#000000" fill-opacity="1"><g transform="translate(380.687874, 31.885806)"><g><path d="M 9.578125 -4.296875 L 3.34375 -4.296875 C 3.414062 -3.453125 3.65625 -2.835938 4.0625 -2.453125 C 4.476562 -2.066406 5.039062 -1.875 5.75 -1.875 C 6.300781 -1.875 6.75 -1.976562 7.09375 -2.1875 C 7.445312 -2.394531 7.726562 -2.710938 7.9375 -3.140625 L 8.125 -3.140625 L 9.734375 -2.09375 C 9.421875 -1.414062 8.941406 -0.863281 8.296875 -0.4375 C 7.660156 -0.0195312 6.8125 0.1875 5.75 0.1875 C 4.75 0.1875 3.882812 0 3.15625 -0.375 C 2.425781 -0.757812 1.863281 -1.328125 1.46875 -2.078125 C 1.070312 -2.835938 0.875 -3.757812 0.875 -4.84375 C 0.875 -5.945312 1.082031 -6.875 1.5 -7.625 C 1.914062 -8.382812 2.476562 -8.945312 3.1875 -9.3125 C 3.894531 -9.6875 4.691406 -9.875 5.578125 -9.875 C 6.941406 -9.875 7.988281 -9.507812 8.71875 -8.78125 C 9.445312 -8.0625 9.8125 -7 9.8125 -5.59375 C 9.8125 -5.082031 9.796875 -4.6875 9.765625 -4.40625 Z M 7.484375 -5.875 C 7.460938 -6.613281 7.289062 -7.148438 6.96875 -7.484375 C 6.65625 -7.816406 6.191406 -7.984375 5.578125 -7.984375 C 4.347656 -7.984375 3.625 -7.28125 3.40625 -5.875 Z M 7.484375 -5.875 "/></g></g></g><g fill="#000000" fill-opacity="1"><g transform="translate(391.219104, 31.885806)"><g/></g></g><g fill="#000000" fill-opacity="1"><g transform="translate(395.461463, 31.885806)"><g><path d="M 7.015625 0.1875 C 5.835938 0.1875 4.796875 -0.0546875 3.890625 -0.546875 C 2.992188 -1.046875 2.289062 -1.785156 1.78125 -2.765625 C 1.269531 -3.753906 1.015625 -4.972656 1.015625 -6.421875 C 1.015625 -7.867188 1.269531 -9.085938 1.78125 -10.078125 C 2.289062 -11.066406 2.992188 -11.804688 3.890625 -12.296875 C 4.796875 -12.785156 5.835938 -13.03125 7.015625 -13.03125 C 8.253906 -13.03125 9.304688 -12.785156 10.171875 -12.296875 C 11.035156 -11.816406 11.65625 -11.082031 12.03125 -10.09375 L 10.171875 -8.96875 L 9.953125 -8.96875 C 9.671875 -9.632812 9.296875 -10.113281 8.828125 -10.40625 C 8.359375 -10.695312 7.753906 -10.84375 7.015625 -10.84375 C 5.953125 -10.84375 5.117188 -10.488281 4.515625 -9.78125 C 3.921875 -9.082031 3.625 -7.960938 3.625 -6.421875 C 3.625 -4.890625 3.921875 -3.769531 4.515625 -3.0625 C 5.117188 -2.363281 5.953125 -2.015625 7.015625 -2.015625 C 8.691406 -2.015625 9.71875 -2.828125 10.09375 -4.453125 L 10.3125 -4.453125 L 12.1875 -3.46875 C 11.832031 -2.25 11.226562 -1.332031 10.375 -0.71875 C 9.53125 -0.113281 8.410156 0.1875 7.015625 0.1875 Z M 7.015625 0.1875 "/></g></g></g><g fill="#000000" fill-opacity="1"><g transform="translate(408.056773, 31.885806)"><g><path d="M 4.03125 0.1875 C 3.15625 0.1875 2.488281 -0.046875 2.03125 -0.515625 C 1.570312 -0.992188 1.34375 -1.710938 1.34375 -2.671875 L 1.34375 -13.59375 L 3.765625 -13.59375 L 3.765625 -2.765625 C 3.765625 -2.171875 4.015625 -1.875 4.515625 -1.875 C 4.648438 -1.875 4.796875 -1.898438 4.953125 -1.953125 L 5.078125 -1.921875 L 5.296875 -0.046875 C 5.160156 0.0234375 4.984375 0.0820312 4.765625 0.125 C 4.546875 0.164062 4.300781 0.1875 4.03125 0.1875 Z M 4.03125 0.1875 "/></g></g></g><g fill="#000000" fill-opacity="1"><g transform="translate(413.625411, 31.885806)"><g><path d="M 4.4375 0.1875 C 3.34375 0.1875 2.535156 -0.109375 2.015625 -0.703125 C 1.503906 -1.296875 1.25 -2.148438 1.25 -3.265625 L 1.25 -9.6875 L 3.6875 -9.6875 L 3.6875 -3.578125 C 3.6875 -2.984375 3.8125 -2.550781 4.0625 -2.28125 C 4.320312 -2.007812 4.71875 -1.875 5.25 -1.875 C 5.925781 -1.875 6.453125 -2.09375 6.828125 -2.53125 C 7.203125 -2.976562 7.390625 -3.675781 7.390625 -4.625 L 7.390625 -9.6875 L 9.8125 -9.6875 L 9.8125 0 L 7.484375 0 L 7.484375 -1.421875 L 7.296875 -1.46875 C 6.984375 -0.914062 6.601562 -0.5 6.15625 -0.21875 C 5.707031 0.0507812 5.132812 0.1875 4.4375 0.1875 Z M 4.4375 0.1875 "/></g></g></g><g fill="#000000" fill-opacity="1"><g transform="translate(424.832953, 31.885806)"><g><path d="M 4.53125 0.1875 C 3.875 0.1875 3.269531 0.109375 2.71875 -0.046875 C 2.164062 -0.203125 1.691406 -0.414062 1.296875 -0.6875 C 0.910156 -0.957031 0.625 -1.269531 0.4375 -1.625 L 1.796875 -3.078125 L 1.984375 -3.078125 C 2.304688 -2.648438 2.6875 -2.328125 3.125 -2.109375 C 3.5625 -1.890625 4.035156 -1.78125 4.546875 -1.78125 C 5.023438 -1.78125 5.382812 -1.863281 5.625 -2.03125 C 5.863281 -2.207031 5.984375 -2.453125 5.984375 -2.765625 C 5.984375 -3.015625 5.894531 -3.222656 5.71875 -3.390625 C 5.550781 -3.554688 5.273438 -3.6875 4.890625 -3.78125 L 3.609375 -4.09375 C 2.640625 -4.320312 1.929688 -4.671875 1.484375 -5.140625 C 1.046875 -5.609375 0.828125 -6.207031 0.828125 -6.9375 C 0.828125 -7.539062 0.984375 -8.0625 1.296875 -8.5 C 1.609375 -8.945312 2.039062 -9.285156 2.59375 -9.515625 C 3.15625 -9.753906 3.804688 -9.875 4.546875 -9.875 C 5.421875 -9.875 6.144531 -9.75 6.71875 -9.5 C 7.289062 -9.25 7.738281 -8.910156 8.0625 -8.484375 L 6.765625 -7.078125 L 6.59375 -7.078125 C 6.320312 -7.390625 6.015625 -7.613281 5.671875 -7.75 C 5.335938 -7.894531 4.960938 -7.96875 4.546875 -7.96875 C 3.585938 -7.96875 3.109375 -7.664062 3.109375 -7.0625 C 3.109375 -6.8125 3.195312 -6.609375 3.375 -6.453125 C 3.550781 -6.296875 3.867188 -6.164062 4.328125 -6.0625 L 5.515625 -5.796875 C 6.503906 -5.585938 7.222656 -5.25 7.671875 -4.78125 C 8.128906 -4.320312 8.359375 -3.695312 8.359375 -2.90625 C 8.359375 -2.289062 8.203125 -1.75 7.890625 -1.28125 C 7.585938 -0.8125 7.148438 -0.445312 6.578125 -0.1875 C 6.003906 0.0625 5.320312 0.1875 4.53125 0.1875 Z M 4.53125 0.1875 "/></g></g></g><g fill="#000000" fill-opacity="1"><g transform="translate(433.765615, 31.885806)"><g><path d="M 6.6875 -2.3125 L 7.328125 -0.515625 C 7.054688 -0.296875 6.722656 -0.125 6.328125 0 C 5.929688 0.125 5.476562 0.1875 4.96875 0.1875 C 3.925781 0.1875 3.128906 -0.0976562 2.578125 -0.671875 C 2.035156 -1.242188 1.765625 -2.078125 1.765625 -3.171875 L 1.765625 -7.765625 L 0.296875 -7.765625 L 0.296875 -9.703125 L 1.765625 -9.703125 L 1.765625 -11.59375 L 4.203125 -11.984375 L 4.203125 -9.703125 L 6.953125 -9.703125 L 6.953125 -7.765625 L 4.203125 -7.765625 L 4.203125 -3.34375 C 4.203125 -2.863281 4.300781 -2.507812 4.5 -2.28125 C 4.695312 -2.0625 4.988281 -1.953125 5.375 -1.953125 C 5.800781 -1.953125 6.175781 -2.070312 6.5 -2.3125 Z M 6.6875 -2.3125 "/></g></g></g><g fill="#000000" fill-opacity="1"><g transform="translate(441.292944, 31.885806)"><g><path d="M 9.578125 -4.296875 L 3.34375 -4.296875 C 3.414062 -3.453125 3.65625 -2.835938 4.0625 -2.453125 C 4.476562 -2.066406 5.039062 -1.875 5.75 -1.875 C 6.300781 -1.875 6.75 -1.976562 7.09375 -2.1875 C 7.445312 -2.394531 7.726562 -2.710938 7.9375 -3.140625 L 8.125 -3.140625 L 9.734375 -2.09375 C 9.421875 -1.414062 8.941406 -0.863281 8.296875 -0.4375 C 7.660156 -0.0195312 6.8125 0.1875 5.75 0.1875 C 4.75 0.1875 3.882812 0 3.15625 -0.375 C 2.425781 -0.757812 1.863281 -1.328125 1.46875 -2.078125 C 1.070312 -2.835938 0.875 -3.757812 0.875 -4.84375 C 0.875 -5.945312 1.082031 -6.875 1.5 -7.625 C 1.914062 -8.382812 2.476562 -8.945312 3.1875 -9.3125 C 3.894531 -9.6875 4.691406 -9.875 5.578125 -9.875 C 6.941406 -9.875 7.988281 -9.507812 8.71875 -8.78125 C 9.445312 -8.0625 9.8125 -7 9.8125 -5.59375 C 9.8125 -5.082031 9.796875 -4.6875 9.765625 -4.40625 Z M 7.484375 -5.875 C 7.460938 -6.613281 7.289062 -7.148438 6.96875 -7.484375 C 6.65625 -7.816406 6.191406 -7.984375 5.578125 -7.984375 C 4.347656 -7.984375 3.625 -7.28125 3.40625 -5.875 Z M 7.484375 -5.875 "/></g></g></g><g fill="#000000" fill-opacity="1"><g transform="translate(451.824174, 31.885806)"><g><path d="M 1.390625 0 L 1.390625 -9.6875 L 3.765625 -9.6875 L 3.765625 -8.25 L 3.953125 -8.21875 C 4.179688 -8.757812 4.484375 -9.15625 4.859375 -9.40625 C 5.242188 -9.65625 5.710938 -9.78125 6.265625 -9.78125 C 6.804688 -9.78125 7.222656 -9.6875 7.515625 -9.5 L 7.109375 -7.40625 L 6.921875 -7.359375 C 6.765625 -7.429688 6.609375 -7.476562 6.453125 -7.5 C 6.304688 -7.53125 6.128906 -7.546875 5.921875 -7.546875 C 5.242188 -7.546875 4.722656 -7.304688 4.359375 -6.828125 C 4.003906 -6.359375 3.828125 -5.59375 3.828125 -4.53125 L 3.828125 0 Z M 1.390625 0 "/></g></g></g><g clip-path="url(#7d8071d1fc)"><g clip-path="url(#205b392d16)"><g clip-path="url(#eb048c65ad)"><path stroke-linecap="butt" transform="matrix(-0.749999, 0.00126967, -0.00126967, -0.749999, 610.824647, 225.115249)" fill="none" stroke-linejoin="miter" d="M 0.002237 14.398482 L 239.096335 14.402201 " stroke="#00bf63" stroke-width="3" stroke-opacity="1" stroke-miterlimit="4"/></g></g></g><g clip-path="url(#2292efff3a)"><g clip-path="url(#6cecda33fc)"><g clip-path="url(#7a1bd3dce2)"><path fill="#00bf63" d="M 430.925781 217.996094 L 426.421875 214.628906 L 430.914062 211.246094 Z M 430.925781 217.996094 " fill-opacity="1" fill-rule="nonzero"/></g></g></g><g clip-path="url(#b89639e3a7)"><g clip-path="url(#3205ddd4c0)"><g clip-path="url(#ff1e3b30ce)"><path stroke-linecap="round" transform="matrix(-0.749999, 0.00126967, -0.00126967, -0.749999, 610.824647, 225.115249)" fill="none" stroke-linejoin="round" d="M 239.848752 9.89826 L 245.846352 14.398003 L 239.849141 18.898274 Z M 239.848752 9.89826 " stroke="#00bf63" stroke-width="3" stroke-opacity="1" stroke-miterlimit="4"/></g></g></g><g fill="#000000" fill-opacity="1"><g transform="translate(503.212619, 218.999768)"><g><path d="M 1.296875 0 L 1.28125 -8.5625 L 4.390625 -8.5625 C 4.960938 -8.570312 5.441406 -8.484375 5.828125 -8.296875 C 6.222656 -8.109375 6.519531 -7.84375 6.71875 -7.5 C 6.914062 -7.15625 7.015625 -6.742188 7.015625 -6.265625 C 7.015625 -5.734375 6.882812 -5.296875 6.625 -4.953125 C 6.363281 -4.609375 5.953125 -4.347656 5.390625 -4.171875 L 5.390625 -4.046875 C 5.660156 -3.941406 5.882812 -3.769531 6.0625 -3.53125 C 6.238281 -3.300781 6.398438 -2.953125 6.546875 -2.484375 L 7.34375 -0.015625 L 6.3125 -0.015625 L 5.453125 -2.640625 C 5.347656 -2.941406 5.226562 -3.179688 5.09375 -3.359375 C 4.96875 -3.535156 4.800781 -3.660156 4.59375 -3.734375 C 4.394531 -3.804688 4.140625 -3.84375 3.828125 -3.84375 L 2.296875 -3.84375 L 2.296875 0 Z M 4.375 -4.703125 C 4.90625 -4.710938 5.300781 -4.835938 5.5625 -5.078125 C 5.820312 -5.328125 5.953125 -5.707031 5.953125 -6.21875 C 5.953125 -6.726562 5.820312 -7.109375 5.5625 -7.359375 C 5.300781 -7.609375 4.90625 -7.726562 4.375 -7.71875 L 2.28125 -7.71875 L 2.28125 -4.703125 Z M 4.375 -4.703125 "/></g></g><g transform="translate(511.146201, 218.986337)"><g><path d="M 6.15625 -3.03125 L 1.71875 -3.015625 C 1.75 -2.222656 1.9375 -1.644531 2.28125 -1.28125 C 2.632812 -0.914062 3.113281 -0.734375 3.71875 -0.734375 C 4.175781 -0.734375 4.546875 -0.816406 4.828125 -0.984375 C 5.109375 -1.148438 5.332031 -1.410156 5.5 -1.765625 L 5.625 -1.765625 L 6.234375 -1.40625 C 6.046875 -0.9375 5.742188 -0.566406 5.328125 -0.296875 C 4.921875 -0.0234375 4.382812 0.113281 3.71875 0.125 C 3.09375 0.125 2.554688 0.00390625 2.109375 -0.234375 C 1.660156 -0.484375 1.3125 -0.859375 1.0625 -1.359375 C 0.820312 -1.859375 0.703125 -2.484375 0.703125 -3.234375 C 0.703125 -3.960938 0.828125 -4.578125 1.078125 -5.078125 C 1.335938 -5.585938 1.6875 -5.96875 2.125 -6.21875 C 2.570312 -6.46875 3.078125 -6.59375 3.640625 -6.59375 C 4.472656 -6.601562 5.117188 -6.375 5.578125 -5.90625 C 6.046875 -5.4375 6.289062 -4.742188 6.3125 -3.828125 C 6.3125 -3.460938 6.300781 -3.21875 6.28125 -3.09375 Z M 5.359375 -3.828125 C 5.335938 -4.515625 5.179688 -5.007812 4.890625 -5.3125 C 4.597656 -5.625 4.179688 -5.78125 3.640625 -5.78125 C 3.078125 -5.78125 2.632812 -5.617188 2.3125 -5.296875 C 1.988281 -4.984375 1.796875 -4.488281 1.734375 -3.8125 Z M 5.359375 -3.828125 "/></g></g><g transform="translate(518.036816, 218.974672)"><g><path d="M 2.671875 0.125 C 2.035156 0.125 1.535156 -0.0390625 1.171875 -0.375 C 0.816406 -0.707031 0.640625 -1.179688 0.640625 -1.796875 C 0.640625 -2.179688 0.71875 -2.503906 0.875 -2.765625 C 1.03125 -3.035156 1.273438 -3.25 1.609375 -3.40625 C 1.941406 -3.570312 2.375 -3.703125 2.90625 -3.796875 C 3.375 -3.878906 3.726562 -3.96875 3.96875 -4.0625 C 4.21875 -4.15625 4.382812 -4.265625 4.46875 -4.390625 C 4.550781 -4.515625 4.585938 -4.664062 4.578125 -4.84375 C 4.578125 -5.132812 4.476562 -5.359375 4.28125 -5.515625 C 4.082031 -5.671875 3.757812 -5.75 3.3125 -5.75 C 2.894531 -5.75 2.535156 -5.664062 2.234375 -5.5 C 1.941406 -5.34375 1.671875 -5.101562 1.421875 -4.78125 L 1.296875 -4.78125 L 0.828125 -5.453125 C 1.097656 -5.796875 1.441406 -6.070312 1.859375 -6.28125 C 2.285156 -6.488281 2.769531 -6.59375 3.3125 -6.59375 C 4.070312 -6.59375 4.632812 -6.425781 5 -6.09375 C 5.363281 -5.757812 5.546875 -5.300781 5.546875 -4.71875 L 5.5625 -1.28125 C 5.5625 -0.925781 5.710938 -0.75 6.015625 -0.75 C 6.117188 -0.75 6.21875 -0.765625 6.3125 -0.796875 L 6.390625 -0.78125 L 6.5 -0.109375 C 6.425781 -0.0664062 6.332031 -0.03125 6.21875 0 C 6.101562 0.0195312 5.984375 0.03125 5.859375 0.03125 C 5.503906 0.03125 5.234375 -0.046875 5.046875 -0.203125 C 4.867188 -0.359375 4.757812 -0.585938 4.71875 -0.890625 L 4.59375 -0.890625 C 4.40625 -0.546875 4.15625 -0.289062 3.84375 -0.125 C 3.53125 0.0390625 3.140625 0.125 2.671875 0.125 Z M 2.875 -0.640625 C 3.238281 -0.640625 3.550781 -0.722656 3.8125 -0.890625 C 4.070312 -1.054688 4.269531 -1.289062 4.40625 -1.59375 C 4.550781 -1.894531 4.625 -2.238281 4.625 -2.625 L 4.625 -3.453125 L 4.515625 -3.46875 C 4.367188 -3.375 4.191406 -3.289062 3.984375 -3.21875 C 3.785156 -3.15625 3.5 -3.09375 3.125 -3.03125 C 2.75 -2.976562 2.453125 -2.898438 2.234375 -2.796875 C 2.015625 -2.691406 1.859375 -2.554688 1.765625 -2.390625 C 1.671875 -2.234375 1.625 -2.035156 1.625 -1.796875 C 1.625 -1.421875 1.734375 -1.132812 1.953125 -0.9375 C 2.171875 -0.738281 2.476562 -0.640625 2.875 -0.640625 Z M 2.875 -0.640625 "/></g></g><g transform="translate(524.722353, 218.963354)"><g><path d="M 3.359375 0.125 C 2.835938 0.125 2.378906 0 1.984375 -0.25 C 1.585938 -0.5 1.273438 -0.875 1.046875 -1.375 C 0.816406 -1.875 0.703125 -2.492188 0.703125 -3.234375 C 0.703125 -3.972656 0.816406 -4.59375 1.046875 -5.09375 C 1.273438 -5.59375 1.597656 -5.96875 2.015625 -6.21875 C 2.429688 -6.46875 2.910156 -6.59375 3.453125 -6.59375 C 3.878906 -6.59375 4.265625 -6.507812 4.609375 -6.34375 C 4.953125 -6.1875 5.25 -5.925781 5.5 -5.5625 L 5.609375 -5.578125 L 5.609375 -9.078125 L 6.578125 -9.078125 L 6.59375 -0.015625 L 5.625 -0.015625 L 5.625 -0.953125 L 5.515625 -0.984375 C 5.296875 -0.660156 5.003906 -0.394531 4.640625 -0.1875 C 4.285156 0.0195312 3.859375 0.125 3.359375 0.125 Z M 3.65625 -0.734375 C 4.25 -0.734375 4.722656 -0.941406 5.078125 -1.359375 C 5.441406 -1.773438 5.625 -2.40625 5.625 -3.25 C 5.625 -4.09375 5.441406 -4.71875 5.078125 -5.125 C 4.710938 -5.53125 4.234375 -5.734375 3.640625 -5.734375 C 3.015625 -5.734375 2.535156 -5.53125 2.203125 -5.125 C 1.878906 -4.726562 1.71875 -4.097656 1.71875 -3.234375 C 1.71875 -1.566406 2.363281 -0.734375 3.65625 -0.734375 Z M 3.65625 -0.734375 "/></g></g></g><g clip-path="url(#7f520b75a1)"><g clip-path="url(#b79bdd7ed3)"><g clip-path="url(#3e8da67ae8)"><path stroke-linecap="butt" transform="matrix(-0.629353, 0.407939, -0.407939, -0.629353, 616.67371, 223.380714)" fill="none" stroke-linejoin="miter" d="M -0.00273077 14.400801 L 286.515098 14.399164 " stroke="#00bf63" stroke-width="3" stroke-opacity="1" stroke-miterlimit="4"/></g></g></g><g clip-path="url(#a8af7c922e)"><g clip-path="url(#6d46ecd436)"><g clip-path="url(#a05e55f526)"><path fill="#00bf63" d="M 431.84375 334.335938 L 426.234375 333.953125 L 428.175781 328.671875 Z M 431.84375 334.335938 " fill-opacity="1" fill-rule="nonzero"/></g></g></g><g clip-path="url(#7290a9ba7e)"><g clip-path="url(#4054c781cb)"><g clip-path="url(#8e4844efc7)"><path stroke-linecap="round" transform="matrix(-0.629353, 0.407939, -0.407939, -0.629353, 616.67371, 223.380714)" fill="none" stroke-linejoin="round" d="M 287.264616 9.900959 L 293.263044 14.397327 L 287.260806 18.898301 Z M 287.264616 9.900959 " stroke="#00bf63" stroke-width="3" stroke-opacity="1" stroke-miterlimit="4"/></g></g></g><g fill="#000000" fill-opacity="1"><g transform="translate(508.480594, 286.005203)"><g><path d="M 1.09375 -0.703125 L -3.5625 -7.890625 L -0.953125 -9.578125 C -0.472656 -9.890625 -0.0195312 -10.070312 0.40625 -10.125 C 0.84375 -10.1875 1.234375 -10.125 1.578125 -9.9375 C 1.929688 -9.757812 2.238281 -9.472656 2.5 -9.078125 C 2.789062 -8.628906 2.914062 -8.1875 2.875 -7.75 C 2.84375 -7.3125 2.632812 -6.867188 2.25 -6.421875 L 2.328125 -6.3125 C 2.609375 -6.375 2.890625 -6.351562 3.171875 -6.25 C 3.453125 -6.144531 3.78125 -5.941406 4.15625 -5.640625 L 6.15625 -4 L 5.296875 -3.4375 L 3.15625 -5.171875 C 2.894531 -5.359375 2.660156 -5.492188 2.453125 -5.578125 C 2.242188 -5.660156 2.035156 -5.675781 1.828125 -5.625 C 1.617188 -5.582031 1.382812 -5.472656 1.125 -5.296875 L -0.171875 -4.46875 L 1.921875 -1.25 Z M 1.125 -6.34375 C 1.570312 -6.632812 1.835938 -6.953125 1.921875 -7.296875 C 2.015625 -7.640625 1.921875 -8.023438 1.640625 -8.453125 C 1.359375 -8.878906 1.039062 -9.128906 0.6875 -9.203125 C 0.332031 -9.273438 -0.0664062 -9.164062 -0.515625 -8.875 L -2.28125 -7.734375 L -0.640625 -5.203125 Z M 1.125 -6.34375 "/></g></g><g transform="translate(515.137973, 281.689973)"><g><path d="M 3.53125 -5.875 L -0.203125 -3.46875 C 0.253906 -2.8125 0.726562 -2.425781 1.21875 -2.3125 C 1.707031 -2.195312 2.207031 -2.300781 2.71875 -2.625 C 3.101562 -2.875 3.367188 -3.144531 3.515625 -3.4375 C 3.671875 -3.726562 3.71875 -4.066406 3.65625 -4.453125 L 3.765625 -4.53125 L 4.484375 -4.5625 C 4.578125 -4.0625 4.519531 -3.582031 4.3125 -3.125 C 4.113281 -2.675781 3.738281 -2.269531 3.1875 -1.90625 C 2.65625 -1.570312 2.132812 -1.382812 1.625 -1.34375 C 1.125 -1.3125 0.632812 -1.4375 0.15625 -1.71875 C -0.3125 -2 -0.753906 -2.457031 -1.171875 -3.09375 C -1.566406 -3.695312 -1.789062 -4.285156 -1.84375 -4.859375 C -1.894531 -5.429688 -1.804688 -5.941406 -1.578125 -6.390625 C -1.347656 -6.835938 -1 -7.210938 -0.53125 -7.515625 C 0.164062 -7.972656 0.835938 -8.128906 1.484375 -7.984375 C 2.128906 -7.847656 2.707031 -7.398438 3.21875 -6.640625 C 3.414062 -6.328125 3.539062 -6.113281 3.59375 -6 Z M 2.421875 -6.125 C 2.035156 -6.6875 1.632812 -7.019531 1.21875 -7.125 C 0.8125 -7.226562 0.378906 -7.128906 -0.078125 -6.828125 C -0.546875 -6.523438 -0.828125 -6.148438 -0.921875 -5.703125 C -1.023438 -5.265625 -0.925781 -4.742188 -0.625 -4.140625 Z M 2.421875 -6.125 "/></g></g><g transform="translate(520.920158, 277.942034)"><g><path d="M 2.296875 -1.34375 C 1.765625 -1 1.257812 -0.867188 0.78125 -0.953125 C 0.300781 -1.035156 -0.109375 -1.332031 -0.453125 -1.84375 C -0.660156 -2.175781 -0.765625 -2.492188 -0.765625 -2.796875 C -0.773438 -3.109375 -0.6875 -3.421875 -0.5 -3.734375 C -0.3125 -4.046875 -0.0195312 -4.390625 0.375 -4.765625 C 0.71875 -5.097656 0.96875 -5.367188 1.125 -5.578125 C 1.28125 -5.785156 1.359375 -5.960938 1.359375 -6.109375 C 1.367188 -6.265625 1.320312 -6.414062 1.21875 -6.5625 C 1.0625 -6.8125 0.859375 -6.945312 0.609375 -6.96875 C 0.359375 -6.988281 0.046875 -6.878906 -0.328125 -6.640625 C -0.679688 -6.410156 -0.9375 -6.144531 -1.09375 -5.84375 C -1.257812 -5.550781 -1.359375 -5.203125 -1.390625 -4.796875 L -1.5 -4.734375 L -2.265625 -5.03125 C -2.222656 -5.476562 -2.082031 -5.898438 -1.84375 -6.296875 C -1.601562 -6.703125 -1.253906 -7.050781 -0.796875 -7.34375 C -0.160156 -7.757812 0.398438 -7.925781 0.890625 -7.84375 C 1.390625 -7.757812 1.796875 -7.472656 2.109375 -6.984375 L 3.984375 -4.09375 C 4.171875 -3.789062 4.390625 -3.71875 4.640625 -3.875 C 4.722656 -3.9375 4.800781 -4.007812 4.875 -4.09375 L 4.9375 -4.109375 L 5.40625 -3.609375 C 5.363281 -3.535156 5.300781 -3.453125 5.21875 -3.359375 C 5.144531 -3.273438 5.054688 -3.203125 4.953125 -3.140625 C 4.648438 -2.941406 4.378906 -2.859375 4.140625 -2.890625 C 3.898438 -2.929688 3.679688 -3.066406 3.484375 -3.296875 L 3.375 -3.25 C 3.40625 -2.851562 3.332031 -2.5 3.15625 -2.1875 C 2.976562 -1.875 2.691406 -1.59375 2.296875 -1.34375 Z M 2.0625 -2.09375 C 2.375 -2.289062 2.59375 -2.53125 2.71875 -2.8125 C 2.84375 -3.09375 2.878906 -3.398438 2.828125 -3.734375 C 2.785156 -4.066406 2.660156 -4.394531 2.453125 -4.71875 L 2 -5.40625 L 1.90625 -5.359375 C 1.832031 -5.210938 1.726562 -5.050781 1.59375 -4.875 C 1.457031 -4.707031 1.25 -4.5 0.96875 -4.25 C 0.6875 -4 0.476562 -3.769531 0.34375 -3.5625 C 0.21875 -3.351562 0.160156 -3.15625 0.171875 -2.96875 C 0.179688 -2.789062 0.25 -2.597656 0.375 -2.390625 C 0.582031 -2.078125 0.832031 -1.894531 1.125 -1.84375 C 1.425781 -1.789062 1.738281 -1.875 2.0625 -2.09375 Z M 2.0625 -2.09375 "/></g></g><g transform="translate(526.530254, 274.305641)"><g><path d="M 2.875 -1.71875 C 2.4375 -1.4375 1.984375 -1.289062 1.515625 -1.28125 C 1.054688 -1.28125 0.59375 -1.425781 0.125 -1.71875 C -0.332031 -2.007812 -0.765625 -2.46875 -1.171875 -3.09375 C -1.566406 -3.707031 -1.800781 -4.289062 -1.875 -4.84375 C -1.945312 -5.394531 -1.878906 -5.882812 -1.671875 -6.3125 C -1.460938 -6.75 -1.132812 -7.117188 -0.6875 -7.421875 C -0.320312 -7.648438 0.046875 -7.785156 0.421875 -7.828125 C 0.804688 -7.878906 1.203125 -7.820312 1.609375 -7.65625 L 1.6875 -7.734375 L -0.203125 -10.671875 L 0.609375 -11.203125 L 5.53125 -3.59375 L 4.71875 -3.0625 L 4.203125 -3.84375 L 4.09375 -3.8125 C 4.09375 -3.425781 3.992188 -3.046875 3.796875 -2.671875 C 3.609375 -2.304688 3.300781 -1.988281 2.875 -1.71875 Z M 2.65625 -2.59375 C 3.15625 -2.914062 3.441406 -3.347656 3.515625 -3.890625 C 3.597656 -4.441406 3.410156 -5.070312 2.953125 -5.78125 C 2.492188 -6.488281 2 -6.914062 1.46875 -7.0625 C 0.945312 -7.207031 0.4375 -7.117188 -0.0625 -6.796875 C -0.582031 -6.460938 -0.875 -6.035156 -0.9375 -5.515625 C -1 -4.992188 -0.796875 -4.375 -0.328125 -3.65625 C 0.578125 -2.25 1.570312 -1.894531 2.65625 -2.59375 Z M 2.65625 -2.59375 "/></g></g></g><g clip-path="url(#9cd47c8753)"><g clip-path="url(#7bf1cc53b8)"><g clip-path="url(#0e88b2262e)"><path stroke-linecap="butt" transform="matrix(0.629799, -0.407251, 0.407251, 0.629799, 151.326805, 205.403243)" fill="none" stroke-linejoin="miter" d="M -0.00000846833 14.400482 L 285.854618 14.401184 " stroke="#8c52ff" stroke-width="3" stroke-opacity="1" stroke-miterlimit="4"/></g></g></g><g clip-path="url(#9e64a36a40)"><g clip-path="url(#2f9abf80a2)"><g clip-path="url(#eb8eac1858)"><path fill="#8c52ff" d="M 335.863281 94.917969 L 341.472656 95.308594 L 339.527344 100.585938 Z M 335.863281 94.917969 " fill-opacity="1" fill-rule="nonzero"/></g></g></g><g clip-path="url(#138d358b05)"><g clip-path="url(#e9dbcb09ea)"><g clip-path="url(#e5cfee14fc)"><path stroke-linecap="round" transform="matrix(0.629799, -0.407251, 0.407251, 0.629799, 151.326805, 205.403243)" fill="none" stroke-linejoin="round" d="M 286.60642 9.900616 L 292.604104 14.399172 L 286.605245 18.899503 Z M 286.60642 9.900616 " stroke="#8c52ff" stroke-width="3" stroke-opacity="1" stroke-miterlimit="4"/></g></g></g><g fill="#000000" fill-opacity="1"><g transform="translate(239.14683, 166.835731)"><g><path d="M 3.15625 -2.03125 L 2.03125 -1.3125 L -4.265625 -7.4375 L -3.4375 -7.96875 L 1.765625 -2.921875 L 1.890625 -3 L -0.34375 -9.984375 L 0.453125 -10.484375 L 5.90625 -5.59375 L 6.015625 -5.671875 L 3.53125 -12.484375 L 4.34375 -13 L 7.359375 -4.765625 L 6.25 -4.03125 L 1.234375 -8.515625 L 1.125 -8.4375 Z M 3.15625 -2.03125 "/></g></g><g transform="translate(248.539692, 160.761969)"><g><path d="M 0.9375 -0.609375 L -2.578125 -6.046875 L -1.8125 -6.546875 L -1.265625 -5.6875 L -1.125 -5.71875 C -1.269531 -6.5 -0.992188 -7.113281 -0.296875 -7.5625 C 0.078125 -7.800781 0.394531 -7.914062 0.65625 -7.90625 L 0.890625 -7.09375 L 0.796875 -7.015625 C 0.546875 -6.972656 0.296875 -6.875 0.046875 -6.71875 C -0.390625 -6.4375 -0.617188 -6.054688 -0.640625 -5.578125 C -0.660156 -5.109375 -0.4375 -4.507812 0.03125 -3.78125 L 1.75 -1.125 Z M 0.9375 -0.609375 "/></g></g><g transform="translate(252.731792, 158.051206)"><g><path d="M -2.84375 -7.359375 C -3.007812 -7.242188 -3.175781 -7.203125 -3.34375 -7.234375 C -3.519531 -7.273438 -3.664062 -7.378906 -3.78125 -7.546875 C -3.875 -7.703125 -3.90625 -7.867188 -3.875 -8.046875 C -3.84375 -8.222656 -3.742188 -8.367188 -3.578125 -8.484375 C -3.410156 -8.585938 -3.234375 -8.617188 -3.046875 -8.578125 C -2.867188 -8.546875 -2.734375 -8.453125 -2.640625 -8.296875 C -2.523438 -8.128906 -2.488281 -7.957031 -2.53125 -7.78125 C -2.570312 -7.601562 -2.675781 -7.460938 -2.84375 -7.359375 Z M 0.9375 -0.609375 L -2.578125 -6.046875 L -1.765625 -6.5625 L 1.75 -1.125 Z M 0.9375 -0.609375 "/></g></g><g transform="translate(255.423199, 156.310845)"><g><path d="M 3.109375 -3.234375 L 3.734375 -2.8125 C 3.691406 -2.613281 3.585938 -2.410156 3.421875 -2.203125 C 3.253906 -2.003906 3.050781 -1.820312 2.8125 -1.65625 C 1.769531 -0.988281 0.910156 -1.179688 0.234375 -2.234375 L -1.90625 -5.546875 L -2.84375 -4.9375 L -3.265625 -5.59375 L -2.328125 -6.203125 L -3.0625 -7.34375 L -2.34375 -8.015625 L -1.515625 -6.734375 L 0.21875 -7.859375 L 0.640625 -7.203125 L -1.09375 -6.078125 L 1 -2.84375 C 1.394531 -2.21875 1.863281 -2.078125 2.40625 -2.421875 C 2.695312 -2.617188 2.894531 -2.867188 3 -3.171875 Z M 3.109375 -3.234375 "/></g></g><g transform="translate(259.556255, 153.638262)"><g><path d="M 3.53125 -5.875 L -0.203125 -3.46875 C 0.253906 -2.8125 0.726562 -2.425781 1.21875 -2.3125 C 1.707031 -2.195312 2.207031 -2.300781 2.71875 -2.625 C 3.101562 -2.875 3.367188 -3.140625 3.515625 -3.421875 C 3.671875 -3.710938 3.722656 -4.054688 3.671875 -4.453125 L 3.765625 -4.515625 L 4.484375 -4.5625 C 4.578125 -4.0625 4.523438 -3.582031 4.328125 -3.125 C 4.128906 -2.675781 3.75 -2.269531 3.1875 -1.90625 C 2.65625 -1.570312 2.132812 -1.382812 1.625 -1.34375 C 1.125 -1.3125 0.632812 -1.4375 0.15625 -1.71875 C -0.3125 -2 -0.75 -2.457031 -1.15625 -3.09375 C -1.550781 -3.707031 -1.773438 -4.296875 -1.828125 -4.859375 C -1.890625 -5.429688 -1.800781 -5.941406 -1.5625 -6.390625 C -1.332031 -6.835938 -0.984375 -7.210938 -0.515625 -7.515625 C 0.191406 -7.972656 0.863281 -8.128906 1.5 -7.984375 C 2.144531 -7.847656 2.722656 -7.394531 3.234375 -6.625 C 3.429688 -6.320312 3.554688 -6.109375 3.609375 -5.984375 Z M 2.4375 -6.109375 C 2.050781 -6.679688 1.648438 -7.019531 1.234375 -7.125 C 0.816406 -7.226562 0.378906 -7.132812 -0.078125 -6.84375 C -0.546875 -6.539062 -0.828125 -6.164062 -0.921875 -5.71875 C -1.023438 -5.269531 -0.921875 -4.742188 -0.609375 -4.140625 Z M 2.4375 -6.109375 "/></g></g></g><g clip-path="url(#03dbf7f35e)"><g clip-path="url(#1e251b022f)"><g clip-path="url(#0eb3d7868a)"><path stroke-linecap="butt" transform="matrix(0.75, 0.000635806, -0.000635806, 0.75, 157.200344, 203.674641)" fill="none" stroke-linejoin="miter" d="M 0.00029285 14.402568 L 238.719141 14.398113 " stroke="#8c52ff" stroke-width="3" stroke-opacity="1" stroke-miterlimit="4"/></g></g></g><g clip-path="url(#5ee8f01e8a)"><g clip-path="url(#3a0922a574)"><g clip-path="url(#e0c64aa89c)"><path fill="#8c52ff" d="M 336.796875 211.25 L 341.292969 214.628906 L 336.789062 218 Z M 336.796875 211.25 " fill-opacity="1" fill-rule="nonzero"/></g></g></g><g clip-path="url(#80818e88e6)"><g clip-path="url(#2b6586a2c1)"><g clip-path="url(#9d8acfbfdc)"><path stroke-linecap="round" transform="matrix(0.75, 0.000635806, -0.000635806, 0.75, 157.200344, 203.674641)" fill="none" stroke-linejoin="round" d="M 239.470534 9.897474 L 245.469143 14.397599 L 239.467747 18.89748 Z M 239.470534 9.897474 " stroke="#8c52ff" stroke-width="3" stroke-opacity="1" stroke-miterlimit="4"/></g></g></g><g fill="#000000" fill-opacity="1"><g transform="translate(234.191242, 219.039911)"><g><path d="M 3.75 0 L 2.421875 0 L 0.46875 -8.5625 L 1.453125 -8.5625 L 3.078125 -1.484375 L 3.21875 -1.484375 L 5.140625 -8.5625 L 6.078125 -8.5625 L 8 -1.484375 L 8.140625 -1.484375 L 9.75 -8.546875 L 10.71875 -8.546875 L 8.765625 0 L 7.4375 0 L 5.65625 -6.484375 L 5.53125 -6.484375 Z M 3.75 0 "/></g></g><g transform="translate(245.376784, 219.049393)"><g><path d="M 1.125 0 L 1.125 -6.46875 L 2.03125 -6.46875 L 2.03125 -5.453125 L 2.15625 -5.421875 C 2.457031 -6.148438 3.023438 -6.515625 3.859375 -6.515625 C 4.296875 -6.515625 4.625 -6.4375 4.84375 -6.28125 L 4.59375 -5.46875 L 4.484375 -5.453125 C 4.242188 -5.566406 3.976562 -5.625 3.6875 -5.625 C 3.164062 -5.625 2.765625 -5.429688 2.484375 -5.046875 C 2.210938 -4.660156 2.078125 -4.035156 2.078125 -3.171875 L 2.078125 0 Z M 1.125 0 "/></g></g><g transform="translate(250.36897, 219.053625)"><g><path d="M 1.609375 -7.71875 C 1.398438 -7.71875 1.234375 -7.78125 1.109375 -7.90625 C 0.984375 -8.03125 0.921875 -8.191406 0.921875 -8.390625 C 0.921875 -8.578125 0.984375 -8.734375 1.109375 -8.859375 C 1.234375 -8.992188 1.398438 -9.0625 1.609375 -9.0625 C 1.804688 -9.0625 1.96875 -8.992188 2.09375 -8.859375 C 2.226562 -8.734375 2.296875 -8.578125 2.296875 -8.390625 C 2.296875 -8.191406 2.226562 -8.03125 2.09375 -7.90625 C 1.96875 -7.78125 1.804688 -7.71875 1.609375 -7.71875 Z M 1.125 0 L 1.125 -6.46875 L 2.078125 -6.46875 L 2.078125 0 Z M 1.125 0 "/></g></g><g transform="translate(253.574046, 219.056342)"><g><path d="M 4.375 -1.03125 L 4.671875 -0.34375 C 4.523438 -0.1875 4.328125 -0.0703125 4.078125 0 C 3.828125 0.0820312 3.554688 0.125 3.265625 0.125 C 2.035156 0.125 1.421875 -0.5 1.421875 -1.75 L 1.421875 -5.6875 L 0.296875 -5.6875 L 0.296875 -6.46875 L 1.421875 -6.46875 L 1.421875 -7.828125 L 2.375 -8 L 2.375 -6.46875 L 4.453125 -6.46875 L 4.453125 -5.6875 L 2.375 -5.6875 L 2.375 -1.84375 C 2.375 -1.101562 2.695312 -0.734375 3.34375 -0.734375 C 3.695312 -0.734375 4 -0.832031 4.25 -1.03125 Z M 4.375 -1.03125 "/></g></g><g transform="translate(258.495919, 219.060515)"><g><path d="M 6.15625 -3.015625 L 1.71875 -3.015625 C 1.75 -2.222656 1.9375 -1.644531 2.28125 -1.28125 C 2.632812 -0.914062 3.113281 -0.734375 3.71875 -0.734375 C 4.175781 -0.734375 4.546875 -0.8125 4.828125 -0.96875 C 5.109375 -1.132812 5.332031 -1.394531 5.5 -1.75 L 5.625 -1.75 L 6.234375 -1.390625 C 6.046875 -0.921875 5.742188 -0.550781 5.328125 -0.28125 C 4.921875 -0.0078125 4.382812 0.125 3.71875 0.125 C 3.09375 0.125 2.554688 0.00390625 2.109375 -0.234375 C 1.660156 -0.484375 1.3125 -0.859375 1.0625 -1.359375 C 0.820312 -1.859375 0.703125 -2.484375 0.703125 -3.234375 C 0.703125 -3.960938 0.832031 -4.578125 1.09375 -5.078125 C 1.351562 -5.585938 1.703125 -5.96875 2.140625 -6.21875 C 2.585938 -6.46875 3.09375 -6.59375 3.65625 -6.59375 C 4.488281 -6.59375 5.132812 -6.359375 5.59375 -5.890625 C 6.0625 -5.421875 6.300781 -4.726562 6.3125 -3.8125 C 6.3125 -3.445312 6.300781 -3.203125 6.28125 -3.078125 Z M 5.359375 -3.8125 C 5.347656 -4.5 5.195312 -5 4.90625 -5.3125 C 4.613281 -5.625 4.195312 -5.78125 3.65625 -5.78125 C 3.09375 -5.78125 2.648438 -5.617188 2.328125 -5.296875 C 2.003906 -4.984375 1.804688 -4.488281 1.734375 -3.8125 Z M 5.359375 -3.8125 "/></g></g></g><g clip-path="url(#000c07c402)"><path fill="#2f7fc1" d="M 346.214844 105.199219 C 343.8125 106.28125 342.460938 107.484375 342.460938 108.753906 C 342.460938 113.464844 360.929688 117.28125 383.710938 117.28125 C 406.492188 117.28125 424.960938 113.464844 424.960938 108.753906 C 424.960938 107.484375 423.613281 106.28125 421.207031 105.199219 C 414.6875 108.136719 400.355469 110.175781 383.710938 110.175781 C 367.066406 110.175781 352.734375 108.136719 346.214844 105.199219 Z M 346.214844 105.199219 " fill-opacity="1" fill-rule="nonzero"/></g><g clip-path="url(#8c1f8b0083)"><path fill="#4da7ff" d="M 383.710938 117.28125 C 360.929688 117.28125 342.460938 113.464844 342.460938 108.753906 L 342.460938 124.390625 C 342.460938 129.101562 360.929688 132.917969 383.710938 132.917969 C 406.492188 132.917969 424.960938 129.101562 424.960938 124.390625 L 424.960938 108.753906 C 424.960938 113.464844 406.492188 117.28125 383.710938 117.28125 Z M 383.710938 117.28125 " fill-opacity="1" fill-rule="nonzero"/></g><g clip-path="url(#d2ca5f6389)"><path fill="#2f7fc1" d="M 346.214844 82.457031 C 343.8125 83.539062 342.460938 84.742188 342.460938 86.011719 C 342.460938 90.722656 360.929688 94.539062 383.710938 94.539062 C 406.492188 94.539062 424.960938 90.722656 424.960938 86.011719 C 424.960938 84.742188 423.613281 83.539062 421.207031 82.457031 C 414.6875 85.394531 400.355469 87.433594 383.710938 87.433594 C 367.066406 87.433594 352.734375 85.394531 346.214844 82.457031 Z M 346.214844 82.457031 " fill-opacity="1" fill-rule="nonzero"/></g><g clip-path="url(#583e287e17)"><path fill="#4da7ff" d="M 383.710938 71.796875 C 360.929688 71.796875 342.460938 67.980469 342.460938 63.269531 L 342.460938 78.902344 C 342.460938 80.171875 343.8125 81.375 346.214844 82.457031 C 352.734375 85.394531 367.066406 87.433594 383.710938 87.433594 C 400.355469 87.433594 414.6875 85.394531 421.207031 82.457031 C 423.609375 81.375 424.960938 80.171875 424.960938 78.902344 L 424.960938 63.269531 C 424.960938 67.980469 406.492188 71.796875 383.710938 71.796875 Z M 383.710938 71.796875 " fill-opacity="1" fill-rule="nonzero"/></g><g clip-path="url(#1681eb654b)"><path fill="#4da7ff" d="M 383.710938 94.539062 C 360.929688 94.539062 342.460938 90.722656 342.460938 86.011719 L 342.460938 101.648438 C 342.460938 102.917969 343.8125 104.117188 346.214844 105.199219 C 352.734375 108.136719 367.066406 110.175781 383.710938 110.175781 C 400.355469 110.175781 414.6875 108.136719 421.207031 105.199219 C 423.609375 104.117188 424.960938 102.917969 424.960938 101.648438 L 424.960938 86.011719 C 424.960938 90.722656 406.492188 94.539062 383.710938 94.539062 Z M 383.710938 94.539062 " fill-opacity="1" fill-rule="nonzero"/></g><g clip-path="url(#12df55f57d)"><path fill="#7dbfff" d="M 383.710938 56.160156 C 360.929688 56.160156 342.460938 58.558594 342.460938 63.269531 C 342.460938 67.980469 360.929688 71.796875 383.710938 71.796875 C 406.492188 71.796875 424.960938 67.980469 424.960938 63.269531 C 424.960938 58.558594 406.492188 56.160156 383.710938 56.160156 Z M 383.710938 56.160156 " fill-opacity="1" fill-rule="nonzero"/></g><path fill="#666666" d="M 387.980469 80.324219 L 379.445312 80.324219 C 378.660156 80.324219 378.023438 79.6875 378.023438 78.902344 C 378.023438 78.121094 378.660156 77.480469 379.445312 77.480469 L 387.980469 77.480469 C 388.765625 77.480469 389.402344 78.121094 389.402344 78.902344 C 389.402344 79.6875 388.765625 80.324219 387.980469 80.324219 Z M 387.980469 80.324219 " fill-opacity="1" fill-rule="nonzero"/><path fill="#666666" d="M 387.980469 103.070312 L 379.445312 103.070312 C 378.660156 103.070312 378.023438 102.429688 378.023438 101.648438 C 378.023438 100.863281 378.660156 100.226562 379.445312 100.226562 L 387.980469 100.226562 C 388.765625 100.226562 389.402344 100.863281 389.402344 101.648438 C 389.402344 102.429688 388.765625 103.070312 387.980469 103.070312 Z M 387.980469 103.070312 " fill-opacity="1" fill-rule="nonzero"/><path fill="#666666" d="M 387.980469 125.8125 L 379.445312 125.8125 C 378.660156 125.8125 378.023438 125.175781 378.023438 124.390625 C 378.023438 123.605469 378.660156 122.96875 379.445312 122.96875 L 387.980469 122.96875 C 388.765625 122.96875 389.402344 123.605469 389.402344 124.390625 C 389.402344 125.175781 388.765625 125.8125 387.980469 125.8125 Z M 387.980469 125.8125 " fill-opacity="1" fill-rule="nonzero"/><g fill="#000000" fill-opacity="1"><g transform="translate(357.629521, 150.146457)"><g><path d="M 2.953125 0 L 1.671875 0 L 1.671875 -11.09375 L 3.28125 -11.09375 L 8.6875 -2.625 L 8.875 -2.65625 L 8.875 -11.09375 L 10.15625 -11.09375 L 10.15625 0 L 8.78125 0 L 3.140625 -9.078125 L 2.953125 -9.046875 Z M 2.953125 0 "/></g></g><g transform="translate(369.463535, 150.146457)"><g><path d="M 4.8125 0.15625 C 4.019531 0.15625 3.332031 -0.0078125 2.75 -0.34375 C 2.164062 -0.675781 1.710938 -1.164062 1.390625 -1.8125 C 1.078125 -2.46875 0.921875 -3.257812 0.921875 -4.1875 C 0.921875 -5.113281 1.078125 -5.898438 1.390625 -6.546875 C 1.710938 -7.203125 2.164062 -7.695312 2.75 -8.03125 C 3.332031 -8.363281 4.019531 -8.53125 4.8125 -8.53125 C 5.59375 -8.53125 6.273438 -8.363281 6.859375 -8.03125 C 7.453125 -7.695312 7.90625 -7.203125 8.21875 -6.546875 C 8.53125 -5.898438 8.6875 -5.113281 8.6875 -4.1875 C 8.6875 -3.257812 8.53125 -2.46875 8.21875 -1.8125 C 7.90625 -1.164062 7.453125 -0.675781 6.859375 -0.34375 C 6.273438 -0.0078125 5.59375 0.15625 4.8125 0.15625 Z M 4.8125 -0.953125 C 5.644531 -0.953125 6.28125 -1.210938 6.71875 -1.734375 C 7.164062 -2.265625 7.390625 -3.082031 7.390625 -4.1875 C 7.390625 -5.289062 7.164062 -6.101562 6.71875 -6.625 C 6.28125 -7.15625 5.644531 -7.421875 4.8125 -7.421875 C 3.96875 -7.421875 3.320312 -7.15625 2.875 -6.625 C 2.4375 -6.101562 2.21875 -5.289062 2.21875 -4.1875 C 2.21875 -3.082031 2.4375 -2.265625 2.875 -1.734375 C 3.320312 -1.210938 3.96875 -0.953125 4.8125 -0.953125 Z M 4.8125 -0.953125 "/></g></g><g transform="translate(379.073454, 150.146457)"><g><path d="M 4.34375 0.15625 C 3.664062 0.15625 3.070312 0 2.5625 -0.3125 C 2.050781 -0.632812 1.648438 -1.117188 1.359375 -1.765625 C 1.066406 -2.421875 0.921875 -3.226562 0.921875 -4.1875 C 0.921875 -5.144531 1.070312 -5.945312 1.375 -6.59375 C 1.675781 -7.238281 2.09375 -7.722656 2.625 -8.046875 C 3.164062 -8.367188 3.785156 -8.53125 4.484375 -8.53125 C 5.046875 -8.53125 5.546875 -8.425781 5.984375 -8.21875 C 6.429688 -8.007812 6.816406 -7.664062 7.140625 -7.1875 L 7.296875 -7.21875 L 7.296875 -11.734375 L 8.53125 -11.734375 L 8.53125 0 L 7.296875 0 L 7.296875 -1.21875 L 7.140625 -1.25 C 6.859375 -0.832031 6.484375 -0.492188 6.015625 -0.234375 C 5.554688 0.0234375 5 0.15625 4.34375 0.15625 Z M 4.734375 -0.953125 C 5.503906 -0.953125 6.125 -1.21875 6.59375 -1.75 C 7.0625 -2.28125 7.296875 -3.09375 7.296875 -4.1875 C 7.296875 -5.28125 7.0625 -6.09375 6.59375 -6.625 C 6.125 -7.15625 5.503906 -7.421875 4.734375 -7.421875 C 3.921875 -7.421875 3.296875 -7.160156 2.859375 -6.640625 C 2.429688 -6.117188 2.21875 -5.300781 2.21875 -4.1875 C 2.21875 -2.03125 3.054688 -0.953125 4.734375 -0.953125 Z M 4.734375 -0.953125 "/></g></g><g transform="translate(389.070501, 150.146457)"><g><path d="M 7.984375 -3.90625 L 2.21875 -3.90625 C 2.257812 -2.882812 2.503906 -2.132812 2.953125 -1.65625 C 3.410156 -1.1875 4.035156 -0.953125 4.828125 -0.953125 C 5.421875 -0.953125 5.898438 -1.054688 6.265625 -1.265625 C 6.628906 -1.484375 6.914062 -1.816406 7.125 -2.265625 L 7.28125 -2.265625 L 8.078125 -1.796875 C 7.835938 -1.179688 7.453125 -0.703125 6.921875 -0.359375 C 6.390625 -0.015625 5.691406 0.15625 4.828125 0.15625 C 4.015625 0.15625 3.316406 0 2.734375 -0.3125 C 2.148438 -0.632812 1.703125 -1.117188 1.390625 -1.765625 C 1.078125 -2.410156 0.921875 -3.21875 0.921875 -4.1875 C 0.921875 -5.132812 1.082031 -5.929688 1.40625 -6.578125 C 1.738281 -7.234375 2.191406 -7.722656 2.765625 -8.046875 C 3.347656 -8.367188 4.007812 -8.53125 4.75 -8.53125 C 5.820312 -8.53125 6.65625 -8.226562 7.25 -7.625 C 7.851562 -7.019531 8.160156 -6.125 8.171875 -4.9375 C 8.171875 -4.46875 8.160156 -4.15625 8.140625 -4 Z M 6.953125 -4.9375 C 6.929688 -5.820312 6.734375 -6.46875 6.359375 -6.875 C 5.984375 -7.28125 5.445312 -7.484375 4.75 -7.484375 C 4.007812 -7.484375 3.429688 -7.28125 3.015625 -6.875 C 2.597656 -6.46875 2.34375 -5.820312 2.25 -4.9375 Z M 6.953125 -4.9375 "/></g></g><g transform="translate(397.99725, 150.146457)"><g/></g><g transform="translate(401.807818, 150.146457)"><g><path d="M 0.796875 0 L 0.796875 -1.078125 L 3.8125 -1.078125 L 3.8125 -9.5625 L 3.640625 -9.609375 C 3.148438 -9.367188 2.71875 -9.179688 2.34375 -9.046875 C 1.976562 -8.921875 1.507812 -8.796875 0.9375 -8.671875 L 0.9375 -9.875 C 1.507812 -10 2.070312 -10.164062 2.625 -10.375 C 3.1875 -10.582031 3.695312 -10.820312 4.15625 -11.09375 L 5.09375 -11.09375 L 5.09375 -1.078125 L 7.796875 -1.078125 L 7.796875 0 Z M 0.796875 0 "/></g></g></g><g clip-path="url(#3ffccd3bc8)"><path fill="#2f7fc1" d="M 346.214844 225.132812 C 343.8125 226.214844 342.460938 227.414062 342.460938 228.683594 C 342.460938 233.394531 360.929688 237.214844 383.710938 237.214844 C 406.492188 237.214844 424.960938 233.394531 424.960938 228.683594 C 424.960938 227.414062 423.613281 226.214844 421.207031 225.132812 C 414.6875 228.066406 400.355469 230.105469 383.710938 230.105469 C 367.066406 230.105469 352.734375 228.066406 346.214844 225.132812 Z M 346.214844 225.132812 " fill-opacity="1" fill-rule="nonzero"/></g><g clip-path="url(#421c777dc7)"><path fill="#4da7ff" d="M 383.710938 237.214844 C 360.929688 237.214844 342.460938 233.394531 342.460938 228.683594 L 342.460938 244.320312 C 342.460938 249.03125 360.929688 252.851562 383.710938 252.851562 C 406.492188 252.851562 424.960938 249.03125 424.960938 244.320312 L 424.960938 228.683594 C 424.960938 233.394531 406.492188 237.214844 383.710938 237.214844 Z M 383.710938 237.214844 " fill-opacity="1" fill-rule="nonzero"/></g><g clip-path="url(#0b3738cddb)"><path fill="#2f7fc1" d="M 346.214844 202.386719 C 343.8125 203.46875 342.460938 204.671875 342.460938 205.941406 C 342.460938 210.652344 360.929688 214.472656 383.710938 214.472656 C 406.492188 214.472656 424.960938 210.652344 424.960938 205.941406 C 424.960938 204.671875 423.613281 203.46875 421.207031 202.386719 C 414.6875 205.324219 400.355469 207.363281 383.710938 207.363281 C 367.066406 207.363281 352.734375 205.324219 346.214844 202.386719 Z M 346.214844 202.386719 " fill-opacity="1" fill-rule="nonzero"/></g><g clip-path="url(#c7fc137040)"><path fill="#4da7ff" d="M 383.710938 191.726562 C 360.929688 191.726562 342.460938 187.910156 342.460938 183.199219 L 342.460938 198.835938 C 342.460938 200.105469 343.8125 201.308594 346.214844 202.386719 C 352.734375 205.324219 367.066406 207.363281 383.710938 207.363281 C 400.355469 207.363281 414.6875 205.324219 421.207031 202.386719 C 423.609375 201.308594 424.960938 200.105469 424.960938 198.835938 L 424.960938 183.199219 C 424.960938 187.910156 406.492188 191.726562 383.710938 191.726562 Z M 383.710938 191.726562 " fill-opacity="1" fill-rule="nonzero"/></g><g clip-path="url(#c2c41bf15d)"><path fill="#4da7ff" d="M 383.710938 214.472656 C 360.929688 214.472656 342.460938 210.652344 342.460938 205.941406 L 342.460938 221.578125 C 342.460938 222.847656 343.8125 224.050781 346.214844 225.132812 C 352.734375 228.066406 367.066406 230.105469 383.710938 230.105469 C 400.355469 230.105469 414.6875 228.066406 421.207031 225.132812 C 423.609375 224.050781 424.960938 222.847656 424.960938 221.578125 L 424.960938 205.941406 C 424.960938 210.652344 406.492188 214.472656 383.710938 214.472656 Z M 383.710938 214.472656 " fill-opacity="1" fill-rule="nonzero"/></g><g clip-path="url(#9a4606fb5e)"><path fill="#7dbfff" d="M 383.710938 176.09375 C 360.929688 176.09375 342.460938 178.488281 342.460938 183.199219 C 342.460938 187.910156 360.929688 191.726562 383.710938 191.726562 C 406.492188 191.726562 424.960938 187.910156 424.960938 183.199219 C 424.960938 178.488281 406.492188 176.09375 383.710938 176.09375 Z M 383.710938 176.09375 " fill-opacity="1" fill-rule="nonzero"/></g><path fill="#666666" d="M 387.980469 200.257812 L 379.445312 200.257812 C 378.660156 200.257812 378.023438 199.621094 378.023438 198.835938 C 378.023438 198.050781 378.660156 197.414062 379.445312 197.414062 L 387.980469 197.414062 C 388.765625 197.414062 389.402344 198.050781 389.402344 198.835938 C 389.402344 199.621094 388.765625 200.257812 387.980469 200.257812 Z M 387.980469 200.257812 " fill-opacity="1" fill-rule="nonzero"/><path fill="#666666" d="M 387.980469 223 L 379.445312 223 C 378.660156 223 378.023438 222.363281 378.023438 221.578125 C 378.023438 220.792969 378.660156 220.15625 379.445312 220.15625 L 387.980469 220.15625 C 388.765625 220.15625 389.402344 220.792969 389.402344 221.578125 C 389.402344 222.363281 388.765625 223 387.980469 223 Z M 387.980469 223 " fill-opacity="1" fill-rule="nonzero"/><path fill="#666666" d="M 387.980469 245.742188 L 379.445312 245.742188 C 378.660156 245.742188 378.023438 245.105469 378.023438 244.320312 C 378.023438 243.535156 378.660156 242.898438 379.445312 242.898438 L 387.980469 242.898438 C 388.765625 242.898438 389.402344 243.535156 389.402344 244.320312 C 389.402344 245.105469 388.765625 245.742188 387.980469 245.742188 Z M 387.980469 245.742188 " fill-opacity="1" fill-rule="nonzero"/><g fill="#000000" fill-opacity="1"><g transform="translate(357.469244, 270.077589)"><g><path d="M 2.953125 0 L 1.671875 0 L 1.671875 -11.09375 L 3.28125 -11.09375 L 8.6875 -2.625 L 8.875 -2.65625 L 8.875 -11.09375 L 10.15625 -11.09375 L 10.15625 0 L 8.78125 0 L 3.140625 -9.078125 L 2.953125 -9.046875 Z M 2.953125 0 "/></g></g><g transform="translate(369.303259, 270.077589)"><g><path d="M 4.8125 0.15625 C 4.019531 0.15625 3.332031 -0.0078125 2.75 -0.34375 C 2.164062 -0.675781 1.710938 -1.164062 1.390625 -1.8125 C 1.078125 -2.46875 0.921875 -3.257812 0.921875 -4.1875 C 0.921875 -5.113281 1.078125 -5.898438 1.390625 -6.546875 C 1.710938 -7.203125 2.164062 -7.695312 2.75 -8.03125 C 3.332031 -8.363281 4.019531 -8.53125 4.8125 -8.53125 C 5.59375 -8.53125 6.273438 -8.363281 6.859375 -8.03125 C 7.453125 -7.695312 7.90625 -7.203125 8.21875 -6.546875 C 8.53125 -5.898438 8.6875 -5.113281 8.6875 -4.1875 C 8.6875 -3.257812 8.53125 -2.46875 8.21875 -1.8125 C 7.90625 -1.164062 7.453125 -0.675781 6.859375 -0.34375 C 6.273438 -0.0078125 5.59375 0.15625 4.8125 0.15625 Z M 4.8125 -0.953125 C 5.644531 -0.953125 6.28125 -1.210938 6.71875 -1.734375 C 7.164062 -2.265625 7.390625 -3.082031 7.390625 -4.1875 C 7.390625 -5.289062 7.164062 -6.101562 6.71875 -6.625 C 6.28125 -7.15625 5.644531 -7.421875 4.8125 -7.421875 C 3.96875 -7.421875 3.320312 -7.15625 2.875 -6.625 C 2.4375 -6.101562 2.21875 -5.289062 2.21875 -4.1875 C 2.21875 -3.082031 2.4375 -2.265625 2.875 -1.734375 C 3.320312 -1.210938 3.96875 -0.953125 4.8125 -0.953125 Z M 4.8125 -0.953125 "/></g></g><g transform="translate(378.913177, 270.077589)"><g><path d="M 4.34375 0.15625 C 3.664062 0.15625 3.070312 0 2.5625 -0.3125 C 2.050781 -0.632812 1.648438 -1.117188 1.359375 -1.765625 C 1.066406 -2.421875 0.921875 -3.226562 0.921875 -4.1875 C 0.921875 -5.144531 1.070312 -5.945312 1.375 -6.59375 C 1.675781 -7.238281 2.09375 -7.722656 2.625 -8.046875 C 3.164062 -8.367188 3.785156 -8.53125 4.484375 -8.53125 C 5.046875 -8.53125 5.546875 -8.425781 5.984375 -8.21875 C 6.429688 -8.007812 6.816406 -7.664062 7.140625 -7.1875 L 7.296875 -7.21875 L 7.296875 -11.734375 L 8.53125 -11.734375 L 8.53125 0 L 7.296875 0 L 7.296875 -1.21875 L 7.140625 -1.25 C 6.859375 -0.832031 6.484375 -0.492188 6.015625 -0.234375 C 5.554688 0.0234375 5 0.15625 4.34375 0.15625 Z M 4.734375 -0.953125 C 5.503906 -0.953125 6.125 -1.21875 6.59375 -1.75 C 7.0625 -2.28125 7.296875 -3.09375 7.296875 -4.1875 C 7.296875 -5.28125 7.0625 -6.09375 6.59375 -6.625 C 6.125 -7.15625 5.503906 -7.421875 4.734375 -7.421875 C 3.921875 -7.421875 3.296875 -7.160156 2.859375 -6.640625 C 2.429688 -6.117188 2.21875 -5.300781 2.21875 -4.1875 C 2.21875 -2.03125 3.054688 -0.953125 4.734375 -0.953125 Z M 4.734375 -0.953125 "/></g></g><g transform="translate(388.910225, 270.077589)"><g><path d="M 7.984375 -3.90625 L 2.21875 -3.90625 C 2.257812 -2.882812 2.503906 -2.132812 2.953125 -1.65625 C 3.410156 -1.1875 4.035156 -0.953125 4.828125 -0.953125 C 5.421875 -0.953125 5.898438 -1.054688 6.265625 -1.265625 C 6.628906 -1.484375 6.914062 -1.816406 7.125 -2.265625 L 7.28125 -2.265625 L 8.078125 -1.796875 C 7.835938 -1.179688 7.453125 -0.703125 6.921875 -0.359375 C 6.390625 -0.015625 5.691406 0.15625 4.828125 0.15625 C 4.015625 0.15625 3.316406 0 2.734375 -0.3125 C 2.148438 -0.632812 1.703125 -1.117188 1.390625 -1.765625 C 1.078125 -2.410156 0.921875 -3.21875 0.921875 -4.1875 C 0.921875 -5.132812 1.082031 -5.929688 1.40625 -6.578125 C 1.738281 -7.234375 2.191406 -7.722656 2.765625 -8.046875 C 3.347656 -8.367188 4.007812 -8.53125 4.75 -8.53125 C 5.820312 -8.53125 6.65625 -8.226562 7.25 -7.625 C 7.851562 -7.019531 8.160156 -6.125 8.171875 -4.9375 C 8.171875 -4.46875 8.160156 -4.15625 8.140625 -4 Z M 6.953125 -4.9375 C 6.929688 -5.820312 6.734375 -6.46875 6.359375 -6.875 C 5.984375 -7.28125 5.445312 -7.484375 4.75 -7.484375 C 4.007812 -7.484375 3.429688 -7.28125 3.015625 -6.875 C 2.597656 -6.46875 2.34375 -5.820312 2.25 -4.9375 Z M 6.953125 -4.9375 "/></g></g><g transform="translate(397.836974, 270.077589)"><g/></g><g transform="translate(401.647542, 270.077589)"><g><path d="M 0.671875 -0.515625 C 0.671875 -1.117188 0.738281 -1.609375 0.875 -1.984375 C 1.007812 -2.359375 1.238281 -2.707031 1.5625 -3.03125 C 1.882812 -3.351562 2.398438 -3.773438 3.109375 -4.296875 L 4.328125 -5.1875 C 4.773438 -5.507812 5.140625 -5.8125 5.421875 -6.09375 C 5.710938 -6.375 5.9375 -6.675781 6.09375 -7 C 6.257812 -7.332031 6.34375 -7.695312 6.34375 -8.09375 C 6.34375 -8.757812 6.164062 -9.257812 5.8125 -9.59375 C 5.46875 -9.925781 4.925781 -10.09375 4.1875 -10.09375 C 3.59375 -10.09375 3.066406 -9.953125 2.609375 -9.671875 C 2.160156 -9.398438 1.800781 -9.015625 1.53125 -8.515625 L 1.34375 -8.484375 L 0.5625 -9.3125 C 0.9375 -9.914062 1.425781 -10.390625 2.03125 -10.734375 C 2.644531 -11.085938 3.363281 -11.265625 4.1875 -11.265625 C 4.96875 -11.265625 5.617188 -11.128906 6.140625 -10.859375 C 6.671875 -10.585938 7.054688 -10.210938 7.296875 -9.734375 C 7.546875 -9.265625 7.671875 -8.71875 7.671875 -8.09375 C 7.671875 -7.601562 7.566406 -7.140625 7.359375 -6.703125 C 7.148438 -6.273438 6.851562 -5.867188 6.46875 -5.484375 C 6.09375 -5.109375 5.625 -4.710938 5.0625 -4.296875 L 3.8125 -3.390625 C 3.351562 -3.054688 3 -2.769531 2.75 -2.53125 C 2.507812 -2.289062 2.332031 -2.054688 2.21875 -1.828125 C 2.101562 -1.609375 2.046875 -1.359375 2.046875 -1.078125 L 7.671875 -1.078125 L 7.671875 0 L 0.671875 0 Z M 0.671875 -0.515625 "/></g></g></g><g clip-path="url(#bad7a69dcc)"><path fill="#2f7fc1" d="M 346.214844 345.0625 C 343.8125 346.144531 342.460938 347.347656 342.460938 348.617188 C 342.460938 353.328125 360.929688 357.144531 383.710938 357.144531 C 406.492188 357.144531 424.960938 353.328125 424.960938 348.617188 C 424.960938 347.347656 423.613281 346.144531 421.207031 345.0625 C 414.6875 348 400.355469 350.039062 383.710938 350.039062 C 367.066406 350.039062 352.734375 348 346.214844 345.0625 Z M 346.214844 345.0625 " fill-opacity="1" fill-rule="nonzero"/></g><g clip-path="url(#f53fee939d)"><path fill="#4da7ff" d="M 383.710938 357.144531 C 360.929688 357.144531 342.460938 353.328125 342.460938 348.617188 L 342.460938 364.253906 C 342.460938 368.964844 360.929688 372.78125 383.710938 372.78125 C 406.492188 372.78125 424.960938 368.964844 424.960938 364.253906 L 424.960938 348.617188 C 424.960938 353.328125 406.492188 357.144531 383.710938 357.144531 Z M 383.710938 357.144531 " fill-opacity="1" fill-rule="nonzero"/></g><g clip-path="url(#dc60fddea9)"><path fill="#2f7fc1" d="M 346.214844 322.320312 C 343.8125 323.402344 342.460938 324.605469 342.460938 325.875 C 342.460938 330.582031 360.929688 334.402344 383.710938 334.402344 C 406.492188 334.402344 424.960938 330.582031 424.960938 325.875 C 424.960938 324.605469 423.613281 323.402344 421.207031 322.320312 C 414.6875 325.253906 400.355469 327.292969 383.710938 327.292969 C 367.066406 327.292969 352.734375 325.253906 346.214844 322.320312 Z M 346.214844 322.320312 " fill-opacity="1" fill-rule="nonzero"/></g><g clip-path="url(#ad282ad89d)"><path fill="#4da7ff" d="M 383.710938 311.660156 C 360.929688 311.660156 342.460938 307.839844 342.460938 303.128906 L 342.460938 318.765625 C 342.460938 320.035156 343.8125 321.238281 346.214844 322.320312 C 352.734375 325.253906 367.066406 327.292969 383.710938 327.292969 C 400.355469 327.292969 414.6875 325.253906 421.207031 322.320312 C 423.609375 321.238281 424.960938 320.035156 424.960938 318.765625 L 424.960938 303.128906 C 424.960938 307.839844 406.492188 311.660156 383.710938 311.660156 Z M 383.710938 311.660156 " fill-opacity="1" fill-rule="nonzero"/></g><g clip-path="url(#482f92d74c)"><path fill="#4da7ff" d="M 383.710938 334.402344 C 360.929688 334.402344 342.460938 330.582031 342.460938 325.875 L 342.460938 341.507812 C 342.460938 342.777344 343.8125 343.980469 346.214844 345.0625 C 352.734375 348 367.066406 350.039062 383.710938 350.039062 C 400.355469 350.039062 414.6875 348 421.207031 345.0625 C 423.609375 343.980469 424.960938 342.777344 424.960938 341.507812 L 424.960938 325.875 C 424.960938 330.582031 406.492188 334.402344 383.710938 334.402344 Z M 383.710938 334.402344 " fill-opacity="1" fill-rule="nonzero"/></g><g clip-path="url(#850fc0d574)"><path fill="#7dbfff" d="M 383.710938 296.023438 C 360.929688 296.023438 342.460938 298.417969 342.460938 303.128906 C 342.460938 307.839844 360.929688 311.660156 383.710938 311.660156 C 406.492188 311.660156 424.960938 307.839844 424.960938 303.128906 C 424.960938 298.417969 406.492188 296.023438 383.710938 296.023438 Z M 383.710938 296.023438 " fill-opacity="1" fill-rule="nonzero"/></g><path fill="#666666" d="M 387.980469 320.1875 L 379.445312 320.1875 C 378.660156 320.1875 378.023438 319.550781 378.023438 318.765625 C 378.023438 317.980469 378.660156 317.34375 379.445312 317.34375 L 387.980469 317.34375 C 388.765625 317.34375 389.402344 317.980469 389.402344 318.765625 C 389.402344 319.550781 388.765625 320.1875 387.980469 320.1875 Z M 387.980469 320.1875 " fill-opacity="1" fill-rule="nonzero"/><path fill="#666666" d="M 387.980469 342.929688 L 379.445312 342.929688 C 378.660156 342.929688 378.023438 342.292969 378.023438 341.507812 C 378.023438 340.722656 378.660156 340.085938 379.445312 340.085938 L 387.980469 340.085938 C 388.765625 340.085938 389.402344 340.722656 389.402344 341.507812 C 389.402344 342.292969 388.765625 342.929688 387.980469 342.929688 Z M 387.980469 342.929688 " fill-opacity="1" fill-rule="nonzero"/><path fill="#666666" d="M 387.980469 365.671875 L 379.445312 365.671875 C 378.660156 365.671875 378.023438 365.035156 378.023438 364.253906 C 378.023438 363.46875 378.660156 362.832031 379.445312 362.832031 L 387.980469 362.832031 C 388.765625 362.832031 389.402344 363.46875 389.402344 364.253906 C 389.402344 365.035156 388.765625 365.671875 387.980469 365.671875 Z M 387.980469 365.671875 " fill-opacity="1" fill-rule="nonzero"/><g fill="#000000" fill-opacity="1"><g transform="translate(357.22634, 390.008677)"><g><path d="M 2.953125 0 L 1.671875 0 L 1.671875 -11.09375 L 3.28125 -11.09375 L 8.6875 -2.625 L 8.875 -2.65625 L 8.875 -11.09375 L 10.15625 -11.09375 L 10.15625 0 L 8.78125 0 L 3.140625 -9.078125 L 2.953125 -9.046875 Z M 2.953125 0 "/></g></g><g transform="translate(369.060354, 390.008677)"><g><path d="M 4.8125 0.15625 C 4.019531 0.15625 3.332031 -0.0078125 2.75 -0.34375 C 2.164062 -0.675781 1.710938 -1.164062 1.390625 -1.8125 C 1.078125 -2.46875 0.921875 -3.257812 0.921875 -4.1875 C 0.921875 -5.113281 1.078125 -5.898438 1.390625 -6.546875 C 1.710938 -7.203125 2.164062 -7.695312 2.75 -8.03125 C 3.332031 -8.363281 4.019531 -8.53125 4.8125 -8.53125 C 5.59375 -8.53125 6.273438 -8.363281 6.859375 -8.03125 C 7.453125 -7.695312 7.90625 -7.203125 8.21875 -6.546875 C 8.53125 -5.898438 8.6875 -5.113281 8.6875 -4.1875 C 8.6875 -3.257812 8.53125 -2.46875 8.21875 -1.8125 C 7.90625 -1.164062 7.453125 -0.675781 6.859375 -0.34375 C 6.273438 -0.0078125 5.59375 0.15625 4.8125 0.15625 Z M 4.8125 -0.953125 C 5.644531 -0.953125 6.28125 -1.210938 6.71875 -1.734375 C 7.164062 -2.265625 7.390625 -3.082031 7.390625 -4.1875 C 7.390625 -5.289062 7.164062 -6.101562 6.71875 -6.625 C 6.28125 -7.15625 5.644531 -7.421875 4.8125 -7.421875 C 3.96875 -7.421875 3.320312 -7.15625 2.875 -6.625 C 2.4375 -6.101562 2.21875 -5.289062 2.21875 -4.1875 C 2.21875 -3.082031 2.4375 -2.265625 2.875 -1.734375 C 3.320312 -1.210938 3.96875 -0.953125 4.8125 -0.953125 Z M 4.8125 -0.953125 "/></g></g><g transform="translate(378.670273, 390.008677)"><g><path d="M 4.34375 0.15625 C 3.664062 0.15625 3.070312 0 2.5625 -0.3125 C 2.050781 -0.632812 1.648438 -1.117188 1.359375 -1.765625 C 1.066406 -2.421875 0.921875 -3.226562 0.921875 -4.1875 C 0.921875 -5.144531 1.070312 -5.945312 1.375 -6.59375 C 1.675781 -7.238281 2.09375 -7.722656 2.625 -8.046875 C 3.164062 -8.367188 3.785156 -8.53125 4.484375 -8.53125 C 5.046875 -8.53125 5.546875 -8.425781 5.984375 -8.21875 C 6.429688 -8.007812 6.816406 -7.664062 7.140625 -7.1875 L 7.296875 -7.21875 L 7.296875 -11.734375 L 8.53125 -11.734375 L 8.53125 0 L 7.296875 0 L 7.296875 -1.21875 L 7.140625 -1.25 C 6.859375 -0.832031 6.484375 -0.492188 6.015625 -0.234375 C 5.554688 0.0234375 5 0.15625 4.34375 0.15625 Z M 4.734375 -0.953125 C 5.503906 -0.953125 6.125 -1.21875 6.59375 -1.75 C 7.0625 -2.28125 7.296875 -3.09375 7.296875 -4.1875 C 7.296875 -5.28125 7.0625 -6.09375 6.59375 -6.625 C 6.125 -7.15625 5.503906 -7.421875 4.734375 -7.421875 C 3.921875 -7.421875 3.296875 -7.160156 2.859375 -6.640625 C 2.429688 -6.117188 2.21875 -5.300781 2.21875 -4.1875 C 2.21875 -2.03125 3.054688 -0.953125 4.734375 -0.953125 Z M 4.734375 -0.953125 "/></g></g><g transform="translate(388.66732, 390.008677)"><g><path d="M 7.984375 -3.90625 L 2.21875 -3.90625 C 2.257812 -2.882812 2.503906 -2.132812 2.953125 -1.65625 C 3.410156 -1.1875 4.035156 -0.953125 4.828125 -0.953125 C 5.421875 -0.953125 5.898438 -1.054688 6.265625 -1.265625 C 6.628906 -1.484375 6.914062 -1.816406 7.125 -2.265625 L 7.28125 -2.265625 L 8.078125 -1.796875 C 7.835938 -1.179688 7.453125 -0.703125 6.921875 -0.359375 C 6.390625 -0.015625 5.691406 0.15625 4.828125 0.15625 C 4.015625 0.15625 3.316406 0 2.734375 -0.3125 C 2.148438 -0.632812 1.703125 -1.117188 1.390625 -1.765625 C 1.078125 -2.410156 0.921875 -3.21875 0.921875 -4.1875 C 0.921875 -5.132812 1.082031 -5.929688 1.40625 -6.578125 C 1.738281 -7.234375 2.191406 -7.722656 2.765625 -8.046875 C 3.347656 -8.367188 4.007812 -8.53125 4.75 -8.53125 C 5.820312 -8.53125 6.65625 -8.226562 7.25 -7.625 C 7.851562 -7.019531 8.160156 -6.125 8.171875 -4.9375 C 8.171875 -4.46875 8.160156 -4.15625 8.140625 -4 Z M 6.953125 -4.9375 C 6.929688 -5.820312 6.734375 -6.46875 6.359375 -6.875 C 5.984375 -7.28125 5.445312 -7.484375 4.75 -7.484375 C 4.007812 -7.484375 3.429688 -7.28125 3.015625 -6.875 C 2.597656 -6.46875 2.34375 -5.820312 2.25 -4.9375 Z M 6.953125 -4.9375 "/></g></g><g transform="translate(397.594069, 390.008677)"><g/></g><g transform="translate(401.404637, 390.008677)"><g><path d="M 4.390625 0.15625 C 3.316406 0.15625 2.460938 -0.0820312 1.828125 -0.5625 C 1.191406 -1.050781 0.78125 -1.726562 0.59375 -2.59375 L 1.578125 -3.03125 L 1.75 -3 C 1.9375 -2.332031 2.226562 -1.832031 2.625 -1.5 C 3.03125 -1.175781 3.617188 -1.015625 4.390625 -1.015625 C 5.179688 -1.015625 5.78125 -1.191406 6.1875 -1.546875 C 6.59375 -1.910156 6.796875 -2.441406 6.796875 -3.140625 C 6.796875 -3.828125 6.585938 -4.347656 6.171875 -4.703125 C 5.753906 -5.066406 5.097656 -5.25 4.203125 -5.25 L 3 -5.25 L 3 -6.328125 L 4.078125 -6.328125 C 4.773438 -6.328125 5.328125 -6.5 5.734375 -6.84375 C 6.148438 -7.1875 6.359375 -7.675781 6.359375 -8.3125 C 6.359375 -8.914062 6.179688 -9.367188 5.828125 -9.671875 C 5.472656 -9.972656 4.972656 -10.125 4.328125 -10.125 C 3.210938 -10.125 2.414062 -9.675781 1.9375 -8.78125 L 1.765625 -8.75 L 1.03125 -9.546875 C 1.332031 -10.054688 1.765625 -10.46875 2.328125 -10.78125 C 2.890625 -11.101562 3.554688 -11.265625 4.328125 -11.265625 C 5.035156 -11.265625 5.640625 -11.148438 6.140625 -10.921875 C 6.640625 -10.703125 7.015625 -10.382812 7.265625 -9.96875 C 7.523438 -9.5625 7.65625 -9.066406 7.65625 -8.484375 C 7.65625 -7.941406 7.492188 -7.460938 7.171875 -7.046875 C 6.859375 -6.640625 6.441406 -6.316406 5.921875 -6.078125 L 5.921875 -5.90625 C 6.660156 -5.726562 7.210938 -5.398438 7.578125 -4.921875 C 7.953125 -4.441406 8.140625 -3.847656 8.140625 -3.140625 C 8.140625 -2.085938 7.820312 -1.273438 7.1875 -0.703125 C 6.5625 -0.128906 5.628906 0.15625 4.390625 0.15625 Z M 4.390625 0.15625 "/></g></g></g></svg>