<svg xmlns="http://www.w3.org/2000/svg" xmlns:xlink="http://www.w3.org/1999/xlink" width="1024" zoomAndPan="magnify" viewBox="0 0 768 330.749987" height="441" preserveAspectRatio="xMidYMid meet" version="1.0"><defs><g/><clipPath id="a30ac61774"><path d="M 113.976562 121.0625 L 258.570312 121.0625 L 258.570312 176.394531 L 113.976562 176.394531 Z M 113.976562 121.0625 " clip-rule="nonzero"/></clipPath><clipPath id="253c11b0b6"><path d="M 119.972656 121.0625 L 252.386719 121.0625 C 253.976562 121.0625 255.503906 121.695312 256.625 122.820312 C 257.75 123.941406 258.382812 125.46875 258.382812 127.058594 L 258.382812 170.398438 C 258.382812 171.988281 257.75 173.511719 256.625 174.636719 C 255.503906 175.761719 253.976562 176.394531 252.386719 176.394531 L 119.972656 176.394531 C 118.378906 176.394531 116.855469 175.761719 115.730469 174.636719 C 114.605469 173.511719 113.976562 171.988281 113.976562 170.398438 L 113.976562 127.058594 C 113.976562 125.46875 114.605469 123.941406 115.730469 122.820312 C 116.855469 121.695312 118.378906 121.0625 119.972656 121.0625 Z M 119.972656 121.0625 " clip-rule="nonzero"/></clipPath><clipPath id="d16e5553cc"><path d="M 113.976562 121.0625 L 258.617188 121.0625 L 258.617188 176.519531 L 113.976562 176.519531 Z M 113.976562 121.0625 " clip-rule="nonzero"/></clipPath><clipPath id="83ff66c71c"><path d="M 119.972656 121.0625 L 252.386719 121.0625 C 253.976562 121.0625 255.5 121.695312 256.625 122.820312 C 257.75 123.941406 258.382812 125.46875 258.382812 127.058594 L 258.382812 170.398438 C 258.382812 171.988281 257.75 173.511719 256.625 174.636719 C 255.5 175.761719 253.976562 176.390625 252.386719 176.390625 L 119.972656 176.390625 C 118.382812 176.390625 116.855469 175.761719 115.730469 174.636719 C 114.609375 173.511719 113.976562 171.988281 113.976562 170.398438 L 113.976562 127.058594 C 113.976562 125.46875 114.609375 123.941406 115.730469 122.820312 C 116.855469 121.695312 118.382812 121.0625 119.972656 121.0625 Z M 119.972656 121.0625 " clip-rule="nonzero"/></clipPath><clipPath id="09e01ad004"><path d="M 509.617188 121.0625 L 654 121.0625 L 654 176.394531 L 509.617188 176.394531 Z M 509.617188 121.0625 " clip-rule="nonzero"/></clipPath><clipPath id="5e1f216f56"><path d="M 515.613281 121.0625 L 648.027344 121.0625 C 649.621094 121.0625 651.144531 121.695312 652.269531 122.820312 C 653.394531 123.941406 654.023438 125.46875 654.023438 127.058594 L 654.023438 170.398438 C 654.023438 171.988281 653.394531 173.511719 652.269531 174.636719 C 651.144531 175.761719 649.621094 176.394531 648.027344 176.394531 L 515.613281 176.394531 C 514.023438 176.394531 512.496094 175.761719 511.375 174.636719 C 510.25 173.511719 509.617188 171.988281 509.617188 170.398438 L 509.617188 127.058594 C 509.617188 125.46875 510.25 123.941406 511.375 122.820312 C 512.496094 121.695312 514.023438 121.0625 515.613281 121.0625 Z M 515.613281 121.0625 " clip-rule="nonzero"/></clipPath><clipPath id="c4cee8207b"><path d="M 509.617188 121.0625 L 654.257812 121.0625 L 654.257812 176.519531 L 509.617188 176.519531 Z M 509.617188 121.0625 " clip-rule="nonzero"/></clipPath><clipPath id="828e908c05"><path d="M 515.613281 121.0625 L 648.027344 121.0625 C 649.617188 121.0625 651.144531 121.695312 652.265625 122.820312 C 653.390625 123.941406 654.023438 125.46875 654.023438 127.058594 L 654.023438 170.398438 C 654.023438 171.988281 653.390625 173.511719 652.265625 174.636719 C 651.144531 175.761719 649.617188 176.390625 648.027344 176.390625 L 515.613281 176.390625 C 514.023438 176.390625 512.5 175.761719 511.375 174.636719 C 510.25 173.511719 509.617188 171.988281 509.617188 170.398438 L 509.617188 127.058594 C 509.617188 125.46875 510.25 123.941406 511.375 122.820312 C 512.5 121.695312 514.023438 121.0625 515.613281 121.0625 Z M 515.613281 121.0625 " clip-rule="nonzero"/></clipPath><clipPath id="fe6cd4b3b6"><path d="M 367.699219 104.761719 L 400.675781 104.761719 L 400.675781 137.738281 L 367.699219 137.738281 Z M 367.699219 104.761719 " clip-rule="nonzero"/></clipPath></defs><g clip-path="url(#a30ac61774)"><g clip-path="url(#253c11b0b6)"><path fill="#5ce1e6" d="M 113.976562 121.0625 L 258.351562 121.0625 L 258.351562 176.394531 L 113.976562 176.394531 Z M 113.976562 121.0625 " fill-opacity="1" fill-rule="nonzero"/></g></g><g clip-path="url(#d16e5553cc)"><g clip-path="url(#83ff66c71c)"><path stroke-linecap="butt" transform="matrix(0.749434, 0, 0, 0.749434, 113.976221, 121.062781)" fill="none" stroke-linejoin="miter" d="M 8.001291 -0.000374591 L 184.686825 -0.000374591 C 186.808219 -0.000374591 188.841005 0.844013 190.342139 2.345147 C 191.843272 3.841069 192.68766 5.879066 192.68766 8.00046 L 192.68766 65.830598 C 192.68766 67.951992 191.843272 69.984777 190.342139 71.485911 C 188.841005 72.987045 186.808219 73.82622 184.686825 73.82622 L 8.001291 73.82622 C 5.879897 73.82622 3.841899 72.987045 2.340765 71.485911 C 0.844844 69.984777 0.000456095 67.951992 0.000456095 65.830598 L 0.000456095 8.00046 C 0.000456095 5.879066 0.844844 3.841069 2.340765 2.345147 C 3.841899 0.844013 5.879897 -0.000374591 8.001291 -0.000374591 Z M 8.001291 -0.000374591 " stroke="#000000" stroke-width="2" stroke-opacity="1" stroke-miterlimit="4"/></g></g><g fill="#000000" fill-opacity="1"><g transform="translate(149.046555, 154.037856)"><g><path d="M 6.046875 -11.703125 C 6.878906 -11.703125 7.59375 -11.546875 8.1875 -11.234375 C 8.78125 -10.929688 9.226562 -10.503906 9.53125 -9.953125 C 9.84375 -9.398438 10 -8.757812 10 -8.03125 C 10 -7.300781 9.84375 -6.660156 9.53125 -6.109375 C 9.226562 -5.554688 8.78125 -5.125 8.1875 -4.8125 C 7.59375 -4.507812 6.878906 -4.359375 6.046875 -4.359375 L 3.828125 -4.359375 L 3.828125 0 L 1.515625 0 L 1.515625 -11.703125 Z M 5.734375 -6.1875 C 7.023438 -6.1875 7.671875 -6.800781 7.671875 -8.03125 C 7.671875 -9.257812 7.023438 -9.875 5.734375 -9.875 L 3.828125 -9.875 L 3.828125 -6.1875 Z M 5.734375 -6.1875 "/></g></g></g><g fill="#000000" fill-opacity="1"><g transform="translate(159.733347, 154.037856)"><g><path d="M 1.265625 0 L 1.265625 -8.828125 L 3.421875 -8.828125 L 3.421875 -7.515625 L 3.59375 -7.484375 C 3.800781 -7.972656 4.078125 -8.332031 4.421875 -8.5625 C 4.773438 -8.789062 5.203125 -8.90625 5.703125 -8.90625 C 6.203125 -8.90625 6.582031 -8.820312 6.84375 -8.65625 L 6.46875 -6.734375 L 6.296875 -6.703125 C 6.148438 -6.765625 6.007812 -6.804688 5.875 -6.828125 C 5.75 -6.859375 5.585938 -6.875 5.390625 -6.875 C 4.773438 -6.875 4.300781 -6.65625 3.96875 -6.21875 C 3.644531 -5.78125 3.484375 -5.082031 3.484375 -4.125 L 3.484375 0 Z M 1.265625 0 "/></g></g></g><g fill="#000000" fill-opacity="1"><g transform="translate(166.65257, 154.037856)"><g><path d="M 5.125 0.171875 C 4.257812 0.171875 3.5 -0.00390625 2.84375 -0.359375 C 2.195312 -0.710938 1.691406 -1.234375 1.328125 -1.921875 C 0.972656 -2.609375 0.796875 -3.4375 0.796875 -4.40625 C 0.796875 -5.375 0.972656 -6.203125 1.328125 -6.890625 C 1.691406 -7.585938 2.195312 -8.113281 2.84375 -8.46875 C 3.5 -8.820312 4.257812 -9 5.125 -9 C 5.988281 -9 6.75 -8.820312 7.40625 -8.46875 C 8.0625 -8.113281 8.566406 -7.585938 8.921875 -6.890625 C 9.285156 -6.203125 9.46875 -5.375 9.46875 -4.40625 C 9.46875 -3.4375 9.285156 -2.609375 8.921875 -1.921875 C 8.566406 -1.234375 8.0625 -0.710938 7.40625 -0.359375 C 6.75 -0.00390625 5.988281 0.171875 5.125 0.171875 Z M 5.125 -1.71875 C 6.5 -1.71875 7.1875 -2.613281 7.1875 -4.40625 C 7.1875 -5.34375 7.007812 -6.023438 6.65625 -6.453125 C 6.300781 -6.890625 5.789062 -7.109375 5.125 -7.109375 C 3.757812 -7.109375 3.078125 -6.207031 3.078125 -4.40625 C 3.078125 -2.613281 3.757812 -1.71875 5.125 -1.71875 Z M 5.125 -1.71875 "/></g></g></g><g fill="#000000" fill-opacity="1"><g transform="translate(176.907411, 154.037856)"><g><path d="M 4.359375 0.171875 C 3.660156 0.171875 3.039062 0.00390625 2.5 -0.328125 C 1.96875 -0.671875 1.550781 -1.1875 1.25 -1.875 C 0.945312 -2.5625 0.796875 -3.40625 0.796875 -4.40625 C 0.796875 -5.414062 0.953125 -6.265625 1.265625 -6.953125 C 1.578125 -7.640625 2.007812 -8.148438 2.5625 -8.484375 C 3.113281 -8.828125 3.75 -9 4.46875 -9 C 5.019531 -9 5.492188 -8.898438 5.890625 -8.703125 C 6.296875 -8.515625 6.640625 -8.222656 6.921875 -7.828125 L 7.09375 -7.859375 L 7.09375 -12.375 L 9.3125 -12.375 L 9.3125 0 L 7.09375 0 L 7.09375 -1.140625 L 6.921875 -1.171875 C 6.671875 -0.753906 6.332031 -0.425781 5.90625 -0.1875 C 5.488281 0.0507812 4.972656 0.171875 4.359375 0.171875 Z M 5.078125 -1.71875 C 5.703125 -1.71875 6.195312 -1.9375 6.5625 -2.375 C 6.925781 -2.820312 7.109375 -3.5 7.109375 -4.40625 C 7.109375 -5.3125 6.925781 -5.988281 6.5625 -6.4375 C 6.195312 -6.882812 5.703125 -7.109375 5.078125 -7.109375 C 4.429688 -7.109375 3.9375 -6.890625 3.59375 -6.453125 C 3.25 -6.023438 3.078125 -5.34375 3.078125 -4.40625 C 3.078125 -3.476562 3.25 -2.796875 3.59375 -2.359375 C 3.9375 -1.929688 4.429688 -1.71875 5.078125 -1.71875 Z M 5.078125 -1.71875 "/></g></g></g><g fill="#000000" fill-opacity="1"><g transform="translate(187.482216, 154.037856)"><g><path d="M 4.046875 0.171875 C 3.046875 0.171875 2.3125 -0.0976562 1.84375 -0.640625 C 1.375 -1.179688 1.140625 -1.960938 1.140625 -2.984375 L 1.140625 -8.828125 L 3.359375 -8.828125 L 3.359375 -3.25 C 3.359375 -2.71875 3.472656 -2.328125 3.703125 -2.078125 C 3.929688 -1.828125 4.289062 -1.703125 4.78125 -1.703125 C 5.394531 -1.703125 5.867188 -1.898438 6.203125 -2.296875 C 6.546875 -2.703125 6.71875 -3.335938 6.71875 -4.203125 L 6.71875 -8.828125 L 8.9375 -8.828125 L 8.9375 0 L 6.8125 0 L 6.8125 -1.296875 L 6.640625 -1.34375 C 6.359375 -0.832031 6.015625 -0.453125 5.609375 -0.203125 C 5.203125 0.046875 4.679688 0.171875 4.046875 0.171875 Z M 4.046875 0.171875 "/></g></g></g><g fill="#000000" fill-opacity="1"><g transform="translate(197.689062, 154.037856)"><g><path d="M 5.140625 0.171875 C 4.285156 0.171875 3.53125 -0.00390625 2.875 -0.359375 C 2.21875 -0.710938 1.707031 -1.234375 1.34375 -1.921875 C 0.976562 -2.617188 0.796875 -3.445312 0.796875 -4.40625 C 0.796875 -5.375 0.976562 -6.203125 1.34375 -6.890625 C 1.707031 -7.585938 2.210938 -8.113281 2.859375 -8.46875 C 3.515625 -8.820312 4.265625 -9 5.109375 -9 C 6.972656 -9 8.164062 -8.320312 8.6875 -6.96875 L 7.15625 -5.875 L 7 -5.875 C 6.8125 -6.289062 6.570312 -6.597656 6.28125 -6.796875 C 5.988281 -7.003906 5.597656 -7.109375 5.109375 -7.109375 C 4.460938 -7.109375 3.960938 -6.882812 3.609375 -6.4375 C 3.253906 -6 3.078125 -5.320312 3.078125 -4.40625 C 3.078125 -3.5 3.253906 -2.820312 3.609375 -2.375 C 3.972656 -1.9375 4.484375 -1.71875 5.140625 -1.71875 C 5.617188 -1.71875 6.023438 -1.84375 6.359375 -2.09375 C 6.691406 -2.351562 6.929688 -2.726562 7.078125 -3.21875 L 7.25 -3.234375 L 8.828125 -2.375 C 8.597656 -1.625 8.179688 -1.007812 7.578125 -0.53125 C 6.972656 -0.0625 6.160156 0.171875 5.140625 0.171875 Z M 5.140625 0.171875 "/></g></g></g><g fill="#000000" fill-opacity="1"><g transform="translate(206.78404, 154.037856)"><g><path d="M 8.71875 -3.90625 L 3.046875 -3.90625 C 3.109375 -3.144531 3.328125 -2.585938 3.703125 -2.234375 C 4.078125 -1.890625 4.585938 -1.71875 5.234375 -1.71875 C 5.742188 -1.71875 6.15625 -1.8125 6.46875 -2 C 6.78125 -2.1875 7.035156 -2.472656 7.234375 -2.859375 L 7.390625 -2.859375 L 8.875 -1.90625 C 8.582031 -1.289062 8.144531 -0.789062 7.5625 -0.40625 C 6.976562 -0.0195312 6.203125 0.171875 5.234375 0.171875 C 4.316406 0.171875 3.523438 0 2.859375 -0.34375 C 2.203125 -0.695312 1.691406 -1.210938 1.328125 -1.890625 C 0.972656 -2.578125 0.796875 -3.414062 0.796875 -4.40625 C 0.796875 -5.414062 0.984375 -6.265625 1.359375 -6.953125 C 1.734375 -7.640625 2.242188 -8.148438 2.890625 -8.484375 C 3.535156 -8.828125 4.265625 -9 5.078125 -9 C 6.328125 -9 7.28125 -8.664062 7.9375 -8 C 8.601562 -7.34375 8.9375 -6.375 8.9375 -5.09375 C 8.9375 -4.625 8.921875 -4.265625 8.890625 -4.015625 Z M 6.8125 -5.34375 C 6.789062 -6.019531 6.632812 -6.507812 6.34375 -6.8125 C 6.0625 -7.125 5.640625 -7.28125 5.078125 -7.28125 C 3.953125 -7.28125 3.289062 -6.632812 3.09375 -5.34375 Z M 6.8125 -5.34375 "/></g></g></g><g fill="#000000" fill-opacity="1"><g transform="translate(216.374962, 154.037856)"><g><path d="M 1.265625 0 L 1.265625 -8.828125 L 3.421875 -8.828125 L 3.421875 -7.515625 L 3.59375 -7.484375 C 3.800781 -7.972656 4.078125 -8.332031 4.421875 -8.5625 C 4.773438 -8.789062 5.203125 -8.90625 5.703125 -8.90625 C 6.203125 -8.90625 6.582031 -8.820312 6.84375 -8.65625 L 6.46875 -6.734375 L 6.296875 -6.703125 C 6.148438 -6.765625 6.007812 -6.804688 5.875 -6.828125 C 5.75 -6.859375 5.585938 -6.875 5.390625 -6.875 C 4.773438 -6.875 4.300781 -6.65625 3.96875 -6.21875 C 3.644531 -5.78125 3.484375 -5.082031 3.484375 -4.125 L 3.484375 0 Z M 1.265625 0 "/></g></g></g><g clip-path="url(#09e01ad004)"><g clip-path="url(#5e1f216f56)"><path fill="#00bf63" d="M 509.617188 121.0625 L 653.996094 121.0625 L 653.996094 176.394531 L 509.617188 176.394531 Z M 509.617188 121.0625 " fill-opacity="1" fill-rule="nonzero"/></g></g><g clip-path="url(#c4cee8207b)"><g clip-path="url(#828e908c05)"><path stroke-linecap="butt" transform="matrix(0.749434, 0, 0, 0.749434, 509.618272, 121.062781)" fill="none" stroke-linejoin="miter" d="M 7.999387 -0.000374591 L 184.684922 -0.000374591 C 186.806316 -0.000374591 188.844314 0.844013 190.340235 2.345147 C 191.841369 3.841069 192.685757 5.879066 192.685757 8.00046 L 192.685757 65.830598 C 192.685757 67.951992 191.841369 69.984777 190.340235 71.485911 C 188.844314 72.987045 186.806316 73.82622 184.684922 73.82622 L 7.999387 73.82622 C 5.877993 73.82622 3.845208 72.987045 2.344074 71.485911 C 0.84294 69.984777 -0.00144744 67.951992 -0.00144744 65.830598 L -0.00144744 8.00046 C -0.00144744 5.879066 0.84294 3.841069 2.344074 2.345147 C 3.845208 0.844013 5.877993 -0.000374591 7.999387 -0.000374591 Z M 7.999387 -0.000374591 " stroke="#000000" stroke-width="2" stroke-opacity="1" stroke-miterlimit="4"/></g></g><g fill="#000000" fill-opacity="1"><g transform="translate(540.730658, 154.037856)"><g><path d="M 6.390625 0.171875 C 5.316406 0.171875 4.367188 -0.0507812 3.546875 -0.5 C 2.722656 -0.945312 2.078125 -1.617188 1.609375 -2.515625 C 1.148438 -3.421875 0.921875 -4.53125 0.921875 -5.84375 C 0.921875 -7.164062 1.148438 -8.273438 1.609375 -9.171875 C 2.078125 -10.078125 2.722656 -10.753906 3.546875 -11.203125 C 4.367188 -11.648438 5.316406 -11.875 6.390625 -11.875 C 7.515625 -11.875 8.46875 -11.648438 9.25 -11.203125 C 10.039062 -10.765625 10.609375 -10.097656 10.953125 -9.203125 L 9.265625 -8.15625 L 9.0625 -8.171875 C 8.8125 -8.773438 8.46875 -9.207031 8.03125 -9.46875 C 7.601562 -9.738281 7.054688 -9.875 6.390625 -9.875 C 5.421875 -9.875 4.664062 -9.550781 4.125 -8.90625 C 3.582031 -8.269531 3.3125 -7.25 3.3125 -5.84375 C 3.3125 -4.457031 3.582031 -3.441406 4.125 -2.796875 C 4.664062 -2.148438 5.421875 -1.828125 6.390625 -1.828125 C 7.910156 -1.828125 8.84375 -2.566406 9.1875 -4.046875 L 9.390625 -4.046875 L 11.09375 -3.15625 C 10.769531 -2.050781 10.222656 -1.21875 9.453125 -0.65625 C 8.679688 -0.101562 7.660156 0.171875 6.390625 0.171875 Z M 6.390625 0.171875 "/></g></g></g><g fill="#000000" fill-opacity="1"><g transform="translate(552.201361, 154.037856)"><g><path d="M 5.125 0.171875 C 4.257812 0.171875 3.5 -0.00390625 2.84375 -0.359375 C 2.195312 -0.710938 1.691406 -1.234375 1.328125 -1.921875 C 0.972656 -2.609375 0.796875 -3.4375 0.796875 -4.40625 C 0.796875 -5.375 0.972656 -6.203125 1.328125 -6.890625 C 1.691406 -7.585938 2.195312 -8.113281 2.84375 -8.46875 C 3.5 -8.820312 4.257812 -9 5.125 -9 C 5.988281 -9 6.75 -8.820312 7.40625 -8.46875 C 8.0625 -8.113281 8.566406 -7.585938 8.921875 -6.890625 C 9.285156 -6.203125 9.46875 -5.375 9.46875 -4.40625 C 9.46875 -3.4375 9.285156 -2.609375 8.921875 -1.921875 C 8.566406 -1.234375 8.0625 -0.710938 7.40625 -0.359375 C 6.75 -0.00390625 5.988281 0.171875 5.125 0.171875 Z M 5.125 -1.71875 C 6.5 -1.71875 7.1875 -2.613281 7.1875 -4.40625 C 7.1875 -5.34375 7.007812 -6.023438 6.65625 -6.453125 C 6.300781 -6.890625 5.789062 -7.109375 5.125 -7.109375 C 3.757812 -7.109375 3.078125 -6.207031 3.078125 -4.40625 C 3.078125 -2.613281 3.757812 -1.71875 5.125 -1.71875 Z M 5.125 -1.71875 "/></g></g></g><g fill="#000000" fill-opacity="1"><g transform="translate(562.456202, 154.037856)"><g><path d="M 1.265625 0 L 1.265625 -8.828125 L 3.40625 -8.828125 L 3.40625 -7.53125 L 3.5625 -7.484375 C 4.113281 -8.492188 5.007812 -9 6.25 -9 C 7.257812 -9 8.003906 -8.71875 8.484375 -8.15625 C 8.960938 -7.601562 9.203125 -6.796875 9.203125 -5.734375 L 9.203125 0 L 6.984375 0 L 6.984375 -5.46875 C 6.984375 -6.050781 6.863281 -6.472656 6.625 -6.734375 C 6.394531 -6.992188 6.019531 -7.125 5.5 -7.125 C 4.863281 -7.125 4.367188 -6.914062 4.015625 -6.5 C 3.660156 -6.09375 3.484375 -5.445312 3.484375 -4.5625 L 3.484375 0 Z M 1.265625 0 "/></g></g></g><g fill="#000000" fill-opacity="1"><g transform="translate(572.791034, 154.037856)"><g><path d="M 4.125 0.171875 C 3.519531 0.171875 2.96875 0.101562 2.46875 -0.03125 C 1.96875 -0.175781 1.539062 -0.375 1.1875 -0.625 C 0.832031 -0.875 0.570312 -1.160156 0.40625 -1.484375 L 1.625 -2.8125 L 1.796875 -2.8125 C 2.085938 -2.414062 2.429688 -2.117188 2.828125 -1.921875 C 3.234375 -1.722656 3.671875 -1.625 4.140625 -1.625 C 4.578125 -1.625 4.90625 -1.703125 5.125 -1.859375 C 5.34375 -2.015625 5.453125 -2.234375 5.453125 -2.515625 C 5.453125 -2.742188 5.375 -2.929688 5.21875 -3.078125 C 5.0625 -3.234375 4.804688 -3.351562 4.453125 -3.4375 L 3.28125 -3.71875 C 2.40625 -3.925781 1.765625 -4.242188 1.359375 -4.671875 C 0.960938 -5.109375 0.765625 -5.65625 0.765625 -6.3125 C 0.765625 -6.863281 0.898438 -7.34375 1.171875 -7.75 C 1.453125 -8.15625 1.847656 -8.460938 2.359375 -8.671875 C 2.867188 -8.890625 3.460938 -9 4.140625 -9 C 4.941406 -9 5.601562 -8.882812 6.125 -8.65625 C 6.644531 -8.425781 7.050781 -8.117188 7.34375 -7.734375 L 6.15625 -6.453125 L 6 -6.453125 C 5.757812 -6.722656 5.484375 -6.921875 5.171875 -7.046875 C 4.867188 -7.179688 4.523438 -7.25 4.140625 -7.25 C 3.265625 -7.25 2.828125 -6.976562 2.828125 -6.4375 C 2.828125 -6.207031 2.910156 -6.019531 3.078125 -5.875 C 3.242188 -5.726562 3.53125 -5.609375 3.9375 -5.515625 L 5.03125 -5.28125 C 5.925781 -5.09375 6.578125 -4.785156 6.984375 -4.359375 C 7.398438 -3.929688 7.609375 -3.363281 7.609375 -2.65625 C 7.609375 -2.09375 7.46875 -1.597656 7.1875 -1.171875 C 6.914062 -0.742188 6.515625 -0.410156 5.984375 -0.171875 C 5.460938 0.0546875 4.84375 0.171875 4.125 0.171875 Z M 4.125 0.171875 "/></g></g></g><g fill="#000000" fill-opacity="1"><g transform="translate(580.926121, 154.037856)"><g><path d="M 4.046875 0.171875 C 3.046875 0.171875 2.3125 -0.0976562 1.84375 -0.640625 C 1.375 -1.179688 1.140625 -1.960938 1.140625 -2.984375 L 1.140625 -8.828125 L 3.359375 -8.828125 L 3.359375 -3.25 C 3.359375 -2.71875 3.472656 -2.328125 3.703125 -2.078125 C 3.929688 -1.828125 4.289062 -1.703125 4.78125 -1.703125 C 5.394531 -1.703125 5.867188 -1.898438 6.203125 -2.296875 C 6.546875 -2.703125 6.71875 -3.335938 6.71875 -4.203125 L 6.71875 -8.828125 L 8.9375 -8.828125 L 8.9375 0 L 6.8125 0 L 6.8125 -1.296875 L 6.640625 -1.34375 C 6.359375 -0.832031 6.015625 -0.453125 5.609375 -0.203125 C 5.203125 0.046875 4.679688 0.171875 4.046875 0.171875 Z M 4.046875 0.171875 "/></g></g></g><g fill="#000000" fill-opacity="1"><g transform="translate(591.132967, 154.037856)"><g><path d="M 1.265625 0 L 1.265625 -8.828125 L 3.40625 -8.828125 L 3.40625 -7.640625 L 3.5625 -7.609375 C 3.851562 -8.085938 4.191406 -8.4375 4.578125 -8.65625 C 4.960938 -8.882812 5.457031 -9 6.0625 -9 C 6.726562 -9 7.265625 -8.863281 7.671875 -8.59375 C 8.078125 -8.332031 8.375 -7.945312 8.5625 -7.4375 L 8.734375 -7.4375 C 9.003906 -7.96875 9.351562 -8.359375 9.78125 -8.609375 C 10.207031 -8.867188 10.742188 -9 11.390625 -9 C 13.222656 -9 14.140625 -7.976562 14.140625 -5.9375 L 14.140625 0 L 11.921875 0 L 11.921875 -5.65625 C 11.921875 -6.175781 11.816406 -6.550781 11.609375 -6.78125 C 11.410156 -7.007812 11.085938 -7.125 10.640625 -7.125 C 9.421875 -7.125 8.8125 -6.3125 8.8125 -4.6875 L 8.8125 0 L 6.59375 0 L 6.59375 -5.65625 C 6.59375 -6.175781 6.488281 -6.550781 6.28125 -6.78125 C 6.082031 -7.007812 5.757812 -7.125 5.3125 -7.125 C 4.738281 -7.125 4.289062 -6.929688 3.96875 -6.546875 C 3.644531 -6.171875 3.484375 -5.566406 3.484375 -4.734375 L 3.484375 0 Z M 1.265625 0 "/></g></g></g><g fill="#000000" fill-opacity="1"><g transform="translate(606.395242, 154.037856)"><g><path d="M 8.71875 -3.90625 L 3.046875 -3.90625 C 3.109375 -3.144531 3.328125 -2.585938 3.703125 -2.234375 C 4.078125 -1.890625 4.585938 -1.71875 5.234375 -1.71875 C 5.742188 -1.71875 6.15625 -1.8125 6.46875 -2 C 6.78125 -2.1875 7.035156 -2.472656 7.234375 -2.859375 L 7.390625 -2.859375 L 8.875 -1.90625 C 8.582031 -1.289062 8.144531 -0.789062 7.5625 -0.40625 C 6.976562 -0.0195312 6.203125 0.171875 5.234375 0.171875 C 4.316406 0.171875 3.523438 0 2.859375 -0.34375 C 2.203125 -0.695312 1.691406 -1.210938 1.328125 -1.890625 C 0.972656 -2.578125 0.796875 -3.414062 0.796875 -4.40625 C 0.796875 -5.414062 0.984375 -6.265625 1.359375 -6.953125 C 1.734375 -7.640625 2.242188 -8.148438 2.890625 -8.484375 C 3.535156 -8.828125 4.265625 -9 5.078125 -9 C 6.328125 -9 7.28125 -8.664062 7.9375 -8 C 8.601562 -7.34375 8.9375 -6.375 8.9375 -5.09375 C 8.9375 -4.625 8.921875 -4.265625 8.890625 -4.015625 Z M 6.8125 -5.34375 C 6.789062 -6.019531 6.632812 -6.507812 6.34375 -6.8125 C 6.0625 -7.125 5.640625 -7.28125 5.078125 -7.28125 C 3.953125 -7.28125 3.289062 -6.632812 3.09375 -5.34375 Z M 6.8125 -5.34375 "/></g></g></g><g fill="#000000" fill-opacity="1"><g transform="translate(615.986164, 154.037856)"><g><path d="M 1.265625 0 L 1.265625 -8.828125 L 3.421875 -8.828125 L 3.421875 -7.515625 L 3.59375 -7.484375 C 3.800781 -7.972656 4.078125 -8.332031 4.421875 -8.5625 C 4.773438 -8.789062 5.203125 -8.90625 5.703125 -8.90625 C 6.203125 -8.90625 6.582031 -8.820312 6.84375 -8.65625 L 6.46875 -6.734375 L 6.296875 -6.703125 C 6.148438 -6.765625 6.007812 -6.804688 5.875 -6.828125 C 5.75 -6.859375 5.585938 -6.875 5.390625 -6.875 C 4.773438 -6.875 4.300781 -6.65625 3.96875 -6.21875 C 3.644531 -5.78125 3.484375 -5.082031 3.484375 -4.125 L 3.484375 0 Z M 1.265625 0 "/></g></g></g><path fill="#545454" d="M 258.382812 147.230469 L 267.375 147.230469 L 267.375 150.226562 L 258.382812 150.226562 M 270.375 147.230469 L 279.367188 147.230469 L 279.367188 150.226562 L 270.375 150.226562 M 282.363281 147.230469 L 291.359375 147.230469 L 291.359375 150.226562 L 282.363281 150.226562 M 294.355469 147.230469 L 303.347656 147.230469 L 303.347656 150.226562 L 294.355469 150.226562 M 306.347656 147.230469 L 315.339844 147.230469 L 315.339844 150.226562 L 306.347656 150.226562 M 318.335938 147.230469 L 327.332031 147.230469 L 327.332031 150.226562 L 318.335938 150.226562 M 330.328125 147.230469 L 339.320312 147.230469 L 339.320312 150.226562 L 330.328125 150.226562 M 342.320312 147.230469 L 351.3125 147.230469 L 351.3125 150.226562 L 342.320312 150.226562 M 354.308594 147.230469 L 363.304688 147.230469 L 363.304688 150.226562 L 354.308594 150.226562 M 366.300781 147.230469 L 375.292969 147.230469 L 375.292969 150.226562 L 366.300781 150.226562 M 378.292969 147.230469 L 387.285156 147.230469 L 387.285156 150.226562 L 378.292969 150.226562 M 390.28125 147.230469 L 399.277344 147.230469 L 399.277344 150.226562 L 390.28125 150.226562 M 402.273438 147.230469 L 411.265625 147.230469 L 411.265625 150.226562 L 402.273438 150.226562 M 414.265625 147.230469 L 423.257812 147.230469 L 423.257812 150.226562 L 414.265625 150.226562 M 426.253906 147.230469 L 435.25 147.230469 L 435.25 150.226562 L 426.253906 150.226562 M 438.246094 147.230469 L 447.238281 147.230469 L 447.238281 150.226562 L 438.246094 150.226562 M 450.238281 147.230469 L 459.230469 147.230469 L 459.230469 150.226562 L 450.238281 150.226562 M 462.226562 147.230469 L 471.222656 147.230469 L 471.222656 150.226562 L 462.226562 150.226562 M 474.21875 147.230469 L 483.210938 147.230469 L 483.210938 150.226562 L 474.21875 150.226562 M 486.210938 147.230469 L 495.203125 147.230469 L 495.203125 150.226562 L 486.210938 150.226562 M 498.203125 147.230469 L 507.195312 147.230469 L 507.195312 150.226562 L 498.203125 150.226562 " fill-opacity="1" fill-rule="nonzero"/><g clip-path="url(#fe6cd4b3b6)"><path fill="#00bf63" d="M 384 104.761719 C 383.464844 104.761719 382.933594 104.789062 382.402344 104.839844 C 381.871094 104.894531 381.34375 104.972656 380.820312 105.074219 C 380.296875 105.179688 379.777344 105.308594 379.269531 105.464844 C 378.757812 105.617188 378.253906 105.796875 377.761719 106.003906 C 377.269531 106.207031 376.785156 106.433594 376.316406 106.6875 C 375.84375 106.9375 375.386719 107.210938 374.945312 107.507812 C 374.5 107.804688 374.070312 108.125 373.660156 108.460938 C 373.246094 108.800781 372.851562 109.160156 372.472656 109.535156 C 372.097656 109.914062 371.738281 110.308594 371.398438 110.722656 C 371.0625 111.132812 370.742188 111.5625 370.445312 112.007812 C 370.148438 112.449219 369.875 112.90625 369.625 113.378906 C 369.371094 113.847656 369.144531 114.332031 368.941406 114.824219 C 368.734375 115.316406 368.554688 115.820312 368.402344 116.332031 C 368.246094 116.839844 368.117188 117.359375 368.011719 117.882812 C 367.910156 118.40625 367.832031 118.933594 367.777344 119.464844 C 367.726562 119.996094 367.699219 120.527344 367.699219 121.0625 C 367.699219 121.597656 367.726562 122.128906 367.777344 122.660156 C 367.832031 123.191406 367.910156 123.71875 368.011719 124.242188 C 368.117188 124.765625 368.246094 125.285156 368.402344 125.792969 C 368.554688 126.304688 368.734375 126.808594 368.941406 127.300781 C 369.144531 127.792969 369.371094 128.277344 369.625 128.746094 C 369.875 129.21875 370.148438 129.675781 370.445312 130.117188 C 370.742188 130.5625 371.0625 130.992188 371.398438 131.402344 C 371.738281 131.816406 372.097656 132.210938 372.472656 132.589844 C 372.851562 132.964844 373.246094 133.324219 373.660156 133.664062 C 374.070312 134 374.5 134.320312 374.945312 134.617188 C 375.386719 134.914062 375.84375 135.1875 376.316406 135.4375 C 376.785156 135.691406 377.269531 135.917969 377.761719 136.121094 C 378.253906 136.324219 378.757812 136.503906 379.269531 136.660156 C 379.777344 136.816406 380.296875 136.945312 380.820312 137.050781 C 381.34375 137.152344 381.871094 137.230469 382.402344 137.285156 C 382.933594 137.335938 383.464844 137.363281 384 137.363281 C 384.535156 137.363281 385.066406 137.335938 385.597656 137.285156 C 386.128906 137.230469 386.65625 137.152344 387.179688 137.050781 C 387.703125 136.945312 388.21875 136.816406 388.730469 136.660156 C 389.242188 136.503906 389.746094 136.324219 390.238281 136.121094 C 390.730469 135.917969 391.210938 135.691406 391.683594 135.4375 C 392.15625 135.1875 392.613281 134.914062 393.054688 134.617188 C 393.5 134.320312 393.929688 134 394.339844 133.664062 C 394.753906 133.324219 395.148438 132.964844 395.527344 132.589844 C 395.902344 132.210938 396.261719 131.816406 396.601562 131.402344 C 396.9375 130.992188 397.257812 130.5625 397.554688 130.117188 C 397.847656 129.675781 398.125 129.21875 398.375 128.746094 C 398.625 128.277344 398.855469 127.792969 399.058594 127.300781 C 399.261719 126.808594 399.441406 126.304688 399.597656 125.792969 C 399.753906 125.285156 399.882812 124.765625 399.988281 124.242188 C 400.089844 123.71875 400.167969 123.191406 400.222656 122.660156 C 400.273438 122.128906 400.300781 121.597656 400.300781 121.0625 C 400.300781 120.527344 400.273438 119.996094 400.222656 119.464844 C 400.167969 118.933594 400.089844 118.40625 399.988281 117.882812 C 399.882812 117.359375 399.753906 116.84375 399.597656 116.332031 C 399.441406 115.820312 399.261719 115.316406 399.058594 114.824219 C 398.855469 114.332031 398.625 113.851562 398.375 113.378906 C 398.121094 112.910156 397.847656 112.449219 397.550781 112.007812 C 397.253906 111.5625 396.9375 111.136719 396.597656 110.722656 C 396.261719 110.308594 395.902344 109.914062 395.523438 109.535156 C 395.148438 109.160156 394.753906 108.800781 394.339844 108.460938 C 393.925781 108.125 393.5 107.804688 393.054688 107.511719 C 392.609375 107.214844 392.152344 106.9375 391.683594 106.6875 C 391.210938 106.4375 390.730469 106.207031 390.238281 106.003906 C 389.742188 105.800781 389.242188 105.621094 388.730469 105.464844 C 388.21875 105.308594 387.703125 105.179688 387.179688 105.074219 C 386.65625 104.972656 386.128906 104.894531 385.597656 104.839844 C 385.066406 104.789062 384.535156 104.761719 384 104.761719 Z M 376.492188 113.019531 L 391.507812 113.019531 C 391.828125 113.019531 392.140625 113.074219 392.4375 113.1875 C 392.738281 113.296875 393.011719 113.457031 393.253906 113.667969 C 393.496094 113.875 393.695312 114.121094 393.851562 114.402344 C 394.007812 114.679688 394.109375 114.980469 394.15625 115.296875 C 393.941406 115.414062 385.691406 120.171875 385.144531 120.480469 C 384.789062 120.683594 384.410156 120.785156 384 120.785156 C 383.589844 120.785156 383.210938 120.683594 382.855469 120.480469 C 382.320312 120.175781 374.046875 115.464844 373.84375 115.335938 C 373.886719 115.015625 373.984375 114.714844 374.136719 114.429688 C 374.289062 114.144531 374.488281 113.894531 374.730469 113.679688 C 374.976562 113.46875 375.25 113.304688 375.550781 113.191406 C 375.855469 113.078125 376.167969 113.019531 376.492188 113.019531 Z M 394.1875 126.425781 C 394.1875 126.78125 394.117188 127.121094 393.984375 127.449219 C 393.847656 127.777344 393.652344 128.070312 393.402344 128.320312 C 393.152344 128.570312 392.859375 128.765625 392.53125 128.902344 C 392.203125 129.035156 391.863281 129.105469 391.507812 129.105469 L 376.492188 129.105469 C 376.136719 129.105469 375.792969 129.035156 375.464844 128.902344 C 375.136719 128.765625 374.847656 128.570312 374.597656 128.320312 C 374.347656 128.070312 374.152344 127.777344 374.015625 127.449219 C 373.878906 127.121094 373.8125 126.78125 373.8125 126.425781 L 373.8125 116.554688 L 382.328125 121.414062 C 382.847656 121.710938 383.40625 121.855469 384.003906 121.855469 C 384.597656 121.855469 385.15625 121.710938 385.675781 121.414062 L 394.1875 116.515625 Z M 394.1875 126.425781 " fill-opacity="1" fill-rule="nonzero"/></g><g fill="#000000" fill-opacity="1"><g transform="translate(342.078577, 211.362959)"><g><path d="M 7.375 -14.265625 C 8.394531 -14.265625 9.265625 -14.078125 9.984375 -13.703125 C 10.710938 -13.328125 11.257812 -12.800781 11.625 -12.125 C 12 -11.457031 12.1875 -10.675781 12.1875 -9.78125 C 12.1875 -8.894531 12 -8.113281 11.625 -7.4375 C 11.257812 -6.769531 10.710938 -6.25 9.984375 -5.875 C 9.265625 -5.5 8.394531 -5.3125 7.375 -5.3125 L 4.671875 -5.3125 L 4.671875 0 L 1.859375 0 L 1.859375 -14.265625 Z M 7 -7.546875 C 8.5625 -7.546875 9.34375 -8.289062 9.34375 -9.78125 C 9.34375 -11.28125 8.5625 -12.03125 7 -12.03125 L 4.671875 -12.03125 L 4.671875 -7.546875 Z M 7 -7.546875 "/></g></g></g><g fill="#000000" fill-opacity="1"><g transform="translate(355.110505, 211.362959)"><g><path d="M 4.203125 0.203125 C 3.503906 0.203125 2.898438 0.078125 2.390625 -0.171875 C 1.890625 -0.429688 1.5 -0.804688 1.21875 -1.296875 C 0.945312 -1.785156 0.8125 -2.375 0.8125 -3.0625 C 0.8125 -3.695312 0.945312 -4.226562 1.21875 -4.65625 C 1.5 -5.09375 1.925781 -5.445312 2.5 -5.71875 C 3.070312 -6 3.820312 -6.21875 4.75 -6.375 C 5.382812 -6.476562 5.867188 -6.59375 6.203125 -6.71875 C 6.546875 -6.84375 6.773438 -6.984375 6.890625 -7.140625 C 7.003906 -7.296875 7.0625 -7.492188 7.0625 -7.734375 C 7.0625 -8.078125 6.941406 -8.335938 6.703125 -8.515625 C 6.460938 -8.703125 6.0625 -8.796875 5.5 -8.796875 C 4.90625 -8.796875 4.335938 -8.660156 3.796875 -8.390625 C 3.253906 -8.117188 2.785156 -7.769531 2.390625 -7.34375 L 2.203125 -7.34375 L 1.0625 -9.046875 C 1.613281 -9.648438 2.28125 -10.117188 3.0625 -10.453125 C 3.851562 -10.796875 4.710938 -10.96875 5.640625 -10.96875 C 7.066406 -10.96875 8.097656 -10.664062 8.734375 -10.0625 C 9.367188 -9.457031 9.6875 -8.597656 9.6875 -7.484375 L 9.6875 -2.8125 C 9.6875 -2.332031 9.898438 -2.09375 10.328125 -2.09375 C 10.484375 -2.09375 10.640625 -2.117188 10.796875 -2.171875 L 10.9375 -2.140625 L 11.140625 -0.25 C 10.984375 -0.15625 10.769531 -0.078125 10.5 -0.015625 C 10.238281 0.046875 9.945312 0.078125 9.625 0.078125 C 8.988281 0.078125 8.488281 -0.0390625 8.125 -0.28125 C 7.757812 -0.53125 7.5 -0.921875 7.34375 -1.453125 L 7.140625 -1.46875 C 6.617188 -0.351562 5.640625 0.203125 4.203125 0.203125 Z M 5.046875 -1.8125 C 5.671875 -1.8125 6.171875 -2.019531 6.546875 -2.4375 C 6.921875 -2.863281 7.109375 -3.453125 7.109375 -4.203125 L 7.109375 -5.28125 L 6.921875 -5.328125 C 6.765625 -5.191406 6.550781 -5.082031 6.28125 -5 C 6.019531 -4.914062 5.644531 -4.832031 5.15625 -4.75 C 4.570312 -4.644531 4.148438 -4.472656 3.890625 -4.234375 C 3.628906 -4.003906 3.5 -3.671875 3.5 -3.234375 C 3.5 -2.765625 3.632812 -2.410156 3.90625 -2.171875 C 4.1875 -1.929688 4.566406 -1.8125 5.046875 -1.8125 Z M 5.046875 -1.8125 "/></g></g></g><g fill="#000000" fill-opacity="1"><g transform="translate(366.454916, 211.362959)"><g><path d="M 1.546875 0 L 1.546875 -10.765625 L 4.171875 -10.765625 L 4.171875 -9.15625 L 4.375 -9.125 C 4.632812 -9.71875 4.976562 -10.15625 5.40625 -10.4375 C 5.832031 -10.71875 6.347656 -10.859375 6.953125 -10.859375 C 7.554688 -10.859375 8.019531 -10.753906 8.34375 -10.546875 L 7.890625 -8.21875 L 7.671875 -8.171875 C 7.503906 -8.242188 7.335938 -8.296875 7.171875 -8.328125 C 7.003906 -8.359375 6.804688 -8.375 6.578125 -8.375 C 5.816406 -8.375 5.238281 -8.109375 4.84375 -7.578125 C 4.445312 -7.054688 4.25 -6.207031 4.25 -5.03125 L 4.25 0 Z M 1.546875 0 "/></g></g></g><g fill="#000000" fill-opacity="1"><g transform="translate(374.892504, 211.362959)"><g><path d="M 7.421875 -2.5625 L 8.125 -0.5625 C 7.832031 -0.320312 7.460938 -0.132812 7.015625 0 C 6.578125 0.132812 6.078125 0.203125 5.515625 0.203125 C 4.359375 0.203125 3.476562 -0.113281 2.875 -0.75 C 2.269531 -1.382812 1.96875 -2.304688 1.96875 -3.515625 L 1.96875 -8.625 L 0.328125 -8.625 L 0.328125 -10.765625 L 1.96875 -10.765625 L 1.96875 -12.875 L 4.671875 -13.3125 L 4.671875 -10.765625 L 7.71875 -10.765625 L 7.71875 -8.625 L 4.671875 -8.625 L 4.671875 -3.703125 C 4.671875 -3.171875 4.78125 -2.78125 5 -2.53125 C 5.21875 -2.289062 5.539062 -2.171875 5.96875 -2.171875 C 6.445312 -2.171875 6.863281 -2.300781 7.21875 -2.5625 Z M 7.421875 -2.5625 "/></g></g></g><g fill="#000000" fill-opacity="1"><g transform="translate(383.252056, 211.362959)"><g><path d="M 1.546875 0 L 1.546875 -10.765625 L 4.140625 -10.765625 L 4.140625 -9.1875 L 4.359375 -9.140625 C 5.023438 -10.359375 6.109375 -10.96875 7.609375 -10.96875 C 8.847656 -10.96875 9.757812 -10.628906 10.34375 -9.953125 C 10.925781 -9.273438 11.21875 -8.289062 11.21875 -7 L 11.21875 0 L 8.515625 0 L 8.515625 -6.671875 C 8.515625 -7.378906 8.367188 -7.890625 8.078125 -8.203125 C 7.796875 -8.523438 7.34375 -8.6875 6.71875 -8.6875 C 5.9375 -8.6875 5.328125 -8.4375 4.890625 -7.9375 C 4.460938 -7.4375 4.25 -6.648438 4.25 -5.578125 L 4.25 0 Z M 1.546875 0 "/></g></g></g><g fill="#000000" fill-opacity="1"><g transform="translate(395.854789, 211.362959)"><g><path d="M 10.640625 -4.765625 L 3.71875 -4.765625 C 3.789062 -3.828125 4.054688 -3.144531 4.515625 -2.71875 C 4.972656 -2.300781 5.59375 -2.09375 6.375 -2.09375 C 7 -2.09375 7.5 -2.207031 7.875 -2.4375 C 8.257812 -2.664062 8.570312 -3.015625 8.8125 -3.484375 L 9.015625 -3.484375 L 10.8125 -2.328125 C 10.457031 -1.578125 9.925781 -0.96875 9.21875 -0.5 C 8.507812 -0.03125 7.5625 0.203125 6.375 0.203125 C 5.269531 0.203125 4.3125 -0.00390625 3.5 -0.421875 C 2.6875 -0.847656 2.0625 -1.476562 1.625 -2.3125 C 1.1875 -3.15625 0.96875 -4.175781 0.96875 -5.375 C 0.96875 -6.601562 1.195312 -7.632812 1.65625 -8.46875 C 2.125 -9.3125 2.75 -9.9375 3.53125 -10.34375 C 4.320312 -10.757812 5.207031 -10.96875 6.1875 -10.96875 C 7.707031 -10.96875 8.875 -10.5625 9.6875 -9.75 C 10.5 -8.945312 10.90625 -7.765625 10.90625 -6.203125 C 10.90625 -5.640625 10.882812 -5.203125 10.84375 -4.890625 Z M 8.3125 -6.515625 C 8.289062 -7.335938 8.101562 -7.9375 7.75 -8.3125 C 7.394531 -8.6875 6.875 -8.875 6.1875 -8.875 C 4.820312 -8.875 4.019531 -8.085938 3.78125 -6.515625 Z M 8.3125 -6.515625 "/></g></g></g><g fill="#000000" fill-opacity="1"><g transform="translate(407.550359, 211.362959)"><g><path d="M 1.546875 0 L 1.546875 -10.765625 L 4.171875 -10.765625 L 4.171875 -9.15625 L 4.375 -9.125 C 4.632812 -9.71875 4.976562 -10.15625 5.40625 -10.4375 C 5.832031 -10.71875 6.347656 -10.859375 6.953125 -10.859375 C 7.554688 -10.859375 8.019531 -10.753906 8.34375 -10.546875 L 7.890625 -8.21875 L 7.671875 -8.171875 C 7.503906 -8.242188 7.335938 -8.296875 7.171875 -8.328125 C 7.003906 -8.359375 6.804688 -8.375 6.578125 -8.375 C 5.816406 -8.375 5.238281 -8.109375 4.84375 -7.578125 C 4.445312 -7.054688 4.25 -6.207031 4.25 -5.03125 L 4.25 0 Z M 1.546875 0 "/></g></g></g><g fill="#000000" fill-opacity="1"><g transform="translate(415.987947, 211.362959)"><g><path d="M 5.03125 0.203125 C 4.300781 0.203125 3.628906 0.117188 3.015625 -0.046875 C 2.398438 -0.222656 1.875 -0.460938 1.4375 -0.765625 C 1.007812 -1.066406 0.691406 -1.414062 0.484375 -1.8125 L 1.984375 -3.421875 L 2.203125 -3.421875 C 2.554688 -2.941406 2.976562 -2.582031 3.46875 -2.34375 C 3.957031 -2.101562 4.484375 -1.984375 5.046875 -1.984375 C 5.578125 -1.984375 5.972656 -2.078125 6.234375 -2.265625 C 6.503906 -2.453125 6.640625 -2.722656 6.640625 -3.078125 C 6.640625 -3.347656 6.539062 -3.578125 6.34375 -3.765625 C 6.15625 -3.953125 5.847656 -4.097656 5.421875 -4.203125 L 4 -4.53125 C 2.9375 -4.789062 2.15625 -5.179688 1.65625 -5.703125 C 1.164062 -6.222656 0.921875 -6.890625 0.921875 -7.703125 C 0.921875 -8.367188 1.09375 -8.945312 1.4375 -9.4375 C 1.78125 -9.9375 2.257812 -10.316406 2.875 -10.578125 C 3.5 -10.835938 4.222656 -10.96875 5.046875 -10.96875 C 6.023438 -10.96875 6.832031 -10.828125 7.46875 -10.546875 C 8.101562 -10.265625 8.597656 -9.890625 8.953125 -9.421875 L 7.515625 -7.859375 L 7.3125 -7.859375 C 7.019531 -8.203125 6.6875 -8.453125 6.3125 -8.609375 C 5.9375 -8.765625 5.515625 -8.84375 5.046875 -8.84375 C 3.984375 -8.84375 3.453125 -8.507812 3.453125 -7.84375 C 3.453125 -7.5625 3.550781 -7.332031 3.75 -7.15625 C 3.945312 -6.988281 4.296875 -6.847656 4.796875 -6.734375 L 6.125 -6.4375 C 7.21875 -6.207031 8.015625 -5.832031 8.515625 -5.3125 C 9.023438 -4.789062 9.28125 -4.097656 9.28125 -3.234375 C 9.28125 -2.546875 9.109375 -1.941406 8.765625 -1.421875 C 8.429688 -0.898438 7.945312 -0.5 7.3125 -0.21875 C 6.675781 0.0625 5.914062 0.203125 5.03125 0.203125 Z M 5.03125 0.203125 "/></g></g></g><path fill="#545454" d="M 383.246094 192.375 L 383.246094 190.875 L 384.746094 190.875 L 384.746094 192.375 M 383.246094 189.375 L 383.246094 187.878906 L 384.746094 187.878906 L 384.746094 189.375 M 383.246094 186.378906 L 383.246094 184.878906 L 384.746094 184.878906 L 384.746094 186.378906 M 383.246094 183.378906 L 383.246094 181.882812 L 384.746094 181.882812 L 384.746094 183.378906 M 383.246094 180.382812 L 383.246094 178.882812 L 384.746094 178.882812 L 384.746094 180.382812 M 383.246094 177.386719 L 383.246094 175.886719 L 384.746094 175.886719 L 384.746094 177.386719 M 383.246094 174.386719 L 383.246094 172.890625 L 384.746094 172.890625 L 384.746094 174.386719 M 383.246094 171.390625 L 383.246094 169.890625 L 384.746094 169.890625 L 384.746094 171.390625 M 383.246094 168.390625 L 383.246094 166.894531 L 384.746094 166.894531 L 384.746094 168.390625 M 383.246094 165.394531 L 383.246094 163.894531 L 384.746094 163.894531 L 384.746094 165.394531 M 383.246094 162.398438 L 383.246094 160.898438 L 384.746094 160.898438 L 384.746094 162.398438 " fill-opacity="1" fill-rule="nonzero"/><path stroke-linecap="round" transform="matrix(0, -0.749434, 0.749434, 0, 383.247272, 192.373966)" fill="none" stroke-linejoin="round" d="M 38.241046 -1.997872 L 42.24407 0.999183 L 38.241046 4.001451 " stroke="#545454" stroke-width="2" stroke-opacity="1" stroke-miterlimit="4"/></svg>