<svg xmlns="http://www.w3.org/2000/svg" xmlns:xlink="http://www.w3.org/1999/xlink" width="1024" zoomAndPan="magnify" viewBox="0 0 768 330.749987" height="441" preserveAspectRatio="xMidYMid meet" version="1.0"><defs><g/><clipPath id="b185914004"><path d="M 21.566406 137.585938 L 166 137.585938 L 166 192.914062 L 21.566406 192.914062 Z M 21.566406 137.585938 " clip-rule="nonzero"/></clipPath><clipPath id="c66bb1dd6b"><path d="M 27.714844 137.585938 L 159.828125 137.585938 C 161.457031 137.585938 163.019531 138.234375 164.175781 139.386719 C 165.328125 140.539062 165.972656 142.101562 165.972656 143.734375 L 165.972656 186.765625 C 165.972656 188.398438 165.328125 189.960938 164.175781 191.113281 C 163.019531 192.265625 161.457031 192.914062 159.828125 192.914062 L 27.714844 192.914062 C 26.085938 192.914062 24.519531 192.265625 23.367188 191.113281 C 22.214844 189.960938 21.566406 188.398438 21.566406 186.765625 L 21.566406 143.734375 C 21.566406 142.101562 22.214844 140.539062 23.367188 139.386719 C 24.519531 138.234375 26.085938 137.585938 27.714844 137.585938 Z M 27.714844 137.585938 " clip-rule="nonzero"/></clipPath><clipPath id="4734e09743"><path d="M 21.566406 137.585938 L 166 137.585938 L 166 193 L 21.566406 193 Z M 21.566406 137.585938 " clip-rule="nonzero"/></clipPath><clipPath id="7fa641e8cd"><path d="M 27.714844 137.585938 L 159.824219 137.585938 C 161.457031 137.585938 163.019531 138.234375 164.171875 139.386719 C 165.324219 140.539062 165.972656 142.101562 165.972656 143.734375 L 165.972656 186.765625 C 165.972656 188.398438 165.324219 189.960938 164.171875 191.113281 C 163.019531 192.265625 161.457031 192.914062 159.824219 192.914062 L 27.714844 192.914062 C 26.085938 192.914062 24.523438 192.265625 23.367188 191.113281 C 22.214844 189.960938 21.566406 188.398438 21.566406 186.765625 L 21.566406 143.734375 C 21.566406 142.101562 22.214844 140.539062 23.367188 139.386719 C 24.523438 138.234375 26.085938 137.585938 27.714844 137.585938 Z M 27.714844 137.585938 " clip-rule="nonzero"/></clipPath><clipPath id="f37aa722fc"><path d="M 335.972656 122.789062 L 431.902344 122.789062 L 431.902344 207.808594 L 335.972656 207.808594 Z M 335.972656 122.789062 " clip-rule="nonzero"/></clipPath><clipPath id="6792fdb8ab"><path d="M 602.027344 137.585938 L 746.617188 137.585938 L 746.617188 192.914062 L 602.027344 192.914062 Z M 602.027344 137.585938 " clip-rule="nonzero"/></clipPath><clipPath id="acdf46a017"><path d="M 608.171875 137.585938 L 740.285156 137.585938 C 741.914062 137.585938 743.480469 138.234375 744.632812 139.386719 C 745.785156 140.539062 746.433594 142.101562 746.433594 143.734375 L 746.433594 186.765625 C 746.433594 188.398438 745.785156 189.960938 744.632812 191.113281 C 743.480469 192.265625 741.914062 192.914062 740.285156 192.914062 L 608.171875 192.914062 C 606.542969 192.914062 604.980469 192.265625 603.824219 191.113281 C 602.671875 189.960938 602.027344 188.398438 602.027344 186.765625 L 602.027344 143.734375 C 602.027344 142.101562 602.671875 140.539062 603.824219 139.386719 C 604.980469 138.234375 606.542969 137.585938 608.171875 137.585938 Z M 608.171875 137.585938 " clip-rule="nonzero"/></clipPath><clipPath id="009dc8ff38"><path d="M 602.027344 137.585938 L 746.667969 137.585938 L 746.667969 193 L 602.027344 193 Z M 602.027344 137.585938 " clip-rule="nonzero"/></clipPath><clipPath id="8840d0065f"><path d="M 608.171875 137.585938 L 740.285156 137.585938 C 741.914062 137.585938 743.476562 138.234375 744.628906 139.386719 C 745.785156 140.539062 746.429688 142.101562 746.429688 143.734375 L 746.429688 186.765625 C 746.429688 188.398438 745.785156 189.960938 744.628906 191.113281 C 743.476562 192.265625 741.914062 192.914062 740.285156 192.914062 L 608.171875 192.914062 C 606.542969 192.914062 604.980469 192.265625 603.828125 191.113281 C 602.675781 189.960938 602.027344 188.398438 602.027344 186.765625 L 602.027344 143.734375 C 602.027344 142.101562 602.675781 140.539062 603.828125 139.386719 C 604.980469 138.234375 606.542969 137.585938 608.171875 137.585938 Z M 608.171875 137.585938 " clip-rule="nonzero"/></clipPath><clipPath id="e36a319d93"><path d="M 234.671875 126.585938 L 267.648438 126.585938 L 267.648438 159.5625 L 234.671875 159.5625 Z M 234.671875 126.585938 " clip-rule="nonzero"/></clipPath><clipPath id="c7e42dbe1c"><path d="M 500.769531 126.585938 L 533.746094 126.585938 L 533.746094 159.5625 L 500.769531 159.5625 Z M 500.769531 126.585938 " clip-rule="nonzero"/></clipPath><clipPath id="85c44b205a"><path d="M 262 23 L 613 23 L 613 127 L 262 127 Z M 262 23 " clip-rule="nonzero"/></clipPath><clipPath id="41082775c5"><path d="M 255.285156 109.988281 L 476.78125 -67.820312 L 625.035156 116.855469 L 403.539062 294.667969 Z M 255.285156 109.988281 " clip-rule="nonzero"/></clipPath><clipPath id="c5300a67c4"><path d="M 476.863281 -67.886719 L 255.371094 109.925781 L 403.621094 294.601562 L 625.117188 116.789062 Z M 476.863281 -67.886719 " clip-rule="nonzero"/></clipPath></defs><g clip-path="url(#b185914004)"><g clip-path="url(#c66bb1dd6b)"><path fill="#5ce1e6" d="M 21.566406 137.585938 L 165.945312 137.585938 L 165.945312 192.914062 L 21.566406 192.914062 Z M 21.566406 137.585938 " fill-opacity="1" fill-rule="nonzero"/></g></g><g clip-path="url(#4734e09743)"><g clip-path="url(#7fa641e8cd)"><path stroke-linecap="butt" transform="matrix(0.749433, 0, 0, 0.749433, 21.568218, 137.585007)" fill="none" stroke-linejoin="miter" d="M 8.201696 0.00124169 L 184.480685 0.00124169 C 186.659414 0.00124169 188.744322 0.866479 190.281942 2.404098 C 191.819562 3.941718 192.684799 6.026626 192.684799 8.205355 L 192.684799 65.623727 C 192.684799 67.802457 191.819562 69.887365 190.281942 71.424985 C 188.744322 72.962604 186.659414 73.827841 184.480685 73.827841 L 8.201696 73.827841 C 6.028179 73.827841 3.943271 72.962604 2.400439 71.424985 C 0.862819 69.887365 -0.00241756 67.802457 -0.00241756 65.623727 L -0.00241756 8.205355 C -0.00241756 6.026626 0.862819 3.941718 2.400439 2.404098 C 3.943271 0.866479 6.028179 0.00124169 8.201696 0.00124169 Z M 8.201696 0.00124169 " stroke="#000000" stroke-width="2" stroke-opacity="1" stroke-miterlimit="4"/></g></g><g fill="#000000" fill-opacity="1"><g transform="translate(56.638548, 170.56008)"><g><path d="M 6.046875 -11.703125 C 6.878906 -11.703125 7.59375 -11.546875 8.1875 -11.234375 C 8.78125 -10.929688 9.226562 -10.503906 9.53125 -9.953125 C 9.84375 -9.398438 10 -8.757812 10 -8.03125 C 10 -7.300781 9.84375 -6.660156 9.53125 -6.109375 C 9.226562 -5.554688 8.78125 -5.125 8.1875 -4.8125 C 7.59375 -4.507812 6.878906 -4.359375 6.046875 -4.359375 L 3.828125 -4.359375 L 3.828125 0 L 1.515625 0 L 1.515625 -11.703125 Z M 5.734375 -6.1875 C 7.023438 -6.1875 7.671875 -6.800781 7.671875 -8.03125 C 7.671875 -9.257812 7.023438 -9.875 5.734375 -9.875 L 3.828125 -9.875 L 3.828125 -6.1875 Z M 5.734375 -6.1875 "/></g></g></g><g fill="#000000" fill-opacity="1"><g transform="translate(67.32534, 170.56008)"><g><path d="M 1.265625 0 L 1.265625 -8.828125 L 3.421875 -8.828125 L 3.421875 -7.515625 L 3.59375 -7.484375 C 3.800781 -7.972656 4.078125 -8.332031 4.421875 -8.5625 C 4.773438 -8.789062 5.203125 -8.90625 5.703125 -8.90625 C 6.203125 -8.90625 6.582031 -8.820312 6.84375 -8.65625 L 6.46875 -6.734375 L 6.296875 -6.703125 C 6.148438 -6.765625 6.007812 -6.804688 5.875 -6.828125 C 5.75 -6.859375 5.585938 -6.875 5.390625 -6.875 C 4.773438 -6.875 4.300781 -6.65625 3.96875 -6.21875 C 3.644531 -5.78125 3.484375 -5.082031 3.484375 -4.125 L 3.484375 0 Z M 1.265625 0 "/></g></g></g><g fill="#000000" fill-opacity="1"><g transform="translate(74.244563, 170.56008)"><g><path d="M 5.125 0.171875 C 4.257812 0.171875 3.5 -0.00390625 2.84375 -0.359375 C 2.195312 -0.710938 1.691406 -1.234375 1.328125 -1.921875 C 0.972656 -2.609375 0.796875 -3.4375 0.796875 -4.40625 C 0.796875 -5.375 0.972656 -6.203125 1.328125 -6.890625 C 1.691406 -7.585938 2.195312 -8.113281 2.84375 -8.46875 C 3.5 -8.820312 4.257812 -9 5.125 -9 C 5.988281 -9 6.75 -8.820312 7.40625 -8.46875 C 8.0625 -8.113281 8.566406 -7.585938 8.921875 -6.890625 C 9.285156 -6.203125 9.46875 -5.375 9.46875 -4.40625 C 9.46875 -3.4375 9.285156 -2.609375 8.921875 -1.921875 C 8.566406 -1.234375 8.0625 -0.710938 7.40625 -0.359375 C 6.75 -0.00390625 5.988281 0.171875 5.125 0.171875 Z M 5.125 -1.71875 C 6.5 -1.71875 7.1875 -2.613281 7.1875 -4.40625 C 7.1875 -5.34375 7.007812 -6.023438 6.65625 -6.453125 C 6.300781 -6.890625 5.789062 -7.109375 5.125 -7.109375 C 3.757812 -7.109375 3.078125 -6.207031 3.078125 -4.40625 C 3.078125 -2.613281 3.757812 -1.71875 5.125 -1.71875 Z M 5.125 -1.71875 "/></g></g></g><g fill="#000000" fill-opacity="1"><g transform="translate(84.499403, 170.56008)"><g><path d="M 4.359375 0.171875 C 3.660156 0.171875 3.039062 0.00390625 2.5 -0.328125 C 1.96875 -0.671875 1.550781 -1.1875 1.25 -1.875 C 0.945312 -2.5625 0.796875 -3.40625 0.796875 -4.40625 C 0.796875 -5.414062 0.953125 -6.265625 1.265625 -6.953125 C 1.578125 -7.640625 2.007812 -8.148438 2.5625 -8.484375 C 3.113281 -8.828125 3.75 -9 4.46875 -9 C 5.019531 -9 5.492188 -8.898438 5.890625 -8.703125 C 6.296875 -8.515625 6.640625 -8.222656 6.921875 -7.828125 L 7.09375 -7.859375 L 7.09375 -12.375 L 9.3125 -12.375 L 9.3125 0 L 7.09375 0 L 7.09375 -1.140625 L 6.921875 -1.171875 C 6.671875 -0.753906 6.332031 -0.425781 5.90625 -0.1875 C 5.488281 0.0507812 4.972656 0.171875 4.359375 0.171875 Z M 5.078125 -1.71875 C 5.703125 -1.71875 6.195312 -1.9375 6.5625 -2.375 C 6.925781 -2.820312 7.109375 -3.5 7.109375 -4.40625 C 7.109375 -5.3125 6.925781 -5.988281 6.5625 -6.4375 C 6.195312 -6.882812 5.703125 -7.109375 5.078125 -7.109375 C 4.429688 -7.109375 3.9375 -6.890625 3.59375 -6.453125 C 3.25 -6.023438 3.078125 -5.34375 3.078125 -4.40625 C 3.078125 -3.476562 3.25 -2.796875 3.59375 -2.359375 C 3.9375 -1.929688 4.429688 -1.71875 5.078125 -1.71875 Z M 5.078125 -1.71875 "/></g></g></g><g fill="#000000" fill-opacity="1"><g transform="translate(95.074208, 170.56008)"><g><path d="M 4.046875 0.171875 C 3.046875 0.171875 2.3125 -0.0976562 1.84375 -0.640625 C 1.375 -1.179688 1.140625 -1.960938 1.140625 -2.984375 L 1.140625 -8.828125 L 3.359375 -8.828125 L 3.359375 -3.25 C 3.359375 -2.71875 3.472656 -2.328125 3.703125 -2.078125 C 3.929688 -1.828125 4.289062 -1.703125 4.78125 -1.703125 C 5.394531 -1.703125 5.867188 -1.898438 6.203125 -2.296875 C 6.546875 -2.703125 6.71875 -3.335938 6.71875 -4.203125 L 6.71875 -8.828125 L 8.9375 -8.828125 L 8.9375 0 L 6.8125 0 L 6.8125 -1.296875 L 6.640625 -1.34375 C 6.359375 -0.832031 6.015625 -0.453125 5.609375 -0.203125 C 5.203125 0.046875 4.679688 0.171875 4.046875 0.171875 Z M 4.046875 0.171875 "/></g></g></g><g fill="#000000" fill-opacity="1"><g transform="translate(105.281053, 170.56008)"><g><path d="M 5.140625 0.171875 C 4.285156 0.171875 3.53125 -0.00390625 2.875 -0.359375 C 2.21875 -0.710938 1.707031 -1.234375 1.34375 -1.921875 C 0.976562 -2.617188 0.796875 -3.445312 0.796875 -4.40625 C 0.796875 -5.375 0.976562 -6.203125 1.34375 -6.890625 C 1.707031 -7.585938 2.210938 -8.113281 2.859375 -8.46875 C 3.515625 -8.820312 4.265625 -9 5.109375 -9 C 6.972656 -9 8.164062 -8.320312 8.6875 -6.96875 L 7.15625 -5.875 L 7 -5.875 C 6.8125 -6.289062 6.570312 -6.597656 6.28125 -6.796875 C 5.988281 -7.003906 5.597656 -7.109375 5.109375 -7.109375 C 4.460938 -7.109375 3.960938 -6.882812 3.609375 -6.4375 C 3.253906 -6 3.078125 -5.320312 3.078125 -4.40625 C 3.078125 -3.5 3.253906 -2.820312 3.609375 -2.375 C 3.972656 -1.9375 4.484375 -1.71875 5.140625 -1.71875 C 5.617188 -1.71875 6.023438 -1.84375 6.359375 -2.09375 C 6.691406 -2.351562 6.929688 -2.726562 7.078125 -3.21875 L 7.25 -3.234375 L 8.828125 -2.375 C 8.597656 -1.625 8.179688 -1.007812 7.578125 -0.53125 C 6.972656 -0.0625 6.160156 0.171875 5.140625 0.171875 Z M 5.140625 0.171875 "/></g></g></g><g fill="#000000" fill-opacity="1"><g transform="translate(114.37603, 170.56008)"><g><path d="M 8.71875 -3.90625 L 3.046875 -3.90625 C 3.109375 -3.144531 3.328125 -2.585938 3.703125 -2.234375 C 4.078125 -1.890625 4.585938 -1.71875 5.234375 -1.71875 C 5.742188 -1.71875 6.15625 -1.8125 6.46875 -2 C 6.78125 -2.1875 7.035156 -2.472656 7.234375 -2.859375 L 7.390625 -2.859375 L 8.875 -1.90625 C 8.582031 -1.289062 8.144531 -0.789062 7.5625 -0.40625 C 6.976562 -0.0195312 6.203125 0.171875 5.234375 0.171875 C 4.316406 0.171875 3.523438 0 2.859375 -0.34375 C 2.203125 -0.695312 1.691406 -1.210938 1.328125 -1.890625 C 0.972656 -2.578125 0.796875 -3.414062 0.796875 -4.40625 C 0.796875 -5.414062 0.984375 -6.265625 1.359375 -6.953125 C 1.734375 -7.640625 2.242188 -8.148438 2.890625 -8.484375 C 3.535156 -8.828125 4.265625 -9 5.078125 -9 C 6.328125 -9 7.28125 -8.664062 7.9375 -8 C 8.601562 -7.34375 8.9375 -6.375 8.9375 -5.09375 C 8.9375 -4.625 8.921875 -4.265625 8.890625 -4.015625 Z M 6.8125 -5.34375 C 6.789062 -6.019531 6.632812 -6.507812 6.34375 -6.8125 C 6.0625 -7.125 5.640625 -7.28125 5.078125 -7.28125 C 3.953125 -7.28125 3.289062 -6.632812 3.09375 -5.34375 Z M 6.8125 -5.34375 "/></g></g></g><g fill="#000000" fill-opacity="1"><g transform="translate(123.966951, 170.56008)"><g><path d="M 1.265625 0 L 1.265625 -8.828125 L 3.421875 -8.828125 L 3.421875 -7.515625 L 3.59375 -7.484375 C 3.800781 -7.972656 4.078125 -8.332031 4.421875 -8.5625 C 4.773438 -8.789062 5.203125 -8.90625 5.703125 -8.90625 C 6.203125 -8.90625 6.582031 -8.820312 6.84375 -8.65625 L 6.46875 -6.734375 L 6.296875 -6.703125 C 6.148438 -6.765625 6.007812 -6.804688 5.875 -6.828125 C 5.75 -6.859375 5.585938 -6.875 5.390625 -6.875 C 4.773438 -6.875 4.300781 -6.65625 3.96875 -6.21875 C 3.644531 -5.78125 3.484375 -5.082031 3.484375 -4.125 L 3.484375 0 Z M 1.265625 0 "/></g></g></g><g clip-path="url(#f37aa722fc)"><path fill="#5271ff" d="M 417.914062 182.367188 L 417.914062 199.335938 L 350.078125 199.335938 L 350.078125 182.367188 L 341.59375 182.367188 L 341.59375 207.808594 L 426.398438 207.808594 L 426.398438 182.367188 Z M 410.078125 122.789062 L 396.292969 122.789062 L 396.292969 192.761719 L 410.078125 192.761719 Z M 415.585938 148.234375 L 415.585938 169.441406 L 432.019531 158.832031 Z M 390.671875 122.789062 L 376.894531 122.789062 L 376.894531 192.761719 L 390.671875 192.761719 Z M 371.375 122.789062 L 357.597656 122.789062 L 357.597656 192.761719 L 371.375 192.761719 Z M 352.40625 158.832031 L 335.972656 169.441406 L 335.972656 148.234375 Z M 352.40625 158.832031 " fill-opacity="1" fill-rule="nonzero"/></g><g clip-path="url(#6792fdb8ab)"><g clip-path="url(#acdf46a017)"><path fill="#00bf63" d="M 602.027344 137.585938 L 746.402344 137.585938 L 746.402344 192.914062 L 602.027344 192.914062 Z M 602.027344 137.585938 " fill-opacity="1" fill-rule="nonzero"/></g></g><g clip-path="url(#009dc8ff38)"><g clip-path="url(#8840d0065f)"><path stroke-linecap="butt" transform="matrix(0.749433, 0, 0, 0.749433, 602.026225, 137.585007)" fill="none" stroke-linejoin="miter" d="M 8.200394 0.00124169 L 184.484595 0.00124169 C 186.658112 0.00124169 188.74302 0.866479 190.28064 2.404098 C 191.823472 3.941718 192.683496 6.026626 192.683496 8.205355 L 192.683496 65.623727 C 192.683496 67.802457 191.823472 69.887365 190.28064 71.424985 C 188.74302 72.962604 186.658112 73.827841 184.484595 73.827841 L 8.200394 73.827841 C 6.026877 73.827841 3.941969 72.962604 2.404349 71.424985 C 0.866729 69.887365 0.00149214 67.802457 0.00149214 65.623727 L 0.00149214 8.205355 C 0.00149214 6.026626 0.866729 3.941718 2.404349 2.404098 C 3.941969 0.866479 6.026877 0.00124169 8.200394 0.00124169 Z M 8.200394 0.00124169 " stroke="#000000" stroke-width="2" stroke-opacity="1" stroke-miterlimit="4"/></g></g><g fill="#000000" fill-opacity="1"><g transform="translate(633.138609, 170.56008)"><g><path d="M 6.390625 0.171875 C 5.316406 0.171875 4.367188 -0.0507812 3.546875 -0.5 C 2.722656 -0.945312 2.078125 -1.617188 1.609375 -2.515625 C 1.148438 -3.421875 0.921875 -4.53125 0.921875 -5.84375 C 0.921875 -7.164062 1.148438 -8.273438 1.609375 -9.171875 C 2.078125 -10.078125 2.722656 -10.753906 3.546875 -11.203125 C 4.367188 -11.648438 5.316406 -11.875 6.390625 -11.875 C 7.515625 -11.875 8.46875 -11.648438 9.25 -11.203125 C 10.039062 -10.765625 10.609375 -10.097656 10.953125 -9.203125 L 9.265625 -8.15625 L 9.0625 -8.171875 C 8.8125 -8.773438 8.46875 -9.207031 8.03125 -9.46875 C 7.601562 -9.738281 7.054688 -9.875 6.390625 -9.875 C 5.421875 -9.875 4.664062 -9.550781 4.125 -8.90625 C 3.582031 -8.269531 3.3125 -7.25 3.3125 -5.84375 C 3.3125 -4.457031 3.582031 -3.441406 4.125 -2.796875 C 4.664062 -2.148438 5.421875 -1.828125 6.390625 -1.828125 C 7.910156 -1.828125 8.84375 -2.566406 9.1875 -4.046875 L 9.390625 -4.046875 L 11.09375 -3.15625 C 10.769531 -2.050781 10.222656 -1.21875 9.453125 -0.65625 C 8.679688 -0.101562 7.660156 0.171875 6.390625 0.171875 Z M 6.390625 0.171875 "/></g></g></g><g fill="#000000" fill-opacity="1"><g transform="translate(644.609312, 170.56008)"><g><path d="M 5.125 0.171875 C 4.257812 0.171875 3.5 -0.00390625 2.84375 -0.359375 C 2.195312 -0.710938 1.691406 -1.234375 1.328125 -1.921875 C 0.972656 -2.609375 0.796875 -3.4375 0.796875 -4.40625 C 0.796875 -5.375 0.972656 -6.203125 1.328125 -6.890625 C 1.691406 -7.585938 2.195312 -8.113281 2.84375 -8.46875 C 3.5 -8.820312 4.257812 -9 5.125 -9 C 5.988281 -9 6.75 -8.820312 7.40625 -8.46875 C 8.0625 -8.113281 8.566406 -7.585938 8.921875 -6.890625 C 9.285156 -6.203125 9.46875 -5.375 9.46875 -4.40625 C 9.46875 -3.4375 9.285156 -2.609375 8.921875 -1.921875 C 8.566406 -1.234375 8.0625 -0.710938 7.40625 -0.359375 C 6.75 -0.00390625 5.988281 0.171875 5.125 0.171875 Z M 5.125 -1.71875 C 6.5 -1.71875 7.1875 -2.613281 7.1875 -4.40625 C 7.1875 -5.34375 7.007812 -6.023438 6.65625 -6.453125 C 6.300781 -6.890625 5.789062 -7.109375 5.125 -7.109375 C 3.757812 -7.109375 3.078125 -6.207031 3.078125 -4.40625 C 3.078125 -2.613281 3.757812 -1.71875 5.125 -1.71875 Z M 5.125 -1.71875 "/></g></g></g><g fill="#000000" fill-opacity="1"><g transform="translate(654.864152, 170.56008)"><g><path d="M 1.265625 0 L 1.265625 -8.828125 L 3.40625 -8.828125 L 3.40625 -7.53125 L 3.5625 -7.484375 C 4.113281 -8.492188 5.007812 -9 6.25 -9 C 7.257812 -9 8.003906 -8.71875 8.484375 -8.15625 C 8.960938 -7.601562 9.203125 -6.796875 9.203125 -5.734375 L 9.203125 0 L 6.984375 0 L 6.984375 -5.46875 C 6.984375 -6.050781 6.863281 -6.472656 6.625 -6.734375 C 6.394531 -6.992188 6.019531 -7.125 5.5 -7.125 C 4.863281 -7.125 4.367188 -6.914062 4.015625 -6.5 C 3.660156 -6.09375 3.484375 -5.445312 3.484375 -4.5625 L 3.484375 0 Z M 1.265625 0 "/></g></g></g><g fill="#000000" fill-opacity="1"><g transform="translate(665.198983, 170.56008)"><g><path d="M 4.125 0.171875 C 3.519531 0.171875 2.96875 0.101562 2.46875 -0.03125 C 1.96875 -0.175781 1.539062 -0.375 1.1875 -0.625 C 0.832031 -0.875 0.570312 -1.160156 0.40625 -1.484375 L 1.625 -2.8125 L 1.796875 -2.8125 C 2.085938 -2.414062 2.429688 -2.117188 2.828125 -1.921875 C 3.234375 -1.722656 3.671875 -1.625 4.140625 -1.625 C 4.578125 -1.625 4.90625 -1.703125 5.125 -1.859375 C 5.34375 -2.015625 5.453125 -2.234375 5.453125 -2.515625 C 5.453125 -2.742188 5.375 -2.929688 5.21875 -3.078125 C 5.0625 -3.234375 4.804688 -3.351562 4.453125 -3.4375 L 3.28125 -3.71875 C 2.40625 -3.925781 1.765625 -4.242188 1.359375 -4.671875 C 0.960938 -5.109375 0.765625 -5.65625 0.765625 -6.3125 C 0.765625 -6.863281 0.898438 -7.34375 1.171875 -7.75 C 1.453125 -8.15625 1.847656 -8.460938 2.359375 -8.671875 C 2.867188 -8.890625 3.460938 -9 4.140625 -9 C 4.941406 -9 5.601562 -8.882812 6.125 -8.65625 C 6.644531 -8.425781 7.050781 -8.117188 7.34375 -7.734375 L 6.15625 -6.453125 L 6 -6.453125 C 5.757812 -6.722656 5.484375 -6.921875 5.171875 -7.046875 C 4.867188 -7.179688 4.523438 -7.25 4.140625 -7.25 C 3.265625 -7.25 2.828125 -6.976562 2.828125 -6.4375 C 2.828125 -6.207031 2.910156 -6.019531 3.078125 -5.875 C 3.242188 -5.726562 3.53125 -5.609375 3.9375 -5.515625 L 5.03125 -5.28125 C 5.925781 -5.09375 6.578125 -4.785156 6.984375 -4.359375 C 7.398438 -3.929688 7.609375 -3.363281 7.609375 -2.65625 C 7.609375 -2.09375 7.46875 -1.597656 7.1875 -1.171875 C 6.914062 -0.742188 6.515625 -0.410156 5.984375 -0.171875 C 5.460938 0.0546875 4.84375 0.171875 4.125 0.171875 Z M 4.125 0.171875 "/></g></g></g><g fill="#000000" fill-opacity="1"><g transform="translate(673.334069, 170.56008)"><g><path d="M 4.046875 0.171875 C 3.046875 0.171875 2.3125 -0.0976562 1.84375 -0.640625 C 1.375 -1.179688 1.140625 -1.960938 1.140625 -2.984375 L 1.140625 -8.828125 L 3.359375 -8.828125 L 3.359375 -3.25 C 3.359375 -2.71875 3.472656 -2.328125 3.703125 -2.078125 C 3.929688 -1.828125 4.289062 -1.703125 4.78125 -1.703125 C 5.394531 -1.703125 5.867188 -1.898438 6.203125 -2.296875 C 6.546875 -2.703125 6.71875 -3.335938 6.71875 -4.203125 L 6.71875 -8.828125 L 8.9375 -8.828125 L 8.9375 0 L 6.8125 0 L 6.8125 -1.296875 L 6.640625 -1.34375 C 6.359375 -0.832031 6.015625 -0.453125 5.609375 -0.203125 C 5.203125 0.046875 4.679688 0.171875 4.046875 0.171875 Z M 4.046875 0.171875 "/></g></g></g><g fill="#000000" fill-opacity="1"><g transform="translate(683.540915, 170.56008)"><g><path d="M 1.265625 0 L 1.265625 -8.828125 L 3.40625 -8.828125 L 3.40625 -7.640625 L 3.5625 -7.609375 C 3.851562 -8.085938 4.191406 -8.4375 4.578125 -8.65625 C 4.960938 -8.882812 5.457031 -9 6.0625 -9 C 6.726562 -9 7.265625 -8.863281 7.671875 -8.59375 C 8.078125 -8.332031 8.375 -7.945312 8.5625 -7.4375 L 8.734375 -7.4375 C 9.003906 -7.96875 9.351562 -8.359375 9.78125 -8.609375 C 10.207031 -8.867188 10.742188 -9 11.390625 -9 C 13.222656 -9 14.140625 -7.976562 14.140625 -5.9375 L 14.140625 0 L 11.921875 0 L 11.921875 -5.65625 C 11.921875 -6.175781 11.816406 -6.550781 11.609375 -6.78125 C 11.410156 -7.007812 11.085938 -7.125 10.640625 -7.125 C 9.421875 -7.125 8.8125 -6.3125 8.8125 -4.6875 L 8.8125 0 L 6.59375 0 L 6.59375 -5.65625 C 6.59375 -6.175781 6.488281 -6.550781 6.28125 -6.78125 C 6.082031 -7.007812 5.757812 -7.125 5.3125 -7.125 C 4.738281 -7.125 4.289062 -6.929688 3.96875 -6.546875 C 3.644531 -6.171875 3.484375 -5.566406 3.484375 -4.734375 L 3.484375 0 Z M 1.265625 0 "/></g></g></g><g fill="#000000" fill-opacity="1"><g transform="translate(698.803189, 170.56008)"><g><path d="M 8.71875 -3.90625 L 3.046875 -3.90625 C 3.109375 -3.144531 3.328125 -2.585938 3.703125 -2.234375 C 4.078125 -1.890625 4.585938 -1.71875 5.234375 -1.71875 C 5.742188 -1.71875 6.15625 -1.8125 6.46875 -2 C 6.78125 -2.1875 7.035156 -2.472656 7.234375 -2.859375 L 7.390625 -2.859375 L 8.875 -1.90625 C 8.582031 -1.289062 8.144531 -0.789062 7.5625 -0.40625 C 6.976562 -0.0195312 6.203125 0.171875 5.234375 0.171875 C 4.316406 0.171875 3.523438 0 2.859375 -0.34375 C 2.203125 -0.695312 1.691406 -1.210938 1.328125 -1.890625 C 0.972656 -2.578125 0.796875 -3.414062 0.796875 -4.40625 C 0.796875 -5.414062 0.984375 -6.265625 1.359375 -6.953125 C 1.734375 -7.640625 2.242188 -8.148438 2.890625 -8.484375 C 3.535156 -8.828125 4.265625 -9 5.078125 -9 C 6.328125 -9 7.28125 -8.664062 7.9375 -8 C 8.601562 -7.34375 8.9375 -6.375 8.9375 -5.09375 C 8.9375 -4.625 8.921875 -4.265625 8.890625 -4.015625 Z M 6.8125 -5.34375 C 6.789062 -6.019531 6.632812 -6.507812 6.34375 -6.8125 C 6.0625 -7.125 5.640625 -7.28125 5.078125 -7.28125 C 3.953125 -7.28125 3.289062 -6.632812 3.09375 -5.34375 Z M 6.8125 -5.34375 "/></g></g></g><g fill="#000000" fill-opacity="1"><g transform="translate(708.39411, 170.56008)"><g><path d="M 1.265625 0 L 1.265625 -8.828125 L 3.421875 -8.828125 L 3.421875 -7.515625 L 3.59375 -7.484375 C 3.800781 -7.972656 4.078125 -8.332031 4.421875 -8.5625 C 4.773438 -8.789062 5.203125 -8.90625 5.703125 -8.90625 C 6.203125 -8.90625 6.582031 -8.820312 6.84375 -8.65625 L 6.46875 -6.734375 L 6.296875 -6.703125 C 6.148438 -6.765625 6.007812 -6.804688 5.875 -6.828125 C 5.75 -6.859375 5.585938 -6.875 5.390625 -6.875 C 4.773438 -6.875 4.300781 -6.65625 3.96875 -6.21875 C 3.644531 -5.78125 3.484375 -5.082031 3.484375 -4.125 L 3.484375 0 Z M 1.265625 0 "/></g></g></g><path fill="#545454" d="M 165.972656 163.75 L 174.96875 163.75 L 174.96875 166.75 L 165.972656 166.75 M 177.964844 163.75 L 186.957031 163.75 L 186.957031 166.75 L 177.964844 166.75 M 189.957031 163.75 L 198.949219 163.75 L 198.949219 166.75 L 189.957031 166.75 M 201.949219 163.75 L 210.941406 163.75 L 210.941406 166.75 L 201.949219 166.75 M 213.9375 163.75 L 222.929688 163.75 L 222.929688 166.75 L 213.9375 166.75 M 225.929688 163.75 L 234.921875 163.75 L 234.921875 166.75 L 225.929688 166.75 M 237.921875 163.75 L 246.914062 163.75 L 246.914062 166.75 L 237.921875 166.75 M 249.910156 163.75 L 258.90625 163.75 L 258.90625 166.75 L 249.910156 166.75 M 261.902344 163.75 L 270.894531 163.75 L 270.894531 166.75 L 261.902344 166.75 M 273.894531 163.75 L 282.886719 163.75 L 282.886719 166.75 L 273.894531 166.75 M 285.882812 163.75 L 294.878906 163.75 L 294.878906 166.75 L 285.882812 166.75 M 297.875 163.75 L 306.867188 163.75 L 306.867188 166.75 L 297.875 166.75 M 309.867188 163.75 L 318.859375 163.75 L 318.859375 166.75 L 309.867188 166.75 M 321.855469 163.75 L 330.851562 163.75 L 330.851562 166.75 L 321.855469 166.75 M 333.847656 163.75 L 334.476562 163.75 L 334.476562 166.75 L 333.847656 166.75 " fill-opacity="1" fill-rule="nonzero"/><path stroke-linecap="round" transform="matrix(0.749433, 0, 0, 0.749433, 165.974548, 163.751214)" fill="none" stroke-linejoin="round" d="M 216.838353 -3.999431 L 224.839189 1.999892 L 216.838353 7.999215 " stroke="#545454" stroke-width="4" stroke-opacity="1" stroke-miterlimit="4"/><path fill="#545454" d="M 432.027344 163.75 L 441.019531 163.75 L 441.019531 166.75 L 432.027344 166.75 M 444.015625 163.75 L 453.011719 163.75 L 453.011719 166.75 L 444.015625 166.75 M 456.007812 163.75 L 465 163.75 L 465 166.75 L 456.007812 166.75 M 468 163.75 L 476.992188 163.75 L 476.992188 166.75 L 468 166.75 M 479.988281 163.75 L 488.984375 163.75 L 488.984375 166.75 L 479.988281 166.75 M 491.980469 163.75 L 500.972656 163.75 L 500.972656 166.75 L 491.980469 166.75 M 503.972656 163.75 L 512.964844 163.75 L 512.964844 166.75 L 503.972656 166.75 M 515.964844 163.75 L 524.957031 163.75 L 524.957031 166.75 L 515.964844 166.75 M 527.953125 163.75 L 536.945312 163.75 L 536.945312 166.75 L 527.953125 166.75 M 539.945312 163.75 L 548.9375 163.75 L 548.9375 166.75 L 539.945312 166.75 M 551.9375 163.75 L 560.929688 163.75 L 560.929688 166.75 L 551.9375 166.75 M 563.925781 163.75 L 572.917969 163.75 L 572.917969 166.75 L 563.925781 166.75 M 575.917969 163.75 L 584.910156 163.75 L 584.910156 166.75 L 575.917969 166.75 M 587.910156 163.75 L 596.902344 163.75 L 596.902344 166.75 L 587.910156 166.75 M 599.898438 163.75 L 600.527344 163.75 L 600.527344 166.75 L 599.898438 166.75 " fill-opacity="1" fill-rule="nonzero"/><path stroke-linecap="round" transform="matrix(0.749433, 0, 0, 0.749433, 432.026343, 163.751214)" fill="none" stroke-linejoin="round" d="M 216.837001 -3.999431 L 224.837836 1.999892 L 216.837001 7.999215 " stroke="#545454" stroke-width="4" stroke-opacity="1" stroke-miterlimit="4"/><g clip-path="url(#e36a319d93)"><path fill="#00bf63" d="M 250.972656 126.585938 C 250.441406 126.585938 249.90625 126.613281 249.375 126.664062 C 248.84375 126.71875 248.316406 126.796875 247.792969 126.898438 C 247.269531 127.003906 246.753906 127.132812 246.242188 127.289062 C 245.730469 127.445312 245.230469 127.625 244.734375 127.828125 C 244.242188 128.03125 243.761719 128.257812 243.289062 128.511719 C 242.820312 128.761719 242.363281 129.039062 241.917969 129.332031 C 241.472656 129.628906 241.046875 129.949219 240.632812 130.285156 C 240.21875 130.625 239.824219 130.984375 239.449219 131.359375 C 239.070312 131.738281 238.710938 132.132812 238.375 132.546875 C 238.035156 132.957031 237.71875 133.386719 237.421875 133.832031 C 237.125 134.273438 236.851562 134.730469 236.597656 135.203125 C 236.347656 135.671875 236.117188 136.15625 235.914062 136.648438 C 235.710938 137.140625 235.53125 137.644531 235.375 138.15625 C 235.21875 138.664062 235.089844 139.183594 234.988281 139.707031 C 234.882812 140.230469 234.804688 140.757812 234.753906 141.289062 C 234.699219 141.820312 234.671875 142.351562 234.671875 142.886719 C 234.671875 143.421875 234.699219 143.953125 234.753906 144.484375 C 234.804688 145.015625 234.882812 145.542969 234.988281 146.066406 C 235.089844 146.589844 235.21875 147.109375 235.375 147.617188 C 235.53125 148.128906 235.710938 148.632812 235.914062 149.125 C 236.117188 149.617188 236.347656 150.101562 236.597656 150.570312 C 236.851562 151.042969 237.125 151.5 237.421875 151.941406 C 237.71875 152.386719 238.035156 152.816406 238.375 153.226562 C 238.710938 153.640625 239.070312 154.035156 239.449219 154.414062 C 239.824219 154.789062 240.21875 155.148438 240.632812 155.488281 C 241.046875 155.824219 241.472656 156.144531 241.917969 156.441406 C 242.363281 156.738281 242.820312 157.011719 243.289062 157.261719 C 243.761719 157.515625 244.242188 157.742188 244.734375 157.945312 C 245.230469 158.152344 245.730469 158.332031 246.242188 158.484375 C 246.753906 158.640625 247.269531 158.769531 247.792969 158.875 C 248.316406 158.976562 248.84375 159.054688 249.375 159.109375 C 249.90625 159.160156 250.441406 159.1875 250.972656 159.1875 C 251.507812 159.1875 252.039062 159.160156 252.570312 159.109375 C 253.101562 159.054688 253.628906 158.976562 254.152344 158.875 C 254.675781 158.769531 255.195312 158.640625 255.707031 158.484375 C 256.214844 158.332031 256.71875 158.152344 257.210938 157.945312 C 257.703125 157.742188 258.1875 157.515625 258.65625 157.261719 C 259.128906 157.011719 259.585938 156.738281 260.03125 156.441406 C 260.472656 156.144531 260.902344 155.824219 261.316406 155.488281 C 261.726562 155.148438 262.121094 154.789062 262.5 154.414062 C 262.878906 154.035156 263.234375 153.640625 263.574219 153.226562 C 263.914062 152.816406 264.230469 152.386719 264.527344 151.941406 C 264.824219 151.5 265.097656 151.042969 265.347656 150.570312 C 265.601562 150.101562 265.828125 149.617188 266.03125 149.125 C 266.238281 148.632812 266.417969 148.128906 266.570312 147.617188 C 266.726562 147.109375 266.855469 146.589844 266.960938 146.066406 C 267.066406 145.542969 267.144531 145.015625 267.195312 144.484375 C 267.246094 143.953125 267.273438 143.421875 267.273438 142.886719 C 267.273438 142.351562 267.246094 141.820312 267.195312 141.289062 C 267.144531 140.757812 267.066406 140.230469 266.960938 139.707031 C 266.855469 139.183594 266.726562 138.667969 266.570312 138.15625 C 266.417969 137.644531 266.238281 137.140625 266.03125 136.648438 C 265.828125 136.15625 265.601562 135.675781 265.347656 135.203125 C 265.097656 134.734375 264.824219 134.273438 264.527344 133.832031 C 264.230469 133.386719 263.910156 132.960938 263.574219 132.546875 C 263.234375 132.132812 262.875 131.738281 262.5 131.363281 C 262.121094 130.984375 261.726562 130.625 261.3125 130.289062 C 260.902344 129.949219 260.472656 129.632812 260.027344 129.335938 C 259.585938 129.039062 259.128906 128.761719 258.65625 128.511719 C 258.1875 128.261719 257.703125 128.03125 257.210938 127.828125 C 256.71875 127.625 256.214844 127.445312 255.707031 127.289062 C 255.195312 127.132812 254.675781 127.003906 254.152344 126.898438 C 253.628906 126.796875 253.101562 126.71875 252.570312 126.664062 C 252.039062 126.613281 251.507812 126.585938 250.972656 126.585938 Z M 243.464844 134.84375 L 258.480469 134.84375 C 258.800781 134.84375 259.113281 134.898438 259.414062 135.011719 C 259.714844 135.121094 259.984375 135.28125 260.230469 135.492188 C 260.472656 135.699219 260.671875 135.945312 260.824219 136.226562 C 260.980469 136.503906 261.082031 136.804688 261.128906 137.121094 C 260.917969 137.238281 252.664062 141.996094 252.121094 142.304688 C 251.765625 142.507812 251.382812 142.609375 250.972656 142.609375 C 250.566406 142.609375 250.183594 142.507812 249.828125 142.304688 C 249.292969 142 241.019531 137.289062 240.816406 137.160156 C 240.859375 136.839844 240.957031 136.539062 241.109375 136.253906 C 241.265625 135.96875 241.460938 135.71875 241.707031 135.503906 C 241.949219 135.292969 242.222656 135.128906 242.527344 135.015625 C 242.828125 134.902344 243.140625 134.84375 243.464844 134.84375 Z M 261.160156 148.25 C 261.160156 148.605469 261.09375 148.949219 260.957031 149.277344 C 260.820312 149.601562 260.625 149.894531 260.375 150.144531 C 260.125 150.394531 259.835938 150.589844 259.507812 150.726562 C 259.179688 150.859375 258.835938 150.929688 258.480469 150.929688 L 243.464844 150.929688 C 243.109375 150.929688 242.769531 150.859375 242.441406 150.726562 C 242.113281 150.589844 241.824219 150.394531 241.570312 150.144531 C 241.320312 149.894531 241.128906 149.601562 240.992188 149.277344 C 240.855469 148.949219 240.785156 148.605469 240.785156 148.25 L 240.785156 138.378906 L 249.304688 143.238281 C 249.820312 143.535156 250.378906 143.679688 250.976562 143.679688 C 251.574219 143.679688 252.132812 143.535156 252.648438 143.238281 L 261.160156 138.339844 Z M 261.160156 148.25 " fill-opacity="1" fill-rule="nonzero"/></g><g clip-path="url(#c7e42dbe1c)"><path fill="#00bf63" d="M 517.070312 126.585938 C 516.535156 126.585938 516.003906 126.613281 515.472656 126.664062 C 514.941406 126.71875 514.414062 126.796875 513.890625 126.898438 C 513.367188 127.003906 512.847656 127.132812 512.339844 127.289062 C 511.828125 127.445312 511.324219 127.625 510.832031 127.828125 C 510.339844 128.03125 509.855469 128.257812 509.386719 128.511719 C 508.914062 128.761719 508.457031 129.039062 508.015625 129.332031 C 507.570312 129.628906 507.140625 129.949219 506.730469 130.285156 C 506.316406 130.625 505.921875 130.984375 505.542969 131.359375 C 505.167969 131.738281 504.808594 132.132812 504.46875 132.546875 C 504.132812 132.957031 503.8125 133.386719 503.515625 133.832031 C 503.21875 134.273438 502.945312 134.730469 502.695312 135.203125 C 502.441406 135.671875 502.214844 136.15625 502.011719 136.648438 C 501.808594 137.140625 501.628906 137.644531 501.472656 138.15625 C 501.316406 138.664062 501.1875 139.183594 501.082031 139.707031 C 500.980469 140.230469 500.902344 140.757812 500.847656 141.289062 C 500.796875 141.820312 500.769531 142.351562 500.769531 142.886719 C 500.769531 143.421875 500.796875 143.953125 500.847656 144.484375 C 500.902344 145.015625 500.980469 145.542969 501.082031 146.066406 C 501.1875 146.589844 501.316406 147.109375 501.472656 147.617188 C 501.628906 148.128906 501.808594 148.632812 502.011719 149.125 C 502.214844 149.617188 502.441406 150.101562 502.695312 150.570312 C 502.945312 151.042969 503.21875 151.5 503.515625 151.941406 C 503.8125 152.386719 504.132812 152.816406 504.46875 153.226562 C 504.808594 153.640625 505.167969 154.035156 505.542969 154.414062 C 505.921875 154.789062 506.316406 155.148438 506.730469 155.488281 C 507.140625 155.824219 507.570312 156.144531 508.015625 156.441406 C 508.457031 156.738281 508.914062 157.011719 509.386719 157.261719 C 509.855469 157.515625 510.339844 157.742188 510.832031 157.945312 C 511.324219 158.152344 511.828125 158.332031 512.339844 158.484375 C 512.847656 158.640625 513.367188 158.769531 513.890625 158.875 C 514.414062 158.976562 514.941406 159.054688 515.472656 159.109375 C 516.003906 159.160156 516.535156 159.1875 517.070312 159.1875 C 517.605469 159.1875 518.136719 159.160156 518.667969 159.109375 C 519.199219 159.054688 519.726562 158.976562 520.25 158.875 C 520.773438 158.769531 521.292969 158.640625 521.800781 158.484375 C 522.3125 158.332031 522.816406 158.152344 523.308594 157.945312 C 523.800781 157.742188 524.285156 157.515625 524.753906 157.261719 C 525.226562 157.011719 525.683594 156.738281 526.125 156.441406 C 526.570312 156.144531 527 155.824219 527.410156 155.488281 C 527.824219 155.148438 528.21875 154.789062 528.597656 154.414062 C 528.972656 154.035156 529.332031 153.640625 529.671875 153.226562 C 530.007812 152.816406 530.328125 152.386719 530.625 151.941406 C 530.921875 151.5 531.195312 151.042969 531.445312 150.570312 C 531.699219 150.101562 531.925781 149.617188 532.128906 149.125 C 532.335938 148.632812 532.511719 148.128906 532.667969 147.617188 C 532.824219 147.109375 532.953125 146.589844 533.058594 146.066406 C 533.160156 145.542969 533.238281 145.015625 533.292969 144.484375 C 533.34375 143.953125 533.371094 143.421875 533.371094 142.886719 C 533.371094 142.351562 533.34375 141.820312 533.292969 141.289062 C 533.238281 140.757812 533.160156 140.230469 533.058594 139.707031 C 532.953125 139.183594 532.824219 138.667969 532.667969 138.15625 C 532.511719 137.644531 532.332031 137.140625 532.128906 136.648438 C 531.925781 136.15625 531.695312 135.675781 531.445312 135.203125 C 531.195312 134.734375 530.917969 134.273438 530.621094 133.832031 C 530.328125 133.386719 530.007812 132.960938 529.667969 132.546875 C 529.332031 132.132812 528.972656 131.738281 528.597656 131.363281 C 528.21875 130.984375 527.824219 130.625 527.410156 130.289062 C 526.996094 129.949219 526.570312 129.632812 526.125 129.335938 C 525.683594 129.039062 525.222656 128.761719 524.753906 128.511719 C 524.28125 128.261719 523.800781 128.03125 523.308594 127.828125 C 522.816406 127.625 522.3125 127.445312 521.800781 127.289062 C 521.289062 127.132812 520.773438 127.003906 520.25 126.898438 C 519.726562 126.796875 519.199219 126.71875 518.667969 126.664062 C 518.136719 126.613281 517.605469 126.585938 517.070312 126.585938 Z M 509.5625 134.84375 L 524.578125 134.84375 C 524.898438 134.84375 525.210938 134.898438 525.511719 135.011719 C 525.8125 135.121094 526.082031 135.28125 526.324219 135.492188 C 526.570312 135.699219 526.765625 135.945312 526.921875 136.226562 C 527.078125 136.503906 527.179688 136.804688 527.226562 137.121094 C 527.011719 137.238281 518.761719 141.996094 518.214844 142.304688 C 517.859375 142.507812 517.480469 142.609375 517.070312 142.609375 C 516.660156 142.609375 516.28125 142.507812 515.925781 142.304688 C 515.390625 142 507.117188 137.289062 506.914062 137.160156 C 506.957031 136.839844 507.054688 136.539062 507.207031 136.253906 C 507.359375 135.96875 507.558594 135.71875 507.800781 135.503906 C 508.046875 135.292969 508.320312 135.128906 508.621094 135.015625 C 508.925781 134.902344 509.238281 134.84375 509.5625 134.84375 Z M 527.257812 148.25 C 527.257812 148.605469 527.1875 148.949219 527.054688 149.277344 C 526.917969 149.601562 526.722656 149.894531 526.472656 150.144531 C 526.222656 150.394531 525.929688 150.589844 525.601562 150.726562 C 525.273438 150.859375 524.933594 150.929688 524.578125 150.929688 L 509.5625 150.929688 C 509.207031 150.929688 508.867188 150.859375 508.539062 150.726562 C 508.210938 150.589844 507.917969 150.394531 507.667969 150.144531 C 507.417969 149.894531 507.222656 149.601562 507.085938 149.277344 C 506.953125 148.949219 506.882812 148.605469 506.882812 148.25 L 506.882812 138.378906 L 515.398438 143.238281 C 515.917969 143.535156 516.476562 143.679688 517.074219 143.679688 C 517.667969 143.679688 518.226562 143.535156 518.746094 143.238281 L 527.257812 138.339844 Z M 527.257812 148.25 " fill-opacity="1" fill-rule="nonzero"/></g><g clip-path="url(#85c44b205a)"><g clip-path="url(#41082775c5)"><g clip-path="url(#c5300a67c4)"><path fill="#a6a6a6" d="M 612.222656 126.621094 C 612.265625 126.582031 612.277344 126.5 612.277344 126.5 C 611.734375 125.355469 610.921875 124.347656 610.8125 123.082031 C 609.996094 122.53125 610.433594 121.578125 610.21875 120.84375 C 609.789062 119.460938 609.527344 118.011719 609.222656 116.601562 C 608.59375 113.566406 607.964844 110.53125 606.988281 107.625 C 606.390625 105.84375 605.753906 104.019531 605.109375 102.28125 C 603.625 98.273438 602.453125 94.09375 601.097656 90.058594 C 600.5 88.28125 599.863281 86.457031 599.042969 84.78125 C 598.914062 84.433594 598.832031 84.046875 598.4375 83.835938 C 598.042969 84.003906 598.171875 84.351562 598.191406 84.5625 C 598.3125 86.121094 598.5625 87.652344 598.859375 89.148438 C 600.414062 97.464844 602.527344 105.632812 605.410156 113.632812 C 605.992188 115.203125 606.445312 116.796875 607.007812 118.53125 C 606.429688 118.464844 606.261719 118.074219 606.042969 117.796875 C 603.632812 114.609375 601.132812 111.496094 598.542969 108.453125 C 593.882812 102.933594 589.132812 97.480469 584.234375 92.226562 C 574.730469 82.078125 564.609375 72.65625 553.347656 64.449219 C 541.898438 56.09375 529.941406 48.519531 517.027344 42.46875 C 505.269531 36.921875 493.089844 32.539062 480.433594 29.441406 C 472.945312 27.621094 465.40625 26.292969 457.734375 25.371094 C 443.753906 23.714844 429.738281 23.519531 415.71875 24.910156 C 403.429688 26.113281 391.425781 28.519531 379.609375 31.90625 C 368.09375 35.199219 356.902344 39.363281 346.179688 44.582031 C 339.515625 47.824219 332.980469 51.410156 326.707031 55.320312 C 316.582031 61.566406 306.953125 68.617188 297.886719 76.273438 C 288.953125 83.816406 280.585938 91.96875 273.308594 101.199219 C 269.472656 106.085938 265.90625 111.207031 262.804688 116.632812 C 262.503906 117.101562 262.238281 117.617188 262.136719 118.148438 C 262.074219 118.351562 262.140625 118.523438 262.292969 118.625 C 262.449219 118.726562 262.660156 118.707031 262.761719 118.550781 C 263.082031 118.292969 263.320312 118.027344 263.605469 117.722656 C 265.902344 115.050781 267.886719 112.175781 270.074219 109.367188 C 274.449219 103.746094 279.175781 98.371094 284.191406 93.363281 C 291.9375 85.566406 300.273438 78.496094 309.058594 71.898438 C 323.222656 61.207031 338.414062 52.171875 354.726562 45.101562 C 363.984375 41.058594 373.535156 37.757812 383.308594 35.109375 C 394.761719 32.019531 406.316406 29.898438 418.15625 28.980469 C 425.070312 28.398438 431.976562 28.277344 438.882812 28.53125 C 445.332031 28.777344 451.753906 29.269531 458.128906 30.175781 C 466.734375 31.328125 475.222656 33.175781 483.5625 35.589844 C 494.136719 38.628906 504.304688 42.664062 514.136719 47.5 C 520.839844 50.78125 527.292969 54.414062 533.589844 58.320312 C 545.097656 65.425781 555.867188 73.496094 566.191406 82.230469 C 572.960938 87.941406 579.449219 93.957031 585.703125 100.15625 C 590.867188 105.277344 595.894531 110.503906 600.875 115.769531 C 601.324219 116.238281 601.875 116.546875 602.144531 117.164062 C 601.960938 117.308594 601.792969 117.292969 601.675781 117.238281 C 596.425781 114.824219 590.855469 113.421875 585.238281 112.054688 C 581.046875 111.050781 576.960938 109.8125 572.839844 108.527344 C 570.824219 107.886719 568.832031 107.375 566.710938 106.894531 C 566.425781 106.820312 566.152344 106.664062 565.832031 106.921875 C 565.90625 107.390625 566.363281 107.398438 566.675781 107.601562 C 571.09375 110.003906 575.78125 111.8125 580.480469 113.539062 C 585.941406 115.558594 591.492188 117.125 596.910156 119.179688 C 600 120.3125 603.09375 121.445312 606.167969 122.742188 C 608.207031 123.589844 610.015625 124.625 611.503906 126.292969 C 611.652344 126.472656 611.925781 126.628906 612.121094 126.777344 C 612.011719 126.640625 612.136719 126.609375 612.222656 126.621094 Z M 612.222656 126.621094 " fill-opacity="1" fill-rule="evenodd"/></g></g></g></svg>