<svg xmlns="http://www.w3.org/2000/svg" xmlns:xlink="http://www.w3.org/1999/xlink" width="1024" zoomAndPan="magnify" viewBox="0 0 768 330.749987" height="441" preserveAspectRatio="xMidYMid meet" version="1.0"><defs><g/><clipPath id="81b12e1614"><path d="M 21.566406 137.585938 L 166 137.585938 L 166 192.914062 L 21.566406 192.914062 Z M 21.566406 137.585938 " clip-rule="nonzero"/></clipPath><clipPath id="aaf775e634"><path d="M 27.714844 137.585938 L 159.828125 137.585938 C 161.457031 137.585938 163.019531 138.234375 164.175781 139.386719 C 165.328125 140.539062 165.972656 142.101562 165.972656 143.734375 L 165.972656 186.765625 C 165.972656 188.398438 165.328125 189.960938 164.175781 191.113281 C 163.019531 192.265625 161.457031 192.914062 159.828125 192.914062 L 27.714844 192.914062 C 26.085938 192.914062 24.519531 192.265625 23.367188 191.113281 C 22.214844 189.960938 21.566406 188.398438 21.566406 186.765625 L 21.566406 143.734375 C 21.566406 142.101562 22.214844 140.539062 23.367188 139.386719 C 24.519531 138.234375 26.085938 137.585938 27.714844 137.585938 Z M 27.714844 137.585938 " clip-rule="nonzero"/></clipPath><clipPath id="b55c483315"><path d="M 21.566406 137.585938 L 166 137.585938 L 166 193 L 21.566406 193 Z M 21.566406 137.585938 " clip-rule="nonzero"/></clipPath><clipPath id="d0dc6b051f"><path d="M 27.714844 137.585938 L 159.824219 137.585938 C 161.457031 137.585938 163.019531 138.234375 164.171875 139.386719 C 165.324219 140.539062 165.972656 142.101562 165.972656 143.734375 L 165.972656 186.765625 C 165.972656 188.398438 165.324219 189.960938 164.171875 191.113281 C 163.019531 192.265625 161.457031 192.914062 159.824219 192.914062 L 27.714844 192.914062 C 26.085938 192.914062 24.523438 192.265625 23.367188 191.113281 C 22.214844 189.960938 21.566406 188.398438 21.566406 186.765625 L 21.566406 143.734375 C 21.566406 142.101562 22.214844 140.539062 23.367188 139.386719 C 24.523438 138.234375 26.085938 137.585938 27.714844 137.585938 Z M 27.714844 137.585938 " clip-rule="nonzero"/></clipPath><clipPath id="6f9a7c7ce5"><path d="M 335.972656 122.789062 L 431.902344 122.789062 L 431.902344 207.808594 L 335.972656 207.808594 Z M 335.972656 122.789062 " clip-rule="nonzero"/></clipPath><clipPath id="50a61782c7"><path d="M 602.027344 51.90625 L 746.617188 51.90625 L 746.617188 107.238281 L 602.027344 107.238281 Z M 602.027344 51.90625 " clip-rule="nonzero"/></clipPath><clipPath id="85a8be528e"><path d="M 608.171875 51.90625 L 740.285156 51.90625 C 741.914062 51.90625 743.480469 52.554688 744.632812 53.707031 C 745.785156 54.863281 746.433594 56.425781 746.433594 58.054688 L 746.433594 101.089844 C 746.433594 102.722656 745.785156 104.285156 744.632812 105.4375 C 743.480469 106.589844 741.914062 107.238281 740.285156 107.238281 L 608.171875 107.238281 C 606.542969 107.238281 604.980469 106.589844 603.824219 105.4375 C 602.671875 104.285156 602.027344 102.722656 602.027344 101.089844 L 602.027344 58.054688 C 602.027344 56.425781 602.671875 54.863281 603.824219 53.707031 C 604.980469 52.554688 606.542969 51.90625 608.171875 51.90625 Z M 608.171875 51.90625 " clip-rule="nonzero"/></clipPath><clipPath id="b566656b81"><path d="M 602.027344 51.90625 L 746.667969 51.90625 L 746.667969 107.367188 L 602.027344 107.367188 Z M 602.027344 51.90625 " clip-rule="nonzero"/></clipPath><clipPath id="30daf3dbda"><path d="M 608.171875 51.90625 L 740.285156 51.90625 C 741.914062 51.90625 743.476562 52.554688 744.628906 53.707031 C 745.785156 54.863281 746.429688 56.425781 746.429688 58.054688 L 746.429688 101.089844 C 746.429688 102.71875 745.785156 104.285156 744.628906 105.4375 C 743.476562 106.589844 741.914062 107.238281 740.285156 107.238281 L 608.171875 107.238281 C 606.542969 107.238281 604.980469 106.589844 603.828125 105.4375 C 602.675781 104.285156 602.027344 102.71875 602.027344 101.089844 L 602.027344 58.054688 C 602.027344 56.425781 602.675781 54.863281 603.828125 53.707031 C 604.980469 52.554688 606.542969 51.90625 608.171875 51.90625 Z M 608.171875 51.90625 " clip-rule="nonzero"/></clipPath><clipPath id="1a31943a9c"><path d="M 234.671875 126.585938 L 267.648438 126.585938 L 267.648438 159.5625 L 234.671875 159.5625 Z M 234.671875 126.585938 " clip-rule="nonzero"/></clipPath><clipPath id="42029a2d9a"><path d="M 548.375 69.496094 L 581 69.496094 L 581 102.472656 L 548.375 102.472656 Z M 548.375 69.496094 " clip-rule="nonzero"/></clipPath><clipPath id="5a0c4f060c"><path d="M 602.628906 137.5625 L 747.222656 137.5625 L 747.222656 192.890625 L 602.628906 192.890625 Z M 602.628906 137.5625 " clip-rule="nonzero"/></clipPath><clipPath id="6502a81a5b"><path d="M 608.777344 137.5625 L 740.890625 137.5625 C 742.519531 137.5625 744.082031 138.210938 745.234375 139.363281 C 746.390625 140.515625 747.035156 142.078125 747.035156 143.710938 L 747.035156 186.746094 C 747.035156 188.375 746.390625 189.9375 745.234375 191.089844 C 744.082031 192.246094 742.519531 192.890625 740.890625 192.890625 L 608.777344 192.890625 C 607.148438 192.890625 605.582031 192.246094 604.429688 191.089844 C 603.277344 189.9375 602.628906 188.375 602.628906 186.746094 L 602.628906 143.710938 C 602.628906 142.078125 603.277344 140.515625 604.429688 139.363281 C 605.582031 138.210938 607.148438 137.5625 608.777344 137.5625 Z M 608.777344 137.5625 " clip-rule="nonzero"/></clipPath><clipPath id="f903371cf3"><path d="M 602.628906 137.5625 L 747.269531 137.5625 L 747.269531 193 L 602.628906 193 Z M 602.628906 137.5625 " clip-rule="nonzero"/></clipPath><clipPath id="8eb19f0571"><path d="M 608.777344 137.5625 L 740.886719 137.5625 C 742.519531 137.5625 744.082031 138.210938 745.234375 139.363281 C 746.386719 140.515625 747.035156 142.078125 747.035156 143.710938 L 747.035156 186.742188 C 747.035156 188.375 746.386719 189.9375 745.234375 191.089844 C 744.082031 192.242188 742.519531 192.890625 740.886719 192.890625 L 608.777344 192.890625 C 607.148438 192.890625 605.582031 192.242188 604.429688 191.089844 C 603.277344 189.9375 602.628906 188.375 602.628906 186.742188 L 602.628906 143.710938 C 602.628906 142.078125 603.277344 140.515625 604.429688 139.363281 C 605.582031 138.210938 607.148438 137.5625 608.777344 137.5625 Z M 608.777344 137.5625 " clip-rule="nonzero"/></clipPath><clipPath id="e54bfed85f"><path d="M 602.628906 223.261719 L 747.222656 223.261719 L 747.222656 278.59375 L 602.628906 278.59375 Z M 602.628906 223.261719 " clip-rule="nonzero"/></clipPath><clipPath id="870d34f5b8"><path d="M 608.777344 223.261719 L 740.890625 223.261719 C 742.519531 223.261719 744.082031 223.910156 745.234375 225.0625 C 746.390625 226.214844 747.035156 227.777344 747.035156 229.410156 L 747.035156 272.445312 C 747.035156 274.074219 746.390625 275.636719 745.234375 276.792969 C 744.082031 277.945312 742.519531 278.59375 740.890625 278.59375 L 608.777344 278.59375 C 607.148438 278.59375 605.582031 277.945312 604.429688 276.792969 C 603.277344 275.636719 602.628906 274.074219 602.628906 272.445312 L 602.628906 229.410156 C 602.628906 227.777344 603.277344 226.214844 604.429688 225.0625 C 605.582031 223.910156 607.148438 223.261719 608.777344 223.261719 Z M 608.777344 223.261719 " clip-rule="nonzero"/></clipPath><clipPath id="1a4ba2ba28"><path d="M 602.628906 223.261719 L 747.269531 223.261719 L 747.269531 278.71875 L 602.628906 278.71875 Z M 602.628906 223.261719 " clip-rule="nonzero"/></clipPath><clipPath id="9f2eee5402"><path d="M 608.777344 223.261719 L 740.886719 223.261719 C 742.519531 223.261719 744.082031 223.910156 745.234375 225.0625 C 746.386719 226.214844 747.035156 227.777344 747.035156 229.410156 L 747.035156 272.445312 C 747.035156 274.074219 746.386719 275.636719 745.234375 276.789062 C 744.082031 277.945312 742.519531 278.589844 740.886719 278.589844 L 608.777344 278.589844 C 607.148438 278.589844 605.582031 277.945312 604.429688 276.789062 C 603.277344 275.636719 602.628906 274.074219 602.628906 272.445312 L 602.628906 229.410156 C 602.628906 227.777344 603.277344 226.214844 604.429688 225.0625 C 605.582031 223.910156 607.148438 223.261719 608.777344 223.261719 Z M 608.777344 223.261719 " clip-rule="nonzero"/></clipPath><clipPath id="7f43b2a679"><path d="M 548.375 137.585938 L 581 137.585938 L 581 170.558594 L 548.375 170.558594 Z M 548.375 137.585938 " clip-rule="nonzero"/></clipPath><clipPath id="51fbda301a"><path d="M 548.375 227.730469 L 581 227.730469 L 581 260.707031 L 548.375 260.707031 Z M 548.375 227.730469 " clip-rule="nonzero"/></clipPath></defs><g clip-path="url(#81b12e1614)"><g clip-path="url(#aaf775e634)"><path fill="#5ce1e6" d="M 21.566406 137.585938 L 165.945312 137.585938 L 165.945312 192.914062 L 21.566406 192.914062 Z M 21.566406 137.585938 " fill-opacity="1" fill-rule="nonzero"/></g></g><g clip-path="url(#b55c483315)"><g clip-path="url(#d0dc6b051f)"><path stroke-linecap="butt" transform="matrix(0.749433, 0, 0, 0.749433, 21.568218, 137.584978)" fill="none" stroke-linejoin="miter" d="M 8.201696 0.00128009 L 184.480685 0.00128009 C 186.659414 0.00128009 188.744322 0.866517 190.281942 2.404137 C 191.819562 3.941757 192.684799 6.026665 192.684799 8.205394 L 192.684799 65.623766 C 192.684799 67.802495 191.819562 69.887403 190.281942 71.425023 C 188.744322 72.962643 186.659414 73.82788 184.480685 73.82788 L 8.201696 73.82788 C 6.028179 73.82788 3.943271 72.962643 2.400439 71.425023 C 0.862819 69.887403 -0.00241756 67.802495 -0.00241756 65.623766 L -0.00241756 8.205394 C -0.00241756 6.026665 0.862819 3.941757 2.400439 2.404137 C 3.943271 0.866517 6.028179 0.00128009 8.201696 0.00128009 Z M 8.201696 0.00128009 " stroke="#000000" stroke-width="2" stroke-opacity="1" stroke-miterlimit="4"/></g></g><g fill="#000000" fill-opacity="1"><g transform="translate(56.638548, 170.560051)"><g><path d="M 6.046875 -11.703125 C 6.878906 -11.703125 7.59375 -11.546875 8.1875 -11.234375 C 8.78125 -10.929688 9.226562 -10.503906 9.53125 -9.953125 C 9.84375 -9.398438 10 -8.757812 10 -8.03125 C 10 -7.300781 9.84375 -6.660156 9.53125 -6.109375 C 9.226562 -5.554688 8.78125 -5.125 8.1875 -4.8125 C 7.59375 -4.507812 6.878906 -4.359375 6.046875 -4.359375 L 3.828125 -4.359375 L 3.828125 0 L 1.515625 0 L 1.515625 -11.703125 Z M 5.734375 -6.1875 C 7.023438 -6.1875 7.671875 -6.800781 7.671875 -8.03125 C 7.671875 -9.257812 7.023438 -9.875 5.734375 -9.875 L 3.828125 -9.875 L 3.828125 -6.1875 Z M 5.734375 -6.1875 "/></g></g></g><g fill="#000000" fill-opacity="1"><g transform="translate(67.32534, 170.560051)"><g><path d="M 1.265625 0 L 1.265625 -8.828125 L 3.421875 -8.828125 L 3.421875 -7.515625 L 3.59375 -7.484375 C 3.800781 -7.972656 4.078125 -8.332031 4.421875 -8.5625 C 4.773438 -8.789062 5.203125 -8.90625 5.703125 -8.90625 C 6.203125 -8.90625 6.582031 -8.820312 6.84375 -8.65625 L 6.46875 -6.734375 L 6.296875 -6.703125 C 6.148438 -6.765625 6.007812 -6.804688 5.875 -6.828125 C 5.75 -6.859375 5.585938 -6.875 5.390625 -6.875 C 4.773438 -6.875 4.300781 -6.65625 3.96875 -6.21875 C 3.644531 -5.78125 3.484375 -5.082031 3.484375 -4.125 L 3.484375 0 Z M 1.265625 0 "/></g></g></g><g fill="#000000" fill-opacity="1"><g transform="translate(74.244563, 170.560051)"><g><path d="M 5.125 0.171875 C 4.257812 0.171875 3.5 -0.00390625 2.84375 -0.359375 C 2.195312 -0.710938 1.691406 -1.234375 1.328125 -1.921875 C 0.972656 -2.609375 0.796875 -3.4375 0.796875 -4.40625 C 0.796875 -5.375 0.972656 -6.203125 1.328125 -6.890625 C 1.691406 -7.585938 2.195312 -8.113281 2.84375 -8.46875 C 3.5 -8.820312 4.257812 -9 5.125 -9 C 5.988281 -9 6.75 -8.820312 7.40625 -8.46875 C 8.0625 -8.113281 8.566406 -7.585938 8.921875 -6.890625 C 9.285156 -6.203125 9.46875 -5.375 9.46875 -4.40625 C 9.46875 -3.4375 9.285156 -2.609375 8.921875 -1.921875 C 8.566406 -1.234375 8.0625 -0.710938 7.40625 -0.359375 C 6.75 -0.00390625 5.988281 0.171875 5.125 0.171875 Z M 5.125 -1.71875 C 6.5 -1.71875 7.1875 -2.613281 7.1875 -4.40625 C 7.1875 -5.34375 7.007812 -6.023438 6.65625 -6.453125 C 6.300781 -6.890625 5.789062 -7.109375 5.125 -7.109375 C 3.757812 -7.109375 3.078125 -6.207031 3.078125 -4.40625 C 3.078125 -2.613281 3.757812 -1.71875 5.125 -1.71875 Z M 5.125 -1.71875 "/></g></g></g><g fill="#000000" fill-opacity="1"><g transform="translate(84.499403, 170.560051)"><g><path d="M 4.359375 0.171875 C 3.660156 0.171875 3.039062 0.00390625 2.5 -0.328125 C 1.96875 -0.671875 1.550781 -1.1875 1.25 -1.875 C 0.945312 -2.5625 0.796875 -3.40625 0.796875 -4.40625 C 0.796875 -5.414062 0.953125 -6.265625 1.265625 -6.953125 C 1.578125 -7.640625 2.007812 -8.148438 2.5625 -8.484375 C 3.113281 -8.828125 3.75 -9 4.46875 -9 C 5.019531 -9 5.492188 -8.898438 5.890625 -8.703125 C 6.296875 -8.515625 6.640625 -8.222656 6.921875 -7.828125 L 7.09375 -7.859375 L 7.09375 -12.375 L 9.3125 -12.375 L 9.3125 0 L 7.09375 0 L 7.09375 -1.140625 L 6.921875 -1.171875 C 6.671875 -0.753906 6.332031 -0.425781 5.90625 -0.1875 C 5.488281 0.0507812 4.972656 0.171875 4.359375 0.171875 Z M 5.078125 -1.71875 C 5.703125 -1.71875 6.195312 -1.9375 6.5625 -2.375 C 6.925781 -2.820312 7.109375 -3.5 7.109375 -4.40625 C 7.109375 -5.3125 6.925781 -5.988281 6.5625 -6.4375 C 6.195312 -6.882812 5.703125 -7.109375 5.078125 -7.109375 C 4.429688 -7.109375 3.9375 -6.890625 3.59375 -6.453125 C 3.25 -6.023438 3.078125 -5.34375 3.078125 -4.40625 C 3.078125 -3.476562 3.25 -2.796875 3.59375 -2.359375 C 3.9375 -1.929688 4.429688 -1.71875 5.078125 -1.71875 Z M 5.078125 -1.71875 "/></g></g></g><g fill="#000000" fill-opacity="1"><g transform="translate(95.074208, 170.560051)"><g><path d="M 4.046875 0.171875 C 3.046875 0.171875 2.3125 -0.0976562 1.84375 -0.640625 C 1.375 -1.179688 1.140625 -1.960938 1.140625 -2.984375 L 1.140625 -8.828125 L 3.359375 -8.828125 L 3.359375 -3.25 C 3.359375 -2.71875 3.472656 -2.328125 3.703125 -2.078125 C 3.929688 -1.828125 4.289062 -1.703125 4.78125 -1.703125 C 5.394531 -1.703125 5.867188 -1.898438 6.203125 -2.296875 C 6.546875 -2.703125 6.71875 -3.335938 6.71875 -4.203125 L 6.71875 -8.828125 L 8.9375 -8.828125 L 8.9375 0 L 6.8125 0 L 6.8125 -1.296875 L 6.640625 -1.34375 C 6.359375 -0.832031 6.015625 -0.453125 5.609375 -0.203125 C 5.203125 0.046875 4.679688 0.171875 4.046875 0.171875 Z M 4.046875 0.171875 "/></g></g></g><g fill="#000000" fill-opacity="1"><g transform="translate(105.281053, 170.560051)"><g><path d="M 5.140625 0.171875 C 4.285156 0.171875 3.53125 -0.00390625 2.875 -0.359375 C 2.21875 -0.710938 1.707031 -1.234375 1.34375 -1.921875 C 0.976562 -2.617188 0.796875 -3.445312 0.796875 -4.40625 C 0.796875 -5.375 0.976562 -6.203125 1.34375 -6.890625 C 1.707031 -7.585938 2.210938 -8.113281 2.859375 -8.46875 C 3.515625 -8.820312 4.265625 -9 5.109375 -9 C 6.972656 -9 8.164062 -8.320312 8.6875 -6.96875 L 7.15625 -5.875 L 7 -5.875 C 6.8125 -6.289062 6.570312 -6.597656 6.28125 -6.796875 C 5.988281 -7.003906 5.597656 -7.109375 5.109375 -7.109375 C 4.460938 -7.109375 3.960938 -6.882812 3.609375 -6.4375 C 3.253906 -6 3.078125 -5.320312 3.078125 -4.40625 C 3.078125 -3.5 3.253906 -2.820312 3.609375 -2.375 C 3.972656 -1.9375 4.484375 -1.71875 5.140625 -1.71875 C 5.617188 -1.71875 6.023438 -1.84375 6.359375 -2.09375 C 6.691406 -2.351562 6.929688 -2.726562 7.078125 -3.21875 L 7.25 -3.234375 L 8.828125 -2.375 C 8.597656 -1.625 8.179688 -1.007812 7.578125 -0.53125 C 6.972656 -0.0625 6.160156 0.171875 5.140625 0.171875 Z M 5.140625 0.171875 "/></g></g></g><g fill="#000000" fill-opacity="1"><g transform="translate(114.37603, 170.560051)"><g><path d="M 8.71875 -3.90625 L 3.046875 -3.90625 C 3.109375 -3.144531 3.328125 -2.585938 3.703125 -2.234375 C 4.078125 -1.890625 4.585938 -1.71875 5.234375 -1.71875 C 5.742188 -1.71875 6.15625 -1.8125 6.46875 -2 C 6.78125 -2.1875 7.035156 -2.472656 7.234375 -2.859375 L 7.390625 -2.859375 L 8.875 -1.90625 C 8.582031 -1.289062 8.144531 -0.789062 7.5625 -0.40625 C 6.976562 -0.0195312 6.203125 0.171875 5.234375 0.171875 C 4.316406 0.171875 3.523438 0 2.859375 -0.34375 C 2.203125 -0.695312 1.691406 -1.210938 1.328125 -1.890625 C 0.972656 -2.578125 0.796875 -3.414062 0.796875 -4.40625 C 0.796875 -5.414062 0.984375 -6.265625 1.359375 -6.953125 C 1.734375 -7.640625 2.242188 -8.148438 2.890625 -8.484375 C 3.535156 -8.828125 4.265625 -9 5.078125 -9 C 6.328125 -9 7.28125 -8.664062 7.9375 -8 C 8.601562 -7.34375 8.9375 -6.375 8.9375 -5.09375 C 8.9375 -4.625 8.921875 -4.265625 8.890625 -4.015625 Z M 6.8125 -5.34375 C 6.789062 -6.019531 6.632812 -6.507812 6.34375 -6.8125 C 6.0625 -7.125 5.640625 -7.28125 5.078125 -7.28125 C 3.953125 -7.28125 3.289062 -6.632812 3.09375 -5.34375 Z M 6.8125 -5.34375 "/></g></g></g><g fill="#000000" fill-opacity="1"><g transform="translate(123.966951, 170.560051)"><g><path d="M 1.265625 0 L 1.265625 -8.828125 L 3.421875 -8.828125 L 3.421875 -7.515625 L 3.59375 -7.484375 C 3.800781 -7.972656 4.078125 -8.332031 4.421875 -8.5625 C 4.773438 -8.789062 5.203125 -8.90625 5.703125 -8.90625 C 6.203125 -8.90625 6.582031 -8.820312 6.84375 -8.65625 L 6.46875 -6.734375 L 6.296875 -6.703125 C 6.148438 -6.765625 6.007812 -6.804688 5.875 -6.828125 C 5.75 -6.859375 5.585938 -6.875 5.390625 -6.875 C 4.773438 -6.875 4.300781 -6.65625 3.96875 -6.21875 C 3.644531 -5.78125 3.484375 -5.082031 3.484375 -4.125 L 3.484375 0 Z M 1.265625 0 "/></g></g></g><g clip-path="url(#6f9a7c7ce5)"><path fill="#5271ff" d="M 417.914062 182.367188 L 417.914062 199.335938 L 350.078125 199.335938 L 350.078125 182.367188 L 341.59375 182.367188 L 341.59375 207.808594 L 426.398438 207.808594 L 426.398438 182.367188 Z M 410.078125 122.789062 L 396.292969 122.789062 L 396.292969 192.761719 L 410.078125 192.761719 Z M 415.585938 148.234375 L 415.585938 169.441406 L 432.019531 158.832031 Z M 390.671875 122.789062 L 376.894531 122.789062 L 376.894531 192.761719 L 390.671875 192.761719 Z M 371.375 122.789062 L 357.597656 122.789062 L 357.597656 192.761719 L 371.375 192.761719 Z M 352.40625 158.832031 L 335.972656 169.441406 L 335.972656 148.234375 Z M 352.40625 158.832031 " fill-opacity="1" fill-rule="nonzero"/></g><g clip-path="url(#50a61782c7)"><g clip-path="url(#85a8be528e)"><path fill="#00bf63" d="M 602.027344 51.90625 L 746.402344 51.90625 L 746.402344 107.238281 L 602.027344 107.238281 Z M 602.027344 51.90625 " fill-opacity="1" fill-rule="nonzero"/></g></g><g clip-path="url(#b566656b81)"><g clip-path="url(#30daf3dbda)"><path stroke-linecap="butt" transform="matrix(0.749433, 0, 0, 0.749433, 602.026225, 51.908017)" fill="none" stroke-linejoin="miter" d="M 8.200394 -0.00235739 L 184.484595 -0.00235739 C 186.658112 -0.00235739 188.74302 0.86288 190.28064 2.400499 C 191.823472 3.943331 192.683496 6.02824 192.683496 8.201756 L 192.683496 65.625341 C 192.683496 67.798857 191.823472 69.888978 190.28064 71.426598 C 188.74302 72.964218 186.658112 73.829454 184.484595 73.829454 L 8.200394 73.829454 C 6.026877 73.829454 3.941969 72.964218 2.404349 71.426598 C 0.866729 69.888978 0.00149214 67.798857 0.00149214 65.625341 L 0.00149214 8.201756 C 0.00149214 6.02824 0.866729 3.943331 2.404349 2.400499 C 3.941969 0.86288 6.026877 -0.00235739 8.200394 -0.00235739 Z M 8.200394 -0.00235739 " stroke="#000000" stroke-width="2" stroke-opacity="1" stroke-miterlimit="4"/></g></g><g fill="#000000" fill-opacity="1"><g transform="translate(626.885524, 84.88309)"><g><path d="M 6.390625 0.171875 C 5.316406 0.171875 4.367188 -0.0507812 3.546875 -0.5 C 2.722656 -0.945312 2.078125 -1.617188 1.609375 -2.515625 C 1.148438 -3.421875 0.921875 -4.53125 0.921875 -5.84375 C 0.921875 -7.164062 1.148438 -8.273438 1.609375 -9.171875 C 2.078125 -10.078125 2.722656 -10.753906 3.546875 -11.203125 C 4.367188 -11.648438 5.316406 -11.875 6.390625 -11.875 C 7.515625 -11.875 8.46875 -11.648438 9.25 -11.203125 C 10.039062 -10.765625 10.609375 -10.097656 10.953125 -9.203125 L 9.265625 -8.15625 L 9.0625 -8.171875 C 8.8125 -8.773438 8.46875 -9.207031 8.03125 -9.46875 C 7.601562 -9.738281 7.054688 -9.875 6.390625 -9.875 C 5.421875 -9.875 4.664062 -9.550781 4.125 -8.90625 C 3.582031 -8.269531 3.3125 -7.25 3.3125 -5.84375 C 3.3125 -4.457031 3.582031 -3.441406 4.125 -2.796875 C 4.664062 -2.148438 5.421875 -1.828125 6.390625 -1.828125 C 7.910156 -1.828125 8.84375 -2.566406 9.1875 -4.046875 L 9.390625 -4.046875 L 11.09375 -3.15625 C 10.769531 -2.050781 10.222656 -1.21875 9.453125 -0.65625 C 8.679688 -0.101562 7.660156 0.171875 6.390625 0.171875 Z M 6.390625 0.171875 "/></g></g></g><g fill="#000000" fill-opacity="1"><g transform="translate(638.356226, 84.88309)"><g><path d="M 5.125 0.171875 C 4.257812 0.171875 3.5 -0.00390625 2.84375 -0.359375 C 2.195312 -0.710938 1.691406 -1.234375 1.328125 -1.921875 C 0.972656 -2.609375 0.796875 -3.4375 0.796875 -4.40625 C 0.796875 -5.375 0.972656 -6.203125 1.328125 -6.890625 C 1.691406 -7.585938 2.195312 -8.113281 2.84375 -8.46875 C 3.5 -8.820312 4.257812 -9 5.125 -9 C 5.988281 -9 6.75 -8.820312 7.40625 -8.46875 C 8.0625 -8.113281 8.566406 -7.585938 8.921875 -6.890625 C 9.285156 -6.203125 9.46875 -5.375 9.46875 -4.40625 C 9.46875 -3.4375 9.285156 -2.609375 8.921875 -1.921875 C 8.566406 -1.234375 8.0625 -0.710938 7.40625 -0.359375 C 6.75 -0.00390625 5.988281 0.171875 5.125 0.171875 Z M 5.125 -1.71875 C 6.5 -1.71875 7.1875 -2.613281 7.1875 -4.40625 C 7.1875 -5.34375 7.007812 -6.023438 6.65625 -6.453125 C 6.300781 -6.890625 5.789062 -7.109375 5.125 -7.109375 C 3.757812 -7.109375 3.078125 -6.207031 3.078125 -4.40625 C 3.078125 -2.613281 3.757812 -1.71875 5.125 -1.71875 Z M 5.125 -1.71875 "/></g></g></g><g fill="#000000" fill-opacity="1"><g transform="translate(648.611067, 84.88309)"><g><path d="M 1.265625 0 L 1.265625 -8.828125 L 3.40625 -8.828125 L 3.40625 -7.53125 L 3.5625 -7.484375 C 4.113281 -8.492188 5.007812 -9 6.25 -9 C 7.257812 -9 8.003906 -8.71875 8.484375 -8.15625 C 8.960938 -7.601562 9.203125 -6.796875 9.203125 -5.734375 L 9.203125 0 L 6.984375 0 L 6.984375 -5.46875 C 6.984375 -6.050781 6.863281 -6.472656 6.625 -6.734375 C 6.394531 -6.992188 6.019531 -7.125 5.5 -7.125 C 4.863281 -7.125 4.367188 -6.914062 4.015625 -6.5 C 3.660156 -6.09375 3.484375 -5.445312 3.484375 -4.5625 L 3.484375 0 Z M 1.265625 0 "/></g></g></g><g fill="#000000" fill-opacity="1"><g transform="translate(658.945898, 84.88309)"><g><path d="M 4.125 0.171875 C 3.519531 0.171875 2.96875 0.101562 2.46875 -0.03125 C 1.96875 -0.175781 1.539062 -0.375 1.1875 -0.625 C 0.832031 -0.875 0.570312 -1.160156 0.40625 -1.484375 L 1.625 -2.8125 L 1.796875 -2.8125 C 2.085938 -2.414062 2.429688 -2.117188 2.828125 -1.921875 C 3.234375 -1.722656 3.671875 -1.625 4.140625 -1.625 C 4.578125 -1.625 4.90625 -1.703125 5.125 -1.859375 C 5.34375 -2.015625 5.453125 -2.234375 5.453125 -2.515625 C 5.453125 -2.742188 5.375 -2.929688 5.21875 -3.078125 C 5.0625 -3.234375 4.804688 -3.351562 4.453125 -3.4375 L 3.28125 -3.71875 C 2.40625 -3.925781 1.765625 -4.242188 1.359375 -4.671875 C 0.960938 -5.109375 0.765625 -5.65625 0.765625 -6.3125 C 0.765625 -6.863281 0.898438 -7.34375 1.171875 -7.75 C 1.453125 -8.15625 1.847656 -8.460938 2.359375 -8.671875 C 2.867188 -8.890625 3.460938 -9 4.140625 -9 C 4.941406 -9 5.601562 -8.882812 6.125 -8.65625 C 6.644531 -8.425781 7.050781 -8.117188 7.34375 -7.734375 L 6.15625 -6.453125 L 6 -6.453125 C 5.757812 -6.722656 5.484375 -6.921875 5.171875 -7.046875 C 4.867188 -7.179688 4.523438 -7.25 4.140625 -7.25 C 3.265625 -7.25 2.828125 -6.976562 2.828125 -6.4375 C 2.828125 -6.207031 2.910156 -6.019531 3.078125 -5.875 C 3.242188 -5.726562 3.53125 -5.609375 3.9375 -5.515625 L 5.03125 -5.28125 C 5.925781 -5.09375 6.578125 -4.785156 6.984375 -4.359375 C 7.398438 -3.929688 7.609375 -3.363281 7.609375 -2.65625 C 7.609375 -2.09375 7.46875 -1.597656 7.1875 -1.171875 C 6.914062 -0.742188 6.515625 -0.410156 5.984375 -0.171875 C 5.460938 0.0546875 4.84375 0.171875 4.125 0.171875 Z M 4.125 0.171875 "/></g></g></g><g fill="#000000" fill-opacity="1"><g transform="translate(667.080984, 84.88309)"><g><path d="M 4.046875 0.171875 C 3.046875 0.171875 2.3125 -0.0976562 1.84375 -0.640625 C 1.375 -1.179688 1.140625 -1.960938 1.140625 -2.984375 L 1.140625 -8.828125 L 3.359375 -8.828125 L 3.359375 -3.25 C 3.359375 -2.71875 3.472656 -2.328125 3.703125 -2.078125 C 3.929688 -1.828125 4.289062 -1.703125 4.78125 -1.703125 C 5.394531 -1.703125 5.867188 -1.898438 6.203125 -2.296875 C 6.546875 -2.703125 6.71875 -3.335938 6.71875 -4.203125 L 6.71875 -8.828125 L 8.9375 -8.828125 L 8.9375 0 L 6.8125 0 L 6.8125 -1.296875 L 6.640625 -1.34375 C 6.359375 -0.832031 6.015625 -0.453125 5.609375 -0.203125 C 5.203125 0.046875 4.679688 0.171875 4.046875 0.171875 Z M 4.046875 0.171875 "/></g></g></g><g fill="#000000" fill-opacity="1"><g transform="translate(677.287829, 84.88309)"><g><path d="M 1.265625 0 L 1.265625 -8.828125 L 3.40625 -8.828125 L 3.40625 -7.640625 L 3.5625 -7.609375 C 3.851562 -8.085938 4.191406 -8.4375 4.578125 -8.65625 C 4.960938 -8.882812 5.457031 -9 6.0625 -9 C 6.726562 -9 7.265625 -8.863281 7.671875 -8.59375 C 8.078125 -8.332031 8.375 -7.945312 8.5625 -7.4375 L 8.734375 -7.4375 C 9.003906 -7.96875 9.351562 -8.359375 9.78125 -8.609375 C 10.207031 -8.867188 10.742188 -9 11.390625 -9 C 13.222656 -9 14.140625 -7.976562 14.140625 -5.9375 L 14.140625 0 L 11.921875 0 L 11.921875 -5.65625 C 11.921875 -6.175781 11.816406 -6.550781 11.609375 -6.78125 C 11.410156 -7.007812 11.085938 -7.125 10.640625 -7.125 C 9.421875 -7.125 8.8125 -6.3125 8.8125 -4.6875 L 8.8125 0 L 6.59375 0 L 6.59375 -5.65625 C 6.59375 -6.175781 6.488281 -6.550781 6.28125 -6.78125 C 6.082031 -7.007812 5.757812 -7.125 5.3125 -7.125 C 4.738281 -7.125 4.289062 -6.929688 3.96875 -6.546875 C 3.644531 -6.171875 3.484375 -5.566406 3.484375 -4.734375 L 3.484375 0 Z M 1.265625 0 "/></g></g></g><g fill="#000000" fill-opacity="1"><g transform="translate(692.550104, 84.88309)"><g><path d="M 8.71875 -3.90625 L 3.046875 -3.90625 C 3.109375 -3.144531 3.328125 -2.585938 3.703125 -2.234375 C 4.078125 -1.890625 4.585938 -1.71875 5.234375 -1.71875 C 5.742188 -1.71875 6.15625 -1.8125 6.46875 -2 C 6.78125 -2.1875 7.035156 -2.472656 7.234375 -2.859375 L 7.390625 -2.859375 L 8.875 -1.90625 C 8.582031 -1.289062 8.144531 -0.789062 7.5625 -0.40625 C 6.976562 -0.0195312 6.203125 0.171875 5.234375 0.171875 C 4.316406 0.171875 3.523438 0 2.859375 -0.34375 C 2.203125 -0.695312 1.691406 -1.210938 1.328125 -1.890625 C 0.972656 -2.578125 0.796875 -3.414062 0.796875 -4.40625 C 0.796875 -5.414062 0.984375 -6.265625 1.359375 -6.953125 C 1.734375 -7.640625 2.242188 -8.148438 2.890625 -8.484375 C 3.535156 -8.828125 4.265625 -9 5.078125 -9 C 6.328125 -9 7.28125 -8.664062 7.9375 -8 C 8.601562 -7.34375 8.9375 -6.375 8.9375 -5.09375 C 8.9375 -4.625 8.921875 -4.265625 8.890625 -4.015625 Z M 6.8125 -5.34375 C 6.789062 -6.019531 6.632812 -6.507812 6.34375 -6.8125 C 6.0625 -7.125 5.640625 -7.28125 5.078125 -7.28125 C 3.953125 -7.28125 3.289062 -6.632812 3.09375 -5.34375 Z M 6.8125 -5.34375 "/></g></g></g><g fill="#000000" fill-opacity="1"><g transform="translate(702.141025, 84.88309)"><g><path d="M 1.265625 0 L 1.265625 -8.828125 L 3.421875 -8.828125 L 3.421875 -7.515625 L 3.59375 -7.484375 C 3.800781 -7.972656 4.078125 -8.332031 4.421875 -8.5625 C 4.773438 -8.789062 5.203125 -8.90625 5.703125 -8.90625 C 6.203125 -8.90625 6.582031 -8.820312 6.84375 -8.65625 L 6.46875 -6.734375 L 6.296875 -6.703125 C 6.148438 -6.765625 6.007812 -6.804688 5.875 -6.828125 C 5.75 -6.859375 5.585938 -6.875 5.390625 -6.875 C 4.773438 -6.875 4.300781 -6.65625 3.96875 -6.21875 C 3.644531 -5.78125 3.484375 -5.082031 3.484375 -4.125 L 3.484375 0 Z M 1.265625 0 "/></g></g></g><g fill="#000000" fill-opacity="1"><g transform="translate(709.060248, 84.88309)"><g/></g></g><g fill="#000000" fill-opacity="1"><g transform="translate(712.923817, 84.88309)"><g><path d="M 0.609375 0 L 0.609375 -1.90625 L 3.4375 -1.90625 L 3.4375 -9.203125 L 3.25 -9.25 C 2.851562 -9.050781 2.460938 -8.894531 2.078125 -8.78125 C 1.691406 -8.675781 1.25 -8.59375 0.75 -8.53125 L 0.75 -10.5 C 2.050781 -10.769531 3.097656 -11.171875 3.890625 -11.703125 L 5.734375 -11.703125 L 5.734375 -1.90625 L 8.25 -1.90625 L 8.25 0 Z M 0.609375 0 "/></g></g></g><path fill="#545454" d="M 165.972656 163.75 L 174.96875 163.75 L 174.96875 166.75 L 165.972656 166.75 M 177.964844 163.75 L 186.957031 163.75 L 186.957031 166.75 L 177.964844 166.75 M 189.957031 163.75 L 198.949219 163.75 L 198.949219 166.75 L 189.957031 166.75 M 201.949219 163.75 L 210.941406 163.75 L 210.941406 166.75 L 201.949219 166.75 M 213.9375 163.75 L 222.929688 163.75 L 222.929688 166.75 L 213.9375 166.75 M 225.929688 163.75 L 234.921875 163.75 L 234.921875 166.75 L 225.929688 166.75 M 237.921875 163.75 L 246.914062 163.75 L 246.914062 166.75 L 237.921875 166.75 M 249.910156 163.75 L 258.90625 163.75 L 258.90625 166.75 L 249.910156 166.75 M 261.902344 163.75 L 270.894531 163.75 L 270.894531 166.75 L 261.902344 166.75 M 273.894531 163.75 L 282.886719 163.75 L 282.886719 166.75 L 273.894531 166.75 M 285.882812 163.75 L 294.878906 163.75 L 294.878906 166.75 L 285.882812 166.75 M 297.875 163.75 L 306.867188 163.75 L 306.867188 166.75 L 297.875 166.75 M 309.867188 163.75 L 318.859375 163.75 L 318.859375 166.75 L 309.867188 166.75 M 321.855469 163.75 L 330.851562 163.75 L 330.851562 166.75 L 321.855469 166.75 M 333.847656 163.75 L 334.476562 163.75 L 334.476562 166.75 L 333.847656 166.75 " fill-opacity="1" fill-rule="nonzero"/><path stroke-linecap="round" transform="matrix(0.749433, 0, 0, 0.749433, 165.974548, 163.751214)" fill="none" stroke-linejoin="round" d="M 216.838353 -3.999431 L 224.839189 1.999892 L 216.838353 7.999215 " stroke="#545454" stroke-width="4" stroke-opacity="1" stroke-miterlimit="4"/><path fill="#545454" d="M 431.351562 163.910156 L 439.382812 159.863281 L 440.730469 162.539062 L 432.699219 166.589844 M 442.058594 158.515625 L 450.089844 154.46875 L 451.441406 157.144531 L 443.410156 161.191406 M 452.765625 153.117188 L 460.796875 149.070312 L 462.148438 151.746094 L 454.117188 155.796875 M 463.476562 147.722656 L 471.507812 143.675781 L 472.855469 146.351562 L 464.824219 150.398438 M 474.183594 142.324219 L 482.214844 138.277344 L 483.5625 140.953125 L 475.53125 145 M 484.890625 136.929688 L 492.921875 132.878906 L 494.269531 135.558594 L 486.242188 139.605469 M 495.597656 131.53125 L 503.628906 127.484375 L 504.980469 130.160156 L 496.949219 134.207031 M 506.308594 126.136719 L 514.339844 122.085938 L 515.6875 124.765625 L 507.65625 128.8125 M 517.015625 120.738281 L 525.046875 116.691406 L 526.394531 119.367188 L 518.363281 123.414062 M 527.722656 115.34375 L 535.753906 111.292969 L 537.101562 113.972656 L 529.070312 118.019531 M 538.429688 109.945312 L 546.460938 105.898438 L 547.8125 108.574219 L 539.78125 112.621094 M 549.136719 104.546875 L 557.167969 100.5 L 558.519531 103.179688 L 550.488281 107.226562 M 559.847656 99.152344 L 567.878906 95.105469 L 569.226562 97.78125 L 561.195312 101.828125 M 570.554688 93.753906 L 578.585938 89.707031 L 579.933594 92.386719 L 571.902344 96.433594 M 581.261719 88.359375 L 589.292969 84.3125 L 590.640625 86.988281 L 582.613281 91.035156 M 591.96875 82.960938 L 600 78.914062 L 601.351562 81.589844 L 593.320312 85.640625 " fill-opacity="1" fill-rule="nonzero"/><path stroke-linecap="round" transform="matrix(0.669244, -0.337289, 0.337289, 0.669244, 431.351709, 163.911406)" fill="none" stroke-linejoin="round" d="M 244.016435 -4.001137 L 252.018343 1.998711 L 244.015536 7.9989 " stroke="#545454" stroke-width="4" stroke-opacity="1" stroke-miterlimit="4"/><g clip-path="url(#1a31943a9c)"><path fill="#a6a6a6" d="M 250.972656 126.585938 C 250.441406 126.585938 249.90625 126.613281 249.375 126.664062 C 248.84375 126.71875 248.316406 126.796875 247.792969 126.898438 C 247.269531 127.003906 246.753906 127.132812 246.242188 127.289062 C 245.730469 127.445312 245.230469 127.625 244.734375 127.828125 C 244.242188 128.03125 243.761719 128.257812 243.289062 128.511719 C 242.820312 128.761719 242.363281 129.039062 241.917969 129.332031 C 241.472656 129.628906 241.046875 129.949219 240.632812 130.285156 C 240.21875 130.625 239.824219 130.984375 239.449219 131.359375 C 239.070312 131.738281 238.710938 132.132812 238.375 132.546875 C 238.035156 132.957031 237.71875 133.386719 237.421875 133.832031 C 237.125 134.273438 236.851562 134.730469 236.597656 135.203125 C 236.347656 135.671875 236.117188 136.15625 235.914062 136.648438 C 235.710938 137.140625 235.53125 137.644531 235.375 138.15625 C 235.21875 138.664062 235.089844 139.183594 234.988281 139.707031 C 234.882812 140.230469 234.804688 140.757812 234.753906 141.289062 C 234.699219 141.820312 234.671875 142.351562 234.671875 142.886719 C 234.671875 143.421875 234.699219 143.953125 234.753906 144.484375 C 234.804688 145.015625 234.882812 145.542969 234.988281 146.066406 C 235.089844 146.589844 235.21875 147.109375 235.375 147.617188 C 235.53125 148.128906 235.710938 148.632812 235.914062 149.125 C 236.117188 149.617188 236.347656 150.101562 236.597656 150.570312 C 236.851562 151.042969 237.125 151.5 237.421875 151.941406 C 237.71875 152.386719 238.035156 152.816406 238.375 153.226562 C 238.710938 153.640625 239.070312 154.035156 239.449219 154.414062 C 239.824219 154.789062 240.21875 155.148438 240.632812 155.488281 C 241.046875 155.824219 241.472656 156.144531 241.917969 156.441406 C 242.363281 156.738281 242.820312 157.011719 243.289062 157.261719 C 243.761719 157.515625 244.242188 157.742188 244.734375 157.945312 C 245.230469 158.152344 245.730469 158.332031 246.242188 158.484375 C 246.753906 158.640625 247.269531 158.769531 247.792969 158.875 C 248.316406 158.976562 248.84375 159.054688 249.375 159.109375 C 249.90625 159.160156 250.441406 159.1875 250.972656 159.1875 C 251.507812 159.1875 252.039062 159.160156 252.570312 159.109375 C 253.101562 159.054688 253.628906 158.976562 254.152344 158.875 C 254.675781 158.769531 255.195312 158.640625 255.707031 158.484375 C 256.214844 158.332031 256.71875 158.152344 257.210938 157.945312 C 257.703125 157.742188 258.1875 157.515625 258.65625 157.261719 C 259.128906 157.011719 259.585938 156.738281 260.03125 156.441406 C 260.472656 156.144531 260.902344 155.824219 261.316406 155.488281 C 261.726562 155.148438 262.121094 154.789062 262.5 154.414062 C 262.878906 154.035156 263.234375 153.640625 263.574219 153.226562 C 263.914062 152.816406 264.230469 152.386719 264.527344 151.941406 C 264.824219 151.5 265.097656 151.042969 265.347656 150.570312 C 265.601562 150.101562 265.828125 149.617188 266.03125 149.125 C 266.238281 148.632812 266.417969 148.128906 266.570312 147.617188 C 266.726562 147.109375 266.855469 146.589844 266.960938 146.066406 C 267.066406 145.542969 267.144531 145.015625 267.195312 144.484375 C 267.246094 143.953125 267.273438 143.421875 267.273438 142.886719 C 267.273438 142.351562 267.246094 141.820312 267.195312 141.289062 C 267.144531 140.757812 267.066406 140.230469 266.960938 139.707031 C 266.855469 139.183594 266.726562 138.667969 266.570312 138.15625 C 266.417969 137.644531 266.238281 137.140625 266.03125 136.648438 C 265.828125 136.15625 265.601562 135.675781 265.347656 135.203125 C 265.097656 134.734375 264.824219 134.273438 264.527344 133.832031 C 264.230469 133.386719 263.910156 132.960938 263.574219 132.546875 C 263.234375 132.132812 262.875 131.738281 262.5 131.363281 C 262.121094 130.984375 261.726562 130.625 261.3125 130.289062 C 260.902344 129.949219 260.472656 129.632812 260.027344 129.335938 C 259.585938 129.039062 259.128906 128.761719 258.65625 128.511719 C 258.1875 128.261719 257.703125 128.03125 257.210938 127.828125 C 256.71875 127.625 256.214844 127.445312 255.707031 127.289062 C 255.195312 127.132812 254.675781 127.003906 254.152344 126.898438 C 253.628906 126.796875 253.101562 126.71875 252.570312 126.664062 C 252.039062 126.613281 251.507812 126.585938 250.972656 126.585938 Z M 243.464844 134.84375 L 258.480469 134.84375 C 258.800781 134.84375 259.113281 134.898438 259.414062 135.011719 C 259.714844 135.121094 259.984375 135.28125 260.230469 135.492188 C 260.472656 135.699219 260.671875 135.945312 260.824219 136.226562 C 260.980469 136.503906 261.082031 136.804688 261.128906 137.121094 C 260.917969 137.238281 252.664062 141.996094 252.121094 142.304688 C 251.765625 142.507812 251.382812 142.609375 250.972656 142.609375 C 250.566406 142.609375 250.183594 142.507812 249.828125 142.304688 C 249.292969 142 241.019531 137.289062 240.816406 137.160156 C 240.859375 136.839844 240.957031 136.539062 241.109375 136.253906 C 241.265625 135.96875 241.460938 135.71875 241.707031 135.503906 C 241.949219 135.292969 242.222656 135.128906 242.527344 135.015625 C 242.828125 134.902344 243.140625 134.84375 243.464844 134.84375 Z M 261.160156 148.25 C 261.160156 148.605469 261.09375 148.949219 260.957031 149.277344 C 260.820312 149.601562 260.625 149.894531 260.375 150.144531 C 260.125 150.394531 259.835938 150.589844 259.507812 150.726562 C 259.179688 150.859375 258.835938 150.929688 258.480469 150.929688 L 243.464844 150.929688 C 243.109375 150.929688 242.769531 150.859375 242.441406 150.726562 C 242.113281 150.589844 241.824219 150.394531 241.570312 150.144531 C 241.320312 149.894531 241.128906 149.601562 240.992188 149.277344 C 240.855469 148.949219 240.785156 148.605469 240.785156 148.25 L 240.785156 138.378906 L 249.304688 143.238281 C 249.820312 143.535156 250.378906 143.679688 250.976562 143.679688 C 251.574219 143.679688 252.132812 143.535156 252.648438 143.238281 L 261.160156 138.339844 Z M 261.160156 148.25 " fill-opacity="1" fill-rule="nonzero"/></g><g clip-path="url(#42029a2d9a)"><path fill="#a6a6a6" d="M 564.675781 69.496094 C 564.140625 69.496094 563.609375 69.523438 563.078125 69.574219 C 562.546875 69.625 562.019531 69.707031 561.496094 69.808594 C 560.972656 69.914062 560.453125 70.042969 559.945312 70.199219 C 559.433594 70.351562 558.929688 70.53125 558.4375 70.738281 C 557.945312 70.941406 557.460938 71.167969 556.992188 71.421875 C 556.519531 71.671875 556.0625 71.945312 555.621094 72.242188 C 555.175781 72.539062 554.746094 72.855469 554.335938 73.195312 C 553.921875 73.535156 553.527344 73.894531 553.148438 74.269531 C 552.773438 74.648438 552.414062 75.042969 552.074219 75.457031 C 551.738281 75.867188 551.417969 76.296875 551.121094 76.742188 C 550.824219 77.183594 550.550781 77.640625 550.300781 78.113281 C 550.046875 78.582031 549.820312 79.066406 549.617188 79.558594 C 549.414062 80.050781 549.234375 80.554688 549.078125 81.066406 C 548.921875 81.574219 548.792969 82.09375 548.6875 82.617188 C 548.585938 83.140625 548.507812 83.667969 548.453125 84.199219 C 548.402344 84.730469 548.375 85.261719 548.375 85.796875 C 548.375 86.332031 548.402344 86.863281 548.453125 87.394531 C 548.507812 87.925781 548.585938 88.453125 548.6875 88.976562 C 548.792969 89.5 548.921875 90.015625 549.078125 90.527344 C 549.234375 91.039062 549.414062 91.539062 549.617188 92.035156 C 549.820312 92.527344 550.046875 93.007812 550.300781 93.480469 C 550.550781 93.949219 550.824219 94.410156 551.121094 94.851562 C 551.417969 95.296875 551.738281 95.722656 552.074219 96.136719 C 552.414062 96.550781 552.773438 96.945312 553.148438 97.320312 C 553.527344 97.699219 553.921875 98.058594 554.335938 98.398438 C 554.746094 98.734375 555.175781 99.054688 555.621094 99.347656 C 556.0625 99.644531 556.519531 99.921875 556.992188 100.171875 C 557.460938 100.421875 557.945312 100.652344 558.4375 100.855469 C 558.929688 101.058594 559.433594 101.238281 559.945312 101.394531 C 560.453125 101.550781 560.972656 101.679688 561.496094 101.785156 C 562.019531 101.886719 562.546875 101.964844 563.078125 102.019531 C 563.609375 102.070312 564.140625 102.097656 564.675781 102.097656 C 565.210938 102.097656 565.742188 102.070312 566.273438 102.019531 C 566.804688 101.964844 567.332031 101.886719 567.855469 101.785156 C 568.378906 101.679688 568.898438 101.550781 569.40625 101.394531 C 569.917969 101.238281 570.421875 101.058594 570.914062 100.855469 C 571.40625 100.652344 571.890625 100.421875 572.359375 100.171875 C 572.832031 99.921875 573.289062 99.644531 573.730469 99.347656 C 574.175781 99.054688 574.605469 98.734375 575.015625 98.398438 C 575.429688 98.058594 575.824219 97.699219 576.203125 97.320312 C 576.578125 96.945312 576.9375 96.550781 577.277344 96.136719 C 577.613281 95.722656 577.933594 95.296875 578.230469 94.851562 C 578.527344 94.410156 578.800781 93.949219 579.050781 93.480469 C 579.304688 93.007812 579.53125 92.527344 579.734375 92.035156 C 579.941406 91.539062 580.121094 91.039062 580.273438 90.527344 C 580.429688 90.015625 580.558594 89.5 580.664062 88.976562 C 580.765625 88.453125 580.84375 87.925781 580.898438 87.394531 C 580.949219 86.863281 580.976562 86.332031 580.976562 85.796875 C 580.976562 85.261719 580.949219 84.730469 580.898438 84.199219 C 580.84375 83.667969 580.765625 83.140625 580.664062 82.617188 C 580.558594 82.09375 580.429688 81.574219 580.273438 81.066406 C 580.117188 80.554688 579.9375 80.050781 579.734375 79.558594 C 579.53125 79.066406 579.300781 78.582031 579.050781 78.113281 C 578.800781 77.640625 578.523438 77.183594 578.226562 76.742188 C 577.933594 76.296875 577.613281 75.867188 577.277344 75.457031 C 576.9375 75.042969 576.578125 74.648438 576.203125 74.269531 C 575.824219 73.894531 575.429688 73.535156 575.015625 73.195312 C 574.601562 72.859375 574.175781 72.539062 573.730469 72.242188 C 573.289062 71.945312 572.828125 71.671875 572.359375 71.421875 C 571.886719 71.167969 571.40625 70.941406 570.914062 70.738281 C 570.421875 70.53125 569.917969 70.351562 569.40625 70.199219 C 568.894531 70.042969 568.378906 69.914062 567.855469 69.808594 C 567.332031 69.707031 566.804688 69.628906 566.273438 69.574219 C 565.742188 69.523438 565.210938 69.496094 564.675781 69.496094 Z M 557.167969 77.753906 L 572.183594 77.753906 C 572.503906 77.753906 572.816406 77.808594 573.117188 77.921875 C 573.417969 78.03125 573.6875 78.191406 573.929688 78.398438 C 574.175781 78.609375 574.371094 78.855469 574.527344 79.132812 C 574.683594 79.414062 574.785156 79.714844 574.832031 80.03125 C 574.617188 80.148438 566.367188 84.90625 565.820312 85.214844 C 565.464844 85.417969 565.085938 85.515625 564.675781 85.515625 C 564.265625 85.515625 563.886719 85.417969 563.53125 85.214844 C 562.996094 84.910156 554.722656 80.199219 554.519531 80.070312 C 554.5625 79.75 554.660156 79.445312 554.8125 79.160156 C 554.964844 78.875 555.164062 78.628906 555.40625 78.414062 C 555.652344 78.203125 555.925781 78.039062 556.226562 77.925781 C 556.53125 77.808594 556.84375 77.753906 557.167969 77.753906 Z M 574.863281 91.160156 C 574.863281 91.515625 574.792969 91.855469 574.660156 92.183594 C 574.523438 92.511719 574.328125 92.800781 574.078125 93.054688 C 573.828125 93.304688 573.535156 93.5 573.207031 93.632812 C 572.882812 93.769531 572.539062 93.839844 572.183594 93.839844 L 557.167969 93.839844 C 556.8125 93.839844 556.472656 93.769531 556.144531 93.632812 C 555.816406 93.5 555.523438 93.304688 555.273438 93.054688 C 555.023438 92.800781 554.828125 92.511719 554.691406 92.183594 C 554.558594 91.855469 554.488281 91.515625 554.488281 91.160156 L 554.488281 81.289062 L 563.003906 86.148438 C 563.523438 86.441406 564.082031 86.589844 564.679688 86.589844 C 565.273438 86.589844 565.832031 86.441406 566.351562 86.148438 L 574.863281 81.246094 Z M 574.863281 91.160156 " fill-opacity="1" fill-rule="nonzero"/></g><g clip-path="url(#5a0c4f060c)"><g clip-path="url(#6502a81a5b)"><path fill="#ffde59" d="M 602.628906 137.5625 L 747.007812 137.5625 L 747.007812 192.890625 L 602.628906 192.890625 Z M 602.628906 137.5625 " fill-opacity="1" fill-rule="nonzero"/></g></g><g clip-path="url(#f903371cf3)"><g clip-path="url(#8eb19f0571)"><path stroke-linecap="butt" transform="matrix(0.749433, 0, 0, 0.749433, 602.630449, 137.562203)" fill="none" stroke-linejoin="miter" d="M 8.202056 0.000396866 L 184.481044 0.000396866 C 186.659773 0.000396866 188.744682 0.865634 190.282302 2.403254 C 191.819921 3.940873 192.685158 6.025782 192.685158 8.204511 L 192.685158 65.622883 C 192.685158 67.801612 191.819921 69.88652 190.282302 71.42414 C 188.744682 72.96176 186.659773 73.826996 184.481044 73.826996 L 8.202056 73.826996 C 6.028539 73.826996 3.938418 72.96176 2.400799 71.42414 C 0.863179 69.88652 -0.0020582 67.801612 -0.0020582 65.622883 L -0.0020582 8.204511 C -0.0020582 6.025782 0.863179 3.940873 2.400799 2.403254 C 3.938418 0.865634 6.028539 0.000396866 8.202056 0.000396866 Z M 8.202056 0.000396866 " stroke="#000000" stroke-width="2" stroke-opacity="1" stroke-miterlimit="4"/></g></g><g fill="#000000" fill-opacity="1"><g transform="translate(627.243839, 170.537275)"><g><path d="M 6.390625 0.171875 C 5.316406 0.171875 4.367188 -0.0507812 3.546875 -0.5 C 2.722656 -0.945312 2.078125 -1.617188 1.609375 -2.515625 C 1.148438 -3.421875 0.921875 -4.53125 0.921875 -5.84375 C 0.921875 -7.164062 1.148438 -8.273438 1.609375 -9.171875 C 2.078125 -10.078125 2.722656 -10.753906 3.546875 -11.203125 C 4.367188 -11.648438 5.316406 -11.875 6.390625 -11.875 C 7.515625 -11.875 8.46875 -11.648438 9.25 -11.203125 C 10.039062 -10.765625 10.609375 -10.097656 10.953125 -9.203125 L 9.265625 -8.15625 L 9.0625 -8.171875 C 8.8125 -8.773438 8.46875 -9.207031 8.03125 -9.46875 C 7.601562 -9.738281 7.054688 -9.875 6.390625 -9.875 C 5.421875 -9.875 4.664062 -9.550781 4.125 -8.90625 C 3.582031 -8.269531 3.3125 -7.25 3.3125 -5.84375 C 3.3125 -4.457031 3.582031 -3.441406 4.125 -2.796875 C 4.664062 -2.148438 5.421875 -1.828125 6.390625 -1.828125 C 7.910156 -1.828125 8.84375 -2.566406 9.1875 -4.046875 L 9.390625 -4.046875 L 11.09375 -3.15625 C 10.769531 -2.050781 10.222656 -1.21875 9.453125 -0.65625 C 8.679688 -0.101562 7.660156 0.171875 6.390625 0.171875 Z M 6.390625 0.171875 "/></g></g></g><g fill="#000000" fill-opacity="1"><g transform="translate(638.714542, 170.537275)"><g><path d="M 5.125 0.171875 C 4.257812 0.171875 3.5 -0.00390625 2.84375 -0.359375 C 2.195312 -0.710938 1.691406 -1.234375 1.328125 -1.921875 C 0.972656 -2.609375 0.796875 -3.4375 0.796875 -4.40625 C 0.796875 -5.375 0.972656 -6.203125 1.328125 -6.890625 C 1.691406 -7.585938 2.195312 -8.113281 2.84375 -8.46875 C 3.5 -8.820312 4.257812 -9 5.125 -9 C 5.988281 -9 6.75 -8.820312 7.40625 -8.46875 C 8.0625 -8.113281 8.566406 -7.585938 8.921875 -6.890625 C 9.285156 -6.203125 9.46875 -5.375 9.46875 -4.40625 C 9.46875 -3.4375 9.285156 -2.609375 8.921875 -1.921875 C 8.566406 -1.234375 8.0625 -0.710938 7.40625 -0.359375 C 6.75 -0.00390625 5.988281 0.171875 5.125 0.171875 Z M 5.125 -1.71875 C 6.5 -1.71875 7.1875 -2.613281 7.1875 -4.40625 C 7.1875 -5.34375 7.007812 -6.023438 6.65625 -6.453125 C 6.300781 -6.890625 5.789062 -7.109375 5.125 -7.109375 C 3.757812 -7.109375 3.078125 -6.207031 3.078125 -4.40625 C 3.078125 -2.613281 3.757812 -1.71875 5.125 -1.71875 Z M 5.125 -1.71875 "/></g></g></g><g fill="#000000" fill-opacity="1"><g transform="translate(648.969382, 170.537275)"><g><path d="M 1.265625 0 L 1.265625 -8.828125 L 3.40625 -8.828125 L 3.40625 -7.53125 L 3.5625 -7.484375 C 4.113281 -8.492188 5.007812 -9 6.25 -9 C 7.257812 -9 8.003906 -8.71875 8.484375 -8.15625 C 8.960938 -7.601562 9.203125 -6.796875 9.203125 -5.734375 L 9.203125 0 L 6.984375 0 L 6.984375 -5.46875 C 6.984375 -6.050781 6.863281 -6.472656 6.625 -6.734375 C 6.394531 -6.992188 6.019531 -7.125 5.5 -7.125 C 4.863281 -7.125 4.367188 -6.914062 4.015625 -6.5 C 3.660156 -6.09375 3.484375 -5.445312 3.484375 -4.5625 L 3.484375 0 Z M 1.265625 0 "/></g></g></g><g fill="#000000" fill-opacity="1"><g transform="translate(659.304213, 170.537275)"><g><path d="M 4.125 0.171875 C 3.519531 0.171875 2.96875 0.101562 2.46875 -0.03125 C 1.96875 -0.175781 1.539062 -0.375 1.1875 -0.625 C 0.832031 -0.875 0.570312 -1.160156 0.40625 -1.484375 L 1.625 -2.8125 L 1.796875 -2.8125 C 2.085938 -2.414062 2.429688 -2.117188 2.828125 -1.921875 C 3.234375 -1.722656 3.671875 -1.625 4.140625 -1.625 C 4.578125 -1.625 4.90625 -1.703125 5.125 -1.859375 C 5.34375 -2.015625 5.453125 -2.234375 5.453125 -2.515625 C 5.453125 -2.742188 5.375 -2.929688 5.21875 -3.078125 C 5.0625 -3.234375 4.804688 -3.351562 4.453125 -3.4375 L 3.28125 -3.71875 C 2.40625 -3.925781 1.765625 -4.242188 1.359375 -4.671875 C 0.960938 -5.109375 0.765625 -5.65625 0.765625 -6.3125 C 0.765625 -6.863281 0.898438 -7.34375 1.171875 -7.75 C 1.453125 -8.15625 1.847656 -8.460938 2.359375 -8.671875 C 2.867188 -8.890625 3.460938 -9 4.140625 -9 C 4.941406 -9 5.601562 -8.882812 6.125 -8.65625 C 6.644531 -8.425781 7.050781 -8.117188 7.34375 -7.734375 L 6.15625 -6.453125 L 6 -6.453125 C 5.757812 -6.722656 5.484375 -6.921875 5.171875 -7.046875 C 4.867188 -7.179688 4.523438 -7.25 4.140625 -7.25 C 3.265625 -7.25 2.828125 -6.976562 2.828125 -6.4375 C 2.828125 -6.207031 2.910156 -6.019531 3.078125 -5.875 C 3.242188 -5.726562 3.53125 -5.609375 3.9375 -5.515625 L 5.03125 -5.28125 C 5.925781 -5.09375 6.578125 -4.785156 6.984375 -4.359375 C 7.398438 -3.929688 7.609375 -3.363281 7.609375 -2.65625 C 7.609375 -2.09375 7.46875 -1.597656 7.1875 -1.171875 C 6.914062 -0.742188 6.515625 -0.410156 5.984375 -0.171875 C 5.460938 0.0546875 4.84375 0.171875 4.125 0.171875 Z M 4.125 0.171875 "/></g></g></g><g fill="#000000" fill-opacity="1"><g transform="translate(667.439299, 170.537275)"><g><path d="M 4.046875 0.171875 C 3.046875 0.171875 2.3125 -0.0976562 1.84375 -0.640625 C 1.375 -1.179688 1.140625 -1.960938 1.140625 -2.984375 L 1.140625 -8.828125 L 3.359375 -8.828125 L 3.359375 -3.25 C 3.359375 -2.71875 3.472656 -2.328125 3.703125 -2.078125 C 3.929688 -1.828125 4.289062 -1.703125 4.78125 -1.703125 C 5.394531 -1.703125 5.867188 -1.898438 6.203125 -2.296875 C 6.546875 -2.703125 6.71875 -3.335938 6.71875 -4.203125 L 6.71875 -8.828125 L 8.9375 -8.828125 L 8.9375 0 L 6.8125 0 L 6.8125 -1.296875 L 6.640625 -1.34375 C 6.359375 -0.832031 6.015625 -0.453125 5.609375 -0.203125 C 5.203125 0.046875 4.679688 0.171875 4.046875 0.171875 Z M 4.046875 0.171875 "/></g></g></g><g fill="#000000" fill-opacity="1"><g transform="translate(677.646145, 170.537275)"><g><path d="M 1.265625 0 L 1.265625 -8.828125 L 3.40625 -8.828125 L 3.40625 -7.640625 L 3.5625 -7.609375 C 3.851562 -8.085938 4.191406 -8.4375 4.578125 -8.65625 C 4.960938 -8.882812 5.457031 -9 6.0625 -9 C 6.726562 -9 7.265625 -8.863281 7.671875 -8.59375 C 8.078125 -8.332031 8.375 -7.945312 8.5625 -7.4375 L 8.734375 -7.4375 C 9.003906 -7.96875 9.351562 -8.359375 9.78125 -8.609375 C 10.207031 -8.867188 10.742188 -9 11.390625 -9 C 13.222656 -9 14.140625 -7.976562 14.140625 -5.9375 L 14.140625 0 L 11.921875 0 L 11.921875 -5.65625 C 11.921875 -6.175781 11.816406 -6.550781 11.609375 -6.78125 C 11.410156 -7.007812 11.085938 -7.125 10.640625 -7.125 C 9.421875 -7.125 8.8125 -6.3125 8.8125 -4.6875 L 8.8125 0 L 6.59375 0 L 6.59375 -5.65625 C 6.59375 -6.175781 6.488281 -6.550781 6.28125 -6.78125 C 6.082031 -7.007812 5.757812 -7.125 5.3125 -7.125 C 4.738281 -7.125 4.289062 -6.929688 3.96875 -6.546875 C 3.644531 -6.171875 3.484375 -5.566406 3.484375 -4.734375 L 3.484375 0 Z M 1.265625 0 "/></g></g></g><g fill="#000000" fill-opacity="1"><g transform="translate(692.908419, 170.537275)"><g><path d="M 8.71875 -3.90625 L 3.046875 -3.90625 C 3.109375 -3.144531 3.328125 -2.585938 3.703125 -2.234375 C 4.078125 -1.890625 4.585938 -1.71875 5.234375 -1.71875 C 5.742188 -1.71875 6.15625 -1.8125 6.46875 -2 C 6.78125 -2.1875 7.035156 -2.472656 7.234375 -2.859375 L 7.390625 -2.859375 L 8.875 -1.90625 C 8.582031 -1.289062 8.144531 -0.789062 7.5625 -0.40625 C 6.976562 -0.0195312 6.203125 0.171875 5.234375 0.171875 C 4.316406 0.171875 3.523438 0 2.859375 -0.34375 C 2.203125 -0.695312 1.691406 -1.210938 1.328125 -1.890625 C 0.972656 -2.578125 0.796875 -3.414062 0.796875 -4.40625 C 0.796875 -5.414062 0.984375 -6.265625 1.359375 -6.953125 C 1.734375 -7.640625 2.242188 -8.148438 2.890625 -8.484375 C 3.535156 -8.828125 4.265625 -9 5.078125 -9 C 6.328125 -9 7.28125 -8.664062 7.9375 -8 C 8.601562 -7.34375 8.9375 -6.375 8.9375 -5.09375 C 8.9375 -4.625 8.921875 -4.265625 8.890625 -4.015625 Z M 6.8125 -5.34375 C 6.789062 -6.019531 6.632812 -6.507812 6.34375 -6.8125 C 6.0625 -7.125 5.640625 -7.28125 5.078125 -7.28125 C 3.953125 -7.28125 3.289062 -6.632812 3.09375 -5.34375 Z M 6.8125 -5.34375 "/></g></g></g><g fill="#000000" fill-opacity="1"><g transform="translate(702.49934, 170.537275)"><g><path d="M 1.265625 0 L 1.265625 -8.828125 L 3.421875 -8.828125 L 3.421875 -7.515625 L 3.59375 -7.484375 C 3.800781 -7.972656 4.078125 -8.332031 4.421875 -8.5625 C 4.773438 -8.789062 5.203125 -8.90625 5.703125 -8.90625 C 6.203125 -8.90625 6.582031 -8.820312 6.84375 -8.65625 L 6.46875 -6.734375 L 6.296875 -6.703125 C 6.148438 -6.765625 6.007812 -6.804688 5.875 -6.828125 C 5.75 -6.859375 5.585938 -6.875 5.390625 -6.875 C 4.773438 -6.875 4.300781 -6.65625 3.96875 -6.21875 C 3.644531 -5.78125 3.484375 -5.082031 3.484375 -4.125 L 3.484375 0 Z M 1.265625 0 "/></g></g></g><g fill="#000000" fill-opacity="1"><g transform="translate(709.418563, 170.537275)"><g/></g></g><g fill="#000000" fill-opacity="1"><g transform="translate(713.282132, 170.537275)"><g><path d="M 0.5625 -0.921875 C 0.5625 -1.566406 0.632812 -2.109375 0.78125 -2.546875 C 0.925781 -2.992188 1.15625 -3.398438 1.46875 -3.765625 C 1.789062 -4.140625 2.242188 -4.535156 2.828125 -4.953125 L 4.390625 -6.078125 C 4.816406 -6.378906 5.148438 -6.640625 5.390625 -6.859375 C 5.628906 -7.085938 5.804688 -7.328125 5.921875 -7.578125 C 6.046875 -7.828125 6.109375 -8.109375 6.109375 -8.421875 C 6.109375 -8.890625 5.960938 -9.253906 5.671875 -9.515625 C 5.378906 -9.773438 4.945312 -9.90625 4.375 -9.90625 C 3.820312 -9.90625 3.328125 -9.769531 2.890625 -9.5 C 2.460938 -9.238281 2.109375 -8.878906 1.828125 -8.421875 L 1.671875 -8.390625 L 0.40625 -9.8125 C 0.820312 -10.425781 1.363281 -10.921875 2.03125 -11.296875 C 2.695312 -11.679688 3.507812 -11.875 4.46875 -11.875 C 5.34375 -11.875 6.070312 -11.726562 6.65625 -11.4375 C 7.25 -11.144531 7.6875 -10.75 7.96875 -10.25 C 8.257812 -9.757812 8.40625 -9.191406 8.40625 -8.546875 C 8.40625 -7.984375 8.285156 -7.472656 8.046875 -7.015625 C 7.816406 -6.554688 7.492188 -6.128906 7.078125 -5.734375 C 6.671875 -5.347656 6.148438 -4.929688 5.515625 -4.484375 L 4.125 -3.515625 C 3.707031 -3.222656 3.414062 -2.957031 3.25 -2.71875 C 3.09375 -2.488281 3.015625 -2.226562 3.015625 -1.9375 L 8.296875 -1.9375 L 8.296875 0 L 0.5625 0 Z M 0.5625 -0.921875 "/></g></g></g><g clip-path="url(#e54bfed85f)"><g clip-path="url(#870d34f5b8)"><path fill="#7ed957" d="M 602.628906 223.261719 L 747.007812 223.261719 L 747.007812 278.59375 L 602.628906 278.59375 Z M 602.628906 223.261719 " fill-opacity="1" fill-rule="nonzero"/></g></g><g clip-path="url(#1a4ba2ba28)"><g clip-path="url(#9f2eee5402)"><path stroke-linecap="butt" transform="matrix(0.749433, 0, 0, 0.749433, 602.630449, 223.262028)" fill="none" stroke-linejoin="miter" d="M 8.202056 -0.0004131 L 184.481044 -0.0004131 C 186.659773 -0.0004131 188.744682 0.864824 190.282302 2.402444 C 191.819921 3.940063 192.685158 6.024972 192.685158 8.203701 L 192.685158 65.627285 C 192.685158 67.800802 191.819921 69.88571 190.282302 71.42333 C 188.744682 72.966162 186.659773 73.826186 184.481044 73.826186 L 8.202056 73.826186 C 6.028539 73.826186 3.938418 72.966162 2.400799 71.42333 C 0.863179 69.88571 -0.0020582 67.800802 -0.0020582 65.627285 L -0.0020582 8.203701 C -0.0020582 6.024972 0.863179 3.940063 2.400799 2.402444 C 3.938418 0.864824 6.028539 -0.0004131 8.202056 -0.0004131 Z M 8.202056 -0.0004131 " stroke="#000000" stroke-width="2" stroke-opacity="1" stroke-miterlimit="4"/></g></g><g fill="#000000" fill-opacity="1"><g transform="translate(626.962801, 256.237101)"><g><path d="M 6.390625 0.171875 C 5.316406 0.171875 4.367188 -0.0507812 3.546875 -0.5 C 2.722656 -0.945312 2.078125 -1.617188 1.609375 -2.515625 C 1.148438 -3.421875 0.921875 -4.53125 0.921875 -5.84375 C 0.921875 -7.164062 1.148438 -8.273438 1.609375 -9.171875 C 2.078125 -10.078125 2.722656 -10.753906 3.546875 -11.203125 C 4.367188 -11.648438 5.316406 -11.875 6.390625 -11.875 C 7.515625 -11.875 8.46875 -11.648438 9.25 -11.203125 C 10.039062 -10.765625 10.609375 -10.097656 10.953125 -9.203125 L 9.265625 -8.15625 L 9.0625 -8.171875 C 8.8125 -8.773438 8.46875 -9.207031 8.03125 -9.46875 C 7.601562 -9.738281 7.054688 -9.875 6.390625 -9.875 C 5.421875 -9.875 4.664062 -9.550781 4.125 -8.90625 C 3.582031 -8.269531 3.3125 -7.25 3.3125 -5.84375 C 3.3125 -4.457031 3.582031 -3.441406 4.125 -2.796875 C 4.664062 -2.148438 5.421875 -1.828125 6.390625 -1.828125 C 7.910156 -1.828125 8.84375 -2.566406 9.1875 -4.046875 L 9.390625 -4.046875 L 11.09375 -3.15625 C 10.769531 -2.050781 10.222656 -1.21875 9.453125 -0.65625 C 8.679688 -0.101562 7.660156 0.171875 6.390625 0.171875 Z M 6.390625 0.171875 "/></g></g></g><g fill="#000000" fill-opacity="1"><g transform="translate(638.433504, 256.237101)"><g><path d="M 5.125 0.171875 C 4.257812 0.171875 3.5 -0.00390625 2.84375 -0.359375 C 2.195312 -0.710938 1.691406 -1.234375 1.328125 -1.921875 C 0.972656 -2.609375 0.796875 -3.4375 0.796875 -4.40625 C 0.796875 -5.375 0.972656 -6.203125 1.328125 -6.890625 C 1.691406 -7.585938 2.195312 -8.113281 2.84375 -8.46875 C 3.5 -8.820312 4.257812 -9 5.125 -9 C 5.988281 -9 6.75 -8.820312 7.40625 -8.46875 C 8.0625 -8.113281 8.566406 -7.585938 8.921875 -6.890625 C 9.285156 -6.203125 9.46875 -5.375 9.46875 -4.40625 C 9.46875 -3.4375 9.285156 -2.609375 8.921875 -1.921875 C 8.566406 -1.234375 8.0625 -0.710938 7.40625 -0.359375 C 6.75 -0.00390625 5.988281 0.171875 5.125 0.171875 Z M 5.125 -1.71875 C 6.5 -1.71875 7.1875 -2.613281 7.1875 -4.40625 C 7.1875 -5.34375 7.007812 -6.023438 6.65625 -6.453125 C 6.300781 -6.890625 5.789062 -7.109375 5.125 -7.109375 C 3.757812 -7.109375 3.078125 -6.207031 3.078125 -4.40625 C 3.078125 -2.613281 3.757812 -1.71875 5.125 -1.71875 Z M 5.125 -1.71875 "/></g></g></g><g fill="#000000" fill-opacity="1"><g transform="translate(648.688345, 256.237101)"><g><path d="M 1.265625 0 L 1.265625 -8.828125 L 3.40625 -8.828125 L 3.40625 -7.53125 L 3.5625 -7.484375 C 4.113281 -8.492188 5.007812 -9 6.25 -9 C 7.257812 -9 8.003906 -8.71875 8.484375 -8.15625 C 8.960938 -7.601562 9.203125 -6.796875 9.203125 -5.734375 L 9.203125 0 L 6.984375 0 L 6.984375 -5.46875 C 6.984375 -6.050781 6.863281 -6.472656 6.625 -6.734375 C 6.394531 -6.992188 6.019531 -7.125 5.5 -7.125 C 4.863281 -7.125 4.367188 -6.914062 4.015625 -6.5 C 3.660156 -6.09375 3.484375 -5.445312 3.484375 -4.5625 L 3.484375 0 Z M 1.265625 0 "/></g></g></g><g fill="#000000" fill-opacity="1"><g transform="translate(659.023176, 256.237101)"><g><path d="M 4.125 0.171875 C 3.519531 0.171875 2.96875 0.101562 2.46875 -0.03125 C 1.96875 -0.175781 1.539062 -0.375 1.1875 -0.625 C 0.832031 -0.875 0.570312 -1.160156 0.40625 -1.484375 L 1.625 -2.8125 L 1.796875 -2.8125 C 2.085938 -2.414062 2.429688 -2.117188 2.828125 -1.921875 C 3.234375 -1.722656 3.671875 -1.625 4.140625 -1.625 C 4.578125 -1.625 4.90625 -1.703125 5.125 -1.859375 C 5.34375 -2.015625 5.453125 -2.234375 5.453125 -2.515625 C 5.453125 -2.742188 5.375 -2.929688 5.21875 -3.078125 C 5.0625 -3.234375 4.804688 -3.351562 4.453125 -3.4375 L 3.28125 -3.71875 C 2.40625 -3.925781 1.765625 -4.242188 1.359375 -4.671875 C 0.960938 -5.109375 0.765625 -5.65625 0.765625 -6.3125 C 0.765625 -6.863281 0.898438 -7.34375 1.171875 -7.75 C 1.453125 -8.15625 1.847656 -8.460938 2.359375 -8.671875 C 2.867188 -8.890625 3.460938 -9 4.140625 -9 C 4.941406 -9 5.601562 -8.882812 6.125 -8.65625 C 6.644531 -8.425781 7.050781 -8.117188 7.34375 -7.734375 L 6.15625 -6.453125 L 6 -6.453125 C 5.757812 -6.722656 5.484375 -6.921875 5.171875 -7.046875 C 4.867188 -7.179688 4.523438 -7.25 4.140625 -7.25 C 3.265625 -7.25 2.828125 -6.976562 2.828125 -6.4375 C 2.828125 -6.207031 2.910156 -6.019531 3.078125 -5.875 C 3.242188 -5.726562 3.53125 -5.609375 3.9375 -5.515625 L 5.03125 -5.28125 C 5.925781 -5.09375 6.578125 -4.785156 6.984375 -4.359375 C 7.398438 -3.929688 7.609375 -3.363281 7.609375 -2.65625 C 7.609375 -2.09375 7.46875 -1.597656 7.1875 -1.171875 C 6.914062 -0.742188 6.515625 -0.410156 5.984375 -0.171875 C 5.460938 0.0546875 4.84375 0.171875 4.125 0.171875 Z M 4.125 0.171875 "/></g></g></g><g fill="#000000" fill-opacity="1"><g transform="translate(667.158262, 256.237101)"><g><path d="M 4.046875 0.171875 C 3.046875 0.171875 2.3125 -0.0976562 1.84375 -0.640625 C 1.375 -1.179688 1.140625 -1.960938 1.140625 -2.984375 L 1.140625 -8.828125 L 3.359375 -8.828125 L 3.359375 -3.25 C 3.359375 -2.71875 3.472656 -2.328125 3.703125 -2.078125 C 3.929688 -1.828125 4.289062 -1.703125 4.78125 -1.703125 C 5.394531 -1.703125 5.867188 -1.898438 6.203125 -2.296875 C 6.546875 -2.703125 6.71875 -3.335938 6.71875 -4.203125 L 6.71875 -8.828125 L 8.9375 -8.828125 L 8.9375 0 L 6.8125 0 L 6.8125 -1.296875 L 6.640625 -1.34375 C 6.359375 -0.832031 6.015625 -0.453125 5.609375 -0.203125 C 5.203125 0.046875 4.679688 0.171875 4.046875 0.171875 Z M 4.046875 0.171875 "/></g></g></g><g fill="#000000" fill-opacity="1"><g transform="translate(677.365107, 256.237101)"><g><path d="M 1.265625 0 L 1.265625 -8.828125 L 3.40625 -8.828125 L 3.40625 -7.640625 L 3.5625 -7.609375 C 3.851562 -8.085938 4.191406 -8.4375 4.578125 -8.65625 C 4.960938 -8.882812 5.457031 -9 6.0625 -9 C 6.726562 -9 7.265625 -8.863281 7.671875 -8.59375 C 8.078125 -8.332031 8.375 -7.945312 8.5625 -7.4375 L 8.734375 -7.4375 C 9.003906 -7.96875 9.351562 -8.359375 9.78125 -8.609375 C 10.207031 -8.867188 10.742188 -9 11.390625 -9 C 13.222656 -9 14.140625 -7.976562 14.140625 -5.9375 L 14.140625 0 L 11.921875 0 L 11.921875 -5.65625 C 11.921875 -6.175781 11.816406 -6.550781 11.609375 -6.78125 C 11.410156 -7.007812 11.085938 -7.125 10.640625 -7.125 C 9.421875 -7.125 8.8125 -6.3125 8.8125 -4.6875 L 8.8125 0 L 6.59375 0 L 6.59375 -5.65625 C 6.59375 -6.175781 6.488281 -6.550781 6.28125 -6.78125 C 6.082031 -7.007812 5.757812 -7.125 5.3125 -7.125 C 4.738281 -7.125 4.289062 -6.929688 3.96875 -6.546875 C 3.644531 -6.171875 3.484375 -5.566406 3.484375 -4.734375 L 3.484375 0 Z M 1.265625 0 "/></g></g></g><g fill="#000000" fill-opacity="1"><g transform="translate(692.627381, 256.237101)"><g><path d="M 8.71875 -3.90625 L 3.046875 -3.90625 C 3.109375 -3.144531 3.328125 -2.585938 3.703125 -2.234375 C 4.078125 -1.890625 4.585938 -1.71875 5.234375 -1.71875 C 5.742188 -1.71875 6.15625 -1.8125 6.46875 -2 C 6.78125 -2.1875 7.035156 -2.472656 7.234375 -2.859375 L 7.390625 -2.859375 L 8.875 -1.90625 C 8.582031 -1.289062 8.144531 -0.789062 7.5625 -0.40625 C 6.976562 -0.0195312 6.203125 0.171875 5.234375 0.171875 C 4.316406 0.171875 3.523438 0 2.859375 -0.34375 C 2.203125 -0.695312 1.691406 -1.210938 1.328125 -1.890625 C 0.972656 -2.578125 0.796875 -3.414062 0.796875 -4.40625 C 0.796875 -5.414062 0.984375 -6.265625 1.359375 -6.953125 C 1.734375 -7.640625 2.242188 -8.148438 2.890625 -8.484375 C 3.535156 -8.828125 4.265625 -9 5.078125 -9 C 6.328125 -9 7.28125 -8.664062 7.9375 -8 C 8.601562 -7.34375 8.9375 -6.375 8.9375 -5.09375 C 8.9375 -4.625 8.921875 -4.265625 8.890625 -4.015625 Z M 6.8125 -5.34375 C 6.789062 -6.019531 6.632812 -6.507812 6.34375 -6.8125 C 6.0625 -7.125 5.640625 -7.28125 5.078125 -7.28125 C 3.953125 -7.28125 3.289062 -6.632812 3.09375 -5.34375 Z M 6.8125 -5.34375 "/></g></g></g><g fill="#000000" fill-opacity="1"><g transform="translate(702.218302, 256.237101)"><g><path d="M 1.265625 0 L 1.265625 -8.828125 L 3.421875 -8.828125 L 3.421875 -7.515625 L 3.59375 -7.484375 C 3.800781 -7.972656 4.078125 -8.332031 4.421875 -8.5625 C 4.773438 -8.789062 5.203125 -8.90625 5.703125 -8.90625 C 6.203125 -8.90625 6.582031 -8.820312 6.84375 -8.65625 L 6.46875 -6.734375 L 6.296875 -6.703125 C 6.148438 -6.765625 6.007812 -6.804688 5.875 -6.828125 C 5.75 -6.859375 5.585938 -6.875 5.390625 -6.875 C 4.773438 -6.875 4.300781 -6.65625 3.96875 -6.21875 C 3.644531 -5.78125 3.484375 -5.082031 3.484375 -4.125 L 3.484375 0 Z M 1.265625 0 "/></g></g></g><g fill="#000000" fill-opacity="1"><g transform="translate(709.137526, 256.237101)"><g/></g></g><g fill="#000000" fill-opacity="1"><g transform="translate(713.001094, 256.237101)"><g><path d="M 4.765625 0.171875 C 3.515625 0.171875 2.519531 -0.09375 1.78125 -0.625 C 1.050781 -1.15625 0.585938 -1.90625 0.390625 -2.875 L 2.140625 -3.703125 L 2.328125 -3.671875 C 2.515625 -3.023438 2.789062 -2.550781 3.15625 -2.25 C 3.53125 -1.957031 4.039062 -1.8125 4.6875 -1.8125 C 5.320312 -1.8125 5.800781 -1.957031 6.125 -2.25 C 6.457031 -2.539062 6.625 -2.96875 6.625 -3.53125 C 6.625 -4.082031 6.457031 -4.503906 6.125 -4.796875 C 5.800781 -5.085938 5.320312 -5.234375 4.6875 -5.234375 L 2.921875 -5.234375 L 2.921875 -7.03125 L 4.46875 -7.03125 C 4.988281 -7.03125 5.398438 -7.160156 5.703125 -7.421875 C 6.015625 -7.679688 6.171875 -8.054688 6.171875 -8.546875 C 6.171875 -9.023438 6.023438 -9.382812 5.734375 -9.625 C 5.453125 -9.875 5.050781 -10 4.53125 -10 C 4.007812 -10 3.546875 -9.875 3.140625 -9.625 C 2.742188 -9.382812 2.421875 -9.054688 2.171875 -8.640625 L 2 -8.609375 L 0.78125 -10.015625 C 1.1875 -10.578125 1.710938 -11.023438 2.359375 -11.359375 C 3.003906 -11.703125 3.773438 -11.875 4.671875 -11.875 C 5.890625 -11.875 6.820312 -11.613281 7.46875 -11.09375 C 8.113281 -10.582031 8.4375 -9.863281 8.4375 -8.9375 C 8.4375 -8.375 8.304688 -7.894531 8.046875 -7.5 C 7.785156 -7.101562 7.410156 -6.757812 6.921875 -6.46875 L 6.921875 -6.3125 C 8.273438 -5.832031 8.953125 -4.867188 8.953125 -3.421875 C 8.953125 -2.703125 8.796875 -2.070312 8.484375 -1.53125 C 8.171875 -0.988281 7.703125 -0.566406 7.078125 -0.265625 C 6.453125 0.0234375 5.679688 0.171875 4.765625 0.171875 Z M 4.765625 0.171875 "/></g></g></g><path fill="#545454" d="M 432.027344 163.75 L 441.019531 163.75 L 441.019531 166.746094 L 432.027344 166.75 M 444.015625 163.75 L 453.011719 163.75 L 453.011719 166.746094 L 444.015625 166.746094 M 456.007812 163.746094 L 465 163.746094 L 465 166.746094 L 456.007812 166.746094 M 468 163.746094 L 476.992188 163.746094 L 476.992188 166.742188 L 468 166.746094 M 479.988281 163.746094 L 488.984375 163.742188 L 488.984375 166.742188 L 479.992188 166.742188 M 491.980469 163.742188 L 500.972656 163.742188 L 500.972656 166.738281 L 491.980469 166.742188 M 503.972656 163.742188 L 512.964844 163.742188 L 512.964844 166.738281 L 503.972656 166.738281 M 515.960938 163.738281 L 524.957031 163.738281 L 524.957031 166.738281 L 515.964844 166.738281 M 527.953125 163.738281 L 536.945312 163.738281 L 536.945312 166.734375 L 527.953125 166.734375 M 539.945312 163.738281 L 548.9375 163.734375 L 548.9375 166.734375 L 539.945312 166.734375 M 551.933594 163.734375 L 560.929688 163.734375 L 560.929688 166.730469 L 551.9375 166.734375 M 563.925781 163.734375 L 572.917969 163.730469 L 572.921875 166.730469 L 563.925781 166.730469 M 575.917969 163.730469 L 584.910156 163.730469 L 584.910156 166.730469 L 575.917969 166.730469 M 587.910156 163.730469 L 596.902344 163.730469 L 596.902344 166.726562 L 587.910156 166.726562 M 599.898438 163.730469 L 601.128906 163.730469 L 601.132812 166.726562 L 599.898438 166.726562 " fill-opacity="1" fill-rule="nonzero"/><path stroke-linecap="round" transform="matrix(0.749433, -0.000100053, 0.000100053, 0.749433, 432.026175, 163.751214)" fill="none" stroke-linejoin="round" d="M 217.640449 -4.001649 L 225.640483 1.998742 L 217.644059 8.002211 " stroke="#545454" stroke-width="4" stroke-opacity="1" stroke-miterlimit="4"/><path fill="#545454" d="M 432.699219 163.910156 L 440.734375 167.945312 L 439.390625 170.625 L 431.355469 166.589844 M 443.414062 169.292969 L 451.449219 173.328125 L 450.105469 176.007812 L 442.070312 171.972656 M 454.128906 174.671875 L 462.167969 178.710938 L 460.820312 181.390625 L 452.785156 177.351562 M 464.84375 180.054688 L 472.882812 184.089844 L 471.535156 186.769531 L 463.5 182.734375 M 475.5625 185.4375 L 483.597656 189.472656 L 482.253906 192.152344 L 474.214844 188.117188 M 486.277344 190.816406 L 494.3125 194.855469 L 492.96875 197.53125 L 484.929688 193.496094 M 496.992188 196.199219 L 505.027344 200.234375 L 503.683594 202.914062 L 495.648438 198.878906 M 507.707031 201.582031 L 515.746094 205.617188 L 514.398438 208.296875 L 506.363281 204.257812 M 518.421875 206.960938 L 526.460938 210.996094 L 525.113281 213.675781 L 517.078125 209.640625 M 529.140625 212.34375 L 537.175781 216.378906 L 535.832031 219.058594 L 527.792969 215.023438 M 539.855469 217.726562 L 547.890625 221.761719 L 546.546875 224.441406 L 538.507812 220.402344 M 550.570312 223.105469 L 558.605469 227.140625 L 557.261719 229.820312 L 549.226562 225.785156 M 561.285156 228.488281 L 569.324219 232.523438 L 567.976562 235.203125 L 559.941406 231.167969 M 572 233.867188 L 580.039062 237.90625 L 578.691406 240.582031 L 570.65625 236.546875 M 582.71875 239.25 L 590.753906 243.285156 L 589.410156 245.964844 L 581.371094 241.929688 M 593.433594 244.632812 L 601.46875 248.667969 L 600.125 251.347656 L 592.085938 247.308594 " fill-opacity="1" fill-rule="nonzero"/><path stroke-linecap="round" transform="matrix(0.669723, 0.336335, -0.336335, 0.669723, 432.698867, 163.911053)" fill="none" stroke-linejoin="round" d="M 244.736399 -3.998083 L 252.735289 1.999504 L 244.736518 7.999583 " stroke="#545454" stroke-width="4" stroke-opacity="1" stroke-miterlimit="4"/><g clip-path="url(#7f43b2a679)"><path fill="#a6a6a6" d="M 564.675781 137.585938 C 564.140625 137.585938 563.609375 137.609375 563.078125 137.664062 C 562.546875 137.714844 562.019531 137.792969 561.496094 137.898438 C 560.972656 138.003906 560.453125 138.132812 559.945312 138.285156 C 559.433594 138.441406 558.929688 138.621094 558.4375 138.824219 C 557.945312 139.03125 557.460938 139.257812 556.992188 139.507812 C 556.519531 139.761719 556.0625 140.035156 555.621094 140.332031 C 555.175781 140.628906 554.746094 140.945312 554.335938 141.285156 C 553.921875 141.625 553.527344 141.980469 553.148438 142.359375 C 552.773438 142.738281 552.414062 143.132812 552.074219 143.542969 C 551.738281 143.957031 551.417969 144.386719 551.121094 144.828125 C 550.824219 145.273438 550.550781 145.730469 550.300781 146.203125 C 550.046875 146.671875 549.820312 147.152344 549.617188 147.648438 C 549.414062 148.140625 549.234375 148.644531 549.078125 149.152344 C 548.921875 149.664062 548.792969 150.179688 548.6875 150.707031 C 548.585938 151.230469 548.507812 151.757812 548.453125 152.289062 C 548.402344 152.820312 548.375 153.351562 548.375 153.886719 C 548.375 154.417969 548.402344 154.953125 548.453125 155.484375 C 548.507812 156.015625 548.585938 156.542969 548.6875 157.066406 C 548.792969 157.589844 548.921875 158.105469 549.078125 158.617188 C 549.234375 159.128906 549.414062 159.628906 549.617188 160.121094 C 549.820312 160.617188 550.046875 161.097656 550.300781 161.570312 C 550.550781 162.039062 550.824219 162.496094 551.121094 162.941406 C 551.417969 163.386719 551.738281 163.8125 552.074219 164.226562 C 552.414062 164.636719 552.773438 165.035156 553.148438 165.410156 C 553.527344 165.789062 553.921875 166.148438 554.335938 166.484375 C 554.746094 166.824219 555.175781 167.140625 555.621094 167.4375 C 556.0625 167.734375 556.519531 168.007812 556.992188 168.261719 C 557.460938 168.511719 557.945312 168.742188 558.4375 168.945312 C 558.929688 169.148438 559.433594 169.328125 559.945312 169.484375 C 560.453125 169.636719 560.972656 169.769531 561.496094 169.871094 C 562.019531 169.976562 562.546875 170.054688 563.078125 170.105469 C 563.609375 170.160156 564.140625 170.183594 564.675781 170.183594 C 565.210938 170.183594 565.742188 170.160156 566.273438 170.105469 C 566.804688 170.054688 567.332031 169.976562 567.855469 169.871094 C 568.378906 169.769531 568.898438 169.636719 569.40625 169.484375 C 569.917969 169.328125 570.421875 169.148438 570.914062 168.945312 C 571.40625 168.742188 571.890625 168.511719 572.359375 168.261719 C 572.832031 168.007812 573.289062 167.734375 573.730469 167.4375 C 574.175781 167.140625 574.605469 166.824219 575.015625 166.484375 C 575.429688 166.148438 575.824219 165.789062 576.203125 165.410156 C 576.578125 165.035156 576.9375 164.636719 577.277344 164.226562 C 577.613281 163.8125 577.933594 163.386719 578.230469 162.941406 C 578.527344 162.496094 578.800781 162.039062 579.050781 161.570312 C 579.304688 161.097656 579.53125 160.617188 579.734375 160.121094 C 579.941406 159.628906 580.121094 159.128906 580.273438 158.617188 C 580.429688 158.105469 580.558594 157.589844 580.664062 157.066406 C 580.765625 156.542969 580.84375 156.015625 580.898438 155.484375 C 580.949219 154.953125 580.976562 154.417969 580.976562 153.886719 C 580.976562 153.351562 580.949219 152.820312 580.898438 152.289062 C 580.84375 151.757812 580.765625 151.230469 580.664062 150.707031 C 580.558594 150.183594 580.429688 149.664062 580.273438 149.152344 C 580.117188 148.644531 579.9375 148.140625 579.734375 147.648438 C 579.53125 147.15625 579.300781 146.671875 579.050781 146.203125 C 578.800781 145.730469 578.523438 145.273438 578.226562 144.828125 C 577.933594 144.386719 577.613281 143.957031 577.277344 143.546875 C 576.9375 143.132812 576.578125 142.738281 576.203125 142.359375 C 575.824219 141.980469 575.429688 141.625 575.015625 141.285156 C 574.601562 140.945312 574.175781 140.628906 573.730469 140.332031 C 573.289062 140.035156 572.828125 139.761719 572.359375 139.511719 C 571.886719 139.257812 571.40625 139.03125 570.914062 138.828125 C 570.421875 138.621094 569.917969 138.441406 569.40625 138.289062 C 568.894531 138.132812 568.378906 138.003906 567.855469 137.898438 C 567.332031 137.792969 566.804688 137.714844 566.273438 137.664062 C 565.742188 137.609375 565.210938 137.585938 564.675781 137.585938 Z M 557.167969 145.84375 L 572.183594 145.84375 C 572.503906 145.84375 572.816406 145.898438 573.117188 146.007812 C 573.417969 146.121094 573.6875 146.28125 573.929688 146.488281 C 574.175781 146.699219 574.371094 146.941406 574.527344 147.222656 C 574.683594 147.503906 574.785156 147.800781 574.832031 148.117188 C 574.617188 148.234375 566.367188 152.992188 565.820312 153.304688 C 565.464844 153.503906 565.085938 153.605469 564.675781 153.605469 C 564.265625 153.605469 563.886719 153.503906 563.53125 153.304688 C 562.996094 153 554.722656 148.285156 554.519531 148.160156 C 554.5625 147.839844 554.660156 147.535156 554.8125 147.25 C 554.964844 146.964844 555.164062 146.714844 555.40625 146.503906 C 555.652344 146.289062 555.925781 146.125 556.226562 146.011719 C 556.53125 145.898438 556.84375 145.84375 557.167969 145.84375 Z M 574.863281 159.25 C 574.863281 159.605469 574.792969 159.945312 574.660156 160.273438 C 574.523438 160.601562 574.328125 160.890625 574.078125 161.140625 C 573.828125 161.394531 573.535156 161.585938 573.207031 161.722656 C 572.882812 161.859375 572.539062 161.929688 572.183594 161.929688 L 557.167969 161.929688 C 556.8125 161.929688 556.472656 161.859375 556.144531 161.722656 C 555.816406 161.585938 555.523438 161.394531 555.273438 161.140625 C 555.023438 160.890625 554.828125 160.601562 554.691406 160.273438 C 554.558594 159.945312 554.488281 159.605469 554.488281 159.25 L 554.488281 149.378906 L 563.003906 154.238281 C 563.523438 154.53125 564.082031 154.679688 564.679688 154.679688 C 565.273438 154.679688 565.832031 154.53125 566.351562 154.238281 L 574.863281 149.335938 Z M 574.863281 159.25 " fill-opacity="1" fill-rule="nonzero"/></g><g clip-path="url(#51fbda301a)"><path fill="#a6a6a6" d="M 564.675781 227.730469 C 564.140625 227.730469 563.609375 227.757812 563.078125 227.8125 C 562.546875 227.863281 562.019531 227.941406 561.496094 228.046875 C 560.972656 228.148438 560.453125 228.277344 559.945312 228.433594 C 559.433594 228.589844 558.929688 228.769531 558.4375 228.972656 C 557.945312 229.175781 557.460938 229.40625 556.992188 229.65625 C 556.519531 229.910156 556.0625 230.183594 555.621094 230.480469 C 555.175781 230.777344 554.746094 231.09375 554.335938 231.433594 C 553.921875 231.769531 553.527344 232.128906 553.148438 232.507812 C 552.773438 232.882812 552.414062 233.277344 552.074219 233.691406 C 551.738281 234.105469 551.417969 234.53125 551.121094 234.976562 C 550.824219 235.421875 550.550781 235.878906 550.300781 236.347656 C 550.046875 236.820312 549.820312 237.300781 549.617188 237.792969 C 549.414062 238.289062 549.234375 238.789062 549.078125 239.300781 C 548.921875 239.8125 548.792969 240.328125 548.6875 240.851562 C 548.585938 241.375 548.507812 241.902344 548.453125 242.433594 C 548.402344 242.964844 548.375 243.5 548.375 244.03125 C 548.375 244.566406 548.402344 245.097656 548.453125 245.628906 C 548.507812 246.160156 548.585938 246.6875 548.6875 247.210938 C 548.792969 247.734375 548.921875 248.253906 549.078125 248.765625 C 549.234375 249.273438 549.414062 249.777344 549.617188 250.269531 C 549.820312 250.761719 550.046875 251.246094 550.300781 251.714844 C 550.550781 252.1875 550.824219 252.644531 551.121094 253.089844 C 551.417969 253.53125 551.738281 253.960938 552.074219 254.375 C 552.414062 254.785156 552.773438 255.179688 553.148438 255.558594 C 553.527344 255.9375 553.921875 256.292969 554.335938 256.632812 C 554.746094 256.972656 555.175781 257.289062 555.621094 257.585938 C 556.0625 257.882812 556.519531 258.15625 556.992188 258.40625 C 557.460938 258.660156 557.945312 258.886719 558.4375 259.09375 C 558.929688 259.296875 559.433594 259.476562 559.945312 259.628906 C 560.453125 259.785156 560.972656 259.914062 561.496094 260.019531 C 562.019531 260.125 562.546875 260.203125 563.078125 260.253906 C 563.609375 260.304688 564.140625 260.332031 564.675781 260.332031 C 565.210938 260.332031 565.742188 260.304688 566.273438 260.253906 C 566.804688 260.203125 567.332031 260.125 567.855469 260.019531 C 568.378906 259.914062 568.898438 259.785156 569.40625 259.628906 C 569.917969 259.476562 570.421875 259.296875 570.914062 259.09375 C 571.40625 258.886719 571.890625 258.660156 572.359375 258.40625 C 572.832031 258.15625 573.289062 257.882812 573.730469 257.585938 C 574.175781 257.289062 574.605469 256.972656 575.015625 256.632812 C 575.429688 256.292969 575.824219 255.9375 576.203125 255.558594 C 576.578125 255.179688 576.9375 254.785156 577.277344 254.375 C 577.613281 253.960938 577.933594 253.53125 578.230469 253.089844 C 578.527344 252.644531 578.800781 252.1875 579.050781 251.714844 C 579.304688 251.246094 579.53125 250.761719 579.734375 250.269531 C 579.941406 249.777344 580.121094 249.273438 580.273438 248.765625 C 580.429688 248.253906 580.558594 247.734375 580.664062 247.210938 C 580.765625 246.6875 580.84375 246.160156 580.898438 245.628906 C 580.949219 245.097656 580.976562 244.566406 580.976562 244.03125 C 580.976562 243.5 580.949219 242.964844 580.898438 242.433594 C 580.84375 241.902344 580.765625 241.375 580.664062 240.851562 C 580.558594 240.328125 580.429688 239.8125 580.273438 239.300781 C 580.117188 238.789062 579.9375 238.289062 579.734375 237.796875 C 579.53125 237.300781 579.300781 236.820312 579.050781 236.347656 C 578.800781 235.878906 578.523438 235.421875 578.226562 234.976562 C 577.933594 234.53125 577.613281 234.105469 577.277344 233.691406 C 576.9375 233.28125 576.578125 232.882812 576.203125 232.507812 C 575.824219 232.128906 575.429688 231.773438 575.015625 231.433594 C 574.601562 231.09375 574.175781 230.777344 573.730469 230.480469 C 573.289062 230.183594 572.828125 229.910156 572.359375 229.65625 C 571.886719 229.40625 571.40625 229.179688 570.914062 228.972656 C 570.421875 228.769531 569.917969 228.589844 569.40625 228.433594 C 568.894531 228.28125 568.378906 228.148438 567.855469 228.046875 C 567.332031 227.941406 566.804688 227.863281 566.273438 227.8125 C 565.742188 227.757812 565.210938 227.730469 564.675781 227.730469 Z M 557.167969 235.988281 L 572.183594 235.988281 C 572.503906 235.988281 572.816406 236.042969 573.117188 236.15625 C 573.417969 236.265625 573.6875 236.425781 573.929688 236.636719 C 574.175781 236.84375 574.371094 237.089844 574.527344 237.371094 C 574.683594 237.652344 574.785156 237.949219 574.832031 238.265625 C 574.617188 238.382812 566.367188 243.140625 565.820312 243.453125 C 565.464844 243.652344 565.085938 243.753906 564.675781 243.753906 C 564.265625 243.753906 563.886719 243.652344 563.53125 243.453125 C 562.996094 243.144531 554.722656 238.433594 554.519531 238.308594 C 554.5625 237.984375 554.660156 237.683594 554.8125 237.398438 C 554.964844 237.113281 555.164062 236.863281 555.40625 236.652344 C 555.652344 236.4375 555.925781 236.273438 556.226562 236.160156 C 556.53125 236.046875 556.84375 235.988281 557.167969 235.988281 Z M 574.863281 249.394531 C 574.863281 249.75 574.792969 250.09375 574.660156 250.421875 C 574.523438 250.75 574.328125 251.039062 574.078125 251.289062 C 573.828125 251.539062 573.535156 251.734375 573.207031 251.871094 C 572.882812 252.007812 572.539062 252.074219 572.183594 252.074219 L 557.167969 252.074219 C 556.8125 252.074219 556.472656 252.007812 556.144531 251.871094 C 555.816406 251.734375 555.523438 251.539062 555.273438 251.289062 C 555.023438 251.039062 554.828125 250.75 554.691406 250.421875 C 554.558594 250.09375 554.488281 249.75 554.488281 249.394531 L 554.488281 239.523438 L 563.003906 244.382812 C 563.523438 244.679688 564.082031 244.828125 564.679688 244.828125 C 565.273438 244.828125 565.832031 244.679688 566.351562 244.382812 L 574.863281 239.484375 Z M 574.863281 249.394531 " fill-opacity="1" fill-rule="nonzero"/></g></svg>