<svg xmlns="http://www.w3.org/2000/svg" xmlns:xlink="http://www.w3.org/1999/xlink" width="1024" zoomAndPan="magnify" viewBox="0 0 768 330.749987" height="441" preserveAspectRatio="xMidYMid meet" version="1.0"><defs><g/><clipPath id="760037e821"><path d="M 115.46875 137.585938 L 260 137.585938 L 260 192.914062 L 115.46875 192.914062 Z M 115.46875 137.585938 " clip-rule="nonzero"/></clipPath><clipPath id="fbdcf954cd"><path d="M 121.464844 137.585938 L 253.882812 137.585938 C 255.472656 137.585938 256.996094 138.214844 258.121094 139.339844 C 259.246094 140.464844 259.875 141.992188 259.875 143.582031 L 259.875 186.917969 C 259.875 188.511719 259.246094 190.035156 258.121094 191.160156 C 256.996094 192.285156 255.472656 192.914062 253.882812 192.914062 L 121.464844 192.914062 C 119.875 192.914062 118.351562 192.285156 117.226562 191.160156 C 116.101562 190.035156 115.46875 188.511719 115.46875 186.917969 L 115.46875 143.582031 C 115.46875 141.992188 116.101562 140.464844 117.226562 139.339844 C 118.351562 138.214844 119.875 137.585938 121.464844 137.585938 Z M 121.464844 137.585938 " clip-rule="nonzero"/></clipPath><clipPath id="38449e3d53"><path d="M 115.46875 137.585938 L 260 137.585938 L 260 193 L 115.46875 193 Z M 115.46875 137.585938 " clip-rule="nonzero"/></clipPath><clipPath id="4d353e7420"><path d="M 121.464844 137.585938 L 253.878906 137.585938 C 255.46875 137.585938 256.996094 138.214844 258.121094 139.339844 C 259.242188 140.464844 259.875 141.992188 259.875 143.582031 L 259.875 186.917969 C 259.875 188.507812 259.242188 190.035156 258.121094 191.160156 C 256.996094 192.28125 255.46875 192.914062 253.878906 192.914062 L 121.464844 192.914062 C 119.875 192.914062 118.351562 192.28125 117.226562 191.160156 C 116.101562 190.035156 115.46875 188.507812 115.46875 186.917969 L 115.46875 143.582031 C 115.46875 141.992188 116.101562 140.464844 117.226562 139.339844 C 118.351562 138.214844 119.875 137.585938 121.464844 137.585938 Z M 121.464844 137.585938 " clip-rule="nonzero"/></clipPath><clipPath id="a29f04c883"><path d="M 507.519531 51.90625 L 652 51.90625 L 652 107.238281 L 507.519531 107.238281 Z M 507.519531 51.90625 " clip-rule="nonzero"/></clipPath><clipPath id="57f8108312"><path d="M 513.515625 51.90625 L 645.929688 51.90625 C 647.519531 51.90625 649.046875 52.539062 650.171875 53.664062 C 651.292969 54.789062 651.925781 56.3125 651.925781 57.902344 L 651.925781 101.242188 C 651.925781 102.832031 651.292969 104.359375 650.171875 105.480469 C 649.046875 106.605469 647.519531 107.238281 645.929688 107.238281 L 513.515625 107.238281 C 511.925781 107.238281 510.398438 106.605469 509.273438 105.480469 C 508.152344 104.359375 507.519531 102.832031 507.519531 101.242188 L 507.519531 57.902344 C 507.519531 56.3125 508.152344 54.789062 509.273438 53.664062 C 510.398438 52.539062 511.925781 51.90625 513.515625 51.90625 Z M 513.515625 51.90625 " clip-rule="nonzero"/></clipPath><clipPath id="8f5580aec2"><path d="M 507.519531 51.90625 L 652 51.90625 L 652 107.367188 L 507.519531 107.367188 Z M 507.519531 51.90625 " clip-rule="nonzero"/></clipPath><clipPath id="237d76cf78"><path d="M 513.515625 51.90625 L 645.929688 51.90625 C 647.519531 51.90625 649.042969 52.539062 650.167969 53.664062 C 651.292969 54.789062 651.925781 56.3125 651.925781 57.902344 L 651.925781 101.242188 C 651.925781 102.832031 651.292969 104.355469 650.167969 105.480469 C 649.042969 106.605469 647.519531 107.238281 645.929688 107.238281 L 513.515625 107.238281 C 511.925781 107.238281 510.398438 106.605469 509.277344 105.480469 C 508.152344 104.355469 507.519531 102.832031 507.519531 101.242188 L 507.519531 57.902344 C 507.519531 56.3125 508.152344 54.789062 509.277344 53.664062 C 510.398438 52.539062 511.925781 51.90625 513.515625 51.90625 Z M 513.515625 51.90625 " clip-rule="nonzero"/></clipPath><clipPath id="7b3872e15a"><path d="M 355.203125 98.964844 L 388 98.964844 L 388 131.941406 L 355.203125 131.941406 Z M 355.203125 98.964844 " clip-rule="nonzero"/></clipPath><clipPath id="c5564847ff"><path d="M 508.125 137.5625 L 652.714844 137.5625 L 652.714844 192.890625 L 508.125 192.890625 Z M 508.125 137.5625 " clip-rule="nonzero"/></clipPath><clipPath id="eeabf5926a"><path d="M 514.117188 137.5625 L 646.535156 137.5625 C 648.125 137.5625 649.648438 138.195312 650.773438 139.316406 C 651.898438 140.441406 652.53125 141.96875 652.53125 143.558594 L 652.53125 186.898438 C 652.53125 188.488281 651.898438 190.011719 650.773438 191.136719 C 649.648438 192.261719 648.125 192.890625 646.535156 192.890625 L 514.117188 192.890625 C 512.527344 192.890625 511.003906 192.261719 509.878906 191.136719 C 508.753906 190.011719 508.125 188.488281 508.125 186.898438 L 508.125 143.558594 C 508.125 141.96875 508.753906 140.441406 509.878906 139.316406 C 511.003906 138.195312 512.527344 137.5625 514.117188 137.5625 Z M 514.117188 137.5625 " clip-rule="nonzero"/></clipPath><clipPath id="4cb3096268"><path d="M 508.125 137.5625 L 652.765625 137.5625 L 652.765625 193 L 508.125 193 Z M 508.125 137.5625 " clip-rule="nonzero"/></clipPath><clipPath id="aebc4e472b"><path d="M 514.121094 137.5625 L 646.535156 137.5625 C 648.125 137.5625 649.648438 138.195312 650.773438 139.316406 C 651.898438 140.441406 652.527344 141.96875 652.527344 143.558594 L 652.527344 186.894531 C 652.527344 188.484375 651.898438 190.011719 650.773438 191.136719 C 649.648438 192.261719 648.125 192.890625 646.535156 192.890625 L 514.121094 192.890625 C 512.53125 192.890625 511.003906 192.261719 509.878906 191.136719 C 508.753906 190.011719 508.125 188.484375 508.125 186.894531 L 508.125 143.558594 C 508.125 141.96875 508.753906 140.441406 509.878906 139.316406 C 511.003906 138.195312 512.53125 137.5625 514.121094 137.5625 Z M 514.121094 137.5625 " clip-rule="nonzero"/></clipPath><clipPath id="6f7cbdd846"><path d="M 508.125 223.261719 L 652.714844 223.261719 L 652.714844 278.59375 L 508.125 278.59375 Z M 508.125 223.261719 " clip-rule="nonzero"/></clipPath><clipPath id="c12ed10597"><path d="M 514.117188 223.261719 L 646.535156 223.261719 C 648.125 223.261719 649.648438 223.894531 650.773438 225.019531 C 651.898438 226.140625 652.53125 227.667969 652.53125 229.257812 L 652.53125 272.597656 C 652.53125 274.1875 651.898438 275.710938 650.773438 276.835938 C 649.648438 277.960938 648.125 278.59375 646.535156 278.59375 L 514.117188 278.59375 C 512.527344 278.59375 511.003906 277.960938 509.878906 276.835938 C 508.753906 275.710938 508.125 274.1875 508.125 272.597656 L 508.125 229.257812 C 508.125 227.667969 508.753906 226.140625 509.878906 225.019531 C 511.003906 223.894531 512.527344 223.261719 514.117188 223.261719 Z M 514.117188 223.261719 " clip-rule="nonzero"/></clipPath><clipPath id="e1623a11ad"><path d="M 508.125 223.261719 L 652.765625 223.261719 L 652.765625 278.71875 L 508.125 278.71875 Z M 508.125 223.261719 " clip-rule="nonzero"/></clipPath><clipPath id="d479b39e85"><path d="M 514.121094 223.261719 L 646.535156 223.261719 C 648.125 223.261719 649.648438 223.894531 650.773438 225.019531 C 651.898438 226.140625 652.527344 227.667969 652.527344 229.257812 L 652.527344 272.597656 C 652.527344 274.1875 651.898438 275.710938 650.773438 276.835938 C 649.648438 277.960938 648.125 278.589844 646.535156 278.589844 L 514.121094 278.589844 C 512.53125 278.589844 511.003906 277.960938 509.878906 276.835938 C 508.753906 275.710938 508.125 274.1875 508.125 272.597656 L 508.125 229.257812 C 508.125 227.667969 508.753906 226.140625 509.878906 225.019531 C 511.003906 223.894531 512.53125 223.261719 514.121094 223.261719 Z M 514.121094 223.261719 " clip-rule="nonzero"/></clipPath><clipPath id="bc09ba4e08"><path d="M 355.203125 137.5625 L 388 137.5625 L 388 170.539062 L 355.203125 170.539062 Z M 355.203125 137.5625 " clip-rule="nonzero"/></clipPath><clipPath id="87be4062aa"><path d="M 355.203125 175.804688 L 388 175.804688 L 388 208.78125 L 355.203125 208.78125 Z M 355.203125 175.804688 " clip-rule="nonzero"/></clipPath></defs><g clip-path="url(#760037e821)"><g clip-path="url(#fbdcf954cd)"><path fill="#5ce1e6" d="M 115.46875 137.585938 L 259.847656 137.585938 L 259.847656 192.914062 L 115.46875 192.914062 Z M 115.46875 137.585938 " fill-opacity="1" fill-rule="nonzero"/></g></g><g clip-path="url(#38449e3d53)"><g clip-path="url(#4d353e7420)"><path stroke-linecap="butt" transform="matrix(0.749434, 0, 0, 0.749434, 115.470351, 137.585007)" fill="none" stroke-linejoin="miter" d="M 7.998698 0.00124169 L 184.684233 0.00124169 C 186.805627 0.00124169 188.843624 0.840417 190.344758 2.341551 C 191.84068 3.842685 192.685068 5.880682 192.685068 8.002076 L 192.685068 65.827002 C 192.685068 67.948396 191.84068 69.986393 190.344758 71.487527 C 188.843624 72.983449 186.805627 73.827837 184.684233 73.827837 L 7.998698 73.827837 C 5.877304 73.827837 3.844519 72.983449 2.343385 71.487527 C 0.842251 69.986393 -0.00213657 67.948396 -0.00213657 65.827002 L -0.00213657 8.002076 C -0.00213657 5.880682 0.842251 3.842685 2.343385 2.341551 C 3.844519 0.840417 5.877304 0.00124169 7.998698 0.00124169 Z M 7.998698 0.00124169 " stroke="#000000" stroke-width="2" stroke-opacity="1" stroke-miterlimit="4"/></g></g><g fill="#000000" fill-opacity="1"><g transform="translate(150.540685, 170.560082)"><g><path d="M 6.046875 -11.703125 C 6.878906 -11.703125 7.59375 -11.546875 8.1875 -11.234375 C 8.78125 -10.929688 9.226562 -10.503906 9.53125 -9.953125 C 9.84375 -9.398438 10 -8.757812 10 -8.03125 C 10 -7.300781 9.84375 -6.660156 9.53125 -6.109375 C 9.226562 -5.554688 8.78125 -5.125 8.1875 -4.8125 C 7.59375 -4.507812 6.878906 -4.359375 6.046875 -4.359375 L 3.828125 -4.359375 L 3.828125 0 L 1.515625 0 L 1.515625 -11.703125 Z M 5.734375 -6.1875 C 7.023438 -6.1875 7.671875 -6.800781 7.671875 -8.03125 C 7.671875 -9.257812 7.023438 -9.875 5.734375 -9.875 L 3.828125 -9.875 L 3.828125 -6.1875 Z M 5.734375 -6.1875 "/></g></g></g><g fill="#000000" fill-opacity="1"><g transform="translate(161.227477, 170.560082)"><g><path d="M 1.265625 0 L 1.265625 -8.828125 L 3.421875 -8.828125 L 3.421875 -7.515625 L 3.59375 -7.484375 C 3.800781 -7.972656 4.078125 -8.332031 4.421875 -8.5625 C 4.773438 -8.789062 5.203125 -8.90625 5.703125 -8.90625 C 6.203125 -8.90625 6.582031 -8.820312 6.84375 -8.65625 L 6.46875 -6.734375 L 6.296875 -6.703125 C 6.148438 -6.765625 6.007812 -6.804688 5.875 -6.828125 C 5.75 -6.859375 5.585938 -6.875 5.390625 -6.875 C 4.773438 -6.875 4.300781 -6.65625 3.96875 -6.21875 C 3.644531 -5.78125 3.484375 -5.082031 3.484375 -4.125 L 3.484375 0 Z M 1.265625 0 "/></g></g></g><g fill="#000000" fill-opacity="1"><g transform="translate(168.146701, 170.560082)"><g><path d="M 5.125 0.171875 C 4.257812 0.171875 3.5 -0.00390625 2.84375 -0.359375 C 2.195312 -0.710938 1.691406 -1.234375 1.328125 -1.921875 C 0.972656 -2.609375 0.796875 -3.4375 0.796875 -4.40625 C 0.796875 -5.375 0.972656 -6.203125 1.328125 -6.890625 C 1.691406 -7.585938 2.195312 -8.113281 2.84375 -8.46875 C 3.5 -8.820312 4.257812 -9 5.125 -9 C 5.988281 -9 6.75 -8.820312 7.40625 -8.46875 C 8.0625 -8.113281 8.566406 -7.585938 8.921875 -6.890625 C 9.285156 -6.203125 9.46875 -5.375 9.46875 -4.40625 C 9.46875 -3.4375 9.285156 -2.609375 8.921875 -1.921875 C 8.566406 -1.234375 8.0625 -0.710938 7.40625 -0.359375 C 6.75 -0.00390625 5.988281 0.171875 5.125 0.171875 Z M 5.125 -1.71875 C 6.5 -1.71875 7.1875 -2.613281 7.1875 -4.40625 C 7.1875 -5.34375 7.007812 -6.023438 6.65625 -6.453125 C 6.300781 -6.890625 5.789062 -7.109375 5.125 -7.109375 C 3.757812 -7.109375 3.078125 -6.207031 3.078125 -4.40625 C 3.078125 -2.613281 3.757812 -1.71875 5.125 -1.71875 Z M 5.125 -1.71875 "/></g></g></g><g fill="#000000" fill-opacity="1"><g transform="translate(178.401542, 170.560082)"><g><path d="M 4.359375 0.171875 C 3.660156 0.171875 3.039062 0.00390625 2.5 -0.328125 C 1.96875 -0.671875 1.550781 -1.1875 1.25 -1.875 C 0.945312 -2.5625 0.796875 -3.40625 0.796875 -4.40625 C 0.796875 -5.414062 0.953125 -6.265625 1.265625 -6.953125 C 1.578125 -7.640625 2.007812 -8.148438 2.5625 -8.484375 C 3.113281 -8.828125 3.75 -9 4.46875 -9 C 5.019531 -9 5.492188 -8.898438 5.890625 -8.703125 C 6.296875 -8.515625 6.640625 -8.222656 6.921875 -7.828125 L 7.09375 -7.859375 L 7.09375 -12.375 L 9.3125 -12.375 L 9.3125 0 L 7.09375 0 L 7.09375 -1.140625 L 6.921875 -1.171875 C 6.671875 -0.753906 6.332031 -0.425781 5.90625 -0.1875 C 5.488281 0.0507812 4.972656 0.171875 4.359375 0.171875 Z M 5.078125 -1.71875 C 5.703125 -1.71875 6.195312 -1.9375 6.5625 -2.375 C 6.925781 -2.820312 7.109375 -3.5 7.109375 -4.40625 C 7.109375 -5.3125 6.925781 -5.988281 6.5625 -6.4375 C 6.195312 -6.882812 5.703125 -7.109375 5.078125 -7.109375 C 4.429688 -7.109375 3.9375 -6.890625 3.59375 -6.453125 C 3.25 -6.023438 3.078125 -5.34375 3.078125 -4.40625 C 3.078125 -3.476562 3.25 -2.796875 3.59375 -2.359375 C 3.9375 -1.929688 4.429688 -1.71875 5.078125 -1.71875 Z M 5.078125 -1.71875 "/></g></g></g><g fill="#000000" fill-opacity="1"><g transform="translate(188.976347, 170.560082)"><g><path d="M 4.046875 0.171875 C 3.046875 0.171875 2.3125 -0.0976562 1.84375 -0.640625 C 1.375 -1.179688 1.140625 -1.960938 1.140625 -2.984375 L 1.140625 -8.828125 L 3.359375 -8.828125 L 3.359375 -3.25 C 3.359375 -2.71875 3.472656 -2.328125 3.703125 -2.078125 C 3.929688 -1.828125 4.289062 -1.703125 4.78125 -1.703125 C 5.394531 -1.703125 5.867188 -1.898438 6.203125 -2.296875 C 6.546875 -2.703125 6.71875 -3.335938 6.71875 -4.203125 L 6.71875 -8.828125 L 8.9375 -8.828125 L 8.9375 0 L 6.8125 0 L 6.8125 -1.296875 L 6.640625 -1.34375 C 6.359375 -0.832031 6.015625 -0.453125 5.609375 -0.203125 C 5.203125 0.046875 4.679688 0.171875 4.046875 0.171875 Z M 4.046875 0.171875 "/></g></g></g><g fill="#000000" fill-opacity="1"><g transform="translate(199.183193, 170.560082)"><g><path d="M 5.140625 0.171875 C 4.285156 0.171875 3.53125 -0.00390625 2.875 -0.359375 C 2.21875 -0.710938 1.707031 -1.234375 1.34375 -1.921875 C 0.976562 -2.617188 0.796875 -3.445312 0.796875 -4.40625 C 0.796875 -5.375 0.976562 -6.203125 1.34375 -6.890625 C 1.707031 -7.585938 2.210938 -8.113281 2.859375 -8.46875 C 3.515625 -8.820312 4.265625 -9 5.109375 -9 C 6.972656 -9 8.164062 -8.320312 8.6875 -6.96875 L 7.15625 -5.875 L 7 -5.875 C 6.8125 -6.289062 6.570312 -6.597656 6.28125 -6.796875 C 5.988281 -7.003906 5.597656 -7.109375 5.109375 -7.109375 C 4.460938 -7.109375 3.960938 -6.882812 3.609375 -6.4375 C 3.253906 -6 3.078125 -5.320312 3.078125 -4.40625 C 3.078125 -3.5 3.253906 -2.820312 3.609375 -2.375 C 3.972656 -1.9375 4.484375 -1.71875 5.140625 -1.71875 C 5.617188 -1.71875 6.023438 -1.84375 6.359375 -2.09375 C 6.691406 -2.351562 6.929688 -2.726562 7.078125 -3.21875 L 7.25 -3.234375 L 8.828125 -2.375 C 8.597656 -1.625 8.179688 -1.007812 7.578125 -0.53125 C 6.972656 -0.0625 6.160156 0.171875 5.140625 0.171875 Z M 5.140625 0.171875 "/></g></g></g><g fill="#000000" fill-opacity="1"><g transform="translate(208.278171, 170.560082)"><g><path d="M 8.71875 -3.90625 L 3.046875 -3.90625 C 3.109375 -3.144531 3.328125 -2.585938 3.703125 -2.234375 C 4.078125 -1.890625 4.585938 -1.71875 5.234375 -1.71875 C 5.742188 -1.71875 6.15625 -1.8125 6.46875 -2 C 6.78125 -2.1875 7.035156 -2.472656 7.234375 -2.859375 L 7.390625 -2.859375 L 8.875 -1.90625 C 8.582031 -1.289062 8.144531 -0.789062 7.5625 -0.40625 C 6.976562 -0.0195312 6.203125 0.171875 5.234375 0.171875 C 4.316406 0.171875 3.523438 0 2.859375 -0.34375 C 2.203125 -0.695312 1.691406 -1.210938 1.328125 -1.890625 C 0.972656 -2.578125 0.796875 -3.414062 0.796875 -4.40625 C 0.796875 -5.414062 0.984375 -6.265625 1.359375 -6.953125 C 1.734375 -7.640625 2.242188 -8.148438 2.890625 -8.484375 C 3.535156 -8.828125 4.265625 -9 5.078125 -9 C 6.328125 -9 7.28125 -8.664062 7.9375 -8 C 8.601562 -7.34375 8.9375 -6.375 8.9375 -5.09375 C 8.9375 -4.625 8.921875 -4.265625 8.890625 -4.015625 Z M 6.8125 -5.34375 C 6.789062 -6.019531 6.632812 -6.507812 6.34375 -6.8125 C 6.0625 -7.125 5.640625 -7.28125 5.078125 -7.28125 C 3.953125 -7.28125 3.289062 -6.632812 3.09375 -5.34375 Z M 6.8125 -5.34375 "/></g></g></g><g fill="#000000" fill-opacity="1"><g transform="translate(217.869092, 170.560082)"><g><path d="M 1.265625 0 L 1.265625 -8.828125 L 3.421875 -8.828125 L 3.421875 -7.515625 L 3.59375 -7.484375 C 3.800781 -7.972656 4.078125 -8.332031 4.421875 -8.5625 C 4.773438 -8.789062 5.203125 -8.90625 5.703125 -8.90625 C 6.203125 -8.90625 6.582031 -8.820312 6.84375 -8.65625 L 6.46875 -6.734375 L 6.296875 -6.703125 C 6.148438 -6.765625 6.007812 -6.804688 5.875 -6.828125 C 5.75 -6.859375 5.585938 -6.875 5.390625 -6.875 C 4.773438 -6.875 4.300781 -6.65625 3.96875 -6.21875 C 3.644531 -5.78125 3.484375 -5.082031 3.484375 -4.125 L 3.484375 0 Z M 1.265625 0 "/></g></g></g><g clip-path="url(#a29f04c883)"><g clip-path="url(#57f8108312)"><path fill="#00bf63" d="M 507.519531 51.90625 L 651.894531 51.90625 L 651.894531 107.238281 L 507.519531 107.238281 Z M 507.519531 51.90625 " fill-opacity="1" fill-rule="nonzero"/></g></g><g clip-path="url(#8f5580aec2)"><g clip-path="url(#237d76cf78)"><path stroke-linecap="butt" transform="matrix(0.749434, 0, 0, 0.749434, 507.519906, 51.90801)" fill="none" stroke-linejoin="miter" d="M 8.000334 -0.00234779 L 184.685869 -0.00234779 C 186.807263 -0.00234779 188.840048 0.84204 190.341182 2.343174 C 191.842316 3.844308 192.686703 5.877093 192.686703 7.998487 L 192.686703 65.828625 C 192.686703 67.950019 191.842316 69.982804 190.341182 71.483938 C 188.840048 72.985072 186.807263 73.829459 184.685869 73.829459 L 8.000334 73.829459 C 5.87894 73.829459 3.840942 72.985072 2.345021 71.483938 C 0.843887 69.982804 -0.000500703 67.950019 -0.000500703 65.828625 L -0.000500703 7.998487 C -0.000500703 5.877093 0.843887 3.844308 2.345021 2.343174 C 3.840942 0.84204 5.87894 -0.00234779 8.000334 -0.00234779 Z M 8.000334 -0.00234779 " stroke="#000000" stroke-width="2" stroke-opacity="1" stroke-miterlimit="4"/></g></g><g fill="#000000" fill-opacity="1"><g transform="translate(532.379206, 84.883084)"><g><path d="M 6.390625 0.171875 C 5.316406 0.171875 4.367188 -0.0507812 3.546875 -0.5 C 2.722656 -0.945312 2.078125 -1.617188 1.609375 -2.515625 C 1.148438 -3.421875 0.921875 -4.53125 0.921875 -5.84375 C 0.921875 -7.164062 1.148438 -8.273438 1.609375 -9.171875 C 2.078125 -10.078125 2.722656 -10.753906 3.546875 -11.203125 C 4.367188 -11.648438 5.316406 -11.875 6.390625 -11.875 C 7.515625 -11.875 8.46875 -11.648438 9.25 -11.203125 C 10.039062 -10.765625 10.609375 -10.097656 10.953125 -9.203125 L 9.265625 -8.15625 L 9.0625 -8.171875 C 8.8125 -8.773438 8.46875 -9.207031 8.03125 -9.46875 C 7.601562 -9.738281 7.054688 -9.875 6.390625 -9.875 C 5.421875 -9.875 4.664062 -9.550781 4.125 -8.90625 C 3.582031 -8.269531 3.3125 -7.25 3.3125 -5.84375 C 3.3125 -4.457031 3.582031 -3.441406 4.125 -2.796875 C 4.664062 -2.148438 5.421875 -1.828125 6.390625 -1.828125 C 7.910156 -1.828125 8.84375 -2.566406 9.1875 -4.046875 L 9.390625 -4.046875 L 11.09375 -3.15625 C 10.769531 -2.050781 10.222656 -1.21875 9.453125 -0.65625 C 8.679688 -0.101562 7.660156 0.171875 6.390625 0.171875 Z M 6.390625 0.171875 "/></g></g></g><g fill="#000000" fill-opacity="1"><g transform="translate(543.84991, 84.883084)"><g><path d="M 5.125 0.171875 C 4.257812 0.171875 3.5 -0.00390625 2.84375 -0.359375 C 2.195312 -0.710938 1.691406 -1.234375 1.328125 -1.921875 C 0.972656 -2.609375 0.796875 -3.4375 0.796875 -4.40625 C 0.796875 -5.375 0.972656 -6.203125 1.328125 -6.890625 C 1.691406 -7.585938 2.195312 -8.113281 2.84375 -8.46875 C 3.5 -8.820312 4.257812 -9 5.125 -9 C 5.988281 -9 6.75 -8.820312 7.40625 -8.46875 C 8.0625 -8.113281 8.566406 -7.585938 8.921875 -6.890625 C 9.285156 -6.203125 9.46875 -5.375 9.46875 -4.40625 C 9.46875 -3.4375 9.285156 -2.609375 8.921875 -1.921875 C 8.566406 -1.234375 8.0625 -0.710938 7.40625 -0.359375 C 6.75 -0.00390625 5.988281 0.171875 5.125 0.171875 Z M 5.125 -1.71875 C 6.5 -1.71875 7.1875 -2.613281 7.1875 -4.40625 C 7.1875 -5.34375 7.007812 -6.023438 6.65625 -6.453125 C 6.300781 -6.890625 5.789062 -7.109375 5.125 -7.109375 C 3.757812 -7.109375 3.078125 -6.207031 3.078125 -4.40625 C 3.078125 -2.613281 3.757812 -1.71875 5.125 -1.71875 Z M 5.125 -1.71875 "/></g></g></g><g fill="#000000" fill-opacity="1"><g transform="translate(554.104751, 84.883084)"><g><path d="M 1.265625 0 L 1.265625 -8.828125 L 3.40625 -8.828125 L 3.40625 -7.53125 L 3.5625 -7.484375 C 4.113281 -8.492188 5.007812 -9 6.25 -9 C 7.257812 -9 8.003906 -8.71875 8.484375 -8.15625 C 8.960938 -7.601562 9.203125 -6.796875 9.203125 -5.734375 L 9.203125 0 L 6.984375 0 L 6.984375 -5.46875 C 6.984375 -6.050781 6.863281 -6.472656 6.625 -6.734375 C 6.394531 -6.992188 6.019531 -7.125 5.5 -7.125 C 4.863281 -7.125 4.367188 -6.914062 4.015625 -6.5 C 3.660156 -6.09375 3.484375 -5.445312 3.484375 -4.5625 L 3.484375 0 Z M 1.265625 0 "/></g></g></g><g fill="#000000" fill-opacity="1"><g transform="translate(564.439583, 84.883084)"><g><path d="M 4.125 0.171875 C 3.519531 0.171875 2.96875 0.101562 2.46875 -0.03125 C 1.96875 -0.175781 1.539062 -0.375 1.1875 -0.625 C 0.832031 -0.875 0.570312 -1.160156 0.40625 -1.484375 L 1.625 -2.8125 L 1.796875 -2.8125 C 2.085938 -2.414062 2.429688 -2.117188 2.828125 -1.921875 C 3.234375 -1.722656 3.671875 -1.625 4.140625 -1.625 C 4.578125 -1.625 4.90625 -1.703125 5.125 -1.859375 C 5.34375 -2.015625 5.453125 -2.234375 5.453125 -2.515625 C 5.453125 -2.742188 5.375 -2.929688 5.21875 -3.078125 C 5.0625 -3.234375 4.804688 -3.351562 4.453125 -3.4375 L 3.28125 -3.71875 C 2.40625 -3.925781 1.765625 -4.242188 1.359375 -4.671875 C 0.960938 -5.109375 0.765625 -5.65625 0.765625 -6.3125 C 0.765625 -6.863281 0.898438 -7.34375 1.171875 -7.75 C 1.453125 -8.15625 1.847656 -8.460938 2.359375 -8.671875 C 2.867188 -8.890625 3.460938 -9 4.140625 -9 C 4.941406 -9 5.601562 -8.882812 6.125 -8.65625 C 6.644531 -8.425781 7.050781 -8.117188 7.34375 -7.734375 L 6.15625 -6.453125 L 6 -6.453125 C 5.757812 -6.722656 5.484375 -6.921875 5.171875 -7.046875 C 4.867188 -7.179688 4.523438 -7.25 4.140625 -7.25 C 3.265625 -7.25 2.828125 -6.976562 2.828125 -6.4375 C 2.828125 -6.207031 2.910156 -6.019531 3.078125 -5.875 C 3.242188 -5.726562 3.53125 -5.609375 3.9375 -5.515625 L 5.03125 -5.28125 C 5.925781 -5.09375 6.578125 -4.785156 6.984375 -4.359375 C 7.398438 -3.929688 7.609375 -3.363281 7.609375 -2.65625 C 7.609375 -2.09375 7.46875 -1.597656 7.1875 -1.171875 C 6.914062 -0.742188 6.515625 -0.410156 5.984375 -0.171875 C 5.460938 0.0546875 4.84375 0.171875 4.125 0.171875 Z M 4.125 0.171875 "/></g></g></g><g fill="#000000" fill-opacity="1"><g transform="translate(572.574669, 84.883084)"><g><path d="M 4.046875 0.171875 C 3.046875 0.171875 2.3125 -0.0976562 1.84375 -0.640625 C 1.375 -1.179688 1.140625 -1.960938 1.140625 -2.984375 L 1.140625 -8.828125 L 3.359375 -8.828125 L 3.359375 -3.25 C 3.359375 -2.71875 3.472656 -2.328125 3.703125 -2.078125 C 3.929688 -1.828125 4.289062 -1.703125 4.78125 -1.703125 C 5.394531 -1.703125 5.867188 -1.898438 6.203125 -2.296875 C 6.546875 -2.703125 6.71875 -3.335938 6.71875 -4.203125 L 6.71875 -8.828125 L 8.9375 -8.828125 L 8.9375 0 L 6.8125 0 L 6.8125 -1.296875 L 6.640625 -1.34375 C 6.359375 -0.832031 6.015625 -0.453125 5.609375 -0.203125 C 5.203125 0.046875 4.679688 0.171875 4.046875 0.171875 Z M 4.046875 0.171875 "/></g></g></g><g fill="#000000" fill-opacity="1"><g transform="translate(582.781515, 84.883084)"><g><path d="M 1.265625 0 L 1.265625 -8.828125 L 3.40625 -8.828125 L 3.40625 -7.640625 L 3.5625 -7.609375 C 3.851562 -8.085938 4.191406 -8.4375 4.578125 -8.65625 C 4.960938 -8.882812 5.457031 -9 6.0625 -9 C 6.726562 -9 7.265625 -8.863281 7.671875 -8.59375 C 8.078125 -8.332031 8.375 -7.945312 8.5625 -7.4375 L 8.734375 -7.4375 C 9.003906 -7.96875 9.351562 -8.359375 9.78125 -8.609375 C 10.207031 -8.867188 10.742188 -9 11.390625 -9 C 13.222656 -9 14.140625 -7.976562 14.140625 -5.9375 L 14.140625 0 L 11.921875 0 L 11.921875 -5.65625 C 11.921875 -6.175781 11.816406 -6.550781 11.609375 -6.78125 C 11.410156 -7.007812 11.085938 -7.125 10.640625 -7.125 C 9.421875 -7.125 8.8125 -6.3125 8.8125 -4.6875 L 8.8125 0 L 6.59375 0 L 6.59375 -5.65625 C 6.59375 -6.175781 6.488281 -6.550781 6.28125 -6.78125 C 6.082031 -7.007812 5.757812 -7.125 5.3125 -7.125 C 4.738281 -7.125 4.289062 -6.929688 3.96875 -6.546875 C 3.644531 -6.171875 3.484375 -5.566406 3.484375 -4.734375 L 3.484375 0 Z M 1.265625 0 "/></g></g></g><g fill="#000000" fill-opacity="1"><g transform="translate(598.04379, 84.883084)"><g><path d="M 8.71875 -3.90625 L 3.046875 -3.90625 C 3.109375 -3.144531 3.328125 -2.585938 3.703125 -2.234375 C 4.078125 -1.890625 4.585938 -1.71875 5.234375 -1.71875 C 5.742188 -1.71875 6.15625 -1.8125 6.46875 -2 C 6.78125 -2.1875 7.035156 -2.472656 7.234375 -2.859375 L 7.390625 -2.859375 L 8.875 -1.90625 C 8.582031 -1.289062 8.144531 -0.789062 7.5625 -0.40625 C 6.976562 -0.0195312 6.203125 0.171875 5.234375 0.171875 C 4.316406 0.171875 3.523438 0 2.859375 -0.34375 C 2.203125 -0.695312 1.691406 -1.210938 1.328125 -1.890625 C 0.972656 -2.578125 0.796875 -3.414062 0.796875 -4.40625 C 0.796875 -5.414062 0.984375 -6.265625 1.359375 -6.953125 C 1.734375 -7.640625 2.242188 -8.148438 2.890625 -8.484375 C 3.535156 -8.828125 4.265625 -9 5.078125 -9 C 6.328125 -9 7.28125 -8.664062 7.9375 -8 C 8.601562 -7.34375 8.9375 -6.375 8.9375 -5.09375 C 8.9375 -4.625 8.921875 -4.265625 8.890625 -4.015625 Z M 6.8125 -5.34375 C 6.789062 -6.019531 6.632812 -6.507812 6.34375 -6.8125 C 6.0625 -7.125 5.640625 -7.28125 5.078125 -7.28125 C 3.953125 -7.28125 3.289062 -6.632812 3.09375 -5.34375 Z M 6.8125 -5.34375 "/></g></g></g><g fill="#000000" fill-opacity="1"><g transform="translate(607.634712, 84.883084)"><g><path d="M 1.265625 0 L 1.265625 -8.828125 L 3.421875 -8.828125 L 3.421875 -7.515625 L 3.59375 -7.484375 C 3.800781 -7.972656 4.078125 -8.332031 4.421875 -8.5625 C 4.773438 -8.789062 5.203125 -8.90625 5.703125 -8.90625 C 6.203125 -8.90625 6.582031 -8.820312 6.84375 -8.65625 L 6.46875 -6.734375 L 6.296875 -6.703125 C 6.148438 -6.765625 6.007812 -6.804688 5.875 -6.828125 C 5.75 -6.859375 5.585938 -6.875 5.390625 -6.875 C 4.773438 -6.875 4.300781 -6.65625 3.96875 -6.21875 C 3.644531 -5.78125 3.484375 -5.082031 3.484375 -4.125 L 3.484375 0 Z M 1.265625 0 "/></g></g></g><g fill="#000000" fill-opacity="1"><g transform="translate(614.553936, 84.883084)"><g/></g></g><g fill="#000000" fill-opacity="1"><g transform="translate(618.417505, 84.883084)"><g><path d="M 0.609375 0 L 0.609375 -1.90625 L 3.4375 -1.90625 L 3.4375 -9.203125 L 3.25 -9.25 C 2.851562 -9.050781 2.460938 -8.894531 2.078125 -8.78125 C 1.691406 -8.675781 1.25 -8.59375 0.75 -8.53125 L 0.75 -10.5 C 2.050781 -10.769531 3.097656 -11.171875 3.890625 -11.703125 L 5.734375 -11.703125 L 5.734375 -1.90625 L 8.25 -1.90625 L 8.25 0 Z M 0.609375 0 "/></g></g></g><path fill="#545454" d="M 260.339844 164.296875 L 264.589844 162.828125 L 265.078125 164.242188 L 260.828125 165.714844 M 266.003906 162.335938 L 270.253906 160.867188 L 270.746094 162.28125 L 266.496094 163.753906 M 271.671875 160.375 L 275.921875 158.90625 L 276.410156 160.324219 L 272.160156 161.792969 M 277.335938 158.414062 L 281.585938 156.945312 L 282.078125 158.363281 L 277.828125 159.832031 M 283.003906 156.457031 L 287.253906 154.984375 L 287.742188 156.402344 L 283.492188 157.871094 M 288.667969 154.496094 L 292.917969 153.023438 L 293.410156 154.441406 L 289.160156 155.910156 M 294.335938 152.535156 L 298.585938 151.066406 L 299.074219 152.480469 L 294.824219 153.953125 M 300 150.574219 L 304.25 149.105469 L 304.742188 150.519531 L 300.492188 151.992188 M 305.667969 148.613281 L 309.917969 147.144531 L 310.40625 148.5625 L 306.15625 150.03125 M 311.332031 146.65625 L 315.582031 145.183594 L 316.074219 146.601562 L 311.824219 148.070312 M 317 144.695312 L 321.25 143.222656 L 321.738281 144.640625 L 317.488281 146.109375 M 322.664062 142.734375 L 326.914062 141.265625 L 327.40625 142.679688 L 323.15625 144.152344 M 328.332031 140.773438 L 332.582031 139.304688 L 333.070312 140.71875 L 328.820312 142.191406 M 333.996094 138.8125 L 338.246094 137.34375 L 338.738281 138.757812 L 334.488281 140.230469 M 339.664062 136.851562 L 343.914062 135.382812 L 344.402344 136.800781 L 340.152344 138.269531 M 345.328125 134.894531 L 349.578125 133.421875 L 350.070312 134.839844 L 345.820312 136.308594 M 350.996094 132.933594 L 355.246094 131.460938 L 355.734375 132.878906 L 351.484375 134.347656 M 356.660156 130.972656 L 360.910156 129.503906 L 361.402344 130.917969 L 357.152344 132.390625 M 362.328125 129.011719 L 366.578125 127.542969 L 367.066406 128.957031 L 362.816406 130.429688 M 367.992188 127.050781 L 372.242188 125.582031 L 372.734375 127 L 368.484375 128.46875 M 373.660156 125.089844 L 377.910156 123.621094 L 378.398438 125.039062 L 374.148438 126.507812 M 379.324219 123.132812 L 383.574219 121.660156 L 384.066406 123.078125 L 379.816406 124.546875 M 384.992188 121.171875 L 389.242188 119.699219 L 389.730469 121.117188 L 385.480469 122.585938 M 390.65625 119.210938 L 394.90625 117.742188 L 395.394531 119.15625 L 391.148438 120.628906 M 396.324219 117.25 L 400.574219 115.78125 L 401.0625 117.195312 L 396.8125 118.667969 M 401.988281 115.289062 L 406.238281 113.820312 L 406.726562 115.238281 L 402.480469 116.707031 M 407.65625 113.332031 L 411.902344 111.859375 L 412.394531 113.277344 L 408.144531 114.746094 M 413.320312 111.371094 L 417.570312 109.898438 L 418.058594 111.316406 L 413.8125 112.785156 M 418.988281 109.410156 L 423.234375 107.9375 L 423.726562 109.355469 L 419.476562 110.824219 M 424.652344 107.449219 L 428.902344 105.980469 L 429.390625 107.394531 L 425.144531 108.867188 M 430.320312 105.488281 L 434.566406 104.019531 L 435.058594 105.433594 L 430.808594 106.90625 M 435.984375 103.527344 L 440.234375 102.058594 L 440.722656 103.476562 L 436.472656 104.945312 M 441.652344 101.570312 L 445.898438 100.097656 L 446.390625 101.515625 L 442.140625 102.984375 M 447.316406 99.609375 L 451.566406 98.136719 L 452.054688 99.554688 L 447.804688 101.023438 M 452.980469 97.648438 L 457.230469 96.179688 L 457.722656 97.59375 L 453.472656 99.066406 M 458.648438 95.6875 L 462.898438 94.21875 L 463.386719 95.632812 L 459.136719 97.105469 M 464.3125 93.726562 L 468.5625 92.257812 L 469.054688 93.675781 L 464.804688 95.144531 M 469.980469 91.765625 L 474.230469 90.296875 L 474.71875 91.714844 L 470.46875 93.183594 M 475.644531 89.808594 L 479.894531 88.335938 L 480.386719 89.753906 L 476.136719 91.222656 M 481.3125 87.847656 L 485.5625 86.375 L 486.050781 87.792969 L 481.800781 89.261719 M 486.976562 85.886719 L 491.226562 84.417969 L 491.71875 85.832031 L 487.46875 87.304688 M 492.644531 83.925781 L 496.894531 82.457031 L 497.382812 83.871094 L 493.132812 85.34375 M 498.308594 81.964844 L 502.558594 80.496094 L 503.050781 81.914062 L 498.800781 83.382812 M 503.976562 80.003906 L 507.273438 78.863281 L 507.765625 80.28125 L 504.464844 81.421875 " fill-opacity="1" fill-rule="nonzero"/><path stroke-linecap="round" transform="matrix(0.708244, -0.245032, 0.245032, 0.708244, 259.631645, 164.541779)" fill="none" stroke-linejoin="round" d="M 5.001735 -2.001791 L 1.001755 0.999075 L 4.999686 3.998253 " stroke="#545454" stroke-width="2" stroke-opacity="1" stroke-miterlimit="4"/><g clip-path="url(#7b3872e15a)"><path fill="#a6a6a6" d="M 371.503906 98.964844 C 370.96875 98.964844 370.4375 98.992188 369.90625 99.042969 C 369.375 99.097656 368.847656 99.175781 368.324219 99.277344 C 367.800781 99.382812 367.285156 99.511719 366.773438 99.667969 C 366.261719 99.824219 365.761719 100.003906 365.265625 100.207031 C 364.773438 100.410156 364.292969 100.640625 363.820312 100.890625 C 363.351562 101.140625 362.890625 101.417969 362.449219 101.710938 C 362.003906 102.007812 361.578125 102.328125 361.164062 102.664062 C 360.75 103.003906 360.355469 103.363281 359.976562 103.738281 C 359.601562 104.117188 359.242188 104.511719 358.902344 104.925781 C 358.566406 105.335938 358.246094 105.765625 357.953125 106.210938 C 357.65625 106.652344 357.378906 107.109375 357.128906 107.582031 C 356.878906 108.054688 356.648438 108.535156 356.445312 109.027344 C 356.242188 109.519531 356.0625 110.023438 355.90625 110.535156 C 355.75 111.046875 355.621094 111.5625 355.515625 112.085938 C 355.414062 112.609375 355.335938 113.136719 355.28125 113.667969 C 355.230469 114.199219 355.203125 114.730469 355.203125 115.265625 C 355.203125 115.800781 355.230469 116.332031 355.28125 116.863281 C 355.335938 117.394531 355.414062 117.921875 355.515625 118.445312 C 355.621094 118.96875 355.75 119.488281 355.90625 119.996094 C 356.0625 120.507812 356.242188 121.011719 356.445312 121.503906 C 356.648438 121.996094 356.878906 122.480469 357.128906 122.949219 C 357.378906 123.421875 357.65625 123.878906 357.953125 124.320312 C 358.246094 124.765625 358.566406 125.195312 358.902344 125.605469 C 359.242188 126.019531 359.601562 126.414062 359.976562 126.792969 C 360.355469 127.167969 360.75 127.527344 361.164062 127.867188 C 361.578125 128.203125 362.003906 128.523438 362.449219 128.820312 C 362.890625 129.117188 363.351562 129.390625 363.820312 129.640625 C 364.292969 129.894531 364.773438 130.121094 365.265625 130.324219 C 365.761719 130.53125 366.261719 130.710938 366.773438 130.863281 C 367.285156 131.019531 367.800781 131.148438 368.324219 131.253906 C 368.847656 131.355469 369.375 131.433594 369.90625 131.488281 C 370.4375 131.539062 370.96875 131.566406 371.503906 131.566406 C 372.039062 131.566406 372.570312 131.539062 373.101562 131.488281 C 373.632812 131.433594 374.160156 131.355469 374.683594 131.253906 C 375.207031 131.148438 375.726562 131.019531 376.234375 130.863281 C 376.746094 130.710938 377.25 130.53125 377.742188 130.324219 C 378.234375 130.121094 378.71875 129.894531 379.1875 129.640625 C 379.660156 129.390625 380.117188 129.117188 380.558594 128.820312 C 381.003906 128.523438 381.433594 128.203125 381.84375 127.867188 C 382.257812 127.527344 382.652344 127.167969 383.03125 126.792969 C 383.40625 126.414062 383.765625 126.019531 384.105469 125.605469 C 384.441406 125.195312 384.761719 124.765625 385.058594 124.320312 C 385.355469 123.878906 385.628906 123.421875 385.878906 122.949219 C 386.132812 122.480469 386.359375 121.996094 386.5625 121.503906 C 386.769531 121.011719 386.949219 120.507812 387.101562 119.996094 C 387.257812 119.488281 387.386719 118.96875 387.492188 118.445312 C 387.59375 117.921875 387.671875 117.394531 387.726562 116.863281 C 387.777344 116.332031 387.804688 115.800781 387.804688 115.265625 C 387.804688 114.730469 387.777344 114.199219 387.726562 113.667969 C 387.671875 113.136719 387.59375 112.609375 387.492188 112.085938 C 387.386719 111.5625 387.257812 111.046875 387.101562 110.535156 C 386.945312 110.023438 386.769531 109.523438 386.5625 109.027344 C 386.359375 108.535156 386.132812 108.054688 385.878906 107.582031 C 385.628906 107.113281 385.351562 106.65625 385.058594 106.210938 C 384.761719 105.765625 384.441406 105.339844 384.105469 104.925781 C 383.765625 104.511719 383.40625 104.117188 383.03125 103.742188 C 382.652344 103.363281 382.257812 103.003906 381.84375 102.667969 C 381.433594 102.328125 381.003906 102.011719 380.558594 101.714844 C 380.117188 101.417969 379.660156 101.144531 379.1875 100.890625 C 378.71875 100.640625 378.234375 100.410156 377.742188 100.207031 C 377.25 100.003906 376.746094 99.824219 376.234375 99.667969 C 375.726562 99.511719 375.207031 99.382812 374.683594 99.28125 C 374.160156 99.175781 373.632812 99.097656 373.101562 99.042969 C 372.570312 98.992188 372.039062 98.964844 371.503906 98.964844 Z M 363.996094 107.222656 L 379.011719 107.222656 C 379.332031 107.222656 379.644531 107.277344 379.945312 107.390625 C 380.246094 107.5 380.515625 107.660156 380.757812 107.871094 C 381.003906 108.078125 381.203125 108.324219 381.355469 108.605469 C 381.511719 108.882812 381.613281 109.183594 381.660156 109.5 C 381.449219 109.617188 373.195312 114.375 372.652344 114.683594 C 372.296875 114.886719 371.914062 114.988281 371.503906 114.988281 C 371.097656 114.988281 370.714844 114.886719 370.359375 114.683594 C 369.824219 114.378906 361.550781 109.667969 361.347656 109.539062 C 361.390625 109.21875 361.488281 108.917969 361.640625 108.632812 C 361.792969 108.347656 361.992188 108.097656 362.238281 107.882812 C 362.480469 107.671875 362.753906 107.507812 363.054688 107.394531 C 363.359375 107.28125 363.671875 107.222656 363.996094 107.222656 Z M 381.691406 120.628906 C 381.691406 120.984375 381.625 121.328125 381.488281 121.65625 C 381.351562 121.984375 381.15625 122.273438 380.90625 122.523438 C 380.65625 122.773438 380.367188 122.96875 380.039062 123.105469 C 379.710938 123.242188 379.367188 123.308594 379.011719 123.308594 L 363.996094 123.308594 C 363.640625 123.308594 363.300781 123.242188 362.972656 123.105469 C 362.644531 122.96875 362.355469 122.773438 362.101562 122.523438 C 361.851562 122.273438 361.65625 121.984375 361.523438 121.65625 C 361.386719 121.328125 361.316406 120.984375 361.316406 120.628906 L 361.316406 110.757812 L 369.832031 115.617188 C 370.351562 115.914062 370.910156 116.0625 371.507812 116.0625 C 372.105469 116.0625 372.660156 115.914062 373.179688 115.617188 L 381.691406 110.71875 Z M 381.691406 120.628906 " fill-opacity="1" fill-rule="nonzero"/></g><g clip-path="url(#c5564847ff)"><g clip-path="url(#eeabf5926a)"><path fill="#ffde59" d="M 508.125 137.5625 L 652.5 137.5625 L 652.5 192.890625 L 508.125 192.890625 Z M 508.125 137.5625 " fill-opacity="1" fill-rule="nonzero"/></g></g><g clip-path="url(#4cb3096268)"><g clip-path="url(#aebc4e472b)"><path stroke-linecap="butt" transform="matrix(0.749434, 0, 0, 0.749434, 508.124154, 137.562246)" fill="none" stroke-linejoin="miter" d="M 8.001964 0.000339266 L 184.687499 0.000339266 C 186.808893 0.000339266 188.841678 0.844727 190.342812 2.340649 C 191.843946 3.841782 192.683121 5.87978 192.683121 8.001174 L 192.683121 65.826099 C 192.683121 67.947493 191.843946 69.985491 190.342812 71.486625 C 188.841678 72.987759 186.808893 73.826934 184.687499 73.826934 L 8.001964 73.826934 C 5.88057 73.826934 3.842572 72.987759 2.341439 71.486625 C 0.840305 69.985491 0.00112923 67.947493 0.00112923 65.826099 L 0.00112923 8.001174 C 0.00112923 5.87978 0.840305 3.841782 2.341439 2.340649 C 3.842572 0.844727 5.88057 0.000339266 8.001964 0.000339266 Z M 8.001964 0.000339266 " stroke="#000000" stroke-width="2" stroke-opacity="1" stroke-miterlimit="4"/></g></g><g fill="#000000" fill-opacity="1"><g transform="translate(532.737522, 170.537321)"><g><path d="M 6.390625 0.171875 C 5.316406 0.171875 4.367188 -0.0507812 3.546875 -0.5 C 2.722656 -0.945312 2.078125 -1.617188 1.609375 -2.515625 C 1.148438 -3.421875 0.921875 -4.53125 0.921875 -5.84375 C 0.921875 -7.164062 1.148438 -8.273438 1.609375 -9.171875 C 2.078125 -10.078125 2.722656 -10.753906 3.546875 -11.203125 C 4.367188 -11.648438 5.316406 -11.875 6.390625 -11.875 C 7.515625 -11.875 8.46875 -11.648438 9.25 -11.203125 C 10.039062 -10.765625 10.609375 -10.097656 10.953125 -9.203125 L 9.265625 -8.15625 L 9.0625 -8.171875 C 8.8125 -8.773438 8.46875 -9.207031 8.03125 -9.46875 C 7.601562 -9.738281 7.054688 -9.875 6.390625 -9.875 C 5.421875 -9.875 4.664062 -9.550781 4.125 -8.90625 C 3.582031 -8.269531 3.3125 -7.25 3.3125 -5.84375 C 3.3125 -4.457031 3.582031 -3.441406 4.125 -2.796875 C 4.664062 -2.148438 5.421875 -1.828125 6.390625 -1.828125 C 7.910156 -1.828125 8.84375 -2.566406 9.1875 -4.046875 L 9.390625 -4.046875 L 11.09375 -3.15625 C 10.769531 -2.050781 10.222656 -1.21875 9.453125 -0.65625 C 8.679688 -0.101562 7.660156 0.171875 6.390625 0.171875 Z M 6.390625 0.171875 "/></g></g></g><g fill="#000000" fill-opacity="1"><g transform="translate(544.208225, 170.537321)"><g><path d="M 5.125 0.171875 C 4.257812 0.171875 3.5 -0.00390625 2.84375 -0.359375 C 2.195312 -0.710938 1.691406 -1.234375 1.328125 -1.921875 C 0.972656 -2.609375 0.796875 -3.4375 0.796875 -4.40625 C 0.796875 -5.375 0.972656 -6.203125 1.328125 -6.890625 C 1.691406 -7.585938 2.195312 -8.113281 2.84375 -8.46875 C 3.5 -8.820312 4.257812 -9 5.125 -9 C 5.988281 -9 6.75 -8.820312 7.40625 -8.46875 C 8.0625 -8.113281 8.566406 -7.585938 8.921875 -6.890625 C 9.285156 -6.203125 9.46875 -5.375 9.46875 -4.40625 C 9.46875 -3.4375 9.285156 -2.609375 8.921875 -1.921875 C 8.566406 -1.234375 8.0625 -0.710938 7.40625 -0.359375 C 6.75 -0.00390625 5.988281 0.171875 5.125 0.171875 Z M 5.125 -1.71875 C 6.5 -1.71875 7.1875 -2.613281 7.1875 -4.40625 C 7.1875 -5.34375 7.007812 -6.023438 6.65625 -6.453125 C 6.300781 -6.890625 5.789062 -7.109375 5.125 -7.109375 C 3.757812 -7.109375 3.078125 -6.207031 3.078125 -4.40625 C 3.078125 -2.613281 3.757812 -1.71875 5.125 -1.71875 Z M 5.125 -1.71875 "/></g></g></g><g fill="#000000" fill-opacity="1"><g transform="translate(554.463066, 170.537321)"><g><path d="M 1.265625 0 L 1.265625 -8.828125 L 3.40625 -8.828125 L 3.40625 -7.53125 L 3.5625 -7.484375 C 4.113281 -8.492188 5.007812 -9 6.25 -9 C 7.257812 -9 8.003906 -8.71875 8.484375 -8.15625 C 8.960938 -7.601562 9.203125 -6.796875 9.203125 -5.734375 L 9.203125 0 L 6.984375 0 L 6.984375 -5.46875 C 6.984375 -6.050781 6.863281 -6.472656 6.625 -6.734375 C 6.394531 -6.992188 6.019531 -7.125 5.5 -7.125 C 4.863281 -7.125 4.367188 -6.914062 4.015625 -6.5 C 3.660156 -6.09375 3.484375 -5.445312 3.484375 -4.5625 L 3.484375 0 Z M 1.265625 0 "/></g></g></g><g fill="#000000" fill-opacity="1"><g transform="translate(564.797898, 170.537321)"><g><path d="M 4.125 0.171875 C 3.519531 0.171875 2.96875 0.101562 2.46875 -0.03125 C 1.96875 -0.175781 1.539062 -0.375 1.1875 -0.625 C 0.832031 -0.875 0.570312 -1.160156 0.40625 -1.484375 L 1.625 -2.8125 L 1.796875 -2.8125 C 2.085938 -2.414062 2.429688 -2.117188 2.828125 -1.921875 C 3.234375 -1.722656 3.671875 -1.625 4.140625 -1.625 C 4.578125 -1.625 4.90625 -1.703125 5.125 -1.859375 C 5.34375 -2.015625 5.453125 -2.234375 5.453125 -2.515625 C 5.453125 -2.742188 5.375 -2.929688 5.21875 -3.078125 C 5.0625 -3.234375 4.804688 -3.351562 4.453125 -3.4375 L 3.28125 -3.71875 C 2.40625 -3.925781 1.765625 -4.242188 1.359375 -4.671875 C 0.960938 -5.109375 0.765625 -5.65625 0.765625 -6.3125 C 0.765625 -6.863281 0.898438 -7.34375 1.171875 -7.75 C 1.453125 -8.15625 1.847656 -8.460938 2.359375 -8.671875 C 2.867188 -8.890625 3.460938 -9 4.140625 -9 C 4.941406 -9 5.601562 -8.882812 6.125 -8.65625 C 6.644531 -8.425781 7.050781 -8.117188 7.34375 -7.734375 L 6.15625 -6.453125 L 6 -6.453125 C 5.757812 -6.722656 5.484375 -6.921875 5.171875 -7.046875 C 4.867188 -7.179688 4.523438 -7.25 4.140625 -7.25 C 3.265625 -7.25 2.828125 -6.976562 2.828125 -6.4375 C 2.828125 -6.207031 2.910156 -6.019531 3.078125 -5.875 C 3.242188 -5.726562 3.53125 -5.609375 3.9375 -5.515625 L 5.03125 -5.28125 C 5.925781 -5.09375 6.578125 -4.785156 6.984375 -4.359375 C 7.398438 -3.929688 7.609375 -3.363281 7.609375 -2.65625 C 7.609375 -2.09375 7.46875 -1.597656 7.1875 -1.171875 C 6.914062 -0.742188 6.515625 -0.410156 5.984375 -0.171875 C 5.460938 0.0546875 4.84375 0.171875 4.125 0.171875 Z M 4.125 0.171875 "/></g></g></g><g fill="#000000" fill-opacity="1"><g transform="translate(572.932984, 170.537321)"><g><path d="M 4.046875 0.171875 C 3.046875 0.171875 2.3125 -0.0976562 1.84375 -0.640625 C 1.375 -1.179688 1.140625 -1.960938 1.140625 -2.984375 L 1.140625 -8.828125 L 3.359375 -8.828125 L 3.359375 -3.25 C 3.359375 -2.71875 3.472656 -2.328125 3.703125 -2.078125 C 3.929688 -1.828125 4.289062 -1.703125 4.78125 -1.703125 C 5.394531 -1.703125 5.867188 -1.898438 6.203125 -2.296875 C 6.546875 -2.703125 6.71875 -3.335938 6.71875 -4.203125 L 6.71875 -8.828125 L 8.9375 -8.828125 L 8.9375 0 L 6.8125 0 L 6.8125 -1.296875 L 6.640625 -1.34375 C 6.359375 -0.832031 6.015625 -0.453125 5.609375 -0.203125 C 5.203125 0.046875 4.679688 0.171875 4.046875 0.171875 Z M 4.046875 0.171875 "/></g></g></g><g fill="#000000" fill-opacity="1"><g transform="translate(583.139831, 170.537321)"><g><path d="M 1.265625 0 L 1.265625 -8.828125 L 3.40625 -8.828125 L 3.40625 -7.640625 L 3.5625 -7.609375 C 3.851562 -8.085938 4.191406 -8.4375 4.578125 -8.65625 C 4.960938 -8.882812 5.457031 -9 6.0625 -9 C 6.726562 -9 7.265625 -8.863281 7.671875 -8.59375 C 8.078125 -8.332031 8.375 -7.945312 8.5625 -7.4375 L 8.734375 -7.4375 C 9.003906 -7.96875 9.351562 -8.359375 9.78125 -8.609375 C 10.207031 -8.867188 10.742188 -9 11.390625 -9 C 13.222656 -9 14.140625 -7.976562 14.140625 -5.9375 L 14.140625 0 L 11.921875 0 L 11.921875 -5.65625 C 11.921875 -6.175781 11.816406 -6.550781 11.609375 -6.78125 C 11.410156 -7.007812 11.085938 -7.125 10.640625 -7.125 C 9.421875 -7.125 8.8125 -6.3125 8.8125 -4.6875 L 8.8125 0 L 6.59375 0 L 6.59375 -5.65625 C 6.59375 -6.175781 6.488281 -6.550781 6.28125 -6.78125 C 6.082031 -7.007812 5.757812 -7.125 5.3125 -7.125 C 4.738281 -7.125 4.289062 -6.929688 3.96875 -6.546875 C 3.644531 -6.171875 3.484375 -5.566406 3.484375 -4.734375 L 3.484375 0 Z M 1.265625 0 "/></g></g></g><g fill="#000000" fill-opacity="1"><g transform="translate(598.402106, 170.537321)"><g><path d="M 8.71875 -3.90625 L 3.046875 -3.90625 C 3.109375 -3.144531 3.328125 -2.585938 3.703125 -2.234375 C 4.078125 -1.890625 4.585938 -1.71875 5.234375 -1.71875 C 5.742188 -1.71875 6.15625 -1.8125 6.46875 -2 C 6.78125 -2.1875 7.035156 -2.472656 7.234375 -2.859375 L 7.390625 -2.859375 L 8.875 -1.90625 C 8.582031 -1.289062 8.144531 -0.789062 7.5625 -0.40625 C 6.976562 -0.0195312 6.203125 0.171875 5.234375 0.171875 C 4.316406 0.171875 3.523438 0 2.859375 -0.34375 C 2.203125 -0.695312 1.691406 -1.210938 1.328125 -1.890625 C 0.972656 -2.578125 0.796875 -3.414062 0.796875 -4.40625 C 0.796875 -5.414062 0.984375 -6.265625 1.359375 -6.953125 C 1.734375 -7.640625 2.242188 -8.148438 2.890625 -8.484375 C 3.535156 -8.828125 4.265625 -9 5.078125 -9 C 6.328125 -9 7.28125 -8.664062 7.9375 -8 C 8.601562 -7.34375 8.9375 -6.375 8.9375 -5.09375 C 8.9375 -4.625 8.921875 -4.265625 8.890625 -4.015625 Z M 6.8125 -5.34375 C 6.789062 -6.019531 6.632812 -6.507812 6.34375 -6.8125 C 6.0625 -7.125 5.640625 -7.28125 5.078125 -7.28125 C 3.953125 -7.28125 3.289062 -6.632812 3.09375 -5.34375 Z M 6.8125 -5.34375 "/></g></g></g><g fill="#000000" fill-opacity="1"><g transform="translate(607.993027, 170.537321)"><g><path d="M 1.265625 0 L 1.265625 -8.828125 L 3.421875 -8.828125 L 3.421875 -7.515625 L 3.59375 -7.484375 C 3.800781 -7.972656 4.078125 -8.332031 4.421875 -8.5625 C 4.773438 -8.789062 5.203125 -8.90625 5.703125 -8.90625 C 6.203125 -8.90625 6.582031 -8.820312 6.84375 -8.65625 L 6.46875 -6.734375 L 6.296875 -6.703125 C 6.148438 -6.765625 6.007812 -6.804688 5.875 -6.828125 C 5.75 -6.859375 5.585938 -6.875 5.390625 -6.875 C 4.773438 -6.875 4.300781 -6.65625 3.96875 -6.21875 C 3.644531 -5.78125 3.484375 -5.082031 3.484375 -4.125 L 3.484375 0 Z M 1.265625 0 "/></g></g></g><g fill="#000000" fill-opacity="1"><g transform="translate(614.912251, 170.537321)"><g/></g></g><g fill="#000000" fill-opacity="1"><g transform="translate(618.77582, 170.537321)"><g><path d="M 0.5625 -0.921875 C 0.5625 -1.566406 0.632812 -2.109375 0.78125 -2.546875 C 0.925781 -2.992188 1.15625 -3.398438 1.46875 -3.765625 C 1.789062 -4.140625 2.242188 -4.535156 2.828125 -4.953125 L 4.390625 -6.078125 C 4.816406 -6.378906 5.148438 -6.640625 5.390625 -6.859375 C 5.628906 -7.085938 5.804688 -7.328125 5.921875 -7.578125 C 6.046875 -7.828125 6.109375 -8.109375 6.109375 -8.421875 C 6.109375 -8.890625 5.960938 -9.253906 5.671875 -9.515625 C 5.378906 -9.773438 4.945312 -9.90625 4.375 -9.90625 C 3.820312 -9.90625 3.328125 -9.769531 2.890625 -9.5 C 2.460938 -9.238281 2.109375 -8.878906 1.828125 -8.421875 L 1.671875 -8.390625 L 0.40625 -9.8125 C 0.820312 -10.425781 1.363281 -10.921875 2.03125 -11.296875 C 2.695312 -11.679688 3.507812 -11.875 4.46875 -11.875 C 5.34375 -11.875 6.070312 -11.726562 6.65625 -11.4375 C 7.25 -11.144531 7.6875 -10.75 7.96875 -10.25 C 8.257812 -9.757812 8.40625 -9.191406 8.40625 -8.546875 C 8.40625 -7.984375 8.285156 -7.472656 8.046875 -7.015625 C 7.816406 -6.554688 7.492188 -6.128906 7.078125 -5.734375 C 6.671875 -5.347656 6.148438 -4.929688 5.515625 -4.484375 L 4.125 -3.515625 C 3.707031 -3.222656 3.414062 -2.957031 3.25 -2.71875 C 3.09375 -2.488281 3.015625 -2.226562 3.015625 -1.9375 L 8.296875 -1.9375 L 8.296875 0 L 0.5625 0 Z M 0.5625 -0.921875 "/></g></g></g><g clip-path="url(#6f7cbdd846)"><g clip-path="url(#c12ed10597)"><path fill="#7ed957" d="M 508.125 223.261719 L 652.5 223.261719 L 652.5 278.59375 L 508.125 278.59375 Z M 508.125 223.261719 " fill-opacity="1" fill-rule="nonzero"/></g></g><g clip-path="url(#e1623a11ad)"><g clip-path="url(#d479b39e85)"><path stroke-linecap="butt" transform="matrix(0.749434, 0, 0, 0.749434, 508.124154, 223.262014)" fill="none" stroke-linejoin="miter" d="M 8.001964 -0.0003939 L 184.687499 -0.0003939 C 186.808893 -0.0003939 188.841678 0.843994 190.342812 2.345128 C 191.843946 3.841049 192.683121 5.879047 192.683121 8.000441 L 192.683121 65.830578 C 192.683121 67.951972 191.843946 69.984758 190.342812 71.485892 C 188.841678 72.987025 186.808893 73.826201 184.687499 73.826201 L 8.001964 73.826201 C 5.88057 73.826201 3.842572 72.987025 2.341439 71.485892 C 0.840305 69.984758 0.00112923 67.951972 0.00112923 65.830578 L 0.00112923 8.000441 C 0.00112923 5.879047 0.840305 3.841049 2.341439 2.345128 C 3.842572 0.843994 5.88057 -0.0003939 8.001964 -0.0003939 Z M 8.001964 -0.0003939 " stroke="#000000" stroke-width="2" stroke-opacity="1" stroke-miterlimit="4"/></g></g><g fill="#000000" fill-opacity="1"><g transform="translate(532.456484, 256.237089)"><g><path d="M 6.390625 0.171875 C 5.316406 0.171875 4.367188 -0.0507812 3.546875 -0.5 C 2.722656 -0.945312 2.078125 -1.617188 1.609375 -2.515625 C 1.148438 -3.421875 0.921875 -4.53125 0.921875 -5.84375 C 0.921875 -7.164062 1.148438 -8.273438 1.609375 -9.171875 C 2.078125 -10.078125 2.722656 -10.753906 3.546875 -11.203125 C 4.367188 -11.648438 5.316406 -11.875 6.390625 -11.875 C 7.515625 -11.875 8.46875 -11.648438 9.25 -11.203125 C 10.039062 -10.765625 10.609375 -10.097656 10.953125 -9.203125 L 9.265625 -8.15625 L 9.0625 -8.171875 C 8.8125 -8.773438 8.46875 -9.207031 8.03125 -9.46875 C 7.601562 -9.738281 7.054688 -9.875 6.390625 -9.875 C 5.421875 -9.875 4.664062 -9.550781 4.125 -8.90625 C 3.582031 -8.269531 3.3125 -7.25 3.3125 -5.84375 C 3.3125 -4.457031 3.582031 -3.441406 4.125 -2.796875 C 4.664062 -2.148438 5.421875 -1.828125 6.390625 -1.828125 C 7.910156 -1.828125 8.84375 -2.566406 9.1875 -4.046875 L 9.390625 -4.046875 L 11.09375 -3.15625 C 10.769531 -2.050781 10.222656 -1.21875 9.453125 -0.65625 C 8.679688 -0.101562 7.660156 0.171875 6.390625 0.171875 Z M 6.390625 0.171875 "/></g></g></g><g fill="#000000" fill-opacity="1"><g transform="translate(543.927188, 256.237089)"><g><path d="M 5.125 0.171875 C 4.257812 0.171875 3.5 -0.00390625 2.84375 -0.359375 C 2.195312 -0.710938 1.691406 -1.234375 1.328125 -1.921875 C 0.972656 -2.609375 0.796875 -3.4375 0.796875 -4.40625 C 0.796875 -5.375 0.972656 -6.203125 1.328125 -6.890625 C 1.691406 -7.585938 2.195312 -8.113281 2.84375 -8.46875 C 3.5 -8.820312 4.257812 -9 5.125 -9 C 5.988281 -9 6.75 -8.820312 7.40625 -8.46875 C 8.0625 -8.113281 8.566406 -7.585938 8.921875 -6.890625 C 9.285156 -6.203125 9.46875 -5.375 9.46875 -4.40625 C 9.46875 -3.4375 9.285156 -2.609375 8.921875 -1.921875 C 8.566406 -1.234375 8.0625 -0.710938 7.40625 -0.359375 C 6.75 -0.00390625 5.988281 0.171875 5.125 0.171875 Z M 5.125 -1.71875 C 6.5 -1.71875 7.1875 -2.613281 7.1875 -4.40625 C 7.1875 -5.34375 7.007812 -6.023438 6.65625 -6.453125 C 6.300781 -6.890625 5.789062 -7.109375 5.125 -7.109375 C 3.757812 -7.109375 3.078125 -6.207031 3.078125 -4.40625 C 3.078125 -2.613281 3.757812 -1.71875 5.125 -1.71875 Z M 5.125 -1.71875 "/></g></g></g><g fill="#000000" fill-opacity="1"><g transform="translate(554.182028, 256.237089)"><g><path d="M 1.265625 0 L 1.265625 -8.828125 L 3.40625 -8.828125 L 3.40625 -7.53125 L 3.5625 -7.484375 C 4.113281 -8.492188 5.007812 -9 6.25 -9 C 7.257812 -9 8.003906 -8.71875 8.484375 -8.15625 C 8.960938 -7.601562 9.203125 -6.796875 9.203125 -5.734375 L 9.203125 0 L 6.984375 0 L 6.984375 -5.46875 C 6.984375 -6.050781 6.863281 -6.472656 6.625 -6.734375 C 6.394531 -6.992188 6.019531 -7.125 5.5 -7.125 C 4.863281 -7.125 4.367188 -6.914062 4.015625 -6.5 C 3.660156 -6.09375 3.484375 -5.445312 3.484375 -4.5625 L 3.484375 0 Z M 1.265625 0 "/></g></g></g><g fill="#000000" fill-opacity="1"><g transform="translate(564.51686, 256.237089)"><g><path d="M 4.125 0.171875 C 3.519531 0.171875 2.96875 0.101562 2.46875 -0.03125 C 1.96875 -0.175781 1.539062 -0.375 1.1875 -0.625 C 0.832031 -0.875 0.570312 -1.160156 0.40625 -1.484375 L 1.625 -2.8125 L 1.796875 -2.8125 C 2.085938 -2.414062 2.429688 -2.117188 2.828125 -1.921875 C 3.234375 -1.722656 3.671875 -1.625 4.140625 -1.625 C 4.578125 -1.625 4.90625 -1.703125 5.125 -1.859375 C 5.34375 -2.015625 5.453125 -2.234375 5.453125 -2.515625 C 5.453125 -2.742188 5.375 -2.929688 5.21875 -3.078125 C 5.0625 -3.234375 4.804688 -3.351562 4.453125 -3.4375 L 3.28125 -3.71875 C 2.40625 -3.925781 1.765625 -4.242188 1.359375 -4.671875 C 0.960938 -5.109375 0.765625 -5.65625 0.765625 -6.3125 C 0.765625 -6.863281 0.898438 -7.34375 1.171875 -7.75 C 1.453125 -8.15625 1.847656 -8.460938 2.359375 -8.671875 C 2.867188 -8.890625 3.460938 -9 4.140625 -9 C 4.941406 -9 5.601562 -8.882812 6.125 -8.65625 C 6.644531 -8.425781 7.050781 -8.117188 7.34375 -7.734375 L 6.15625 -6.453125 L 6 -6.453125 C 5.757812 -6.722656 5.484375 -6.921875 5.171875 -7.046875 C 4.867188 -7.179688 4.523438 -7.25 4.140625 -7.25 C 3.265625 -7.25 2.828125 -6.976562 2.828125 -6.4375 C 2.828125 -6.207031 2.910156 -6.019531 3.078125 -5.875 C 3.242188 -5.726562 3.53125 -5.609375 3.9375 -5.515625 L 5.03125 -5.28125 C 5.925781 -5.09375 6.578125 -4.785156 6.984375 -4.359375 C 7.398438 -3.929688 7.609375 -3.363281 7.609375 -2.65625 C 7.609375 -2.09375 7.46875 -1.597656 7.1875 -1.171875 C 6.914062 -0.742188 6.515625 -0.410156 5.984375 -0.171875 C 5.460938 0.0546875 4.84375 0.171875 4.125 0.171875 Z M 4.125 0.171875 "/></g></g></g><g fill="#000000" fill-opacity="1"><g transform="translate(572.651947, 256.237089)"><g><path d="M 4.046875 0.171875 C 3.046875 0.171875 2.3125 -0.0976562 1.84375 -0.640625 C 1.375 -1.179688 1.140625 -1.960938 1.140625 -2.984375 L 1.140625 -8.828125 L 3.359375 -8.828125 L 3.359375 -3.25 C 3.359375 -2.71875 3.472656 -2.328125 3.703125 -2.078125 C 3.929688 -1.828125 4.289062 -1.703125 4.78125 -1.703125 C 5.394531 -1.703125 5.867188 -1.898438 6.203125 -2.296875 C 6.546875 -2.703125 6.71875 -3.335938 6.71875 -4.203125 L 6.71875 -8.828125 L 8.9375 -8.828125 L 8.9375 0 L 6.8125 0 L 6.8125 -1.296875 L 6.640625 -1.34375 C 6.359375 -0.832031 6.015625 -0.453125 5.609375 -0.203125 C 5.203125 0.046875 4.679688 0.171875 4.046875 0.171875 Z M 4.046875 0.171875 "/></g></g></g><g fill="#000000" fill-opacity="1"><g transform="translate(582.858793, 256.237089)"><g><path d="M 1.265625 0 L 1.265625 -8.828125 L 3.40625 -8.828125 L 3.40625 -7.640625 L 3.5625 -7.609375 C 3.851562 -8.085938 4.191406 -8.4375 4.578125 -8.65625 C 4.960938 -8.882812 5.457031 -9 6.0625 -9 C 6.726562 -9 7.265625 -8.863281 7.671875 -8.59375 C 8.078125 -8.332031 8.375 -7.945312 8.5625 -7.4375 L 8.734375 -7.4375 C 9.003906 -7.96875 9.351562 -8.359375 9.78125 -8.609375 C 10.207031 -8.867188 10.742188 -9 11.390625 -9 C 13.222656 -9 14.140625 -7.976562 14.140625 -5.9375 L 14.140625 0 L 11.921875 0 L 11.921875 -5.65625 C 11.921875 -6.175781 11.816406 -6.550781 11.609375 -6.78125 C 11.410156 -7.007812 11.085938 -7.125 10.640625 -7.125 C 9.421875 -7.125 8.8125 -6.3125 8.8125 -4.6875 L 8.8125 0 L 6.59375 0 L 6.59375 -5.65625 C 6.59375 -6.175781 6.488281 -6.550781 6.28125 -6.78125 C 6.082031 -7.007812 5.757812 -7.125 5.3125 -7.125 C 4.738281 -7.125 4.289062 -6.929688 3.96875 -6.546875 C 3.644531 -6.171875 3.484375 -5.566406 3.484375 -4.734375 L 3.484375 0 Z M 1.265625 0 "/></g></g></g><g fill="#000000" fill-opacity="1"><g transform="translate(598.121068, 256.237089)"><g><path d="M 8.71875 -3.90625 L 3.046875 -3.90625 C 3.109375 -3.144531 3.328125 -2.585938 3.703125 -2.234375 C 4.078125 -1.890625 4.585938 -1.71875 5.234375 -1.71875 C 5.742188 -1.71875 6.15625 -1.8125 6.46875 -2 C 6.78125 -2.1875 7.035156 -2.472656 7.234375 -2.859375 L 7.390625 -2.859375 L 8.875 -1.90625 C 8.582031 -1.289062 8.144531 -0.789062 7.5625 -0.40625 C 6.976562 -0.0195312 6.203125 0.171875 5.234375 0.171875 C 4.316406 0.171875 3.523438 0 2.859375 -0.34375 C 2.203125 -0.695312 1.691406 -1.210938 1.328125 -1.890625 C 0.972656 -2.578125 0.796875 -3.414062 0.796875 -4.40625 C 0.796875 -5.414062 0.984375 -6.265625 1.359375 -6.953125 C 1.734375 -7.640625 2.242188 -8.148438 2.890625 -8.484375 C 3.535156 -8.828125 4.265625 -9 5.078125 -9 C 6.328125 -9 7.28125 -8.664062 7.9375 -8 C 8.601562 -7.34375 8.9375 -6.375 8.9375 -5.09375 C 8.9375 -4.625 8.921875 -4.265625 8.890625 -4.015625 Z M 6.8125 -5.34375 C 6.789062 -6.019531 6.632812 -6.507812 6.34375 -6.8125 C 6.0625 -7.125 5.640625 -7.28125 5.078125 -7.28125 C 3.953125 -7.28125 3.289062 -6.632812 3.09375 -5.34375 Z M 6.8125 -5.34375 "/></g></g></g><g fill="#000000" fill-opacity="1"><g transform="translate(607.71199, 256.237089)"><g><path d="M 1.265625 0 L 1.265625 -8.828125 L 3.421875 -8.828125 L 3.421875 -7.515625 L 3.59375 -7.484375 C 3.800781 -7.972656 4.078125 -8.332031 4.421875 -8.5625 C 4.773438 -8.789062 5.203125 -8.90625 5.703125 -8.90625 C 6.203125 -8.90625 6.582031 -8.820312 6.84375 -8.65625 L 6.46875 -6.734375 L 6.296875 -6.703125 C 6.148438 -6.765625 6.007812 -6.804688 5.875 -6.828125 C 5.75 -6.859375 5.585938 -6.875 5.390625 -6.875 C 4.773438 -6.875 4.300781 -6.65625 3.96875 -6.21875 C 3.644531 -5.78125 3.484375 -5.082031 3.484375 -4.125 L 3.484375 0 Z M 1.265625 0 "/></g></g></g><g fill="#000000" fill-opacity="1"><g transform="translate(614.631214, 256.237089)"><g/></g></g><g fill="#000000" fill-opacity="1"><g transform="translate(618.494783, 256.237089)"><g><path d="M 4.765625 0.171875 C 3.515625 0.171875 2.519531 -0.09375 1.78125 -0.625 C 1.050781 -1.15625 0.585938 -1.90625 0.390625 -2.875 L 2.140625 -3.703125 L 2.328125 -3.671875 C 2.515625 -3.023438 2.789062 -2.550781 3.15625 -2.25 C 3.53125 -1.957031 4.039062 -1.8125 4.6875 -1.8125 C 5.320312 -1.8125 5.800781 -1.957031 6.125 -2.25 C 6.457031 -2.539062 6.625 -2.96875 6.625 -3.53125 C 6.625 -4.082031 6.457031 -4.503906 6.125 -4.796875 C 5.800781 -5.085938 5.320312 -5.234375 4.6875 -5.234375 L 2.921875 -5.234375 L 2.921875 -7.03125 L 4.46875 -7.03125 C 4.988281 -7.03125 5.398438 -7.160156 5.703125 -7.421875 C 6.015625 -7.679688 6.171875 -8.054688 6.171875 -8.546875 C 6.171875 -9.023438 6.023438 -9.382812 5.734375 -9.625 C 5.453125 -9.875 5.050781 -10 4.53125 -10 C 4.007812 -10 3.546875 -9.875 3.140625 -9.625 C 2.742188 -9.382812 2.421875 -9.054688 2.171875 -8.640625 L 2 -8.609375 L 0.78125 -10.015625 C 1.1875 -10.578125 1.710938 -11.023438 2.359375 -11.359375 C 3.003906 -11.703125 3.773438 -11.875 4.671875 -11.875 C 5.890625 -11.875 6.820312 -11.613281 7.46875 -11.09375 C 8.113281 -10.582031 8.4375 -9.863281 8.4375 -8.9375 C 8.4375 -8.375 8.304688 -7.894531 8.046875 -7.5 C 7.785156 -7.101562 7.410156 -6.757812 6.921875 -6.46875 L 6.921875 -6.3125 C 8.273438 -5.832031 8.953125 -4.867188 8.953125 -3.421875 C 8.953125 -2.703125 8.796875 -2.070312 8.484375 -1.53125 C 8.171875 -0.988281 7.703125 -0.566406 7.078125 -0.265625 C 6.453125 0.0234375 5.679688 0.171875 4.765625 0.171875 Z M 4.765625 0.171875 "/></g></g></g><path fill="#545454" d="M 260.625 164.5 L 265.121094 164.5 L 265.121094 166 L 260.625 166 M 266.621094 164.5 L 271.117188 164.5 L 271.117188 166 L 266.621094 166 M 272.617188 164.5 L 277.113281 164.5 L 277.113281 165.996094 L 272.617188 166 M 278.613281 164.5 L 283.109375 164.5 L 283.109375 165.996094 L 278.613281 165.996094 M 284.609375 164.5 L 289.105469 164.496094 L 289.105469 165.996094 L 284.609375 165.996094 M 290.601562 164.496094 L 295.101562 164.496094 L 295.101562 165.996094 L 290.605469 165.996094 M 296.597656 164.496094 L 301.09375 164.496094 L 301.09375 165.996094 L 296.597656 165.996094 M 302.59375 164.496094 L 307.089844 164.496094 L 307.089844 165.996094 L 302.59375 165.996094 M 308.589844 164.496094 L 313.085938 164.496094 L 313.085938 165.996094 L 308.589844 165.996094 M 314.585938 164.496094 L 319.082031 164.496094 L 319.082031 165.992188 L 314.585938 165.996094 M 320.582031 164.496094 L 325.078125 164.496094 L 325.078125 165.992188 L 320.582031 165.992188 M 326.578125 164.496094 L 331.074219 164.492188 L 331.074219 165.992188 L 326.578125 165.992188 M 332.570312 164.492188 L 337.066406 164.492188 L 337.070312 165.992188 L 332.570312 165.992188 M 338.566406 164.492188 L 343.0625 164.492188 L 343.0625 165.992188 L 338.566406 165.992188 M 344.5625 164.492188 L 349.058594 164.492188 L 349.058594 165.992188 L 344.5625 165.992188 M 350.558594 164.492188 L 355.054688 164.492188 L 355.054688 165.992188 L 350.558594 165.992188 M 356.554688 164.492188 L 361.050781 164.492188 L 361.050781 165.992188 L 356.554688 165.992188 M 362.550781 164.492188 L 367.046875 164.492188 L 367.046875 165.988281 L 362.550781 165.988281 M 368.542969 164.492188 L 373.042969 164.492188 L 373.042969 165.988281 L 368.542969 165.988281 M 374.539062 164.488281 L 379.035156 164.488281 L 379.035156 165.988281 L 374.539062 165.988281 M 380.535156 164.488281 L 385.03125 164.488281 L 385.03125 165.988281 L 380.535156 165.988281 M 386.53125 164.488281 L 391.027344 164.488281 L 391.027344 165.988281 L 386.53125 165.988281 M 392.527344 164.488281 L 397.023438 164.488281 L 397.023438 165.988281 L 392.527344 165.988281 M 398.523438 164.488281 L 403.019531 164.488281 L 403.019531 165.988281 L 398.523438 165.988281 M 404.515625 164.488281 L 409.015625 164.488281 L 409.015625 165.984375 L 404.515625 165.984375 M 410.511719 164.488281 L 415.007812 164.488281 L 415.007812 165.984375 L 410.511719 165.984375 M 416.507812 164.484375 L 421.003906 164.484375 L 421.003906 165.984375 L 416.507812 165.984375 M 422.503906 164.484375 L 427 164.484375 L 427 165.984375 L 422.503906 165.984375 M 428.5 164.484375 L 432.996094 164.484375 L 432.996094 165.984375 L 428.5 165.984375 M 434.496094 164.484375 L 438.992188 164.484375 L 438.992188 165.984375 L 434.496094 165.984375 M 440.488281 164.484375 L 444.988281 164.484375 L 444.988281 165.984375 L 440.488281 165.984375 M 446.484375 164.484375 L 450.980469 164.484375 L 450.980469 165.980469 L 446.484375 165.980469 M 452.480469 164.484375 L 456.976562 164.484375 L 456.976562 165.980469 L 452.480469 165.980469 M 458.476562 164.484375 L 462.972656 164.480469 L 462.972656 165.980469 L 458.476562 165.980469 M 464.472656 164.480469 L 468.96875 164.480469 L 468.96875 165.980469 L 464.472656 165.980469 M 470.46875 164.480469 L 474.964844 164.480469 L 474.964844 165.980469 L 470.46875 165.980469 M 476.464844 164.480469 L 480.960938 164.480469 L 480.960938 165.980469 L 476.464844 165.980469 M 482.457031 164.480469 L 486.953125 164.480469 L 486.957031 165.980469 L 482.457031 165.980469 M 488.453125 164.480469 L 492.949219 164.480469 L 492.949219 165.976562 L 488.453125 165.980469 M 494.449219 164.480469 L 498.945312 164.480469 L 498.945312 165.976562 L 494.449219 165.976562 M 500.445312 164.480469 L 504.941406 164.476562 L 504.941406 165.976562 L 500.445312 165.976562 M 506.441406 164.476562 L 508.125 164.476562 L 508.125 165.976562 L 506.441406 165.976562 " fill-opacity="1" fill-rule="nonzero"/><path stroke-linecap="round" transform="matrix(0.749434, -0.0000687594, 0.0000687594, 0.749434, 259.876615, 164.500662)" fill="none" stroke-linejoin="round" d="M 5.001808 -2.001936 L 0.998509 0.999964 L 5.001257 4.002599 " stroke="#545454" stroke-width="2" stroke-opacity="1" stroke-miterlimit="4"/><path fill="#545454" d="M 260.828125 164.789062 L 265.078125 166.253906 L 264.589844 167.671875 L 260.339844 166.203125 M 266.496094 166.742188 L 270.746094 168.210938 L 270.257812 169.628906 L 266.007812 168.160156 M 272.164062 168.699219 L 276.414062 170.167969 L 275.925781 171.582031 L 271.675781 170.117188 M 277.832031 170.65625 L 282.082031 172.121094 L 281.59375 173.539062 L 277.34375 172.074219 M 283.5 172.613281 L 287.75 174.078125 L 287.261719 175.496094 L 283.011719 174.027344 M 289.167969 174.566406 L 293.417969 176.035156 L 292.929688 177.453125 L 288.675781 175.984375 M 294.832031 176.523438 L 299.085938 177.992188 L 298.59375 179.40625 L 294.34375 177.941406 M 300.5 178.480469 L 304.75 179.945312 L 304.261719 181.363281 L 300.011719 179.894531 M 306.167969 180.4375 L 310.417969 181.902344 L 309.929688 183.320312 L 305.679688 181.851562 M 311.835938 182.390625 L 316.085938 183.859375 L 315.597656 185.277344 L 311.347656 183.808594 M 317.503906 184.347656 L 321.753906 185.816406 L 321.265625 187.230469 L 317.015625 185.765625 M 323.171875 186.304688 L 327.421875 187.769531 L 326.933594 189.1875 L 322.683594 187.71875 M 328.839844 188.257812 L 333.089844 189.726562 L 332.601562 191.144531 L 328.347656 189.675781 M 334.507812 190.214844 L 338.757812 191.683594 L 338.265625 193.097656 L 334.015625 191.632812 M 340.171875 192.171875 L 344.425781 193.636719 L 343.933594 195.054688 L 339.683594 193.589844 M 345.839844 194.128906 L 350.089844 195.59375 L 349.601562 197.011719 L 345.351562 195.542969 M 351.507812 196.082031 L 355.757812 197.550781 L 355.269531 198.96875 L 351.019531 197.5 M 357.175781 198.039062 L 361.425781 199.507812 L 360.9375 200.921875 L 356.6875 199.457031 M 362.84375 199.996094 L 367.09375 201.460938 L 366.605469 202.878906 L 362.355469 201.414062 M 368.511719 201.953125 L 372.761719 203.417969 L 372.273438 204.835938 L 368.019531 203.367188 M 374.179688 203.90625 L 378.429688 205.375 L 377.941406 206.792969 L 373.6875 205.324219 M 379.84375 205.863281 L 384.097656 207.332031 L 383.605469 208.746094 L 379.355469 207.28125 M 385.511719 207.820312 L 389.761719 209.285156 L 389.273438 210.703125 L 385.023438 209.238281 M 391.179688 209.777344 L 395.429688 211.242188 L 394.941406 212.660156 L 390.691406 211.191406 M 396.847656 211.730469 L 401.097656 213.199219 L 400.609375 214.617188 L 396.359375 213.148438 M 402.515625 213.6875 L 406.765625 215.15625 L 406.277344 216.570312 L 402.027344 215.105469 M 408.183594 215.644531 L 412.433594 217.109375 L 411.945312 218.527344 L 407.695312 217.058594 M 413.851562 217.597656 L 418.101562 219.066406 L 417.613281 220.484375 L 413.359375 219.015625 M 419.515625 219.554688 L 423.769531 221.023438 L 423.277344 222.4375 L 419.027344 220.972656 M 425.183594 221.511719 L 429.433594 222.976562 L 428.945312 224.394531 L 424.695312 222.929688 M 430.851562 223.46875 L 435.101562 224.933594 L 434.613281 226.351562 L 430.363281 224.882812 M 436.519531 225.421875 L 440.769531 226.890625 L 440.28125 228.308594 L 436.03125 226.839844 M 442.1875 227.378906 L 446.4375 228.847656 L 445.949219 230.261719 L 441.699219 228.796875 M 447.855469 229.335938 L 452.105469 230.800781 L 451.617188 232.21875 L 447.367188 230.753906 M 453.523438 231.292969 L 457.773438 232.757812 L 457.285156 234.175781 L 453.03125 232.707031 M 459.1875 233.246094 L 463.441406 234.714844 L 462.949219 236.132812 L 458.699219 234.664062 M 464.855469 235.203125 L 469.105469 236.671875 L 468.617188 238.085938 L 464.367188 236.621094 M 470.523438 237.160156 L 474.773438 238.625 L 474.285156 240.042969 L 470.035156 238.578125 M 476.191406 239.117188 L 480.441406 240.582031 L 479.953125 242 L 475.703125 240.53125 M 481.859375 241.070312 L 486.109375 242.539062 L 485.621094 243.957031 L 481.371094 242.488281 M 487.527344 243.027344 L 491.777344 244.496094 L 491.289062 245.910156 L 487.039062 244.445312 M 493.195312 244.984375 L 497.445312 246.449219 L 496.957031 247.867188 L 492.703125 246.398438 M 498.859375 246.9375 L 503.113281 248.40625 L 502.621094 249.824219 L 498.371094 248.355469 M 504.527344 248.894531 L 508.367188 250.21875 L 507.878906 251.636719 L 504.039062 250.3125 " fill-opacity="1" fill-rule="nonzero"/><path stroke-linecap="round" transform="matrix(0.708428, 0.244499, -0.244499, 0.708428, 260.120914, 164.543184)" fill="none" stroke-linejoin="round" d="M 4.999858 -2.001596 L 1.001372 0.999501 L 4.997394 3.998449 " stroke="#545454" stroke-width="2" stroke-opacity="1" stroke-miterlimit="4"/><g clip-path="url(#bc09ba4e08)"><path fill="#a6a6a6" d="M 371.503906 137.5625 C 370.96875 137.5625 370.4375 137.589844 369.90625 137.640625 C 369.375 137.691406 368.847656 137.769531 368.324219 137.875 C 367.800781 137.980469 367.285156 138.109375 366.773438 138.265625 C 366.261719 138.417969 365.761719 138.597656 365.265625 138.804688 C 364.773438 139.007812 364.292969 139.234375 363.820312 139.488281 C 363.351562 139.738281 362.890625 140.011719 362.449219 140.308594 C 362.003906 140.605469 361.578125 140.921875 361.164062 141.261719 C 360.75 141.601562 360.355469 141.957031 359.976562 142.335938 C 359.601562 142.714844 359.242188 143.109375 358.902344 143.523438 C 358.566406 143.933594 358.246094 144.363281 357.953125 144.804688 C 357.65625 145.25 357.378906 145.707031 357.128906 146.179688 C 356.878906 146.648438 356.648438 147.132812 356.445312 147.625 C 356.242188 148.117188 356.0625 148.621094 355.90625 149.128906 C 355.75 149.640625 355.621094 150.160156 355.515625 150.683594 C 355.414062 151.207031 355.335938 151.734375 355.28125 152.265625 C 355.230469 152.796875 355.203125 153.328125 355.203125 153.863281 C 355.203125 154.394531 355.230469 154.929688 355.28125 155.460938 C 355.335938 155.992188 355.414062 156.519531 355.515625 157.042969 C 355.621094 157.566406 355.75 158.082031 355.90625 158.59375 C 356.0625 159.105469 356.242188 159.605469 356.445312 160.101562 C 356.648438 160.59375 356.878906 161.074219 357.128906 161.546875 C 357.378906 162.015625 357.65625 162.472656 357.953125 162.917969 C 358.246094 163.363281 358.566406 163.789062 358.902344 164.203125 C 359.242188 164.617188 359.601562 165.011719 359.976562 165.386719 C 360.355469 165.765625 360.75 166.125 361.164062 166.460938 C 361.578125 166.800781 362.003906 167.117188 362.449219 167.414062 C 362.890625 167.710938 363.351562 167.984375 363.820312 168.238281 C 364.292969 168.488281 364.773438 168.71875 365.265625 168.921875 C 365.761719 169.125 366.261719 169.304688 366.773438 169.460938 C 367.285156 169.617188 367.800781 169.746094 368.324219 169.847656 C 368.847656 169.953125 369.375 170.03125 369.90625 170.085938 C 370.4375 170.136719 370.96875 170.164062 371.503906 170.164062 C 372.039062 170.164062 372.570312 170.136719 373.101562 170.085938 C 373.632812 170.03125 374.160156 169.953125 374.683594 169.847656 C 375.207031 169.746094 375.726562 169.617188 376.234375 169.460938 C 376.746094 169.304688 377.25 169.125 377.742188 168.921875 C 378.234375 168.71875 378.71875 168.488281 379.1875 168.238281 C 379.660156 167.984375 380.117188 167.710938 380.558594 167.414062 C 381.003906 167.117188 381.433594 166.800781 381.84375 166.460938 C 382.257812 166.125 382.652344 165.765625 383.03125 165.386719 C 383.40625 165.011719 383.765625 164.617188 384.105469 164.203125 C 384.441406 163.789062 384.761719 163.363281 385.058594 162.917969 C 385.355469 162.472656 385.628906 162.015625 385.878906 161.546875 C 386.132812 161.074219 386.359375 160.59375 386.5625 160.101562 C 386.769531 159.605469 386.949219 159.105469 387.101562 158.59375 C 387.257812 158.082031 387.386719 157.566406 387.492188 157.042969 C 387.59375 156.519531 387.671875 155.992188 387.726562 155.460938 C 387.777344 154.929688 387.804688 154.394531 387.804688 153.863281 C 387.804688 153.328125 387.777344 152.796875 387.726562 152.265625 C 387.671875 151.734375 387.59375 151.207031 387.492188 150.683594 C 387.386719 150.160156 387.257812 149.640625 387.101562 149.132812 C 386.945312 148.621094 386.769531 148.117188 386.5625 147.625 C 386.359375 147.132812 386.132812 146.648438 385.878906 146.179688 C 385.628906 145.707031 385.351562 145.25 385.058594 144.808594 C 384.761719 144.363281 384.441406 143.933594 384.105469 143.523438 C 383.765625 143.109375 383.40625 142.714844 383.03125 142.335938 C 382.652344 141.960938 382.257812 141.601562 381.84375 141.261719 C 381.433594 140.925781 381.003906 140.605469 380.558594 140.308594 C 380.117188 140.011719 379.660156 139.738281 379.1875 139.488281 C 378.71875 139.234375 378.234375 139.007812 377.742188 138.804688 C 377.25 138.597656 376.746094 138.417969 376.234375 138.265625 C 375.726562 138.109375 375.207031 137.980469 374.683594 137.875 C 374.160156 137.773438 373.632812 137.691406 373.101562 137.640625 C 372.570312 137.589844 372.039062 137.5625 371.503906 137.5625 Z M 363.996094 145.820312 L 379.011719 145.820312 C 379.332031 145.820312 379.644531 145.875 379.945312 145.984375 C 380.246094 146.097656 380.515625 146.257812 380.757812 146.464844 C 381.003906 146.675781 381.203125 146.921875 381.355469 147.199219 C 381.511719 147.480469 381.613281 147.78125 381.660156 148.097656 C 381.449219 148.214844 373.195312 152.972656 372.652344 153.28125 C 372.296875 153.484375 371.914062 153.582031 371.503906 153.582031 C 371.097656 153.582031 370.714844 153.484375 370.359375 153.28125 C 369.824219 152.976562 361.550781 148.265625 361.347656 148.136719 C 361.390625 147.816406 361.488281 147.511719 361.640625 147.226562 C 361.792969 146.941406 361.992188 146.695312 362.238281 146.480469 C 362.480469 146.265625 362.753906 146.105469 363.054688 145.988281 C 363.359375 145.875 363.671875 145.820312 363.996094 145.820312 Z M 381.691406 159.226562 C 381.691406 159.582031 381.625 159.921875 381.488281 160.25 C 381.351562 160.578125 381.15625 160.867188 380.90625 161.121094 C 380.65625 161.371094 380.367188 161.566406 380.039062 161.699219 C 379.710938 161.835938 379.367188 161.90625 379.011719 161.90625 L 363.996094 161.90625 C 363.640625 161.90625 363.300781 161.835938 362.972656 161.699219 C 362.644531 161.566406 362.355469 161.371094 362.101562 161.121094 C 361.851562 160.867188 361.65625 160.578125 361.523438 160.25 C 361.386719 159.921875 361.316406 159.582031 361.316406 159.226562 L 361.316406 149.355469 L 369.832031 154.214844 C 370.351562 154.507812 370.910156 154.65625 371.507812 154.65625 C 372.105469 154.65625 372.660156 154.507812 373.179688 154.214844 L 381.691406 149.3125 Z M 381.691406 159.226562 " fill-opacity="1" fill-rule="nonzero"/></g><g clip-path="url(#87be4062aa)"><path fill="#a6a6a6" d="M 371.503906 175.804688 C 370.96875 175.804688 370.4375 175.832031 369.90625 175.882812 C 369.375 175.9375 368.847656 176.015625 368.324219 176.121094 C 367.800781 176.222656 367.285156 176.351562 366.773438 176.507812 C 366.261719 176.664062 365.761719 176.84375 365.265625 177.046875 C 364.773438 177.25 364.292969 177.480469 363.820312 177.730469 C 363.351562 177.984375 362.890625 178.257812 362.449219 178.554688 C 362.003906 178.851562 361.578125 179.167969 361.164062 179.507812 C 360.75 179.84375 360.355469 180.203125 359.976562 180.582031 C 359.601562 180.957031 359.242188 181.351562 358.902344 181.765625 C 358.566406 182.179688 358.246094 182.605469 357.953125 183.050781 C 357.65625 183.496094 357.378906 183.953125 357.128906 184.421875 C 356.878906 184.894531 356.648438 185.375 356.445312 185.867188 C 356.242188 186.363281 356.0625 186.863281 355.90625 187.375 C 355.75 187.886719 355.621094 188.402344 355.515625 188.925781 C 355.414062 189.449219 355.335938 189.976562 355.28125 190.507812 C 355.230469 191.039062 355.203125 191.574219 355.203125 192.105469 C 355.203125 192.640625 355.230469 193.171875 355.28125 193.703125 C 355.335938 194.234375 355.414062 194.761719 355.515625 195.285156 C 355.621094 195.808594 355.75 196.328125 355.90625 196.839844 C 356.0625 197.347656 356.242188 197.851562 356.445312 198.34375 C 356.648438 198.835938 356.878906 199.320312 357.128906 199.789062 C 357.378906 200.261719 357.65625 200.71875 357.953125 201.164062 C 358.246094 201.605469 358.566406 202.035156 358.902344 202.445312 C 359.242188 202.859375 359.601562 203.253906 359.976562 203.632812 C 360.355469 204.007812 360.75 204.367188 361.164062 204.707031 C 361.578125 205.046875 362.003906 205.363281 362.449219 205.660156 C 362.890625 205.957031 363.351562 206.230469 363.820312 206.480469 C 364.292969 206.734375 364.773438 206.960938 365.265625 207.164062 C 365.761719 207.371094 366.261719 207.550781 366.773438 207.703125 C 367.285156 207.859375 367.800781 207.988281 368.324219 208.09375 C 368.847656 208.199219 369.375 208.277344 369.90625 208.328125 C 370.4375 208.378906 370.96875 208.40625 371.503906 208.40625 C 372.039062 208.40625 372.570312 208.378906 373.101562 208.328125 C 373.632812 208.277344 374.160156 208.199219 374.683594 208.09375 C 375.207031 207.988281 375.726562 207.859375 376.234375 207.703125 C 376.746094 207.550781 377.25 207.371094 377.742188 207.164062 C 378.234375 206.960938 378.71875 206.734375 379.1875 206.480469 C 379.660156 206.230469 380.117188 205.957031 380.558594 205.660156 C 381.003906 205.363281 381.433594 205.046875 381.84375 204.707031 C 382.257812 204.367188 382.652344 204.007812 383.03125 203.632812 C 383.40625 203.253906 383.765625 202.859375 384.105469 202.445312 C 384.441406 202.035156 384.761719 201.605469 385.058594 201.164062 C 385.355469 200.71875 385.628906 200.261719 385.878906 199.789062 C 386.132812 199.320312 386.359375 198.835938 386.5625 198.34375 C 386.769531 197.851562 386.949219 197.347656 387.101562 196.839844 C 387.257812 196.328125 387.386719 195.808594 387.492188 195.285156 C 387.59375 194.761719 387.671875 194.234375 387.726562 193.703125 C 387.777344 193.171875 387.804688 192.640625 387.804688 192.105469 C 387.804688 191.574219 387.777344 191.039062 387.726562 190.507812 C 387.671875 189.976562 387.59375 189.449219 387.492188 188.925781 C 387.386719 188.402344 387.257812 187.886719 387.101562 187.375 C 386.945312 186.863281 386.769531 186.363281 386.5625 185.867188 C 386.359375 185.375 386.132812 184.894531 385.878906 184.421875 C 385.628906 183.953125 385.351562 183.496094 385.058594 183.050781 C 384.761719 182.605469 384.441406 182.179688 384.105469 181.765625 C 383.765625 181.351562 383.40625 180.957031 383.03125 180.582031 C 382.652344 180.203125 382.257812 179.84375 381.84375 179.507812 C 381.433594 179.167969 381.003906 178.851562 380.558594 178.554688 C 380.117188 178.257812 379.660156 177.984375 379.1875 177.730469 C 378.71875 177.480469 378.234375 177.25 377.742188 177.046875 C 377.25 176.84375 376.746094 176.664062 376.234375 176.507812 C 375.726562 176.351562 375.207031 176.222656 374.683594 176.121094 C 374.160156 176.015625 373.632812 175.9375 373.101562 175.886719 C 372.570312 175.832031 372.039062 175.804688 371.503906 175.804688 Z M 363.996094 184.0625 L 379.011719 184.0625 C 379.332031 184.0625 379.644531 184.117188 379.945312 184.230469 C 380.246094 184.339844 380.515625 184.5 380.757812 184.710938 C 381.003906 184.917969 381.203125 185.164062 381.355469 185.445312 C 381.511719 185.726562 381.613281 186.023438 381.660156 186.339844 C 381.449219 186.457031 373.195312 191.214844 372.652344 191.527344 C 372.296875 191.726562 371.914062 191.828125 371.503906 191.828125 C 371.097656 191.828125 370.714844 191.726562 370.359375 191.527344 C 369.824219 191.21875 361.550781 186.507812 361.347656 186.378906 C 361.390625 186.058594 361.488281 185.757812 361.640625 185.472656 C 361.792969 185.1875 361.992188 184.9375 362.238281 184.722656 C 362.480469 184.511719 362.753906 184.347656 363.054688 184.234375 C 363.359375 184.121094 363.671875 184.0625 363.996094 184.0625 Z M 381.691406 197.46875 C 381.691406 197.824219 381.625 198.167969 381.488281 198.496094 C 381.351562 198.824219 381.15625 199.113281 380.90625 199.363281 C 380.65625 199.613281 380.367188 199.808594 380.039062 199.945312 C 379.710938 200.082031 379.367188 200.148438 379.011719 200.148438 L 363.996094 200.148438 C 363.640625 200.148438 363.300781 200.082031 362.972656 199.945312 C 362.644531 199.808594 362.355469 199.613281 362.101562 199.363281 C 361.851562 199.113281 361.65625 198.824219 361.523438 198.496094 C 361.386719 198.167969 361.316406 197.824219 361.316406 197.46875 L 361.316406 187.597656 L 369.832031 192.457031 C 370.351562 192.753906 370.910156 192.902344 371.507812 192.902344 C 372.105469 192.902344 372.660156 192.753906 373.179688 192.457031 L 381.691406 187.558594 Z M 381.691406 197.46875 " fill-opacity="1" fill-rule="nonzero"/></g><g fill="#000000" fill-opacity="1"><g transform="translate(316.248594, 259.800732)"><g><path d="M 7.796875 0.203125 C 6.484375 0.203125 5.320312 -0.0664062 4.3125 -0.609375 C 3.3125 -1.160156 2.53125 -1.984375 1.96875 -3.078125 C 1.40625 -4.171875 1.125 -5.523438 1.125 -7.140625 C 1.125 -8.742188 1.40625 -10.09375 1.96875 -11.1875 C 2.53125 -12.28125 3.3125 -13.097656 4.3125 -13.640625 C 5.320312 -14.191406 6.484375 -14.46875 7.796875 -14.46875 C 9.171875 -14.46875 10.335938 -14.195312 11.296875 -13.65625 C 12.253906 -13.125 12.9375 -12.3125 13.34375 -11.21875 L 11.296875 -9.953125 L 11.046875 -9.96875 C 10.742188 -10.707031 10.328125 -11.238281 9.796875 -11.5625 C 9.273438 -11.882812 8.609375 -12.046875 7.796875 -12.046875 C 6.609375 -12.046875 5.679688 -11.648438 5.015625 -10.859375 C 4.359375 -10.078125 4.03125 -8.835938 4.03125 -7.140625 C 4.03125 -5.441406 4.359375 -4.195312 5.015625 -3.40625 C 5.679688 -2.625 6.609375 -2.234375 7.796875 -2.234375 C 9.648438 -2.234375 10.785156 -3.132812 11.203125 -4.9375 L 11.453125 -4.9375 L 13.53125 -3.859375 C 13.132812 -2.503906 12.460938 -1.488281 11.515625 -0.8125 C 10.578125 -0.132812 9.335938 0.203125 7.796875 0.203125 Z M 7.796875 0.203125 "/></g></g></g><g fill="#000000" fill-opacity="1"><g transform="translate(330.236456, 259.800732)"><g><path d="M 6.25 0.203125 C 5.195312 0.203125 4.269531 -0.0078125 3.46875 -0.4375 C 2.675781 -0.875 2.0625 -1.507812 1.625 -2.34375 C 1.1875 -3.175781 0.96875 -4.1875 0.96875 -5.375 C 0.96875 -6.5625 1.1875 -7.570312 1.625 -8.40625 C 2.0625 -9.25 2.675781 -9.882812 3.46875 -10.3125 C 4.269531 -10.75 5.195312 -10.96875 6.25 -10.96875 C 7.300781 -10.96875 8.222656 -10.75 9.015625 -10.3125 C 9.816406 -9.882812 10.4375 -9.25 10.875 -8.40625 C 11.320312 -7.570312 11.546875 -6.5625 11.546875 -5.375 C 11.546875 -4.1875 11.320312 -3.175781 10.875 -2.34375 C 10.4375 -1.507812 9.816406 -0.875 9.015625 -0.4375 C 8.222656 -0.0078125 7.300781 0.203125 6.25 0.203125 Z M 6.25 -2.09375 C 7.925781 -2.09375 8.765625 -3.1875 8.765625 -5.375 C 8.765625 -6.507812 8.546875 -7.34375 8.109375 -7.875 C 7.679688 -8.40625 7.0625 -8.671875 6.25 -8.671875 C 4.582031 -8.671875 3.75 -7.570312 3.75 -5.375 C 3.75 -3.1875 4.582031 -2.09375 6.25 -2.09375 Z M 6.25 -2.09375 "/></g></g></g><g fill="#000000" fill-opacity="1"><g transform="translate(342.741645, 259.800732)"><g><path d="M 1.546875 0 L 1.546875 -10.765625 L 4.140625 -10.765625 L 4.140625 -9.1875 L 4.359375 -9.140625 C 5.023438 -10.359375 6.109375 -10.96875 7.609375 -10.96875 C 8.847656 -10.96875 9.757812 -10.628906 10.34375 -9.953125 C 10.925781 -9.273438 11.21875 -8.289062 11.21875 -7 L 11.21875 0 L 8.515625 0 L 8.515625 -6.671875 C 8.515625 -7.378906 8.367188 -7.890625 8.078125 -8.203125 C 7.796875 -8.523438 7.34375 -8.6875 6.71875 -8.6875 C 5.9375 -8.6875 5.328125 -8.4375 4.890625 -7.9375 C 4.460938 -7.4375 4.25 -6.648438 4.25 -5.578125 L 4.25 0 Z M 1.546875 0 "/></g></g></g><g fill="#000000" fill-opacity="1"><g transform="translate(355.344377, 259.800732)"><g><path d="M 1.890625 0 L 1.890625 -8.625 L 0.359375 -8.625 L 0.359375 -10.765625 L 1.890625 -10.765625 C 1.773438 -11.222656 1.71875 -11.648438 1.71875 -12.046875 C 1.71875 -12.734375 1.875 -13.316406 2.1875 -13.796875 C 2.5 -14.285156 2.945312 -14.65625 3.53125 -14.90625 C 4.113281 -15.164062 4.8125 -15.296875 5.625 -15.296875 C 6.8125 -15.296875 7.695312 -15.085938 8.28125 -14.671875 L 7.65625 -12.6875 L 7.453125 -12.640625 C 7.046875 -12.929688 6.523438 -13.078125 5.890625 -13.078125 C 5.398438 -13.078125 5.035156 -12.957031 4.796875 -12.71875 C 4.554688 -12.476562 4.4375 -12.15625 4.4375 -11.75 C 4.4375 -11.570312 4.445312 -11.410156 4.46875 -11.265625 C 4.488281 -11.117188 4.53125 -10.953125 4.59375 -10.765625 L 7.65625 -10.765625 L 7.65625 -8.625 L 4.59375 -8.625 L 4.59375 0 Z M 1.890625 0 "/></g></g></g><g fill="#000000" fill-opacity="1"><g transform="translate(363.108909, 259.800732)"><g><path d="M 6.25 0.203125 C 5.195312 0.203125 4.269531 -0.0078125 3.46875 -0.4375 C 2.675781 -0.875 2.0625 -1.507812 1.625 -2.34375 C 1.1875 -3.175781 0.96875 -4.1875 0.96875 -5.375 C 0.96875 -6.5625 1.1875 -7.570312 1.625 -8.40625 C 2.0625 -9.25 2.675781 -9.882812 3.46875 -10.3125 C 4.269531 -10.75 5.195312 -10.96875 6.25 -10.96875 C 7.300781 -10.96875 8.222656 -10.75 9.015625 -10.3125 C 9.816406 -9.882812 10.4375 -9.25 10.875 -8.40625 C 11.320312 -7.570312 11.546875 -6.5625 11.546875 -5.375 C 11.546875 -4.1875 11.320312 -3.175781 10.875 -2.34375 C 10.4375 -1.507812 9.816406 -0.875 9.015625 -0.4375 C 8.222656 -0.0078125 7.300781 0.203125 6.25 0.203125 Z M 6.25 -2.09375 C 7.925781 -2.09375 8.765625 -3.1875 8.765625 -5.375 C 8.765625 -6.507812 8.546875 -7.34375 8.109375 -7.875 C 7.679688 -8.40625 7.0625 -8.671875 6.25 -8.671875 C 4.582031 -8.671875 3.75 -7.570312 3.75 -5.375 C 3.75 -3.1875 4.582031 -2.09375 6.25 -2.09375 Z M 6.25 -2.09375 "/></g></g></g><g fill="#000000" fill-opacity="1"><g transform="translate(375.614098, 259.800732)"><g><path d="M 1.546875 0 L 1.546875 -10.765625 L 4.171875 -10.765625 L 4.171875 -9.15625 L 4.375 -9.125 C 4.632812 -9.71875 4.976562 -10.15625 5.40625 -10.4375 C 5.832031 -10.71875 6.347656 -10.859375 6.953125 -10.859375 C 7.554688 -10.859375 8.019531 -10.753906 8.34375 -10.546875 L 7.890625 -8.21875 L 7.671875 -8.171875 C 7.503906 -8.242188 7.335938 -8.296875 7.171875 -8.328125 C 7.003906 -8.359375 6.804688 -8.375 6.578125 -8.375 C 5.816406 -8.375 5.238281 -8.109375 4.84375 -7.578125 C 4.445312 -7.054688 4.25 -6.207031 4.25 -5.03125 L 4.25 0 Z M 1.546875 0 "/></g></g></g><g fill="#000000" fill-opacity="1"><g transform="translate(384.051686, 259.800732)"><g><path d="M 1.546875 0 L 1.546875 -10.765625 L 4.140625 -10.765625 L 4.140625 -9.3125 L 4.359375 -9.28125 C 4.703125 -9.851562 5.109375 -10.273438 5.578125 -10.546875 C 6.054688 -10.828125 6.660156 -10.96875 7.390625 -10.96875 C 8.203125 -10.96875 8.851562 -10.804688 9.34375 -10.484375 C 9.84375 -10.160156 10.207031 -9.691406 10.4375 -9.078125 L 10.640625 -9.078125 C 10.972656 -9.722656 11.398438 -10.195312 11.921875 -10.5 C 12.453125 -10.8125 13.109375 -10.96875 13.890625 -10.96875 C 16.117188 -10.96875 17.234375 -9.722656 17.234375 -7.234375 L 17.234375 0 L 14.53125 0 L 14.53125 -6.90625 C 14.53125 -7.53125 14.40625 -7.984375 14.15625 -8.265625 C 13.90625 -8.546875 13.507812 -8.6875 12.96875 -8.6875 C 11.488281 -8.6875 10.75 -7.691406 10.75 -5.703125 L 10.75 0 L 8.046875 0 L 8.046875 -6.90625 C 8.046875 -7.53125 7.921875 -7.984375 7.671875 -8.265625 C 7.421875 -8.546875 7.019531 -8.6875 6.46875 -8.6875 C 5.769531 -8.6875 5.222656 -8.453125 4.828125 -7.984375 C 4.441406 -7.523438 4.25 -6.785156 4.25 -5.765625 L 4.25 0 Z M 1.546875 0 "/></g></g></g><g fill="#000000" fill-opacity="1"><g transform="translate(402.663152, 259.800732)"><g><path d="M 2.890625 -12.046875 C 2.410156 -12.046875 2.015625 -12.191406 1.703125 -12.484375 C 1.398438 -12.785156 1.25 -13.171875 1.25 -13.640625 C 1.25 -14.097656 1.398438 -14.472656 1.703125 -14.765625 C 2.015625 -15.066406 2.410156 -15.21875 2.890625 -15.21875 C 3.222656 -15.21875 3.515625 -15.148438 3.765625 -15.015625 C 4.015625 -14.878906 4.207031 -14.691406 4.34375 -14.453125 C 4.488281 -14.210938 4.5625 -13.941406 4.5625 -13.640625 C 4.5625 -13.335938 4.488281 -13.066406 4.34375 -12.828125 C 4.207031 -12.585938 4.015625 -12.394531 3.765625 -12.25 C 3.515625 -12.113281 3.222656 -12.046875 2.890625 -12.046875 Z M 1.546875 0 L 1.546875 -10.765625 L 4.25 -10.765625 L 4.25 0 Z M 1.546875 0 "/></g></g></g><g fill="#000000" fill-opacity="1"><g transform="translate(408.457288, 259.800732)"><g><path d="M 5.03125 0.203125 C 4.300781 0.203125 3.628906 0.117188 3.015625 -0.046875 C 2.398438 -0.222656 1.875 -0.460938 1.4375 -0.765625 C 1.007812 -1.066406 0.691406 -1.414062 0.484375 -1.8125 L 1.984375 -3.421875 L 2.203125 -3.421875 C 2.554688 -2.941406 2.976562 -2.582031 3.46875 -2.34375 C 3.957031 -2.101562 4.484375 -1.984375 5.046875 -1.984375 C 5.578125 -1.984375 5.972656 -2.078125 6.234375 -2.265625 C 6.503906 -2.453125 6.640625 -2.722656 6.640625 -3.078125 C 6.640625 -3.347656 6.539062 -3.578125 6.34375 -3.765625 C 6.15625 -3.953125 5.847656 -4.097656 5.421875 -4.203125 L 4 -4.53125 C 2.9375 -4.789062 2.15625 -5.179688 1.65625 -5.703125 C 1.164062 -6.222656 0.921875 -6.890625 0.921875 -7.703125 C 0.921875 -8.367188 1.09375 -8.945312 1.4375 -9.4375 C 1.78125 -9.9375 2.257812 -10.316406 2.875 -10.578125 C 3.5 -10.835938 4.222656 -10.96875 5.046875 -10.96875 C 6.023438 -10.96875 6.832031 -10.828125 7.46875 -10.546875 C 8.101562 -10.265625 8.597656 -9.890625 8.953125 -9.421875 L 7.515625 -7.859375 L 7.3125 -7.859375 C 7.019531 -8.203125 6.6875 -8.453125 6.3125 -8.609375 C 5.9375 -8.765625 5.515625 -8.84375 5.046875 -8.84375 C 3.984375 -8.84375 3.453125 -8.507812 3.453125 -7.84375 C 3.453125 -7.5625 3.550781 -7.332031 3.75 -7.15625 C 3.945312 -6.988281 4.296875 -6.847656 4.796875 -6.734375 L 6.125 -6.4375 C 7.21875 -6.207031 8.015625 -5.832031 8.515625 -5.3125 C 9.023438 -4.789062 9.28125 -4.097656 9.28125 -3.234375 C 9.28125 -2.546875 9.109375 -1.941406 8.765625 -1.421875 C 8.429688 -0.898438 7.945312 -0.5 7.3125 -0.21875 C 6.675781 0.0625 5.914062 0.203125 5.03125 0.203125 Z M 5.03125 0.203125 "/></g></g></g><g fill="#000000" fill-opacity="1"><g transform="translate(418.37755, 259.800732)"><g><path d="M 7.421875 -2.5625 L 8.125 -0.5625 C 7.832031 -0.320312 7.460938 -0.132812 7.015625 0 C 6.578125 0.132812 6.078125 0.203125 5.515625 0.203125 C 4.359375 0.203125 3.476562 -0.113281 2.875 -0.75 C 2.269531 -1.382812 1.96875 -2.304688 1.96875 -3.515625 L 1.96875 -8.625 L 0.328125 -8.625 L 0.328125 -10.765625 L 1.96875 -10.765625 L 1.96875 -12.875 L 4.671875 -13.3125 L 4.671875 -10.765625 L 7.71875 -10.765625 L 7.71875 -8.625 L 4.671875 -8.625 L 4.671875 -3.703125 C 4.671875 -3.171875 4.78125 -2.78125 5 -2.53125 C 5.21875 -2.289062 5.539062 -2.171875 5.96875 -2.171875 C 6.445312 -2.171875 6.863281 -2.300781 7.21875 -2.5625 Z M 7.421875 -2.5625 "/></g></g></g><path fill="#545454" d="M 370.753906 240.8125 L 370.753906 239.3125 L 372.25 239.3125 L 372.25 240.8125 M 370.753906 237.8125 L 370.753906 236.316406 L 372.25 236.316406 L 372.25 237.8125 M 370.753906 234.816406 L 370.753906 233.316406 L 372.25 233.316406 L 372.25 234.816406 M 370.753906 231.820312 L 370.753906 230.320312 L 372.25 230.320312 L 372.25 231.820312 M 370.753906 228.820312 L 370.753906 227.320312 L 372.25 227.320312 L 372.25 228.820312 M 370.753906 225.824219 L 370.753906 224.324219 L 372.25 224.324219 L 372.25 225.824219 M 370.753906 222.824219 L 370.753906 221.328125 L 372.25 221.328125 L 372.25 222.824219 M 370.753906 219.828125 L 370.753906 218.328125 L 372.25 218.328125 L 372.25 219.828125 M 370.753906 216.828125 L 370.753906 215.332031 L 372.25 215.332031 L 372.25 216.828125 M 370.753906 213.832031 L 370.753906 212.332031 L 372.25 212.332031 L 372.25 213.832031 M 370.753906 210.835938 L 370.753906 209.335938 L 372.25 209.335938 L 372.25 210.835938 " fill-opacity="1" fill-rule="nonzero"/><path stroke-linecap="round" transform="matrix(0, -0.749434, 0.749434, 0, 370.751991, 240.811741)" fill="none" stroke-linejoin="round" d="M 38.241414 -1.998956 L 42.244437 0.9981 L 38.241414 4.000367 " stroke="#545454" stroke-width="2" stroke-opacity="1" stroke-miterlimit="4"/></svg>